<svg xmlns="http://www.w3.org/2000/svg" viewBox="0 0 1000 1000" width="1000" height="1000"><path fill="#2c1b36" fill-rule="evenodd" d="M743,763 L742,757 L739,751 L734,746 L727,742 L718,738 L709,735 L689,733 L668,736 L652,742 L645,747 L640,752 L637,758 L636,763 L638,770 L641,776 L646,781 L653,785 L661,789 L671,791 L691,793 L711,791 L721,788 L729,784 L735,779 L740,774 L742,769Z M359,763 L357,757 L354,751 L349,746 L342,742 L334,738 L324,735 L304,733 L283,736 L274,739 L266,743 L260,747 L255,753 L252,758 L252,763 L253,770 L256,776 L261,781 L268,785 L277,789 L286,791 L306,793 L327,791 L336,788 L344,784 L350,779 L355,774 L358,769Z"/><path fill="#2c1b36" fill-rule="evenodd" d="M190,426 L186,429 L186,435 L284,666 L445,763 L764,752 L871,635 L930,511 L929,507 L926,505 L852,478 L907,442 L910,439 L910,436 L908,433 L905,431 L834,421 L878,375 L880,371 L879,368 L877,366 L873,365 L801,368 L831,316 L831,312 L829,308 L826,307 L823,307 L753,324 L767,266 L766,262 L761,259 L758,260 L694,291 L690,231 L688,227 L685,225 L682,226 L680,227 L626,269 L604,211 L603,209 L600,208 L596,208 L594,210 L554,262 L516,209 L511,207 L508,207 L505,210 L482,268 L430,225 L426,223 L422,224 L419,228 L414,288 L351,256 L348,255 L345,256 L342,259 L342,263 L354,321 L284,302 L280,302 L276,306 L276,311 L305,364 L232,359 L228,361 L226,363 L226,366 L227,370 L270,416Z M837,486 L767,473 L763,470 L762,464 L765,460 L770,459 L839,472 L843,475 L845,480 L842,485Z M805,403 L735,410 L729,408 L727,403 L729,398 L733,395 L803,388 L808,390 L811,394 L810,400Z M737,334 L675,362 L670,361 L666,357 L666,352 L669,348 L730,321 L735,321 L739,325 L740,330Z M641,291 L598,334 L593,336 L588,333 L586,329 L588,324 L631,281 L635,280 L640,281 L643,286Z M533,280 L515,332 L511,336 L505,335 L501,332 L501,327 L519,275 L523,271 L528,271 L532,275Z M427,300 L436,354 L434,359 L429,362 L424,361 L421,357 L412,303 L414,298 L418,295 L424,296Z M338,351 L374,399 L374,405 L371,409 L366,410 L361,408 L327,360 L326,354 L329,350 L334,349Z"/><path fill="#e8c97a" fill-rule="evenodd" stroke="#2c1b36" stroke-width="22" stroke-linejoin="round" paint-order="stroke" d="M91,603 L91,609 L93,615 L95,621 L103,631 L115,642 L219,716 L238,728 L258,739 L277,748 L286,751 L303,754 L320,755 L337,754 L354,751 L370,746 L377,742 L390,733 L396,727 L406,713 L410,704 L414,694 L421,672 L426,647 L430,621 L432,596 L433,560 L433,538 L431,516 L427,493 L423,472 L417,452 L410,435 L401,421 L391,411 L379,403 L366,397 L351,394 L344,393 L328,394 L313,397 L297,404 L281,415 L264,429 L246,446 L188,507 L171,521 L127,557 L112,571 L100,584 L96,591 L93,597Z"/><path fill="#2c1b36" fill-rule="evenodd" d="M134,603 L134,597 L132,591 L129,585 L125,580 L120,576 L114,573 L108,572 L102,571 L96,572 L90,573 L84,576 L79,580 L75,585 L72,591 L71,597 L70,603 L71,609 L72,615 L75,621 L79,626 L84,630 L90,633 L96,635 L102,635 L108,635 L114,633 L120,630 L125,626 L129,621 L132,615 L134,609Z"/><path fill="#2c1b36" fill-rule="evenodd" d="M297,528 L295,519 L290,512 L282,507 L273,505 L264,507 L256,512 L251,519 L250,528 L251,537 L256,545 L264,550 L273,552 L282,550 L290,545 L295,537Z"/></svg>