<svg xmlns="http://www.w3.org/2000/svg" viewBox="0 0 1000 1000" width="1000" height="1000"><path fill="#8b2f3c" fill-rule="evenodd" d="M542,851 L551,851 L575,850 L604,846 L636,838 L668,829 L699,816 L727,801 L740,793 L763,773 L785,750 L805,724 L824,696 L841,667 L856,636 L868,606 L877,575 L883,542 L888,508 L890,457 L890,423 L885,373 L876,325 L868,292 L852,244 L839,214 L825,187 L809,164 L792,143 L771,124 L748,108 L736,100 L713,88 L690,78 L668,72 L658,71 L639,71 L629,72 L610,78 L591,87 L566,104 L547,123 L537,135 L530,149 L523,174 L521,199 L523,215 L527,228 L530,234 L534,238 L539,242 L553,246 L605,255 L621,260 L628,264 L641,274 L652,287 L662,301 L671,317 L679,335 L689,364 L695,396 L697,435 L697,463 L696,492 L693,520 L688,547 L681,571 L677,582 L672,593 L661,614 L647,633 L632,652 L610,677 L581,706 L558,723 L512,750 L501,759 L497,764 L495,769 L493,782 L494,796 L497,811 L504,825 L513,837 L519,842 L526,846 L533,849Z"/><path fill="#8b2f3c" fill-rule="evenodd" stroke="#ffffff" stroke-width="16" stroke-linejoin="round" paint-order="stroke" d="M383,260 L384,255 L384,251 L354,170 L352,166 L348,164 L343,164 L339,165 L335,167 L333,171 L312,232 L292,231 L275,232 L258,234 L238,240 L223,247 L208,255 L194,264 L180,277 L168,292 L160,305 L152,322 L148,339 L136,348 L127,359 L123,372 L122,380 L123,387 L126,395 L129,402 L135,410 L142,415 L149,420 L156,423 L165,425 L173,426 L183,435 L192,443 L203,450 L217,457 L236,464 L259,468 L282,469 L306,467 L291,485 L275,507 L264,527 L252,553 L243,581 L237,604 L232,633 L230,662 L231,690 L234,718 L241,745 L249,770 L261,794 L274,815 L290,833 L311,851 L300,858 L293,867 L291,872 L291,876 L293,881 L296,885 L301,891 L307,895 L327,905 L353,912 L384,918 L416,920 L451,920 L486,918 L515,913 L542,906 L562,898 L575,889 L580,883 L582,878 L582,871 L579,864 L573,857 L564,851 L552,845 L537,840 L503,833 L519,818 L529,806 L539,793 L552,775 L568,745 L575,729 L583,707 L587,690 L592,667 L596,632 L597,598 L595,581 L592,559 L586,537 L582,522 L574,503 L566,489 L556,472 L547,460 L534,446 L523,437 L512,429 L497,420 L484,414 L468,409 L454,406 L437,405 L419,406 L403,408 L413,392 L421,372 L424,352 L424,332 L420,314 L413,296 L406,285 L399,276Z"/><path fill="#e8c97a" fill-rule="evenodd" stroke="#2c1b36" stroke-width="22" stroke-linejoin="round" paint-order="stroke" d="M276,571 L275,560 L272,548 L268,538 L262,529 L254,521 L246,515 L237,512 L227,511 L218,512 L209,515 L200,521 L193,529 L187,538 L182,548 L179,560 L178,571 L179,583 L182,595 L187,605 L193,614 L200,622 L209,627 L218,631 L227,632 L237,631 L246,627 L254,622 L262,614 L268,605 L272,595 L275,583Z"/><path fill="#2c1b36" fill-rule="evenodd" d="M285,519 L284,513 L281,508 L276,503 L268,499 L260,496 L250,493 L227,491 L205,493 L195,496 L186,499 L179,503 L173,508 L170,513 L169,519 L170,524 L173,530 L179,534 L186,539 L195,542 L205,545 L227,547 L250,545 L260,542 L268,539 L276,534 L281,530 L284,524Z"/><path fill="#8b2f3c" fill-rule="evenodd" d="M245,539 L238,548 L235,558 L236,565 L240,575 L246,581 L255,585 L265,586 L275,583 L365,506 L369,500 L370,492 L370,484 L367,477 L360,469 L351,464 L341,463 L331,466Z"/><path fill="#ffffff" fill-rule="evenodd" d="M285,333 L284,324 L279,316 L271,311 L262,309 L253,311 L246,316 L241,324 L239,333 L241,342 L246,349 L253,354 L262,356 L271,354 L279,349 L284,342Z"/><path fill="#2c1b36" fill-rule="evenodd" d="M147,373 L145,366 L141,360 L135,356 L128,355 L121,356 L115,360 L111,366 L110,373 L111,381 L115,387 L121,391 L128,392 L135,391 L141,387 L145,381Z"/></svg>