<svg xmlns="http://www.w3.org/2000/svg" viewBox="0 0 2688 3456"><path fill="#000" fill-rule="evenodd" d="M99.8,3454.4C49.9,3446.7 9.1,3405.5 1.5,3355.3C-0.8,3340.4 -0.8,115.6 1.5,100.7C9.1,50.0 50.0,9.1 100.7,1.5C115.6,-0.8 2572.4,-0.8 2587.3,1.5C2638.0,9.1 2678.9,50.0 2686.5,100.7C2688.8,115.6 2688.8,3340.4 2686.5,3355.3C2678.9,3406.0 2638.0,3446.9 2587.3,3454.5C2573.1,3456.6 113.5,3456.6 99.8,3454.4ZM2592.5,3427.2C2625.6,3417.9 2650.0,3393.5 2659.2,3360.5L2661.5,3352.5L2661.8,3247.9L2662.1,3143.3L2649.8,3141.6C2643.0,3140.7 2636.2,3140.0 2634.5,3140.0C2632.8,3140.0 2627.7,3139.3 2623.0,3138.5C2618.3,3137.7 2610.4,3136.3 2605.5,3135.4C2600.6,3134.5 2594.2,3133.2 2591.5,3132.5C2588.8,3131.7 2583.3,3130.4 2579.5,3129.5C2571.9,3127.7 2564.1,3125.6 2557.0,3123.5C2554.5,3122.8 2549.6,3121.5 2546.0,3120.5C2542.4,3119.6 2537.7,3118.2 2535.5,3117.6C2529.4,3115.6 2522.1,3113.4 2515.5,3111.4C2512.2,3110.5 2506.1,3108.5 2502.0,3107.2C2497.9,3105.8 2493.2,3104.3 2491.5,3103.9C2488.2,3103.0 2474.3,3098.1 2469.5,3096.1C2467.8,3095.4 2465.0,3094.2 2463.2,3093.4C2461.5,3092.6 2458.5,3091.4 2456.8,3090.6C2449.2,3087.4 2445.4,3085.6 2443.6,3084.7C2442.5,3084.2 2440.5,3083.4 2439.1,3083.0C2437.7,3082.5 2430.4,3079.6 2423.0,3076.6C2415.6,3073.5 2409.0,3071.0 2408.3,3071.0C2407.6,3071.0 2405.6,3070.4 2403.8,3069.6C2402.0,3068.8 2395.8,3066.8 2390.0,3065.1C2384.2,3063.3 2378.2,3061.6 2376.5,3061.1C2369.5,3059.0 2346.6,3053.9 2334.0,3051.6C2329.3,3050.8 2321.2,3049.3 2316.0,3048.3C2302.7,3045.8 2230.3,3045.8 2207.5,3048.4C2174.8,3052.0 2163.0,3054.0 2127.0,3062.1C2121.8,3063.2 2115.5,3064.6 2113.1,3065.1C2110.6,3065.6 2107.2,3066.4 2105.6,3066.9C2100.4,3068.4 2087.1,3072.0 2074.5,3075.3C2071.2,3076.2 2064.3,3078.0 2059.2,3079.5C2045.9,3083.2 2027.6,3087.6 2013.0,3090.5C2008.3,3091.4 2001.6,3092.8 1998.0,3093.5C1992.0,3094.7 1987.8,3095.4 1963.5,3099.4C1955.2,3100.8 1940.5,3102.2 1908.0,3105.0C1890.8,3106.4 1863.2,3106.2 1840.5,3104.6C1819.2,3103.0 1812.0,3102.0 1779.0,3096.4C1759.9,3093.1 1715.1,3082.6 1700.2,3077.9C1693.7,3075.9 1688.7,3074.3 1678.0,3071.0C1672.2,3069.3 1666.4,3067.4 1665.0,3066.8C1657.8,3063.9 1620.2,3052.0 1607.0,3048.5C1603.4,3047.5 1598.5,3046.2 1596.0,3045.5C1579.7,3040.9 1566.2,3038.1 1559.0,3037.8L1553.5,3037.5L1553.3,3063.0C1553.1,3077.0 1552.4,3124.3 1551.5,3168.0C1550.7,3211.7 1549.8,3266.0 1549.6,3288.6L1549.2,3329.7L1569.8,3330.3C1590.2,3330.8 1596.3,3331.6 1616.0,3336.1C1631.8,3339.7 1638.4,3341.8 1648.6,3346.5C1651.9,3348.0 1657.2,3350.4 1660.5,3351.8C1663.8,3353.3 1672.1,3357.2 1679.0,3360.6C1697.8,3369.8 1714.6,3376.0 1720.7,3376.0C1729.0,3376.0 1738.1,3387.0 1735.0,3393.2C1730.9,3401.1 1727.9,3402.1 1716.0,3399.1C1701.3,3395.5 1699.9,3394.9 1660.0,3375.7C1624.5,3358.6 1600.0,3352.6 1567.0,3352.7C1531.6,3352.9 1505.1,3359.9 1470.0,3378.2C1454.2,3386.5 1454.2,3386.5 1457.7,3387.8C1459.2,3388.4 1463.0,3389.8 1466.0,3391.0C1479.1,3396.0 1494.0,3400.0 1499.8,3400.0C1509.6,3400.0 1514.5,3404.4 1514.5,3413.2C1514.5,3426.3 1506.0,3427.7 1477.0,3419.7C1459.2,3414.7 1437.0,3404.8 1426.0,3396.9C1419.1,3392.0 1402.9,3384.0 1392.8,3380.6C1352.3,3366.7 1317.4,3365.5 1270.0,3376.6C1264.3,3377.9 1250.0,3382.8 1246.5,3384.7C1245.4,3385.3 1242.9,3386.5 1241.0,3387.3C1239.1,3388.2 1234.5,3390.3 1230.7,3391.9C1227.0,3393.6 1223.6,3395.0 1223.0,3395.0C1222.5,3395.0 1220.6,3395.6 1218.8,3396.4C1217.0,3397.2 1211.5,3399.5 1206.5,3401.5C1201.5,3403.6 1195.2,3406.2 1192.5,3407.5C1186.5,3410.2 1182.1,3411.9 1167.2,3417.4C1151.8,3423.2 1138.7,3424.2 1134.5,3419.9C1127.6,3413.1 1131.1,3404.7 1142.2,3401.5C1161.9,3395.9 1197.5,3382.1 1199.8,3379.2C1201.2,3377.5 1201.1,3370.4 1199.4,3330.6L1198.8,3316.7L1180.1,3317.3C1148.4,3318.2 1126.6,3322.1 1100.1,3331.5C1095.6,3333.1 1090.8,3335.2 1076.5,3342.0C1068.9,3345.6 1062.6,3348.2 1053.5,3351.7C1049.2,3353.4 1043.6,3355.8 1040.7,3357.2C1039.8,3357.6 1035.7,3359.1 1031.7,3360.5C1027.8,3361.8 1022.5,3363.6 1020.0,3364.5C1011.6,3367.6 1003.4,3365.2 999.9,3358.8C997.4,3354.2 1003.9,3343.1 1009.0,3343.0C1012.0,3343.0 1022.5,3339.2 1047.5,3329.4C1058.3,3325.2 1062.4,3323.4 1076.5,3316.9C1113.4,3300.0 1145.1,3293.1 1185.7,3293.0C1193.1,3293.0 1198.1,3292.6 1198.5,3292.0C1198.9,3291.4 1198.7,3259.3 1198.0,3220.7C1197.4,3182.1 1196.8,3124.5 1196.7,3092.8C1196.6,3042.1 1196.4,3035.0 1195.1,3035.0C1194.3,3035.0 1191.1,3035.6 1188.1,3036.4C1185.0,3037.2 1179.6,3038.5 1176.0,3039.3C1163.5,3042.2 1155.5,3044.1 1150.0,3045.5C1147.0,3046.3 1138.7,3048.3 1131.5,3050.0C1124.3,3051.7 1116.2,3053.7 1113.5,3054.5C1110.8,3055.3 1103.3,3057.3 1097.0,3059.1C1081.9,3063.3 1066.5,3067.8 1061.5,3069.4C1059.3,3070.1 1050.8,3072.9 1042.5,3075.5C1034.2,3078.1 1017.4,3083.6 1005.0,3087.6C981.6,3095.2 971.8,3098.4 954.0,3104.0C948.2,3105.8 941.9,3107.8 940.0,3108.5C938.1,3109.2 934.0,3110.5 931.0,3111.4C928.0,3112.3 921.0,3114.4 915.5,3116.0C906.0,3118.9 902.6,3119.9 890.0,3123.5C887.0,3124.4 882.5,3125.7 880.0,3126.4C853.6,3134.2 825.1,3141.7 812.0,3144.3C745.0,3157.8 676.8,3163.3 626.5,3159.2C590.4,3156.3 553.7,3151.2 521.0,3144.5C517.4,3143.8 510.7,3142.4 506.0,3141.5C496.7,3139.7 492.0,3138.6 472.5,3134.0C450.5,3128.8 431.6,3124.5 413.0,3120.5C408.9,3119.6 402.8,3118.3 399.5,3117.5C396.2,3116.7 390.1,3115.4 386.0,3114.4C381.9,3113.5 376.0,3112.2 373.0,3111.5C360.2,3108.4 341.8,3104.7 314.0,3099.5C234.4,3084.5 156.3,3085.0 96.0,3100.7C90.8,3102.1 85.2,3103.6 83.5,3104.0C80.4,3104.8 71.9,3107.2 64.0,3109.5C54.2,3112.4 39.5,3117.5 28.7,3121.9L25.9,3123.0L26.2,3237.7L26.5,3352.5L28.8,3360.5C38.8,3396.2 66.8,3422.1 102.3,3428.5C108.2,3429.6 335.2,3429.8 1347.0,3429.7L2584.5,3429.5L2592.5,3427.2ZM1445.6,3365.7C1471.2,3349.0 1494.5,3339.0 1520.5,3333.4L1524.5,3332.5L1524.7,3302.5C1524.9,3271.1 1527.4,3133.8 1529.1,3061.0C1529.6,3037.6 1530.5,2981.2 1531.0,2935.5C1531.4,2889.8 1532.1,2840.3 1532.4,2825.5C1532.7,2810.7 1533.2,2772.8 1533.5,2741.5C1533.8,2710.2 1534.2,2674.2 1534.5,2661.5C1535.9,2583.9 1537.1,2502.2 1538.0,2423.0C1538.6,2373.2 1539.8,2296.3 1540.5,2252.0C1541.3,2207.7 1542.2,2150.1 1542.5,2124.0C1542.8,2097.9 1543.5,2063.5 1544.1,2047.7C1544.8,2031.9 1545.0,2018.7 1544.6,2018.3C1544.3,2018.0 1539.2,2018.5 1533.3,2019.4C1527.3,2020.4 1518.5,2021.8 1513.5,2022.5C1490.7,2026.0 1482.8,2027.2 1474.0,2028.6C1442.4,2033.7 1431.1,2035.7 1422.0,2037.5C1415.4,2038.9 1402.3,2041.1 1389.2,2043.1L1382.0,2044.2L1381.8,2267.3C1381.8,2390.1 1381.8,2491.2 1381.9,2492.0C1382.0,2492.8 1381.6,2502.3 1381.0,2513.0C1380.4,2525.2 1379.8,2685.3 1379.5,2942.1L1379.0,3351.7L1385.3,3353.5C1388.7,3354.5 1394.9,3356.6 1399.0,3358.3C1406.3,3361.2 1409.9,3362.8 1424.5,3369.6C1428.3,3371.4 1432.2,3372.9 1433.0,3372.9C1433.8,3373.0 1439.5,3369.7 1445.6,3365.7ZM1250.2,3358.6C1263.9,3354.1 1279.0,3350.5 1292.5,3348.3C1304.4,3346.5 1337.8,3345.8 1350.2,3347.3L1356.9,3348.0L1357.0,2950.5C1357.0,2712.6 1357.4,2540.6 1358.0,2522.2C1358.9,2494.5 1359.7,2050.3 1358.8,2049.5C1358.6,2049.3 1352.3,2048.7 1344.8,2048.1C1337.3,2047.5 1329.2,2046.6 1326.8,2046.1C1322.6,2045.2 1313.0,2043.8 1289.0,2040.5C1267.2,2037.5 1250.0,2034.9 1230.5,2031.4C1226.1,2030.7 1219.3,2029.7 1215.3,2029.4L1208.1,2028.7L1208.6,2059.6C1208.8,2076.6 1209.3,2093.7 1209.6,2097.5C1209.8,2101.3 1210.5,2141.4 1211.0,2186.5C1211.4,2231.6 1212.3,2291.9 1212.9,2320.5C1214.6,2400.6 1216.0,2510.3 1217.0,2647.5C1217.6,2716.2 1218.4,2796.0 1219.0,2824.8C1219.5,2853.5 1220.0,2900.5 1220.1,2929.3C1220.1,2958.0 1220.5,3003.6 1221.0,3030.5C1221.5,3057.4 1222.2,3123.2 1222.5,3176.5C1222.8,3229.8 1223.5,3290.8 1224.0,3312.0C1224.6,3333.2 1225.0,3354.6 1225.0,3359.7L1225.0,3368.9L1232.4,3365.4C1236.5,3363.5 1244.5,3360.5 1250.2,3358.6ZM694.6,3136.0C718.1,3135.1 724.3,3134.6 748.0,3131.4C790.0,3125.7 831.8,3117.3 867.0,3107.3C870.0,3106.4 874.5,3105.2 877.0,3104.5C885.3,3102.2 928.0,3088.9 949.0,3082.0C953.7,3080.5 970.3,3075.1 986.0,3070.0C1001.7,3064.9 1022.4,3058.2 1032.0,3055.0C1052.0,3048.5 1064.1,3044.7 1072.0,3042.5C1075.0,3041.6 1078.8,3040.5 1080.5,3040.1C1082.2,3039.6 1088.7,3037.8 1095.0,3036.2C1108.7,3032.6 1114.9,3030.9 1125.5,3028.0C1129.9,3026.8 1134.8,3025.4 1136.5,3025.0C1138.2,3024.6 1143.1,3023.2 1147.5,3022.0C1151.9,3020.8 1157.1,3019.4 1159.0,3019.0C1160.9,3018.6 1164.3,3017.8 1166.5,3017.2C1170.8,3016.0 1181.3,3013.7 1190.0,3012.0L1195.5,3011.0L1195.3,2953.7C1195.2,2922.3 1194.6,2867.2 1194.0,2831.5C1193.4,2795.8 1192.4,2719.2 1191.8,2661.5C1191.3,2603.8 1190.4,2539.2 1190.0,2518.0C1189.6,2496.8 1189.2,2449.3 1189.1,2412.5C1189.0,2375.7 1188.6,2332.0 1188.0,2315.5C1187.5,2299.0 1186.8,2248.2 1186.5,2202.5C1186.2,2156.8 1185.5,2106.7 1184.9,2091.0C1184.4,2075.3 1184.0,2053.9 1184.0,2043.4L1184.0,2024.3L1170.2,2022.6C1162.7,2021.7 1150.9,2020.2 1144.0,2019.4C1137.1,2018.6 1127.7,2017.2 1123.0,2016.4C1091.1,2010.8 1084.2,2009.7 1049.5,2004.6C1044.0,2003.8 1034.3,2002.4 1028.0,2001.5C1021.7,2000.7 1012.2,1999.3 1007.0,1998.5C1001.8,1997.7 991.6,1996.4 984.5,1995.5C941.3,1990.3 910.4,1986.0 877.0,1980.5C865.3,1978.6 837.4,1975.1 813.1,1972.5C795.7,1970.6 783.0,1964.7 777.6,1956.1C773.0,1948.8 772.9,1947.1 772.0,1870.5C771.5,1830.3 770.6,1780.6 770.1,1760.0C769.5,1739.4 769.1,1702.7 769.0,1678.5C769.0,1654.3 768.5,1621.9 768.0,1606.5C767.5,1591.1 766.6,1544.3 766.0,1502.5C765.2,1442.4 764.2,1409.5 763.0,1402.4C762.8,1400.9 749.4,1400.4 697.5,1400.0L635.5,1399.5L630.0,1396.7C620.7,1391.9 609.7,1379.7 606.1,1370.0C599.2,1351.4 599.4,1342.5 607.0,1323.0C611.6,1311.3 611.6,1312.7 606.6,1307.7C588.7,1289.7 589.6,1256.7 609.5,1201.1C613.8,1189.3 626.2,1164.8 640.9,1139.5C643.4,1135.1 646.0,1130.6 646.7,1129.5C647.4,1128.4 648.3,1126.6 648.9,1125.5C649.4,1124.4 651.0,1121.8 652.4,1119.7C653.8,1117.6 655.0,1115.7 655.0,1115.5C655.0,1115.2 657.1,1112.0 659.6,1108.3C662.2,1104.5 671.0,1091.7 679.2,1079.8C695.8,1055.5 711.1,1034.6 723.9,1019.1C728.6,1013.4 737.0,1003.3 742.5,996.6C751.5,985.7 804.1,932.7 821.4,917.1C841.4,899.1 860.7,884.2 889.6,864.4C898.1,858.6 914.6,848.3 918.0,846.7C918.8,846.3 922.4,844.3 926.0,842.4C938.2,835.6 968.5,820.4 976.0,817.3C980.1,815.6 987.1,812.8 991.5,811.0C995.9,809.3 1001.0,807.2 1002.8,806.4C1004.6,805.6 1006.7,805.0 1007.5,805.0C1011.1,805.0 1008.5,803.3 1002.2,801.6C994.7,799.4 967.9,790.8 964.0,789.2C962.6,788.7 959.5,787.4 957.0,786.4C942.1,780.3 917.1,762.3 901.5,746.4C890.4,735.0 882.7,729.2 860.9,715.9C809.2,684.3 783.6,660.2 783.5,643.3C783.5,637.3 783.7,636.9 787.8,632.7C795.3,625.1 795.7,625.0 843.0,625.0C865.8,625.0 885.0,624.6 885.7,624.2C889.6,621.7 904.0,580.7 904.0,572.0C904.0,559.5 912.0,530.4 921.0,510.5C922.0,508.3 924.0,503.8 925.5,500.5C945.3,455.9 985.3,421.7 1034.0,407.7C1050.8,402.8 1088.2,403.2 1105.5,408.4C1126.3,414.6 1146.8,425.8 1160.9,438.7C1164.5,441.9 1172.8,451.2 1179.3,459.5L1191.3,474.5L1200.9,479.3C1206.2,482.0 1212.5,485.4 1215.0,486.8C1217.5,488.3 1222.6,491.1 1226.3,493.0C1235.5,497.7 1242.4,505.0 1241.6,509.1C1240.4,515.0 1232.1,523.0 1221.0,528.9C1213.6,532.8 1213.5,532.9 1216.6,539.0C1218.1,542.0 1219.7,545.8 1220.1,547.4C1220.5,549.1 1222.0,554.5 1223.3,559.5C1228.2,577.4 1229.4,587.2 1229.3,608.5C1229.3,628.6 1229.2,629.9 1224.4,654.0C1216.8,691.9 1204.8,715.1 1174.8,749.7C1170.0,755.3 1166.0,760.1 1166.0,760.3C1166.0,760.9 1170.9,760.4 1185.0,758.5C1222.7,753.3 1260.5,750.9 1296.0,751.6C1311.1,751.9 1325.0,752.3 1326.8,752.5C1331.3,753.0 1330.9,752.1 1322.7,742.2C1297.6,712.5 1281.7,677.7 1274.8,637.5C1271.7,620.1 1271.8,580.1 1274.9,562.0C1277.2,548.0 1278.8,541.7 1281.9,534.7C1284.4,528.8 1284.9,529.7 1275.4,523.0C1259.2,511.6 1255.6,505.8 1260.6,499.3C1264.0,494.9 1270.1,491.1 1292.6,479.5C1305.7,472.8 1309.6,469.8 1315.3,462.1C1342.5,425.3 1384.4,403.0 1426.5,403.0C1445.6,403.0 1463.7,405.9 1474.5,410.5C1479.1,412.5 1492.1,419.1 1495.5,421.2C1497.2,422.2 1499.2,423.3 1500.0,423.7C1510.0,428.3 1542.2,461.0 1552.1,476.6C1555.2,481.3 1560.8,492.9 1562.1,497.0C1562.5,498.4 1563.8,502.0 1565.0,505.0C1566.2,508.0 1567.5,511.9 1568.0,513.5C1568.4,515.1 1569.2,517.6 1569.8,519.0C1570.3,520.4 1571.6,525.3 1572.5,530.0C1576.9,551.8 1577.2,552.6 1589.4,571.0C1594.3,578.4 1600.0,588.1 1602.1,592.5C1606.0,600.9 1613.0,620.4 1613.0,623.1C1613.0,625.4 1624.1,626.0 1663.7,626.0C1698.9,626.0 1700.4,626.2 1706.4,631.8C1717.0,641.8 1717.7,647.8 1709.5,658.6C1700.2,670.7 1657.0,709.2 1648.0,713.3C1647.2,713.7 1645.2,714.9 1643.5,715.9C1641.8,717.0 1634.0,721.1 1626.1,725.2C1611.9,732.4 1611.4,732.7 1600.1,744.3C1585.1,759.6 1568.5,772.1 1550.5,781.6C1546.7,783.6 1542.0,786.2 1540.1,787.3L1536.7,789.3L1539.0,791.2C1540.2,792.2 1541.8,793.0 1542.6,793.0C1543.3,793.0 1545.4,793.6 1547.2,794.4C1549.0,795.2 1552.5,796.6 1555.0,797.5C1557.5,798.5 1560.8,799.8 1562.5,800.5C1566.2,802.2 1580.3,807.8 1585.0,809.5C1590.9,811.7 1648.1,836.0 1655.5,839.5C1659.3,841.3 1666.3,844.6 1671.0,846.8C1675.7,849.0 1682.7,852.2 1686.5,854.0C1696.0,858.3 1707.3,864.0 1714.2,867.8C1717.4,869.6 1722.6,872.4 1725.8,874.1C1738.7,881.2 1742.9,883.6 1751.0,888.3C1763.5,895.7 1784.0,909.1 1808.0,925.5C1837.7,945.8 1879.6,977.7 1896.4,992.8C1914.5,1009.1 1977.4,1071.2 1990.8,1086.0C1996.0,1091.8 2006.4,1104.6 2013.9,1114.5C2021.3,1124.4 2030.6,1136.5 2034.5,1141.5C2038.4,1146.5 2043.1,1152.8 2045.0,1155.5C2057.9,1174.7 2064.3,1184.4 2066.6,1188.5C2078.0,1209.0 2084.7,1226.2 2091.4,1252.5C2098.8,1281.7 2092.6,1316.4 2075.1,1343.5C2069.1,1352.9 2051.1,1370.8 2043.5,1375.1C2036.3,1379.2 2033.2,1380.3 2022.0,1383.0C2017.3,1384.1 2010.8,1385.8 2007.5,1386.7C1999.0,1389.0 1976.2,1388.9 1965.5,1386.5C1955.9,1384.4 1939.8,1379.5 1935.3,1377.5C1933.5,1376.6 1930.6,1375.3 1928.8,1374.5C1927.0,1373.8 1920.7,1370.8 1914.7,1368.1C1908.8,1365.3 1903.8,1363.0 1903.5,1363.0C1903.3,1363.0 1903.1,1442.4 1903.1,1539.5C1903.1,1636.6 1902.9,1716.4 1902.6,1716.9C1902.3,1717.3 1901.8,1767.2 1901.5,1827.6C1900.9,1945.5 1901.2,1938.3 1896.1,1948.9C1893.6,1954.1 1886.6,1959.7 1881.7,1960.5C1879.4,1960.9 1874.8,1961.8 1871.5,1962.5C1864.3,1964.1 1845.5,1967.5 1822.0,1971.5C1816.8,1972.4 1809.3,1973.7 1805.5,1974.5C1801.7,1975.2 1793.8,1976.6 1788.0,1977.5C1782.2,1978.4 1774.1,1979.8 1770.0,1980.5C1765.9,1981.3 1757.1,1982.6 1750.5,1983.5C1735.0,1985.6 1718.5,1988.3 1696.0,1992.5C1691.9,1993.2 1684.0,1994.6 1678.5,1995.5C1673.0,1996.5 1665.3,1997.8 1661.5,1998.5C1657.7,1999.2 1649.8,2000.6 1644.0,2001.5C1638.2,2002.4 1629.9,2003.7 1625.5,2004.5C1621.1,2005.3 1613.0,2006.6 1607.5,2007.5C1602.0,2008.4 1593.9,2009.8 1589.5,2010.5C1585.1,2011.2 1578.5,2012.1 1574.8,2012.5L1568.0,2013.2L1568.0,2059.3C1568.0,2084.7 1567.5,2125.3 1567.0,2149.5C1563.7,2298.7 1561.4,2440.9 1558.0,2710.0C1557.4,2755.9 1556.5,2825.9 1556.0,2865.5C1555.5,2905.1 1555.0,2954.2 1554.8,2974.5L1554.5,3011.5L1558.5,3012.3C1577.7,3016.1 1588.6,3018.6 1594.5,3020.5C1596.7,3021.2 1601.4,3022.6 1605.0,3023.5C1618.2,3027.0 1632.1,3031.4 1658.5,3040.1C1699.4,3053.6 1709.6,3056.8 1729.5,3062.4C1753.1,3069.0 1778.2,3074.2 1801.5,3077.4C1807.5,3078.2 1818.1,3079.7 1825.0,3080.7C1842.7,3083.2 1903.5,3083.2 1926.0,3080.7C1956.7,3077.2 1993.9,3070.9 2015.0,3065.5C2018.0,3064.8 2023.7,3063.4 2027.5,3062.5C2031.3,3061.6 2037.0,3060.3 2040.0,3059.5C2043.0,3058.7 2048.7,3057.4 2052.5,3056.5C2056.3,3055.6 2066.7,3053.1 2075.5,3050.8C2084.3,3048.6 2093.1,3046.4 2095.0,3046.0C2096.9,3045.6 2100.3,3044.8 2102.5,3044.2C2107.2,3042.9 2130.3,3037.6 2141.0,3035.4C2145.1,3034.5 2150.1,3033.4 2152.0,3032.9C2164.7,3029.8 2186.4,3026.7 2218.3,3023.5C2238.4,3021.5 2297.7,3021.4 2309.9,3023.4C2314.6,3024.2 2323.7,3025.6 2330.0,3026.5C2336.3,3027.4 2344.3,3028.8 2347.7,3029.6C2351.1,3030.4 2354.9,3031.0 2356.1,3031.0C2357.3,3031.0 2360.8,3031.7 2363.9,3032.6C2367.0,3033.4 2372.0,3034.8 2375.0,3035.7C2386.4,3038.9 2399.2,3043.0 2407.0,3046.0C2410.0,3047.2 2413.6,3048.5 2415.0,3049.0C2416.4,3049.4 2424.0,3052.6 2432.0,3055.9C2449.4,3063.3 2449.3,3063.3 2455.0,3065.5C2457.5,3066.4 2460.6,3067.7 2462.0,3068.2C2463.4,3068.8 2465.6,3069.6 2467.0,3070.1C2468.4,3070.5 2476.0,3073.2 2484.0,3076.0C2492.0,3078.8 2499.8,3081.5 2501.5,3082.0C2504.4,3082.8 2507.4,3083.8 2515.0,3086.5C2516.9,3087.2 2523.2,3089.3 2529.0,3091.1C2534.8,3092.8 2542.0,3095.1 2545.0,3096.1C2550.1,3097.7 2562.1,3101.1 2569.5,3103.0C2571.2,3103.4 2576.1,3104.8 2580.5,3106.0C2598.5,3111.0 2607.7,3112.8 2631.0,3115.5C2637.9,3116.4 2646.7,3117.5 2650.5,3118.0C2654.3,3118.5 2658.5,3118.9 2659.8,3119.0L2662.0,3119.0L2661.8,1611.2L2661.5,103.5L2659.2,95.5C2649.8,62.2 2625.0,37.5 2592.0,28.8L2583.5,26.5L1344.0,26.5L104.5,26.5L96.0,28.8C63.0,37.5 38.2,62.2 28.8,95.5L26.5,103.5L26.2,1427.2C26.1,2155.3 26.2,2751.0 26.5,2751.0C27.1,2751.0 38.1,2745.1 39.5,2744.0C40.0,2743.6 43.2,2741.8 46.4,2740.0C85.2,2718.7 101.0,2686.6 94.6,2642.1C93.7,2635.9 92.7,2630.4 92.5,2630.0C92.2,2629.5 91.6,2627.2 91.1,2624.8C90.6,2622.4 89.2,2618.0 88.0,2615.0C82.8,2602.0 82.9,2596.7 88.4,2592.5C91.5,2590.2 92.4,2590.0 108.1,2589.6C136.5,2588.8 151.3,2585.2 175.3,2573.4C203.0,2559.8 220.9,2542.7 231.9,2519.5C233.7,2515.7 235.7,2511.4 236.4,2510.0C237.1,2508.6 238.5,2504.8 239.5,2501.5C243.2,2488.9 244.4,2486.4 247.8,2482.8C254.6,2475.6 259.7,2477.5 270.4,2491.0C276.6,2498.7 289.1,2508.7 298.3,2513.3C324.3,2526.2 362.1,2533.9 385.3,2531.0C400.4,2529.1 425.1,2524.1 426.8,2522.5C427.0,2522.4 424.8,2519.2 422.0,2515.5C411.6,2501.8 408.6,2490.8 408.7,2467.0C408.8,2445.3 412.0,2433.6 421.2,2421.9C424.9,2417.0 424.8,2415.8 419.8,2411.7C406.0,2400.5 362.6,2377.5 343.0,2371.0C310.6,2360.3 290.8,2359.9 241.0,2369.1C231.3,2370.8 229.1,2370.4 224.4,2365.6C218.8,2360.1 218.8,2358.3 224.1,2342.0C229.0,2326.9 229.9,2321.7 230.7,2303.5C231.3,2289.1 230.2,2277.1 227.4,2267.5C226.6,2264.8 225.2,2260.0 224.4,2257.0C217.7,2233.8 203.4,2206.9 188.6,2189.3C176.0,2174.5 160.9,2163.9 139.2,2154.6C127.7,2149.6 123.7,2146.4 122.4,2141.4C121.4,2137.3 122.7,2134.8 131.0,2125.0C135.4,2119.9 139.0,2115.2 139.0,2114.6C139.0,2114.1 139.6,2112.9 140.4,2112.1C143.7,2108.4 153.8,2086.9 157.9,2075.0C171.4,2035.4 158.4,1949.8 131.1,1897.7C125.5,1887.1 125.5,1883.6 131.3,1877.5C136.9,1871.7 138.2,1871.7 152.3,1878.5C183.9,1893.6 209.0,1900.0 237.4,1900.0C266.8,1900.0 293.2,1889.4 311.3,1870.2C328.6,1851.9 328.5,1852.0 332.2,1852.0C337.4,1852.0 342.8,1858.2 345.9,1867.8C349.1,1877.6 361.0,1901.0 369.3,1913.7C388.7,1943.4 416.4,1964.0 450.0,1973.6C465.4,1978.1 493.4,1975.6 507.7,1968.6C514.8,1965.1 516.1,1965.3 520.5,1970.1C525.4,1975.6 525.2,1978.1 517.7,2007.0C512.2,2028.4 511.5,2034.1 511.5,2058.5C511.6,2084.6 512.3,2089.7 520.1,2114.0C526.6,2134.4 538.6,2152.7 551.8,2162.4C562.0,2169.8 581.0,2177.6 592.5,2179.1C604.5,2180.7 609.6,2184.5 610.7,2193.0L611.3,2197.0L594.3,2213.8C563.6,2244.0 554.3,2260.6 543.6,2303.5C537.6,2327.8 535.6,2344.5 535.6,2370.8L535.5,2395.1L543.4,2402.3C558.2,2415.6 565.3,2427.5 572.0,2449.9L575.2,2460.2L579.8,2459.6C590.4,2458.0 609.0,2457.0 615.5,2457.6L622.6,2458.2L626.7,2448.4C634.2,2430.3 638.8,2412.9 644.0,2383.0C649.0,2354.5 643.7,2320.8 630.8,2298.7C629.2,2296.0 627.7,2291.8 627.3,2289.4C626.8,2285.2 626.9,2284.8 631.1,2280.7L635.5,2276.3L651.0,2275.7C672.6,2274.8 689.2,2271.1 719.0,2260.5C730.7,2256.3 752.5,2243.4 762.7,2234.6C766.8,2231.0 781.0,2212.8 786.5,2204.0C795.2,2190.2 802.3,2171.7 806.4,2152.5C809.9,2136.2 811.1,2133.2 814.9,2130.3C821.3,2125.4 825.2,2126.3 832.4,2134.2C837.5,2139.8 844.9,2146.0 846.5,2146.0C846.7,2146.0 849.1,2147.3 851.7,2148.8C861.6,2154.6 872.6,2158.4 890.8,2162.6C905.6,2165.9 937.3,2164.6 954.5,2159.8C956.7,2159.2 960.1,2158.4 962.0,2157.9C967.1,2156.8 1000.5,2145.3 1006.4,2142.6C1009.2,2141.3 1014.4,2138.9 1018.0,2137.3C1031.8,2130.9 1034.5,2130.8 1040.6,2136.2C1044.1,2139.3 1044.2,2139.6 1043.7,2144.5C1043.4,2147.4 1041.5,2153.2 1039.2,2158.0C1028.8,2180.4 1024.2,2194.5 1017.6,2225.5C1010.5,2259.0 1012.5,2297.5 1022.6,2321.0C1029.0,2335.8 1036.0,2345.3 1052.1,2361.1C1063.7,2372.5 1064.0,2372.9 1064.0,2377.2C1064.0,2380.8 1063.5,2382.1 1061.2,2384.1C1058.3,2386.8 1051.9,2390.0 1049.5,2390.0C1047.9,2390.0 1035.1,2396.1 1030.5,2399.0C1028.8,2400.1 1026.8,2401.3 1026.0,2401.7C1021.7,2403.6 1003.3,2418.7 994.4,2427.5C969.8,2452.0 955.9,2485.9 952.0,2531.0C950.6,2547.4 950.8,2559.2 952.6,2569.0C955.9,2587.0 955.5,2590.4 949.1,2594.9C945.0,2597.9 943.0,2597.6 934.8,2592.8C921.9,2585.2 913.0,2581.3 901.4,2577.9C890.6,2574.8 868.3,2574.6 857.0,2577.4C838.9,2582.0 824.2,2587.9 814.7,2594.4C812.6,2595.8 810.7,2597.0 810.4,2597.0C810.2,2597.0 803.9,2601.6 796.4,2607.2C785.0,2615.8 783.0,2617.7 783.5,2619.4C783.8,2620.6 785.0,2627.6 786.2,2635.0C791.6,2669.4 779.3,2701.0 752.6,2721.0C743.5,2727.8 731.2,2733.5 721.3,2735.5C717.4,2736.3 716.6,2737.3 717.9,2739.7C736.0,2774.5 734.6,2803.1 713.4,2835.1C699.4,2856.3 669.9,2872.9 646.0,2873.0C613.6,2873.1 586.0,2856.3 570.0,2826.5C568.2,2823.2 566.4,2820.1 566.0,2819.5C565.6,2818.9 564.7,2816.2 564.0,2813.3C562.9,2808.6 562.3,2807.7 557.7,2804.7C545.2,2796.5 533.2,2791.5 515.5,2787.4C503.0,2784.4 471.6,2784.7 460.0,2787.9C439.6,2793.5 423.4,2803.3 409.1,2818.6C403.4,2824.7 392.0,2840.0 392.0,2841.5C392.0,2841.7 390.7,2844.1 389.2,2846.7C383.6,2856.4 371.0,2890.2 371.0,2895.7C371.0,2904.5 365.3,2915.9 359.5,2918.7C354.7,2921.0 352.0,2919.9 343.3,2911.9C334.2,2903.7 323.4,2895.4 317.0,2891.7C309.8,2887.6 294.7,2879.9 292.0,2879.0C290.6,2878.5 287.1,2877.2 284.1,2876.1C268.5,2870.2 243.0,2866.7 231.2,2868.9C219.9,2870.9 210.6,2873.3 208.5,2874.7C207.4,2875.4 205.8,2876.0 205.0,2876.0C203.0,2876.0 188.6,2882.2 181.0,2886.2C174.9,2889.5 164.2,2897.3 153.6,2906.2C145.5,2913.0 142.7,2913.5 137.1,2909.1C132.6,2905.5 131.4,2901.9 130.5,2889.5C129.1,2869.6 124.2,2852.7 115.8,2839.5C106.9,2825.4 75.3,2803.1 52.0,2794.5C43.2,2791.2 27.7,2786.0 26.9,2786.0C26.4,2786.0 26.0,2854.8 26.0,2941.9L26.0,3097.9L28.8,3097.0C30.3,3096.5 34.0,3095.2 37.0,3094.0C51.0,3088.6 78.7,3080.4 93.0,3077.5C97.7,3076.6 104.4,3075.2 108.0,3074.4C121.8,3071.5 137.5,3069.1 164.0,3065.8C197.9,3061.6 271.6,3067.0 324.5,3077.5C328.4,3078.3 335.3,3079.6 340.0,3080.5C354.3,3083.3 380.0,3089.0 394.0,3092.6C398.8,3093.8 406.6,3095.6 431.5,3101.5C434.8,3102.2 440.9,3103.6 445.0,3104.5C449.1,3105.4 455.2,3106.7 458.5,3107.5C464.3,3108.8 471.7,3110.3 487.0,3113.5C491.1,3114.4 497.2,3115.7 500.5,3116.5C532.1,3123.8 569.3,3129.9 608.5,3134.1C614.5,3134.8 629.4,3135.6 641.5,3136.0C653.6,3136.3 665.1,3136.7 667.0,3136.8C668.9,3136.9 681.3,3136.5 694.6,3136.0ZM351.2,2883.4C356.1,2866.3 356.5,2865.1 364.3,2849.0C375.5,2825.7 385.8,2811.1 402.2,2795.4C437.4,2761.6 487.0,2753.6 543.7,2772.6C551.2,2775.1 557.3,2777.0 557.5,2776.8C557.6,2776.6 558.3,2770.8 559.0,2763.8C560.1,2751.5 559.9,2743.6 557.9,2731.7C557.3,2728.5 556.5,2722.5 556.0,2718.3C554.8,2707.6 554.5,2707.5 544.5,2714.0C522.3,2728.3 490.9,2730.5 467.4,2719.4C458.6,2715.3 454.1,2711.8 445.9,2703.3C439.0,2696.0 427.0,2679.4 427.0,2677.1C427.0,2676.5 426.6,2676.0 426.1,2676.0C425.2,2676.0 406.1,2680.8 394.5,2684.0C390.1,2685.2 385.0,2686.6 383.2,2687.0C381.3,2687.5 378.6,2688.3 377.2,2688.8C375.7,2689.3 371.9,2690.5 368.8,2691.4C363.3,2692.9 359.6,2693.9 346.2,2697.6C327.5,2702.7 313.2,2707.1 303.0,2711.0C300.0,2712.2 296.4,2713.5 295.0,2714.0C288.8,2716.2 283.8,2718.1 282.2,2718.9C281.3,2719.4 277.1,2721.2 273.0,2722.8C266.5,2725.4 245.7,2734.0 238.0,2737.2C227.9,2741.4 218.1,2745.9 204.5,2752.6C188.6,2760.4 184.8,2760.9 180.2,2755.6C174.9,2749.5 177.1,2742.0 185.4,2738.1C189.3,2736.3 198.9,2731.8 221.2,2721.1C239.7,2712.4 247.6,2708.9 268.0,2700.8C272.1,2699.2 276.9,2697.2 278.5,2696.5C280.1,2695.8 285.6,2693.7 290.5,2692.0C295.4,2690.3 301.1,2688.3 303.0,2687.5C304.9,2686.8 311.2,2684.8 317.0,2683.0C322.8,2681.2 329.5,2679.2 332.0,2678.4C334.5,2677.6 341.2,2675.7 347.0,2674.0C352.8,2672.4 359.8,2670.3 362.5,2669.5C365.2,2668.7 369.8,2667.4 372.5,2666.6C379.4,2664.6 409.7,2656.4 414.0,2655.3L417.5,2654.4L418.1,2639.0C419.2,2609.9 425.1,2595.8 443.8,2577.1C452.5,2568.5 459.8,2562.9 469.1,2558.1L473.8,2555.6L469.6,2553.7C460.6,2549.5 458.3,2548.3 451.3,2544.2C443.9,2540.0 441.6,2539.2 440.6,2540.9C439.9,2542.0 420.5,2548.0 410.5,2550.3C390.1,2554.9 361.1,2556.2 346.7,2553.1C327.1,2548.9 324.4,2548.2 311.0,2543.5C297.4,2538.6 280.2,2528.3 267.1,2516.9C259.0,2509.9 257.1,2509.3 257.0,2513.5C257.0,2515.0 251.7,2527.7 248.2,2534.9C236.6,2558.1 213.9,2578.9 182.0,2595.6C165.0,2604.4 141.6,2610.8 119.7,2612.6L112.0,2613.3L112.6,2616.9C113.0,2618.9 113.7,2621.6 114.2,2623.0C118.9,2635.5 120.9,2671.4 117.6,2680.9C116.7,2683.3 116.0,2686.1 116.0,2687.1C116.0,2689.0 114.7,2692.4 109.8,2703.0C99.8,2724.7 78.3,2747.1 52.3,2763.0L45.2,2767.4L57.2,2772.2C81.2,2781.7 96.1,2790.7 113.9,2806.3C132.6,2822.6 140.9,2836.4 147.4,2861.6C148.3,2864.9 149.0,2868.5 149.0,2869.6C149.0,2870.6 149.5,2873.2 150.1,2875.3C151.0,2878.8 151.3,2879.0 153.0,2877.8C160.3,2872.6 175.2,2862.9 178.5,2861.2C221.3,2839.1 269.5,2841.7 321.3,2868.9C333.8,2875.4 344.2,2882.2 346.9,2885.4C348.8,2887.6 350.2,2887.0 351.2,2883.4ZM663.0,2846.1C686.2,2837.7 697.3,2826.8 703.4,2806.7C716.6,2762.6 697.0,2728.6 653.0,2719.4C616.0,2711.6 581.0,2742.7 581.0,2783.4C581.0,2795.3 583.4,2803.8 590.8,2818.9C598.2,2833.7 613.6,2844.8 632.0,2848.4C637.9,2849.5 657.5,2848.1 663.0,2846.1ZM594.3,2712.1C603.5,2705.2 616.7,2699.2 626.2,2697.6C630.6,2696.8 630.7,2696.6 627.9,2692.0C622.6,2683.4 619.1,2659.5 620.9,2644.3C622.5,2630.7 622.6,2630.9 619.0,2632.1C616.4,2633.1 595.8,2632.9 590.5,2631.9C588.7,2631.5 588.4,2632.2 587.7,2639.0C585.9,2656.2 580.7,2674.8 574.0,2688.4C571.4,2693.4 571.5,2693.8 575.5,2711.5C576.4,2715.3 577.4,2720.3 577.7,2722.6L578.2,2726.6L583.7,2721.3C586.7,2718.4 591.4,2714.2 594.3,2712.1ZM719.0,2711.1C736.3,2706.2 748.9,2695.2 756.3,2678.9C774.9,2637.7 757.7,2597.3 716.9,2586.5C709.1,2584.5 702.8,2584.8 692.0,2588.0C687.9,2589.2 683.1,2590.5 681.5,2590.8C679.3,2591.3 674.1,2596.0 663.0,2607.5C644.8,2626.4 644.3,2627.4 643.3,2648.8C642.6,2664.5 643.7,2670.9 649.1,2681.7C655.8,2695.2 664.5,2701.7 688.5,2710.9C695.4,2713.5 710.2,2713.7 719.0,2711.1ZM516.0,2701.6C561.6,2690.3 580.2,2634.7 550.4,2598.6C536.5,2581.7 522.8,2575.5 501.1,2576.3C476.7,2577.2 459.2,2586.1 449.8,2602.6C437.4,2624.6 436.5,2647.1 447.2,2668.5C460.1,2694.4 489.0,2708.3 516.0,2701.6ZM621.7,2606.0C649.4,2597.5 662.1,2582.7 667.5,2552.2C671.3,2531.5 659.0,2501.5 642.0,2489.6C632.2,2482.8 625.9,2481.0 612.2,2481.0C582.1,2481.1 562.6,2491.8 551.2,2514.5C544.0,2529.1 541.6,2539.1 542.3,2551.5C543.0,2562.9 543.0,2563.0 549.8,2568.2C559.1,2575.1 569.2,2586.1 574.4,2594.9C577.1,2599.5 580.2,2603.5 581.4,2603.9C588.4,2606.5 590.9,2607.3 594.5,2608.1C600.4,2609.2 614.6,2608.2 621.7,2606.0ZM776.2,2594.6C779.1,2592.7 786.6,2587.3 792.9,2582.7C812.9,2567.8 826.5,2560.6 844.0,2555.7C847.0,2554.8 851.3,2553.6 853.5,2553.0C855.7,2552.3 864.7,2551.6 873.5,2551.3C890.8,2550.7 903.0,2552.4 915.0,2557.1C918.0,2558.2 921.5,2559.4 922.8,2559.7C924.0,2560.0 925.3,2560.6 925.6,2561.1C925.9,2561.6 926.7,2562.0 927.3,2562.0C928.2,2562.0 928.5,2557.2 928.6,2544.2C929.0,2494.8 945.0,2450.9 974.7,2417.5C986.7,2404.1 1000.8,2391.0 1009.4,2385.2C1016.8,2380.3 1017.9,2379.7 1027.3,2374.9L1033.1,2371.9L1023.4,2360.8C997.8,2331.2 991.0,2312.3 991.0,2270.5C991.0,2238.5 996.3,2205.2 1004.6,2186.2C1005.4,2184.4 1006.0,2182.3 1006.0,2181.5C1006.0,2180.7 1006.6,2178.6 1007.4,2176.8C1013.4,2162.6 1013.5,2162.8 1004.9,2166.8C994.3,2171.7 982.9,2176.2 975.5,2178.3C957.0,2183.6 931.1,2187.8 911.9,2188.6C885.9,2189.7 856.2,2179.9 835.9,2163.7C829.3,2158.4 828.4,2158.1 827.5,2161.2C817.2,2199.9 807.6,2217.8 784.1,2242.3C764.1,2263.1 743.4,2277.2 719.2,2286.4C700.1,2293.7 689.0,2296.3 670.4,2298.1L657.3,2299.3L659.2,2304.4C660.3,2307.2 661.5,2310.9 662.0,2312.6C662.4,2314.4 663.0,2316.2 663.3,2316.7C663.6,2317.2 664.8,2322.1 665.9,2327.5C668.8,2341.1 668.8,2367.4 666.0,2386.2C661.1,2419.2 658.0,2429.7 645.1,2457.2C641.3,2465.5 641.0,2464.5 647.2,2467.5C667.0,2477.3 688.7,2507.4 692.2,2529.9C693.2,2536.1 692.7,2555.6 691.5,2562.5C690.9,2565.7 695.4,2557.0 698.3,2549.5C703.6,2535.5 713.1,2512.5 719.5,2498.5C722.2,2492.5 736.8,2463.4 738.8,2460.0C739.9,2458.1 741.8,2454.7 743.0,2452.5C751.0,2437.9 786.5,2388.8 802.4,2370.5C822.4,2347.5 865.3,2300.9 879.9,2286.5C888.7,2277.9 889.2,2277.5 893.5,2277.5C900.1,2277.5 902.5,2280.3 902.5,2288.0L902.5,2293.9L877.3,2319.2C855.2,2341.4 835.7,2362.7 824.1,2377.0C822.1,2379.5 816.7,2386.0 811.9,2391.5C800.8,2404.5 786.6,2423.5 779.9,2434.4C776.9,2439.2 773.8,2444.2 773.0,2445.5C756.3,2472.1 747.5,2488.8 732.0,2522.5C730.2,2526.3 727.2,2532.8 725.4,2536.8C723.5,2540.8 722.0,2544.3 722.0,2544.5C722.0,2544.8 720.7,2547.8 719.2,2551.2C713.5,2563.7 713.5,2562.5 719.4,2564.3C722.3,2565.3 725.2,2566.0 725.8,2566.0C727.0,2566.0 740.0,2572.1 743.5,2574.3C750.4,2578.6 761.6,2587.8 765.6,2592.5C768.2,2595.5 770.5,2598.0 770.7,2598.0C770.8,2598.0 773.3,2596.5 776.2,2594.6ZM503.2,2534.4C515.8,2531.5 522.3,2528.0 524.4,2522.9C525.4,2520.5 526.8,2517.2 527.6,2515.7C528.4,2514.1 529.0,2512.4 529.0,2511.8C529.0,2511.3 531.1,2506.5 533.6,2501.2C538.7,2490.6 544.9,2481.8 551.7,2475.4C556.1,2471.2 556.1,2471.2 555.5,2465.9C551.5,2432.9 522.8,2406.1 491.5,2406.1C464.8,2406.1 444.3,2421.4 435.4,2448.0C432.6,2456.6 432.8,2484.0 435.8,2493.4C442.7,2515.0 461.0,2530.1 485.5,2534.4C495.9,2536.2 495.0,2536.2 503.2,2534.4ZM453.9,2392.3C461.4,2388.6 467.7,2385.5 467.9,2385.3C468.7,2384.7 460.7,2356.4 455.7,2342.5C453.1,2335.5 436.6,2296.5 430.7,2283.6C425.1,2271.5 398.7,2219.4 391.0,2205.4C389.3,2202.4 386.6,2197.4 384.9,2194.2C371.0,2168.8 361.1,2154.4 337.0,2124.4C306.7,2086.9 293.1,2072.0 263.3,2043.8C252.5,2033.6 250.6,2030.0 252.6,2024.1C253.6,2021.3 260.2,2017.0 263.8,2017.0C267.8,2017.0 319.8,2068.8 340.2,2093.2C353.8,2109.4 383.0,2148.6 383.0,2150.5C383.0,2150.7 384.3,2152.8 385.9,2155.2C387.4,2157.6 390.1,2162.0 391.8,2165.0C393.4,2168.0 396.9,2174.0 399.4,2178.3C401.9,2182.6 404.0,2186.2 404.0,2186.5C404.0,2186.7 405.4,2189.3 407.1,2192.2C414.9,2205.5 438.5,2251.2 449.5,2274.5C461.8,2300.6 466.2,2310.2 470.0,2319.5C473.1,2327.2 473.7,2328.7 477.4,2337.3C478.3,2339.4 479.0,2341.8 479.0,2342.6C479.0,2343.5 479.7,2346.3 480.4,2348.9C481.2,2351.4 482.7,2356.2 483.6,2359.5C485.6,2366.6 487.4,2372.3 489.6,2378.5C491.2,2382.7 491.5,2383.0 494.9,2383.0C496.9,2383.0 501.2,2383.7 504.5,2384.5C507.8,2385.3 511.0,2385.9 511.6,2386.0C512.3,2386.0 512.9,2377.6 513.4,2359.6C514.0,2332.9 514.1,2332.2 519.4,2308.0C528.1,2267.6 546.7,2230.2 568.6,2208.7C573.2,2204.2 577.0,2200.3 577.0,2200.0C577.0,2199.7 574.0,2198.4 570.2,2197.1C553.9,2191.3 541.2,2183.2 528.5,2170.5C521.2,2163.1 511.0,2150.4 511.0,2148.5C511.0,2148.3 509.7,2145.9 508.2,2143.3C488.4,2109.3 481.5,2040.7 494.2,2003.7C496.5,1997.0 496.3,1996.5 492.4,1998.1C481.9,2002.2 450.8,1999.3 432.0,1992.5C407.4,1983.5 401.7,1979.7 379.9,1958.0C353.7,1931.9 341.3,1914.4 330.6,1888.6L329.0,1884.8L324.0,1889.3C317.8,1894.9 301.5,1905.8 293.0,1910.0C289.4,1911.8 285.7,1913.6 284.8,1914.1C282.0,1915.5 272.1,1918.7 265.0,1920.4C233.7,1928.0 192.6,1923.1 163.7,1908.3C159.8,1906.3 159.5,1907.0 162.0,1913.2C177.2,1950.6 184.5,1989.5 184.5,2032.5C184.4,2074.3 177.0,2099.5 156.8,2126.6C152.6,2132.2 152.2,2133.5 154.5,2134.4C163.8,2137.9 190.1,2158.8 203.3,2173.1C223.9,2195.3 244.4,2236.1 252.0,2270.0C255.5,2285.4 254.2,2317.1 249.3,2334.3C248.4,2337.4 248.0,2340.3 248.3,2340.7C248.7,2341.0 253.8,2340.8 259.7,2340.2C273.2,2338.7 297.6,2338.7 307.2,2340.1C345.4,2345.7 358.5,2350.1 397.0,2370.5C403.9,2374.2 410.2,2377.8 411.1,2378.6C411.9,2379.4 413.0,2380.0 413.4,2380.0C414.2,2380.0 426.9,2389.6 433.8,2395.4C436.2,2397.4 438.6,2399.0 439.2,2399.0C439.8,2399.0 446.3,2396.0 453.9,2392.3ZM1343.5,1814.5C1343.5,1700.6 1343.2,1543.8 1342.9,1465.8L1342.3,1324.2L1338.4,1319.6C1333.1,1313.5 1313.4,1295.7 1278.6,1265.5C1268.6,1256.9 1244.1,1234.9 1233.8,1225.3C1225.7,1217.8 1201.6,1196.9 1188.5,1186.1C1184.2,1182.5 1174.8,1173.9 1167.6,1167.0C1160.4,1160.1 1148.2,1149.0 1140.5,1142.3C1111.2,1116.9 1082.8,1092.0 1068.4,1078.9C1047.6,1059.8 1042.9,1056.0 1040.7,1056.0C1039.6,1056.0 1033.2,1061.5 1025.6,1068.8C1018.4,1075.8 1008.7,1085.1 1004.0,1089.5C967.0,1124.3 871.4,1215.7 846.5,1240.0C834.9,1251.3 821.9,1263.6 817.5,1267.4C805.6,1277.8 791.0,1292.2 789.5,1295.1C787.5,1298.8 787.5,1307.2 788.9,1362.0C789.6,1388.7 790.4,1434.8 790.6,1464.5C790.8,1494.2 791.4,1532.0 792.0,1548.5C792.6,1565.0 793.5,1609.8 794.1,1648.0C794.7,1686.2 795.3,1729.2 795.5,1743.5C795.8,1757.8 796.5,1808.2 797.0,1855.5C797.8,1920.0 798.4,1941.6 799.3,1942.2C800.7,1943.0 808.7,1944.3 827.0,1946.5C851.2,1949.4 885.8,1954.4 910.0,1958.5C914.7,1959.2 923.2,1960.6 929.0,1961.5C934.8,1962.4 943.5,1963.7 948.5,1964.5C953.5,1965.2 962.5,1966.6 968.5,1967.5C982.2,1969.5 996.8,1971.7 1008.5,1973.5C1023.3,1975.8 1043.1,1978.4 1076.0,1982.5C1088.2,1984.1 1098.4,1985.7 1114.5,1988.5C1135.6,1992.2 1152.3,1994.7 1175.5,1997.5C1182.7,1998.4 1193.0,1999.7 1198.5,2000.5C1219.3,2003.5 1229.9,2004.9 1241.5,2006.5C1263.8,2009.4 1275.5,2011.1 1283.5,2012.5C1287.9,2013.3 1295.8,2014.6 1301.0,2015.4C1317.5,2018.0 1330.3,2020.0 1335.5,2020.9C1338.2,2021.4 1341.2,2021.7 1342.0,2021.6C1343.3,2021.5 1343.5,1997.7 1343.5,1814.5ZM1380.0,2017.6C1385.8,2016.8 1393.2,2015.7 1396.5,2015.2C1403.2,2014.0 1417.1,2011.8 1433.0,2009.5C1448.5,2007.1 1474.9,2002.8 1487.0,2000.5C1491.1,1999.8 1498.8,1998.4 1504.0,1997.5C1509.2,1996.6 1516.7,1995.2 1520.5,1994.5C1532.3,1992.2 1544.6,1990.2 1565.5,1987.0C1586.7,1983.8 1600.1,1981.7 1614.0,1979.5C1618.7,1978.7 1627.2,1977.4 1633.0,1976.5C1660.7,1972.3 1679.2,1969.3 1689.2,1967.4C1705.8,1964.4 1712.8,1963.1 1721.8,1961.6C1740.3,1958.4 1749.7,1956.8 1757.0,1955.5C1765.9,1954.0 1779.6,1951.7 1793.5,1949.5C1799.0,1948.6 1807.1,1947.3 1811.5,1946.5C1820.6,1944.9 1833.0,1942.8 1847.5,1940.5C1853.0,1939.6 1860.9,1938.2 1865.1,1937.3L1872.6,1935.8L1873.9,1926.9C1874.7,1921.2 1875.1,1908.2 1875.0,1890.3C1874.9,1875.0 1875.1,1834.6 1875.4,1800.5C1875.8,1766.4 1876.2,1650.9 1876.3,1543.9L1876.6,1349.3L1851.0,1348.6C1837.0,1348.3 1777.7,1348.0 1719.2,1348.0L1612.8,1348.1L1608.2,1352.3C1599.2,1360.5 1589.1,1368.4 1585.0,1370.3C1584.2,1370.7 1582.2,1371.9 1580.5,1373.0C1578.8,1374.1 1576.8,1375.3 1576.0,1375.6C1575.2,1375.9 1573.2,1376.8 1571.5,1377.5C1563.1,1381.2 1555.5,1383.6 1543.0,1386.7C1524.5,1391.2 1484.1,1388.0 1463.8,1380.4C1461.7,1379.6 1458.1,1378.3 1455.8,1377.4C1445.7,1373.7 1437.6,1369.2 1423.0,1359.5L1407.5,1349.2L1388.4,1348.8L1369.3,1348.5L1368.6,1368.5C1368.3,1379.5 1368.0,1478.0 1368.0,1587.5C1368.0,1697.0 1368.0,1787.6 1368.0,1789.0C1367.5,1807.2 1367.0,2016.6 1367.4,2017.6C1368.0,2019.3 1367.2,2019.3 1380.0,2017.6ZM1051.0,1838.9C1019.8,1838.1 1015.8,1837.2 990.0,1824.7C953.1,1806.9 919.5,1770.3 909.0,1736.5C901.9,1713.7 902.1,1717.7 901.8,1588.0C901.5,1481.2 901.6,1472.8 903.3,1463.6C904.3,1458.1 905.3,1453.3 905.6,1452.9C905.8,1452.5 906.5,1449.5 907.1,1446.4C908.5,1439.1 914.1,1422.0 918.8,1411.0C934.2,1374.7 968.5,1340.3 1003.5,1326.2C1030.1,1315.4 1033.8,1314.6 1059.5,1314.6C1081.4,1314.5 1085.1,1315.0 1101.5,1320.1C1138.9,1331.6 1171.3,1357.7 1192.7,1393.5C1217.7,1435.5 1222.3,1461.2 1223.5,1567.0C1223.8,1595.9 1224.2,1623.8 1224.5,1629.0C1225.5,1648.4 1225.1,1717.4 1224.0,1723.0C1216.2,1761.0 1185.3,1806.7 1156.9,1822.3C1136.4,1833.5 1105.5,1840.7 1081.5,1839.8C1079.3,1839.7 1065.6,1839.3 1051.0,1838.9ZM1110.7,1814.0C1124.6,1811.3 1137.2,1806.5 1152.3,1798.4C1153.8,1797.6 1159.7,1792.3 1165.4,1786.7C1179.8,1772.5 1187.3,1759.2 1196.0,1732.5C1197.1,1729.2 1198.5,1725.0 1199.1,1723.1C1202.2,1713.9 1202.5,1708.3 1201.8,1682.5C1201.4,1668.2 1200.6,1628.2 1199.9,1593.5C1198.1,1491.6 1196.7,1470.7 1189.9,1444.0C1177.7,1395.8 1139.8,1354.8 1096.0,1342.3C1080.2,1337.9 1057.1,1335.8 1046.5,1338.0C1043.2,1338.7 1038.7,1339.6 1036.5,1340.0C1022.6,1342.6 1008.6,1348.2 994.2,1356.7C990.1,1359.1 986.6,1361.0 986.3,1361.0C985.0,1361.0 972.0,1372.1 967.4,1377.0C955.6,1389.8 943.0,1410.3 937.5,1426.0C926.5,1457.3 925.6,1463.2 925.4,1508.0C925.0,1585.9 926.8,1709.0 928.4,1715.0C931.5,1727.1 932.9,1731.8 934.4,1736.4C945.2,1768.1 979.3,1799.9 1013.5,1810.0C1030.9,1815.2 1036.5,1815.7 1070.7,1815.9C1097.0,1816.0 1102.1,1815.7 1110.7,1814.0ZM671.2,1372.1C675.4,1369.5 720.7,1327.3 746.0,1302.4C758.4,1290.2 772.2,1277.0 776.7,1272.9C781.2,1268.8 794.0,1256.8 805.2,1246.1C816.4,1235.4 837.2,1215.6 851.5,1202.1C865.7,1188.6 887.3,1167.8 899.5,1156.0C911.6,1144.2 933.2,1123.6 947.5,1110.3C961.8,1097.0 985.2,1074.4 999.4,1060.1L1025.3,1034.1L1024.6,1028.6C1024.3,1025.5 1022.9,1019.6 1021.5,1015.4C1020.1,1011.2 1019.0,1005.8 1019.0,1003.4C1019.0,998.2 1017.3,997.4 1007.6,998.3C997.0,999.3 986.5,1002.7 974.9,1008.8C958.0,1017.7 953.6,1021.4 918.0,1056.5C902.3,1072.0 883.2,1090.4 875.5,1097.6C867.8,1104.7 823.0,1148.9 776.0,1195.8C690.1,1281.6 679.3,1291.7 653.5,1311.2C630.8,1328.2 625.3,1336.1 626.2,1350.5C627.0,1362.2 631.9,1370.7 639.7,1373.6C645.1,1375.6 667.3,1374.6 671.2,1372.1ZM1545.5,1361.5C1554.7,1358.3 1565.4,1353.6 1570.3,1350.8C1572.9,1349.3 1575.3,1348.0 1575.6,1348.0C1580.5,1348.0 1614.4,1313.3 1625.5,1296.9C1644.3,1269.1 1662.2,1255.4 1688.9,1248.3C1703.9,1244.4 1738.3,1248.4 1754.8,1256.1C1758.3,1257.8 1765.1,1260.8 1769.9,1262.9C1777.8,1266.3 1784.5,1270.3 1798.0,1279.3C1800.5,1281.0 1807.0,1285.4 1812.5,1289.1C1818.0,1292.8 1824.8,1297.0 1827.5,1298.5C1830.2,1299.9 1833.8,1302.0 1835.5,1303.0C1837.2,1304.0 1840.3,1305.8 1842.5,1307.0C1844.7,1308.2 1849.0,1310.6 1852.0,1312.3C1864.2,1319.1 1905.8,1339.0 1907.8,1339.0C1908.2,1339.0 1916.4,1342.3 1926.0,1346.4C1948.2,1355.8 1956.1,1358.9 1960.2,1359.6C1962.0,1360.0 1966.0,1360.9 1969.0,1361.8C1981.4,1365.3 2011.4,1363.2 2020.9,1358.1C2022.0,1357.5 2023.6,1357.0 2024.5,1357.0C2027.6,1357.0 2039.0,1350.6 2044.4,1345.8C2049.2,1341.5 2059.0,1328.6 2059.0,1326.5C2059.0,1326.0 2060.2,1323.2 2061.6,1320.3C2067.1,1308.5 2068.3,1301.2 2068.4,1279.5C2068.5,1263.3 2068.2,1258.1 2066.7,1252.0C2060.0,1224.9 2045.0,1194.9 2025.0,1169.1C2017.0,1158.7 2009.9,1149.1 2004.0,1140.5C1993.1,1124.6 1978.8,1106.4 1966.9,1093.4C1953.6,1078.8 1900.8,1027.5 1888.5,1017.3C1884.7,1014.1 1876.6,1007.1 1870.5,1001.7C1856.9,989.4 1847.3,981.9 1830.0,970.1C1822.6,965.0 1812.9,958.3 1808.4,955.2C1804.0,952.1 1796.6,946.8 1791.9,943.6C1782.4,936.8 1743.9,911.0 1743.5,911.0C1743.3,911.0 1739.9,909.1 1735.8,906.7C1731.8,904.3 1727.8,902.1 1727.0,901.7C1726.2,901.3 1722.6,899.4 1719.0,897.4C1710.8,892.9 1694.3,884.5 1682.0,878.7C1676.8,876.2 1667.2,871.7 1660.7,868.6C1654.3,865.5 1648.8,863.0 1648.5,863.0C1648.2,863.0 1645.0,861.6 1641.3,859.9C1637.5,858.2 1632.7,856.0 1630.5,855.0C1622.3,851.3 1612.3,846.7 1604.2,842.9C1599.6,840.7 1595.7,839.0 1595.4,839.0C1595.2,839.0 1592.2,837.7 1588.7,836.1C1585.3,834.5 1580.5,832.4 1578.0,831.5C1575.5,830.5 1572.2,829.2 1570.5,828.5C1568.8,827.8 1565.7,826.5 1563.5,825.7C1558.1,823.7 1551.8,821.3 1547.2,819.5C1537.7,815.8 1507.3,806.8 1496.3,804.4C1489.5,803.0 1487.5,802.9 1483.8,804.0C1476.2,806.1 1441.1,806.5 1431.1,804.5C1410.0,800.3 1390.4,792.8 1363.5,778.6C1359.6,776.6 1358.5,776.5 1320.0,776.8C1257.4,777.2 1233.3,778.5 1191.5,783.6C1157.0,787.8 1148.1,789.4 1109.8,798.4C1094.7,802.0 1090.1,802.9 1081.5,804.5C1067.4,807.0 1058.8,809.4 1049.2,813.6C1047.5,814.4 1044.4,815.7 1042.5,816.5C1036.2,819.3 1032.5,820.8 1028.0,822.5C1025.5,823.4 1022.1,824.8 1020.5,825.5C1018.9,826.2 1015.7,827.4 1013.5,828.3C1011.3,829.1 1004.3,831.9 998.0,834.5C991.7,837.1 984.7,839.9 982.5,840.8C972.7,844.6 954.7,853.2 945.5,858.4C942.2,860.3 937.5,862.9 935.0,864.3C932.5,865.7 928.9,867.7 927.0,868.9C925.1,870.0 922.8,871.3 922.0,871.7C918.1,873.5 902.7,882.9 895.5,887.9C856.2,915.1 807.7,959.4 771.1,1001.4C746.6,1029.6 705.0,1083.0 684.5,1112.8C678.8,1121.0 664.3,1144.8 658.1,1156.0C652.2,1166.8 638.0,1196.0 638.0,1197.5C638.0,1197.8 636.7,1200.8 635.2,1204.2C626.7,1222.8 622.0,1238.0 619.4,1254.9C614.8,1285.3 623.3,1299.1 641.3,1290.5C651.0,1285.9 670.0,1267.9 760.4,1177.6C810.0,1128.0 858.0,1081.0 867.0,1073.0C888.9,1053.6 910.0,1034.0 910.0,1033.0C910.0,1031.3 946.0,998.1 952.7,993.8C988.1,970.5 1013.8,967.4 1044.8,982.9C1052.6,986.7 1053.2,987.1 1059.7,991.3C1062.1,992.8 1064.2,994.0 1064.5,994.0C1065.9,994.0 1081.4,1006.7 1092.0,1016.5C1098.3,1022.4 1108.4,1031.1 1114.4,1035.9C1123.9,1043.5 1132.2,1050.3 1167.5,1079.8C1171.9,1083.5 1188.8,1098.6 1205.0,1113.5C1221.3,1128.3 1238.1,1143.7 1242.5,1147.5C1263.5,1165.9 1323.1,1226.2 1335.0,1241.0C1351.8,1261.9 1394.7,1306.4 1417.7,1326.7C1435.4,1342.3 1459.3,1354.3 1485.0,1360.6C1500.4,1364.4 1535.8,1364.9 1545.5,1361.5ZM1803.0,1309.6C1795.4,1302.5 1752.4,1280.8 1735.5,1275.6C1732.8,1274.8 1728.9,1273.6 1727.0,1272.9C1720.4,1270.8 1699.6,1270.5 1692.7,1272.5C1675.7,1277.3 1663.6,1285.4 1650.3,1300.9C1644.8,1307.4 1644.1,1308.5 1645.7,1309.1C1646.7,1309.5 1681.2,1309.8 1722.3,1309.8C1763.5,1309.8 1797.4,1310.1 1797.8,1310.4C1798.1,1310.7 1799.7,1311.0 1801.4,1311.0C1804.0,1311.0 1804.2,1310.8 1803.0,1309.6ZM1363.0,1304.6C1363.0,1303.9 1361.6,1302.1 1359.9,1300.4C1358.2,1298.8 1336.9,1276.8 1312.7,1251.5C1288.4,1226.2 1266.3,1203.2 1263.5,1200.5C1254.8,1191.9 1225.0,1163.8 1211.7,1151.7C1204.6,1145.2 1190.2,1132.0 1179.7,1122.1C1154.7,1098.9 1138.7,1085.1 1105.3,1058.3C1086.3,1043.1 1081.2,1038.9 1074.6,1032.9C1068.5,1027.4 1052.0,1015.0 1050.8,1015.0C1049.4,1015.0 1049.9,1026.9 1051.5,1030.0C1052.3,1031.6 1058.1,1037.2 1064.2,1042.6C1070.4,1047.9 1085.4,1061.3 1097.5,1072.4C1109.6,1083.5 1125.6,1098.0 1133.0,1104.6C1140.4,1111.2 1156.8,1125.8 1169.4,1137.0C1182.1,1148.3 1194.4,1159.3 1196.9,1161.5C1199.4,1163.7 1210.3,1173.4 1221.0,1183.0C1231.8,1192.6 1243.9,1203.4 1248.0,1207.0C1252.1,1210.5 1259.8,1217.3 1265.0,1222.0C1278.6,1234.3 1289.1,1243.4 1298.9,1251.9C1306.9,1258.8 1330.3,1279.8 1345.0,1293.5C1357.1,1304.8 1359.9,1307.0 1361.5,1306.4C1362.3,1306.0 1363.0,1305.2 1363.0,1304.6ZM2138.5,900.2C2128.8,896.1 2117.3,885.5 2112.8,876.4C2107.5,866.0 2107.0,849.8 2111.6,840.8C2112.9,838.3 2113.5,834.0 2112.6,834.0C2112.4,834.0 2110.1,834.9 2107.5,836.0C2101.9,838.4 2098.9,838.5 2095.0,836.5C2089.9,833.9 2089.0,831.5 2089.0,821.0L2089.0,811.4L2092.4,808.1C2096.3,804.3 2098.9,804.4 2104.3,808.2L2107.3,810.4L2112.9,807.4C2116.0,805.8 2121.9,802.7 2126.0,800.5C2137.4,794.3 2142.7,792.5 2145.6,793.8C2149.6,795.7 2153.4,805.0 2151.2,807.5C2150.7,808.1 2149.3,811.0 2148.1,814.0C2145.9,819.3 2144.0,823.5 2138.6,835.3C2132.6,848.2 2131.7,851.4 2131.7,858.6C2131.7,872.7 2139.4,879.5 2152.6,877.1C2160.3,875.7 2163.9,870.5 2168.4,854.8C2169.3,851.6 2170.7,846.6 2171.5,843.8C2174.2,833.9 2179.0,817.5 2180.7,812.0C2182.7,805.2 2188.2,799.0 2192.1,799.0C2196.2,799.0 2200.1,802.9 2204.3,811.1C2206.4,815.2 2208.9,819.7 2209.8,821.2C2210.7,822.7 2213.8,827.6 2216.7,832.2C2219.5,836.8 2223.9,843.6 2226.4,847.5C2228.9,851.3 2231.0,854.7 2231.0,855.2C2231.0,855.6 2232.3,858.2 2234.0,861.0C2238.5,868.6 2238.2,872.9 2232.8,877.4C2224.7,884.4 2220.2,881.6 2206.6,861.2C2202.5,854.9 2198.5,848.5 2197.8,846.9C2196.3,843.4 2195.4,843.2 2194.7,846.2C2193.5,851.2 2187.3,868.2 2184.1,875.0C2174.2,896.0 2154.4,906.9 2138.5,900.2ZM2387.0,863.4C2377.4,861.6 2371.0,856.6 2362.2,843.8C2353.0,830.5 2351.3,829.4 2350.5,835.8C2346.9,862.1 2341.3,868.1 2328.4,859.4C2324.7,856.8 2324.1,856.7 2314.7,857.3C2303.1,858.0 2300.9,857.4 2297.5,852.1C2293.1,845.5 2293.0,840.8 2297.2,836.6C2301.8,832.0 2304.6,831.4 2316.0,832.8C2329.5,834.5 2329.0,834.6 2329.0,830.2C2329.0,828.2 2329.6,822.5 2330.4,817.5C2331.2,812.5 2332.1,804.6 2332.5,799.8C2333.4,788.3 2335.6,784.6 2341.9,784.2C2345.7,783.9 2346.5,784.3 2349.4,787.4C2352.2,790.3 2360.1,801.5 2363.5,807.2C2366.8,812.9 2372.7,822.0 2375.0,825.0C2376.5,826.9 2378.7,830.4 2379.8,832.7C2384.0,840.9 2392.4,843.4 2401.0,839.0C2405.5,836.7 2410.0,829.2 2410.0,824.0C2410.0,820.4 2406.1,812.4 2402.2,807.8C2393.3,797.6 2373.1,768.4 2370.2,761.7C2368.5,757.7 2370.9,753.4 2376.3,751.0C2381.2,748.9 2410.4,747.2 2420.6,748.5C2431.5,749.8 2437.0,758.6 2432.0,766.7C2428.5,772.5 2426.1,773.4 2415.0,772.7C2409.1,772.4 2404.8,772.6 2404.4,773.1C2404.1,773.7 2407.4,778.0 2411.7,782.8C2424.6,797.0 2427.4,801.2 2429.7,809.9C2434.9,829.6 2426.3,851.2 2409.5,860.2C2404.4,862.9 2393.1,864.5 2387.0,863.4ZM2283.0,828.3C2274.1,822.4 2273.5,819.7 2277.0,803.0C2278.2,797.8 2279.7,790.1 2280.6,786.0C2281.4,781.9 2282.4,777.1 2282.9,775.5C2283.4,773.9 2284.6,768.2 2285.5,762.9L2287.2,753.3L2283.6,746.2C2279.1,737.2 2273.8,728.9 2269.6,724.1C2267.8,722.1 2262.5,715.7 2257.8,709.9L2249.3,699.3L2246.1,707.4C2244.3,711.9 2242.2,716.9 2241.5,718.5C2240.1,721.6 2236.9,729.7 2230.5,746.0C2228.4,751.2 2226.3,756.7 2225.7,758.1C2224.8,760.3 2225.1,761.3 2227.0,764.1C2233.0,772.7 2252.7,798.9 2255.7,802.3C2261.7,809.0 2258.4,817.5 2249.3,818.7C2243.2,819.5 2239.8,817.7 2234.4,810.7C2231.8,807.3 2224.4,798.2 2218.0,790.5C2196.5,764.5 2196.8,765.1 2203.0,752.9C2204.8,749.4 2206.9,745.0 2207.7,743.3C2210.4,736.8 2211.8,733.4 2213.5,729.0C2214.5,726.5 2215.8,723.1 2216.5,721.5C2217.2,719.9 2218.5,716.6 2219.4,714.2C2223.4,703.7 2224.3,701.3 2225.6,698.2C2226.4,696.4 2227.0,694.3 2227.0,693.5C2227.0,692.7 2227.6,690.6 2228.4,688.8C2229.2,687.0 2230.5,683.6 2231.4,681.2C2235.1,671.5 2236.4,669.0 2239.5,666.0C2243.3,662.3 2247.0,661.8 2250.2,664.6C2252.1,666.3 2296.8,725.6 2308.3,741.8C2313.9,749.6 2314.0,751.2 2309.1,765.8C2307.5,770.6 2305.4,777.9 2304.5,782.0C2303.5,786.1 2302.1,791.8 2301.4,794.5C2300.7,797.2 2299.8,803.5 2299.5,808.5C2298.6,820.8 2297.6,823.6 2292.8,827.1C2288.1,830.4 2286.4,830.7 2283.0,828.3ZM2087.4,794.0C2083.4,792.4 2079.0,786.2 2079.0,782.1C2079.0,775.6 2082.7,772.5 2104.0,761.3C2108.1,759.1 2116.0,754.9 2121.5,752.0C2137.0,743.7 2146.8,739.0 2148.4,739.0C2151.5,739.0 2157.1,723.6 2168.7,684.0C2169.6,681.0 2170.9,676.5 2171.6,674.1C2172.4,671.6 2173.0,669.3 2173.0,668.8C2173.0,667.6 2168.2,667.8 2159.9,669.4C2155.8,670.2 2148.0,671.5 2142.5,672.4C2137.0,673.4 2130.2,674.5 2127.5,675.1C2124.8,675.6 2118.9,676.4 2114.5,677.0C2099.4,678.7 2096.5,679.7 2094.7,683.6C2093.7,685.5 2093.0,687.7 2093.0,688.5C2093.0,689.3 2092.4,691.4 2091.6,693.2C2090.9,695.0 2089.6,698.8 2088.8,701.5C2087.9,704.2 2086.5,709.2 2085.5,712.5C2084.5,715.8 2083.2,720.3 2082.5,722.5C2081.8,724.7 2080.4,729.4 2079.5,733.0C2074.3,753.1 2064.3,759.3 2055.9,747.7C2052.3,742.8 2052.3,739.6 2055.6,730.5C2057.0,726.6 2059.2,720.4 2060.5,716.5C2063.2,708.7 2064.9,704.2 2068.0,696.0C2069.2,693.0 2070.5,689.3 2071.0,687.9C2071.4,686.5 2072.2,684.5 2072.8,683.4C2074.5,680.5 2080.0,665.9 2080.0,664.6C2080.0,663.9 2081.5,662.0 2083.2,660.3C2086.7,656.9 2086.6,657.0 2113.5,653.5C2124.9,652.0 2131.6,651.1 2156.8,647.4C2162.7,646.6 2171.1,645.2 2175.5,644.4C2187.7,642.2 2188.7,642.4 2193.6,647.4C2197.0,650.7 2198.0,652.5 2198.0,654.9C2198.0,658.9 2194.0,676.5 2190.6,687.5C2189.9,689.7 2188.6,694.0 2187.7,697.0C2186.8,700.0 2184.2,707.9 2181.9,714.5C2179.7,721.1 2177.5,727.9 2177.0,729.5C2176.6,731.1 2175.7,733.9 2175.2,735.5C2174.6,737.1 2173.5,741.6 2172.6,745.5C2170.7,753.4 2168.3,756.5 2161.1,760.3C2158.6,761.6 2150.4,765.9 2143.0,769.8C2135.6,773.6 2126.6,778.4 2123.0,780.3C2119.4,782.3 2114.2,785.0 2111.5,786.4C2108.8,787.8 2104.0,790.3 2101.0,792.0C2095.5,795.0 2091.3,795.6 2087.4,794.0ZM1070.0,782.0C1092.0,778.4 1100.9,775.2 1121.5,763.6C1145.4,750.1 1169.7,727.0 1182.6,705.5C1186.1,699.8 1192.0,687.5 1192.0,686.0C1192.0,685.5 1192.6,683.6 1193.4,681.8C1197.1,672.9 1202.5,651.5 1205.6,633.5C1207.3,623.4 1207.2,587.7 1205.5,582.4C1204.8,580.3 1204.5,580.3 1177.2,580.4C1162.0,580.4 1141.0,579.9 1130.5,579.2C1084.3,576.0 1069.7,574.9 1058.5,573.4C1051.9,572.6 1043.8,572.0 1040.6,572.2L1034.7,572.5L1032.5,583.5C1030.5,593.6 1029.6,596.7 1025.8,607.0C1024.3,610.8 1015.3,629.0 1010.1,638.5C996.5,663.2 973.3,690.8 949.5,710.7C940.2,718.4 925.3,728.0 922.6,728.0C922.0,728.0 920.6,728.6 919.6,729.3C913.7,733.6 952.2,760.2 978.0,769.5C1000.3,777.6 1009.6,780.0 1026.0,782.0C1031.2,782.6 1036.2,783.3 1037.0,783.5C1042.0,784.5 1060.1,783.7 1070.0,782.0ZM1482.5,781.4C1490.9,780.5 1502.3,777.7 1510.5,774.6C1534.2,765.4 1561.9,749.8 1578.4,736.3C1585.0,731.0 1586.1,729.3 1583.3,728.4C1561.1,721.5 1529.8,694.9 1504.1,661.0C1492.0,645.1 1480.0,624.8 1476.9,615.0C1476.5,613.6 1475.2,610.0 1474.0,607.0C1471.4,600.3 1467.3,587.5 1465.3,580.0L1463.8,574.5L1446.7,574.8C1437.2,574.9 1423.4,575.5 1416.0,576.1C1408.6,576.6 1394.4,577.5 1384.5,578.0C1374.6,578.5 1360.7,579.3 1353.5,579.9C1325.0,582.2 1312.1,583.0 1304.8,583.0C1298.8,583.0 1297.1,583.3 1296.6,584.6C1294.4,590.4 1296.8,635.6 1299.9,645.2C1300.5,647.0 1303.1,655.2 1305.6,663.5C1314.9,693.1 1332.8,724.4 1348.6,738.5C1370.0,757.5 1385.3,766.0 1418.0,777.3C1429.4,781.2 1429.7,781.2 1449.5,782.0C1460.5,782.4 1471.1,782.6 1473.0,782.4C1474.9,782.2 1479.2,781.8 1482.5,781.4ZM2088.7,745.0C2085.3,742.3 2083.7,737.0 2084.2,730.4C2084.8,723.8 2088.8,718.9 2095.9,716.4C2098.4,715.5 2103.3,713.7 2106.7,712.4C2115.5,709.0 2119.4,709.2 2123.5,713.3C2129.9,719.7 2129.1,727.4 2121.6,733.4C2115.7,738.1 2104.6,743.7 2096.5,745.9C2091.4,747.3 2091.7,747.3 2088.7,745.0ZM2006.2,737.4C1998.7,731.5 1997.8,719.2 2003.6,702.6C2004.4,700.4 2004.9,698.5 2004.7,698.4C2004.6,698.3 2001.6,698.8 1998.0,699.6C1975.3,704.4 1957.3,699.0 1948.3,684.7C1938.8,669.7 1939.4,647.0 1949.7,635.1C1956.0,627.7 1959.6,626.2 1985.8,620.4C1990.3,619.4 1994.0,618.3 1994.0,618.0C1994.0,617.7 1989.4,613.0 1983.9,607.5C1972.2,596.1 1970.0,593.0 1970.0,587.7C1970.0,577.6 1978.4,572.1 1993.8,572.0L1999.0,572.0L1999.0,568.5C1999.0,561.1 2004.3,555.2 2014.0,551.9C2017.6,550.7 2021.2,549.2 2022.0,548.5C2024.4,546.4 2034.1,541.8 2037.7,541.0C2041.6,540.1 2045.0,542.3 2047.0,546.9C2048.2,549.8 2048.0,551.1 2045.4,561.5C2045.0,563.1 2046.3,564.6 2051.5,568.4C2055.2,571.1 2063.2,578.1 2069.3,584.0C2082.5,596.6 2083.1,597.0 2087.9,595.9C2089.9,595.4 2094.9,595.0 2099.0,595.0C2110.0,595.0 2150.0,590.3 2150.0,589.0C2150.0,587.8 2140.9,575.2 2122.3,550.3C2096.0,515.1 2099.7,519.0 2091.5,519.0C2082.1,519.0 2063.1,520.6 2054.9,522.1C2051.2,522.7 2047.1,523.0 2045.6,522.6C2041.5,521.6 2035.3,515.4 2033.4,510.4C2031.7,506.0 2031.8,505.8 2033.7,503.2C2038.4,496.9 2041.7,496.0 2061.5,496.0C2071.4,496.0 2085.0,495.5 2091.7,494.9C2102.7,493.8 2104.1,493.8 2106.5,495.4C2110.3,497.9 2123.4,514.0 2139.8,536.5C2147.8,547.5 2157.3,560.5 2161.0,565.5C2167.9,575.0 2180.0,594.2 2180.0,595.8C2180.0,597.5 2176.1,605.7 2174.8,606.7C2172.5,608.5 2148.9,612.6 2123.5,615.6C2115.8,616.4 2104.9,617.8 2099.4,618.6C2085.6,620.5 2078.6,620.4 2075.2,618.3C2073.7,617.3 2065.3,609.8 2056.5,601.6C2039.3,585.5 2027.4,576.0 2024.6,576.0C2023.6,576.0 2020.6,577.1 2017.8,578.5C2015.1,579.9 2012.0,581.0 2010.9,581.0C2009.7,581.0 2009.0,581.7 2009.0,582.9C2009.0,583.9 2006.9,586.7 2004.4,589.0L1999.8,593.2L2002.7,596.4C2004.3,598.1 2010.0,604.2 2015.5,610.0C2029.7,625.1 2031.1,628.2 2027.0,634.0C2024.5,637.5 2018.5,639.6 2007.1,641.1C2002.4,641.6 1998.4,642.3 1998.0,642.5C1997.7,642.7 1993.0,643.3 1987.5,644.0C1973.4,645.5 1970.3,646.7 1966.9,651.3C1962.3,657.6 1963.6,673.4 1968.8,675.5C1975.3,678.2 1981.3,678.0 2003.0,674.5C2035.2,669.3 2031.9,669.6 2034.8,671.7C2039.6,675.2 2038.5,682.9 2031.8,693.5C2027.7,700.0 2023.6,708.1 2022.5,711.9C2021.9,713.9 2022.1,714.2 2023.4,713.7C2025.6,712.9 2030.6,715.4 2032.0,717.9C2034.0,721.8 2033.2,729.6 2030.4,733.0C2024.3,740.2 2012.5,742.4 2006.2,737.4ZM2418.3,726.5L2413.2,722.0L2404.8,722.0C2395.1,722.1 2361.9,725.5 2354.3,727.2C2349.8,728.2 2348.6,728.1 2345.1,726.5C2339.3,723.9 2329.4,712.6 2322.5,700.8C2318.8,694.4 2312.6,685.2 2306.6,677.0C2295.7,662.3 2286.1,647.1 2285.4,643.5C2283.2,631.9 2290.2,626.9 2317.5,620.5C2324.9,618.8 2333.6,616.6 2341.0,614.5C2358.7,609.5 2378.3,604.9 2389.5,603.0C2398.4,601.5 2401.0,602.5 2411.0,611.5C2415.1,615.2 2425.2,623.9 2433.5,630.9C2458.4,651.9 2459.0,652.6 2459.0,657.6C2459.0,667.0 2450.8,671.0 2441.3,666.1C2436.7,663.8 2417.2,647.2 2404.4,634.8C2394.4,625.1 2394.9,625.3 2383.4,627.5C2360.1,632.0 2347.4,634.6 2340.0,636.5C2326.5,639.9 2322.2,640.9 2318.0,641.5C2315.5,641.9 2313.1,642.4 2312.7,642.7C2312.2,643.0 2316.3,647.8 2321.7,653.3C2334.9,667.0 2338.7,673.0 2342.0,685.5C2342.9,689.2 2344.5,693.2 2347.3,698.7C2350.4,704.9 2353.7,705.1 2379.2,701.4C2394.3,699.2 2418.6,699.5 2424.1,701.9C2431.8,705.3 2435.5,710.1 2435.4,716.6C2435.4,721.6 2435.1,722.3 2431.0,726.5C2425.5,732.1 2424.7,732.1 2418.3,726.5ZM910.7,706.9C912.8,705.8 915.9,704.0 917.5,703.0C919.1,702.0 922.2,700.2 924.3,699.1C932.3,694.7 947.9,682.1 958.5,671.5C982.8,647.3 996.1,625.0 1010.2,584.5C1015.1,570.5 1012.5,553.9 1004.9,549.9C1000.0,547.4 985.7,547.2 979.0,549.6C955.3,558.0 940.9,567.0 932.2,578.8C925.9,587.3 917.0,604.8 917.0,608.6C917.0,609.3 916.4,611.4 915.6,613.2C907.0,633.8 901.1,677.4 903.5,702.2C904.3,709.8 904.8,710.2 910.7,706.9ZM1597.9,703.3C1599.9,693.3 1598.5,668.8 1595.1,653.5C1594.5,650.8 1593.3,645.6 1592.5,642.0C1591.7,638.4 1590.4,632.1 1589.5,628.0C1579.9,584.2 1556.9,557.9 1519.0,547.4C1512.4,545.5 1499.9,545.9 1495.5,548.0C1485.9,552.7 1484.6,571.2 1492.4,593.2C1493.3,595.6 1494.7,599.5 1495.5,602.0C1504.3,626.6 1525.6,656.2 1549.1,676.4C1567.2,692.0 1575.0,697.8 1585.5,703.5C1589.3,705.6 1592.9,707.7 1593.5,708.1C1595.6,710.1 1596.8,708.7 1597.9,703.3ZM2360.9,677.7C2350.1,670.5 2350.7,659.1 2362.1,654.6C2368.8,651.9 2381.4,649.8 2384.3,650.9C2389.6,652.9 2393.0,658.8 2393.0,666.1C2393.0,673.3 2391.9,675.1 2385.3,678.4C2380.1,681.0 2365.2,680.6 2360.9,677.7ZM2477.7,635.2C2473.7,631.5 2468.2,626.9 2465.5,625.0C2458.1,620.0 2445.1,609.1 2444.0,607.0C2439.1,597.8 2449.0,592.8 2475.0,591.5C2498.9,590.3 2505.0,587.6 2506.6,577.4C2508.3,565.7 2503.8,561.4 2491.0,562.5C2486.9,562.8 2481.2,563.7 2478.5,564.5C2475.8,565.2 2469.7,566.6 2465.0,567.5C2460.3,568.4 2454.0,569.8 2450.9,570.6C2441.8,572.9 2439.3,572.5 2434.9,568.1C2432.7,566.0 2431.0,563.8 2431.0,563.4C2431.0,562.3 2434.2,557.0 2440.1,548.3C2446.8,538.3 2452.4,527.5 2451.7,525.9C2451.3,525.1 2449.9,522.7 2448.5,520.5C2444.2,513.5 2446.2,506.8 2455.2,497.8C2464.3,488.6 2473.2,493.8 2473.4,508.5C2473.5,513.4 2474.0,515.1 2476.2,518.1C2480.5,523.7 2479.8,528.8 2473.8,537.4C2472.2,539.6 2471.1,541.4 2471.3,541.6C2471.4,541.7 2475.1,541.2 2479.5,540.3C2498.8,536.6 2512.5,541.1 2523.1,554.5C2532.9,566.9 2533.1,582.9 2523.4,596.0C2520.0,600.7 2511.4,608.0 2509.4,608.0C2509.1,608.0 2506.2,609.4 2502.8,611.0C2499.5,612.6 2496.1,614.0 2495.1,614.0C2490.7,614.1 2490.4,615.8 2494.1,619.7C2502.4,628.5 2503.3,633.8 2497.5,638.9C2491.2,644.4 2486.5,643.5 2477.7,635.2ZM2271.9,581.4C2264.7,573.5 2264.8,572.5 2278.0,532.0C2279.5,527.3 2282.2,518.8 2283.9,513.0C2285.7,507.2 2287.7,500.7 2288.4,498.5C2289.1,496.3 2290.5,491.8 2291.5,488.5C2299.0,463.1 2300.2,461.6 2315.5,457.8C2321.0,456.4 2328.2,454.3 2331.5,453.2C2334.8,452.0 2342.9,450.3 2349.5,449.4C2356.1,448.6 2365.1,447.0 2369.5,445.9C2381.3,443.1 2382.6,443.3 2387.6,448.4C2390.2,450.9 2392.0,453.7 2392.0,455.0C2392.0,462.7 2382.8,470.2 2370.0,472.9C2368.1,473.4 2364.7,474.2 2362.5,474.8C2360.3,475.4 2355.1,476.6 2351.0,477.5C2346.9,478.4 2341.7,479.6 2339.5,480.1C2337.3,480.6 2332.3,481.5 2328.5,482.0C2316.5,483.6 2315.0,484.0 2315.0,485.6C2315.0,486.4 2312.4,495.1 2309.1,504.8C2305.9,514.5 2301.9,527.2 2300.1,533.0C2297.0,543.3 2292.2,558.3 2291.3,560.8C2290.5,562.8 2298.0,562.3 2340.1,557.5C2347.0,556.7 2354.9,556.0 2357.6,555.9C2360.3,555.9 2366.8,555.1 2372.0,554.2L2381.5,552.5L2387.0,541.5C2390.0,535.4 2393.8,527.5 2395.4,524.0C2397.0,520.4 2400.4,513.2 2403.0,508.0C2411.8,490.1 2417.0,484.0 2423.3,484.0C2427.8,484.0 2435.0,490.1 2435.0,493.8C2435.0,497.0 2431.7,504.7 2427.3,512.0C2425.1,515.6 2417.6,530.1 2410.5,544.3C2401.4,562.6 2397.0,570.6 2395.0,572.0C2392.2,574.0 2380.2,576.1 2360.5,578.0C2348.0,579.1 2331.3,580.9 2320.0,582.1C2314.8,582.7 2302.4,583.4 2292.5,583.7L2274.5,584.2L2271.9,581.4ZM2211.7,563.7C2206.8,560.8 2165.1,512.1 2155.4,497.9C2137.4,471.6 2137.1,471.0 2138.9,465.0C2139.5,463.0 2140.0,458.9 2140.0,456.0C2140.0,453.1 2140.7,446.8 2141.5,442.1C2142.3,437.4 2143.8,425.9 2144.8,416.7C2146.3,403.4 2147.1,399.3 2148.7,397.2C2154.8,389.0 2168.6,398.4 2166.6,409.3C2166.3,411.1 2165.6,416.6 2165.1,421.5C2164.5,426.4 2163.2,438.4 2162.0,448.0L2160.0,465.4L2163.2,470.7C2168.7,479.4 2208.4,530.4 2212.9,534.4C2215.6,536.8 2215.5,536.8 2219.0,527.4C2220.6,523.0 2222.8,517.0 2224.0,514.0C2235.4,484.3 2236.2,481.5 2235.8,471.5C2235.3,458.7 2229.5,445.4 2217.8,430.2C2212.8,423.7 2211.3,423.7 2203.0,429.5C2193.1,436.5 2187.8,436.4 2181.6,429.0C2177.7,424.4 2178.1,420.3 2182.8,415.8C2187.7,411.1 2198.2,404.0 2205.2,400.6L2210.9,397.8L2214.2,399.8C2217.8,402.1 2223.5,408.3 2235.6,423.5C2248.8,440.1 2251.6,444.2 2256.4,454.2C2263.6,469.3 2263.1,475.1 2252.0,502.5C2250.2,506.9 2247.4,513.3 2245.9,516.8C2244.3,520.2 2243.0,523.3 2243.0,523.7C2243.0,524.0 2241.8,526.8 2240.4,529.9C2238.9,532.9 2237.4,536.6 2236.9,538.0C2236.5,539.4 2235.2,543.0 2234.0,546.0C2232.8,549.0 2231.6,552.4 2231.3,553.5C2230.2,557.1 2225.8,562.1 2221.9,564.1C2217.1,566.5 2216.3,566.5 2211.7,563.7ZM1336.0,557.9C1344.0,557.4 1358.6,556.5 1368.5,556.0C1398.5,554.4 1417.2,553.0 1423.5,552.0C1426.8,551.5 1436.9,550.6 1446.0,550.0C1467.9,548.6 1468.5,548.5 1470.4,544.6C1481.0,522.2 1515.6,516.6 1545.5,532.4C1548.2,533.9 1550.4,534.9 1550.6,534.7C1550.8,534.5 1549.8,530.8 1546.0,517.5C1545.0,513.9 1542.2,506.6 1538.7,498.5C1524.5,465.3 1490.2,439.1 1448.4,429.6C1438.2,427.3 1405.0,427.3 1397.1,429.6C1371.7,437.0 1351.9,450.0 1338.2,468.4L1331.5,477.4L1330.7,486.9C1330.3,492.2 1329.6,505.5 1329.2,516.5L1328.5,536.5L1325.6,540.3C1324.0,542.4 1320.8,545.1 1318.6,546.2C1314.4,548.4 1311.1,547.6 1305.8,543.2C1304.3,541.9 1304.0,542.3 1302.6,547.1C1301.8,550.1 1300.9,554.2 1300.5,556.4L1299.9,560.2L1310.7,559.6C1316.6,559.2 1328.0,558.5 1336.0,557.9ZM1197.5,557.9C1197.8,557.5 1197.4,555.7 1196.5,553.9L1194.9,550.5L1187.6,550.8C1180.5,551.1 1180.2,551.1 1177.7,548.0C1174.3,544.0 1174.5,545.3 1172.5,513.0C1170.5,481.8 1171.1,483.6 1160.7,471.0C1142.4,448.7 1121.3,436.1 1091.0,429.4C1079.6,426.9 1054.4,426.9 1043.7,429.5C1029.9,432.9 1017.0,438.1 1004.5,445.3C998.7,448.7 985.0,459.0 978.7,464.8C961.4,480.7 952.7,493.7 940.5,522.5C938.2,527.9 932.9,544.3 933.3,544.7C933.5,544.8 939.2,542.2 946.1,538.7C959.1,532.2 970.5,527.9 982.9,525.0C994.9,522.1 1008.3,525.0 1019.2,532.9C1021.7,534.7 1025.7,538.7 1027.9,541.9C1030.1,545.0 1032.4,548.0 1032.9,548.6C1033.4,549.2 1038.4,550.0 1044.1,550.3C1049.8,550.7 1058.8,551.4 1064.0,552.0C1069.2,552.5 1079.1,553.0 1086.0,553.0C1092.9,553.0 1103.2,553.5 1109.0,554.0C1114.8,554.6 1128.5,555.5 1139.5,556.1C1150.5,556.7 1163.3,557.5 1168.0,558.0C1177.4,558.9 1196.5,558.8 1197.5,557.9ZM1360.1,530.7C1355.7,529.3 1346.3,520.6 1344.5,516.2C1339.7,504.9 1346.3,487.9 1357.4,482.9C1373.7,475.5 1391.1,489.0 1391.0,508.8C1390.9,525.9 1376.6,536.0 1360.1,530.7ZM1128.5,529.0C1117.1,526.1 1111.0,518.0 1111.0,506.0C1111.0,496.5 1115.1,489.7 1125.0,482.9C1130.9,478.8 1141.4,479.5 1147.8,484.5C1166.3,498.6 1163.2,522.2 1142.1,528.4C1136.3,530.1 1133.3,530.2 1128.5,529.0ZM2341.2,525.7C2339.4,523.8 2338.0,521.4 2338.0,520.0C2338.0,518.6 2337.3,513.9 2336.5,509.5C2334.1,497.2 2335.9,495.9 2358.3,492.9C2369.0,491.5 2370.1,492.2 2373.0,501.9C2377.6,517.8 2376.7,520.1 2365.0,523.9C2360.3,525.5 2346.1,529.0 2344.4,529.0C2344.4,529.0 2343.0,527.5 2341.2,525.7ZM2024.0,478.6C2020.3,476.6 2016.9,471.3 2016.3,467.0C2015.6,462.1 2021.0,455.9 2030.0,451.1C2036.8,447.5 2036.8,448.0 2029.4,439.5C2026.6,436.2 2022.5,430.4 2020.4,426.5C2016.5,419.6 2016.5,419.4 2016.5,408.5C2016.5,397.9 2016.6,397.3 2019.9,391.5C2025.7,381.2 2031.6,376.2 2042.8,372.4C2062.7,365.6 2086.5,372.7 2093.1,387.5L2094.9,391.5L2094.9,385.1C2095.0,380.5 2095.6,377.8 2097.1,375.4C2100.8,369.3 2101.5,369.1 2118.8,369.7L2134.5,370.2L2137.8,373.3C2140.7,376.1 2141.0,377.0 2141.0,382.0C2141.0,390.4 2135.8,394.5 2123.7,395.6C2119.6,396.0 2115.8,396.5 2115.3,396.9C2114.8,397.2 2113.8,401.8 2113.2,407.0C2110.5,428.1 2109.1,431.0 2101.5,431.0C2096.3,431.0 2090.5,425.3 2080.2,410.0C2070.3,395.2 2065.8,392.0 2055.2,392.0C2030.8,392.1 2035.4,419.4 2063.9,444.0C2072.7,451.7 2073.2,454.0 2066.8,459.5C2064.5,461.4 2061.4,463.3 2060.0,463.7C2057.6,464.2 2051.3,466.3 2042.5,469.4C2040.0,470.2 2037.6,472.1 2036.2,474.1C2032.1,480.2 2029.0,481.3 2024.0,478.6ZM2322.3,431.3C2321.1,431.1 2318.9,429.5 2317.5,427.9C2313.9,423.6 2314.2,418.9 2318.3,412.0C2332.2,388.9 2338.6,364.4 2332.6,356.6C2327.6,350.0 2315.8,349.3 2310.5,355.3C2308.0,358.2 2300.9,373.6 2295.5,388.0C2288.4,406.8 2284.2,412.9 2277.0,414.5C2271.4,415.7 2267.6,412.6 2257.8,398.4C2254.3,393.3 2246.0,382.0 2239.2,373.1C2227.9,358.2 2227.0,356.6 2227.0,352.6C2227.0,346.0 2235.0,339.6 2240.8,341.4C2244.7,342.7 2258.5,359.0 2265.6,370.7C2270.8,379.4 2271.4,380.0 2272.3,377.2C2272.6,376.3 2274.8,372.1 2277.1,368.0C2281.5,360.0 2284.8,353.7 2287.4,347.9C2290.0,342.2 2298.8,333.2 2304.4,330.3C2311.4,326.6 2327.2,326.3 2333.5,329.6C2347.0,336.9 2356.9,354.0 2357.0,370.2C2357.0,376.6 2353.8,389.7 2350.6,396.0C2347.5,402.1 2347.5,402.3 2349.8,401.1C2355.1,398.2 2367.4,394.0 2370.4,394.0C2380.3,394.0 2386.5,409.4 2380.2,418.5C2375.8,424.8 2372.8,426.0 2369.0,423.1C2365.3,420.5 2365.9,420.4 2347.0,426.8C2335.8,430.6 2326.8,432.2 2322.3,431.3ZM1712.5,422.3C1700.2,419.7 1688.6,408.2 1686.0,396.0C1684.6,389.2 1685.9,377.4 1688.6,373.5C1691.0,370.1 1690.3,369.2 1684.4,368.4C1674.4,367.2 1670.0,361.1 1670.0,348.6C1670.1,339.4 1672.2,330.8 1675.4,326.5C1678.0,323.2 1691.0,316.0 1694.4,316.0C1695.3,316.0 1697.4,315.4 1699.2,314.6C1702.4,313.2 1707.6,311.2 1715.5,308.3C1726.7,304.1 1725.6,305.5 1730.4,290.0C1732.2,284.3 1735.4,277.0 1739.7,268.6C1741.0,266.0 1741.9,263.5 1741.5,263.2C1741.2,262.9 1735.4,263.2 1728.7,263.9C1722.0,264.6 1712.2,265.6 1707.0,266.1C1683.3,268.2 1679.0,269.1 1679.0,271.8L1679.0,274.3L1687.2,273.6C1691.8,273.3 1698.2,272.8 1701.5,272.4C1708.7,271.7 1710.7,273.3 1713.4,281.7C1717.1,293.0 1714.3,297.5 1702.4,299.1C1682.0,301.8 1678.4,301.4 1675.0,295.8L1673.3,292.9L1671.6,297.7C1667.7,308.8 1664.3,312.5 1656.4,314.8C1636.8,320.5 1619.1,305.6 1619.0,283.4L1619.0,277.4L1613.0,278.1C1598.1,279.8 1592.1,274.5 1587.3,255.5C1582.8,237.5 1595.3,218.0 1611.3,218.0L1613.9,218.0L1610.0,210.5C1605.3,201.8 1605.0,197.9 1608.4,191.2C1613.3,181.7 1619.9,177.5 1630.2,177.6C1639.2,177.7 1639.2,177.6 1654.9,193.0C1667.1,204.9 1670.1,207.0 1675.3,207.0L1679.1,207.0L1675.6,202.7C1666.2,191.3 1669.4,179.4 1683.5,173.7C1692.2,170.2 1700.6,167.2 1702.4,166.8C1704.1,166.5 1703.9,166.0 1700.3,162.2C1696.6,158.3 1696.0,158.0 1690.9,158.0C1682.1,158.0 1662.5,153.3 1654.9,149.5C1634.5,139.1 1629.6,119.7 1644.1,106.5C1646.2,104.6 1648.5,103.0 1649.2,103.0C1649.8,103.0 1649.2,101.8 1647.8,100.2C1635.2,87.0 1636.1,66.7 1649.9,53.0C1664.5,38.6 1674.3,39.7 1690.1,57.8C1694.1,62.3 1697.6,66.0 1697.9,65.9C1698.2,65.9 1700.1,63.7 1702.1,61.1C1713.8,45.8 1727.1,43.2 1739.2,54.0C1744.5,58.6 1747.0,64.6 1747.0,72.4C1747.0,77.9 1744.8,90.8 1743.1,95.3C1742.5,96.9 1741.7,101.2 1741.4,104.9L1740.7,111.6L1747.9,120.1C1751.9,124.7 1757.7,131.9 1760.7,136.0C1771.9,150.9 1782.6,163.0 1784.5,163.0C1785.0,163.0 1786.3,161.0 1787.3,158.7C1790.7,150.8 1791.7,148.5 1793.9,143.9C1796.7,137.8 1796.6,137.6 1792.4,140.5C1789.3,142.6 1787.5,143.0 1781.4,143.0C1774.1,143.0 1774.0,143.0 1769.4,138.6L1764.8,134.2L1765.2,121.5L1765.5,108.8L1768.8,105.9C1771.9,103.2 1772.5,103.0 1780.9,103.0L1789.8,103.0L1794.3,107.4C1799.0,112.2 1799.9,114.8 1800.1,125.0C1800.1,128.0 1800.4,129.8 1800.6,129.0C1800.9,128.2 1802.0,125.7 1803.0,123.5C1814.5,98.9 1814.8,96.5 1809.0,84.4C1797.7,61.3 1797.9,47.3 1809.5,35.6C1815.9,29.3 1821.7,27.9 1831.3,30.4C1841.6,33.1 1845.5,36.2 1848.1,43.8L1849.6,48.3L1851.3,44.8C1856.3,34.2 1866.7,27.2 1875.9,28.3C1897.0,30.8 1908.6,52.9 1898.9,72.2C1896.5,77.0 1896.5,77.0 1900.0,77.0C1904.7,77.0 1909.3,79.4 1912.9,83.6C1915.9,87.3 1916.1,87.8 1915.7,94.5C1915.1,107.8 1911.0,117.0 1903.5,122.1C1899.8,124.6 1898.3,124.9 1885.1,125.8C1868.7,126.9 1868.3,127.1 1865.6,135.8C1864.7,138.4 1861.8,147.0 1859.0,155.0C1851.5,176.4 1849.7,182.0 1850.1,182.5C1850.4,182.7 1852.4,182.5 1854.5,182.0C1869.1,178.9 1889.0,176.0 1895.6,176.0C1901.7,176.0 1903.7,174.5 1907.3,167.0C1917.0,146.8 1926.9,134.4 1935.4,131.6C1942.8,129.2 1957.3,129.4 1961.5,132.0C1968.4,136.3 1972.8,145.9 1971.7,154.3C1971.3,156.6 1970.8,160.6 1970.4,163.1L1969.8,167.8L1979.1,168.5C1991.1,169.4 1994.9,171.0 2000.9,177.5C2006.3,183.5 2008.0,188.3 2008.0,197.5C2008.0,215.9 1998.6,227.0 1983.0,227.0L1976.0,227.0L1976.7,229.8C1980.1,241.9 1973.7,258.8 1963.8,263.8L1959.2,266.1L1954.4,264.0C1951.3,262.5 1945.2,257.4 1936.4,248.9C1921.9,234.7 1922.7,235.1 1911.4,237.4C1896.3,240.5 1867.2,245.0 1862.1,245.0C1857.9,245.0 1858.0,245.2 1866.2,257.8C1870.2,263.9 1875.4,272.0 1877.8,275.8C1885.8,288.7 1889.2,290.5 1911.0,293.5C1929.2,296.0 1934.9,298.1 1942.0,304.7C1949.5,311.6 1950.4,314.6 1949.7,329.3C1948.9,347.8 1944.7,351.5 1922.7,352.9C1922.2,353.0 1923.2,354.7 1924.8,356.8C1931.8,365.7 1934.2,371.5 1934.2,379.4C1934.1,389.1 1931.9,393.8 1923.8,401.6C1909.0,415.8 1902.1,418.6 1892.2,414.5C1885.9,411.8 1884.8,410.4 1868.0,384.2C1866.2,381.4 1864.6,379.0 1864.4,379.0C1864.3,379.0 1863.0,381.5 1861.6,384.6C1856.7,394.9 1850.1,401.0 1843.9,401.0C1840.1,401.0 1833.3,393.2 1832.5,387.9C1831.6,381.9 1833.2,378.7 1840.2,372.8C1844.4,369.2 1845.9,367.1 1847.2,362.9C1848.2,359.9 1849.9,354.8 1850.9,351.5C1855.6,337.2 1860.2,331.0 1866.2,331.0C1871.9,331.0 1874.0,334.2 1874.0,342.8C1874.0,349.6 1874.3,350.4 1880.8,363.1C1884.5,370.3 1888.0,377.0 1888.5,377.9C1898.1,393.3 1902.2,395.3 1908.4,387.7C1915.1,379.5 1914.8,374.5 1906.9,365.4C1898.2,355.4 1888.0,341.8 1888.0,340.1C1888.0,339.6 1887.3,338.7 1886.4,338.0C1883.6,335.6 1885.0,329.9 1888.9,327.6C1892.6,325.5 1889.9,325.3 1918.9,329.2C1929.0,330.5 1931.0,329.8 1931.0,325.1C1931.0,320.1 1927.5,318.6 1909.5,315.5C1888.1,311.9 1878.8,309.9 1876.1,308.6C1869.4,305.1 1864.5,298.1 1842.3,260.5C1841.6,259.4 1840.6,257.6 1840.0,256.5C1838.8,254.2 1836.8,251.2 1832.2,244.4C1828.4,238.8 1828.3,237.4 1831.2,233.0C1835.8,226.3 1840.9,224.5 1863.5,221.5C1874.9,220.0 1886.6,218.1 1897.5,215.9C1907.4,213.9 1925.3,212.0 1927.4,212.6C1928.5,212.9 1935.2,218.8 1942.1,225.6C1949.0,232.4 1955.1,238.0 1955.7,238.0C1958.3,238.0 1957.8,231.2 1955.1,229.5C1952.7,228.1 1948.0,220.0 1947.4,216.3C1946.9,212.8 1947.2,211.9 1950.0,208.6C1955.3,202.6 1957.4,202.0 1971.4,202.0L1983.9,202.0L1984.8,198.8C1987.0,190.5 1983.7,189.2 1964.2,190.8C1944.5,192.4 1942.7,192.4 1939.6,189.9C1936.1,187.1 1936.3,183.9 1940.5,176.0C1946.2,165.3 1951.0,155.0 1951.0,153.5C1951.0,151.7 1942.8,152.4 1939.5,154.5C1937.6,155.6 1933.5,163.2 1926.5,178.5C1919.4,193.8 1916.3,196.0 1899.0,198.4C1883.1,200.5 1868.7,202.8 1863.1,204.1C1841.9,208.9 1837.6,208.9 1832.9,204.0C1824.6,195.3 1824.1,184.9 1831.0,167.0C1832.2,164.0 1833.5,160.4 1834.0,159.0C1834.5,157.6 1835.8,154.0 1837.0,151.0C1839.1,145.4 1843.3,133.8 1847.2,122.1C1849.7,114.9 1855.8,107.5 1860.0,106.7C1861.4,106.4 1869.2,105.4 1877.4,104.3C1889.0,102.9 1892.5,102.1 1893.4,100.8C1895.1,98.0 1893.3,97.5 1885.7,98.9C1870.3,101.8 1866.7,101.6 1863.7,98.0C1859.0,92.5 1860.3,89.1 1874.8,67.9C1882.1,57.2 1882.6,54.6 1877.5,52.4C1871.7,50.0 1868.0,51.8 1868.0,57.1C1868.0,58.7 1855.9,83.2 1852.9,87.5C1845.1,99.0 1841.2,96.3 1834.4,75.2C1832.5,69.3 1831.0,62.4 1831.0,59.8C1831.0,54.1 1829.1,51.7 1825.2,52.6C1820.2,53.8 1819.7,51.5 1831.4,84.9C1836.7,100.2 1837.0,98.8 1821.5,131.5C1810.5,154.8 1808.1,160.0 1805.2,167.0C1803.6,171.1 1801.2,177.3 1800.0,180.8C1796.9,189.5 1792.8,193.0 1785.7,193.0C1779.9,193.0 1778.4,191.9 1771.0,182.0C1769.1,179.5 1761.5,170.6 1754.0,162.2C1729.9,134.8 1720.7,123.1 1719.0,117.4C1717.9,113.6 1718.8,99.8 1721.6,77.8C1722.0,75.1 1721.9,73.0 1721.4,73.0C1720.0,73.0 1712.7,85.0 1711.3,89.4C1709.7,94.6 1706.7,97.5 1701.4,99.0C1695.6,100.6 1694.6,99.7 1685.0,84.2C1672.7,64.3 1667.9,61.4 1663.0,71.1C1658.3,80.3 1660.4,84.4 1678.7,100.9C1691.7,112.6 1692.8,116.4 1684.9,122.3C1682.3,124.1 1682.0,124.2 1675.2,122.6C1665.8,120.5 1663.5,120.6 1661.0,123.2C1655.0,129.7 1665.5,133.7 1691.3,134.9L1705.1,135.5L1710.3,141.0C1724.5,156.2 1756.2,192.6 1757.9,195.8C1762.5,204.4 1754.7,214.6 1741.0,218.0C1739.1,218.4 1733.0,219.9 1727.5,221.3C1717.7,223.7 1709.1,225.4 1690.2,228.5C1685.1,229.4 1679.2,231.0 1677.1,232.1C1668.1,236.8 1666.7,236.4 1657.6,226.5C1644.3,211.9 1633.4,201.0 1632.4,201.0C1627.4,201.1 1628.3,204.4 1635.7,213.6C1640.7,219.7 1645.0,227.6 1645.0,230.6C1645.0,231.5 1643.5,233.6 1641.8,235.4C1638.8,238.3 1637.5,238.7 1626.5,240.4C1608.8,243.1 1609.5,242.7 1609.6,248.8C1609.9,258.1 1610.6,258.4 1626.0,255.0C1636.2,252.7 1638.2,253.1 1642.4,258.1C1645.4,261.6 1645.4,262.2 1643.1,274.5C1640.7,286.9 1641.9,291.9 1647.5,292.3C1650.2,292.5 1651.0,290.9 1655.5,275.5C1661.5,254.6 1663.2,250.6 1667.0,247.9C1669.7,246.0 1686.1,244.0 1699.5,244.0C1703.3,244.0 1712.1,243.4 1719.0,242.6C1756.1,238.3 1759.6,238.4 1765.8,244.3C1769.4,247.8 1770.1,253.0 1767.6,257.8C1764.5,263.7 1758.7,276.8 1755.7,284.5C1754.9,286.7 1753.0,291.4 1751.6,295.0C1750.3,298.6 1748.8,304.2 1748.5,307.5C1747.2,318.8 1743.2,323.6 1732.0,327.3C1727.9,328.7 1722.0,330.8 1719.0,331.9C1716.0,333.1 1710.8,335.0 1707.5,336.1C1694.5,340.4 1693.0,341.1 1693.0,343.1C1693.0,345.3 1694.1,345.4 1704.5,344.0C1719.4,342.1 1725.4,350.4 1718.1,362.8C1716.4,365.7 1715.0,368.3 1715.0,368.5C1715.0,368.8 1713.7,371.8 1712.2,375.2C1707.4,385.7 1707.0,387.0 1707.0,390.9C1707.0,396.7 1710.1,400.0 1715.5,400.0C1720.7,400.0 1721.4,399.1 1725.9,386.5C1732.2,369.2 1740.5,356.0 1745.2,356.0C1747.0,356.0 1755.0,364.8 1759.8,372.0L1764.1,378.5L1763.5,369.5C1762.5,356.4 1761.6,352.4 1758.5,348.1C1753.1,340.2 1753.8,335.6 1762.5,323.5C1765.7,319.1 1769.1,313.9 1770.2,312.0C1771.2,310.1 1772.5,307.8 1772.9,307.0C1775.0,303.4 1782.1,287.7 1785.5,279.5C1792.5,262.5 1797.6,256.0 1804.1,256.0C1809.1,256.0 1811.9,259.5 1823.0,279.5C1824.8,282.7 1831.0,292.3 1836.8,300.9C1849.4,319.6 1849.7,320.8 1843.3,329.9C1835.5,340.9 1831.2,351.1 1828.0,366.4C1826.3,374.7 1823.4,377.5 1817.2,376.6C1809.9,375.6 1807.6,373.4 1807.2,366.9C1806.7,358.6 1808.6,352.3 1820.6,323.7C1823.9,315.8 1824.5,317.9 1813.6,302.0C1809.8,296.5 1806.4,292.0 1806.1,292.0C1804.8,292.0 1796.3,310.0 1795.4,314.4C1794.9,317.3 1795.1,317.9 1797.1,318.5C1800.0,319.4 1808.0,326.9 1808.0,328.6C1808.0,329.4 1806.3,331.8 1804.3,334.1L1800.6,338.1L1794.1,337.7C1790.5,337.5 1786.5,337.0 1785.4,336.6C1782.5,335.6 1780.4,341.2 1782.0,345.4C1787.3,359.5 1787.5,387.9 1782.2,400.4C1780.0,405.7 1772.9,411.0 1767.9,411.0C1762.1,411.0 1759.5,409.6 1752.2,402.5C1745.2,395.6 1745.0,395.5 1745.0,397.0C1745.0,398.6 1735.8,413.4 1732.7,416.7C1727.5,422.2 1720.7,424.1 1712.5,422.3ZM1891.5,288.3C1888.4,287.6 1882.3,281.1 1881.7,278.0C1879.9,269.1 1886.8,262.9 1904.5,257.6C1913.7,254.9 1915.5,254.8 1917.3,256.8C1919.9,259.7 1922.0,266.8 1922.0,272.9C1922.0,281.5 1917.5,285.0 1903.0,287.6C1895.1,289.0 1894.7,289.1 1891.5,288.3ZM1871.9,166.6C1867.7,163.7 1865.0,157.9 1865.0,151.7C1865.0,143.3 1870.6,139.7 1888.3,136.6C1893.5,135.6 1896.6,139.1 1899.1,148.5C1901.7,158.2 1901.5,162.1 1898.7,164.8C1893.4,169.8 1878.0,170.7 1871.9,166.6Z"/></svg>