<svg xmlns="http://www.w3.org/2000/svg" viewBox="0 0 1800 1424" width="12.000in" height="9.493in"><path fill="#2c1b36" fill-rule="evenodd" d="M869.0,1420.2 C867.8,1418.7 865.2,1415.7 863.1,1413.5 C839.7,1388.1 827.5,1366.9 822.9,1343.5 C819.8,1327.7 819.0,1320.5 818.9,1308.8 C818.8,1293.1 818.8,1293.1 808.9,1315.0 C801.9,1330.5 796.0,1340.2 788.3,1348.9 C782.4,1355.6 766.0,1370.0 764.3,1370.0 C762.6,1370.0 762.7,1367.0 764.5,1359.5 C768.5,1343.0 765.0,1320.8 755.4,1300.8 C752.1,1294.0 742.2,1278.0 741.3,1278.0 C741.1,1278.0 741.2,1281.5 741.6,1285.8 C741.9,1290.0 742.2,1297.7 742.3,1302.8 C742.3,1311.1 742.1,1312.3 740.0,1314.5 C735.2,1319.6 731.7,1317.7 712.8,1299.2 C685.9,1272.9 665.5,1247.9 648.4,1220.3 C635.3,1199.1 628.8,1183.9 624.4,1164.5 C623.0,1158.5 621.7,1153.4 621.5,1153.1 C619.5,1151.2 612.7,1194.4 613.1,1206.1 C613.5,1216.2 609.5,1216.3 598.9,1206.3 C581.5,1189.8 567.4,1164.8 561.1,1138.9 C555.9,1117.5 552.5,1086.7 553.6,1070.0 C553.8,1065.9 554.2,1058.2 554.4,1053.0 C554.6,1047.8 555.5,1041.0 556.3,1038.0 C558.1,1031.8 561.4,1010.6 560.8,1008.9 C560.6,1008.3 558.7,1011.1 556.6,1015.2 C552.0,1023.8 546.5,1031.8 538.2,1041.6 C534.9,1045.6 530.6,1051.3 528.5,1054.4 C524.8,1060.0 521.7,1061.9 518.4,1060.6 C517.0,1060.1 516.9,1058.2 517.4,1045.2 C518.8,1009.2 519.1,970.9 518.0,938.8 C516.8,901.1 517.5,888.0 521.2,874.1 C522.3,869.9 523.4,865.6 523.7,864.5 C524.1,862.8 522.1,860.8 513.8,854.3 C499.7,843.3 490.2,834.3 482.4,824.6 C475.8,816.4 466.6,801.7 463.7,794.8 C460.2,786.4 460.3,791.8 464.1,810.5 C467.5,827.3 470.8,838.4 476.4,851.7 C482.6,866.3 482.7,866.6 481.7,870.2 C479.9,877.0 475.0,874.7 448.0,854.4 C429.3,840.4 412.1,821.8 400.8,803.2 C394.9,793.7 387.1,774.2 382.2,757.0 C380.2,749.8 378.3,744.0 377.9,744.0 C377.2,744.0 375.9,750.4 373.9,763.5 C373.2,767.9 372.6,779.6 372.6,789.5 C372.6,808.1 373.3,813.6 378.1,830.9 C380.4,839.1 380.1,842.3 376.6,844.5 C373.0,846.9 368.7,844.6 358.9,835.3 C334.4,811.9 317.8,783.9 309.3,751.8 C306.7,741.9 306.6,740.5 306.5,716.0 C306.5,688.8 307.2,682.2 311.7,669.7 C313.0,666.0 314.0,662.4 313.8,661.8 C312.8,658.9 295.6,676.3 288.5,687.5 C284.1,694.3 276.1,709.8 271.9,719.4 C265.6,733.9 258.6,733.7 255.8,719.0 C249.4,686.1 251.0,654.8 260.5,626.1 C269.8,598.5 282.1,579.6 310.1,549.8 C316.6,542.9 322.0,536.9 322.0,536.6 C322.0,536.3 320.9,536.0 319.6,536.0 C316.4,536.0 297.8,528.1 283.5,520.6 C267.9,512.4 246.3,498.8 232.5,488.5 C221.2,480.1 190.1,453.2 186.6,448.9 C185.5,447.6 180.3,441.6 175.0,435.5 C169.7,429.4 163.2,421.7 160.6,418.2 C156.3,412.6 154.9,411.5 145.7,407.1 C123.5,396.6 107.4,379.4 100.6,359.0 C95.4,343.3 93.7,328.7 95.9,317.3 C99.7,297.3 100.2,292.9 99.2,289.3 C98.6,287.2 96.4,279.4 94.2,272.0 C90.7,260.3 87.6,246.6 85.6,233.9 C85.0,230.7 84.4,230.1 80.2,228.5 C77.6,227.5 73.5,225.6 71.0,224.4 C65.7,221.6 64.9,221.5 65.7,223.5 C66.6,226.0 63.9,233.9 61.6,235.5 C55.1,240.1 44.0,234.5 44.0,226.7 C44.0,224.2 49.5,217.0 51.3,217.0 C55.7,216.9 54.6,214.9 44.1,204.4 C26.7,186.9 22.3,175.8 21.3,146.2 C21.0,136.8 20.5,129.0 20.3,129.0 C20.0,129.0 19.2,129.7 18.4,130.5 C16.0,132.9 9.6,132.4 6.2,129.5 C0.7,124.9 1.2,118.7 7.3,115.0 C12.0,112.1 15.7,112.4 19.0,116.0 C22.5,119.7 22.6,119.6 26.6,106.8 C32.2,89.2 39.5,76.3 52.1,62.0 C59.4,53.7 59.8,52.6 55.2,51.5 C51.1,50.6 46.1,45.9 45.4,42.4 C44.4,37.4 49.1,32.9 55.7,32.3 C62.6,31.6 66.9,35.2 67.7,42.3 C68.2,46.5 68.5,47.1 70.4,46.8 C72.3,46.5 72.6,45.5 73.6,36.5 C75.1,23.7 76.3,19.5 80.0,13.8 C90.3,-1.8 108.5,-3.4 121.8,10.1 C127.8,16.2 129.1,19.0 138.6,47.0 C143.1,60.5 148.2,75.1 149.8,79.5 C154.6,92.7 175.0,142.4 175.9,143.3 C176.4,143.8 179.6,143.5 183.2,142.6 C186.7,141.7 192.5,141.0 196.1,141.0 C204.2,141.0 205.8,140.1 204.2,136.5 C199.5,126.2 207.2,118.3 216.1,124.3 C221.3,127.8 221.7,132.6 217.6,142.0 C217.2,143.1 218.6,144.7 222.4,147.5 C233.5,155.5 240.6,170.5 238.1,180.7 C234.9,194.0 228.9,204.5 219.1,213.8 L212.5,220.1 L215.1,224.8 C223.3,239.8 246.7,274.8 257.7,288.5 C274.1,309.1 308.0,340.5 310.7,337.7 C311.8,336.6 320.0,323.9 325.2,315.3 C327.0,312.3 327.0,311.9 325.6,309.8 C322.1,304.8 324.7,298.2 331.8,294.6 C334.4,293.3 338.3,290.3 340.5,288.0 C346.9,281.3 351.2,279.7 356.4,282.1 C358.1,282.9 359.0,284.2 359.2,286.3 C359.5,289.1 359.9,289.3 366.8,291.1 C375.0,293.2 379.5,295.6 385.7,301.3 L390.0,305.2 L390.9,302.7 C393.5,296.0 401.8,295.3 407.7,301.3 C412.6,306.2 413.2,311.0 409.2,315.0 C405.9,318.2 399.1,319.2 395.0,317.0 C393.3,316.1 392.9,316.6 391.5,321.7 C386.7,339.0 379.7,351.5 369.4,360.9 C366.3,363.8 364.1,366.5 364.6,366.9 C365.5,367.7 369.7,369.0 388.0,374.1 C413.4,381.2 439.0,385.5 466.5,387.5 C476.7,388.2 476.3,388.4 483.1,380.0 C485.5,377.0 492.8,368.7 499.3,361.7 C507.9,352.3 511.0,348.4 510.5,347.2 C510.1,346.2 509.6,342.7 509.3,339.3 C508.8,333.4 508.9,333.0 511.8,330.1 C516.4,325.5 521.8,326.5 524.7,332.5 C525.6,334.4 527.0,336.0 527.7,336.0 C528.4,336.0 534.3,333.4 540.8,330.1 C547.2,326.9 557.4,322.6 563.3,320.6 C573.3,317.3 575.1,317.0 586.0,317.0 C603.5,317.0 618.4,320.2 620.8,324.6 C621.6,326.1 630.7,322.9 660.4,310.5 C667.1,307.7 664.3,306.6 637.0,301.4 C629.5,300.0 619.3,296.6 617.6,295.0 C614.7,292.2 617.3,288.4 626.0,282.4 C644.9,269.3 673.2,257.9 696.0,254.1 C699.6,253.6 705.9,252.5 710.0,251.8 C714.8,251.0 726.3,250.5 741.5,250.6 C775.3,250.7 786.9,252.6 818.5,263.1 C846.7,272.5 863.7,282.2 881.3,299.0 C887.1,304.5 892.2,309.0 892.7,309.0 C893.2,309.0 894.9,307.6 896.6,305.9 C898.2,304.2 904.0,299.2 909.5,294.7 C947.5,264.0 981.3,252.8 1036.0,252.6 C1079.6,252.5 1100.2,257.7 1137.0,278.3 C1149.7,285.3 1154.0,288.4 1154.0,290.5 C1154.0,292.7 1150.5,294.9 1145.5,296.0 C1142.7,296.6 1134.2,298.6 1126.5,300.5 C1118.8,302.3 1110.1,304.4 1107.2,305.0 C1098.6,307.0 1100.2,308.5 1115.5,313.0 C1132.3,317.9 1148.0,324.3 1160.2,331.2 C1163.9,333.3 1167.1,335.0 1167.4,335.0 C1167.6,335.0 1170.0,333.2 1172.6,331.0 C1187.7,318.4 1211.5,313.7 1230.5,319.5 C1242.8,323.2 1254.2,330.6 1270.5,345.3 C1272.3,347.0 1272.5,346.9 1276.5,343.0 C1281.7,337.9 1285.6,337.6 1289.4,342.1 C1290.8,343.8 1292.0,345.7 1292.0,346.4 C1292.0,348.0 1288.8,351.0 1287.2,351.0 C1286.5,351.0 1286.0,351.4 1286.0,352.0 C1286.0,352.5 1285.4,352.7 1284.6,352.4 C1283.8,352.1 1282.9,352.3 1282.6,352.8 C1282.3,353.4 1281.1,353.6 1280.0,353.3 C1277.1,352.5 1277.3,353.1 1284.9,365.4 C1288.7,371.5 1292.9,378.8 1294.2,381.5 C1297.2,388.1 1297.3,388.1 1306.0,387.4 C1339.6,385.0 1369.8,380.2 1392.5,373.9 C1404.4,370.5 1405.2,370.0 1404.7,367.1 C1404.4,365.7 1403.5,360.9 1402.7,356.5 C1401.8,352.1 1400.7,345.6 1400.1,342.1 C1399.0,335.0 1398.5,334.1 1396.8,335.8 C1393.0,339.6 1384.6,334.3 1383.8,327.6 C1383.5,324.8 1383.9,323.9 1386.5,322.2 C1391.0,319.1 1399.0,318.8 1399.0,321.7 C1399.0,324.6 1400.5,321.9 1403.0,314.5 C1405.7,306.5 1410.5,296.2 1415.5,288.0 C1419.5,281.4 1419.6,281.0 1417.3,281.0 C1414.9,281.0 1407.2,276.3 1406.0,274.0 C1403.4,269.2 1405.7,264.1 1411.8,261.3 C1413.8,260.4 1415.8,259.1 1416.2,258.6 C1416.7,257.9 1417.0,258.0 1417.0,258.8 C1417.0,259.6 1417.6,260.0 1418.2,259.8 C1421.3,258.7 1424.3,265.0 1424.1,272.1 L1423.9,277.7 L1431.2,277.2 C1435.2,277.0 1440.3,277.3 1442.6,277.9 C1447.6,279.2 1456.8,285.1 1463.5,291.3 C1469.3,296.7 1469.6,296.8 1470.4,293.6 C1470.7,292.2 1472.5,289.5 1474.4,287.6 C1478.4,283.3 1482.5,282.8 1486.6,286.3 C1489.0,288.4 1489.2,289.0 1488.5,292.9 C1487.7,297.8 1483.5,303.1 1479.0,305.0 C1477.4,305.7 1476.0,306.4 1476.0,306.7 C1476.0,308.6 1483.6,329.0 1484.3,329.0 C1487.5,329.0 1506.1,312.9 1514.5,302.8 C1530.7,283.5 1573.3,222.9 1575.5,216.0 C1576.0,214.3 1575.1,212.8 1571.0,208.7 C1564.2,202.0 1559.5,195.0 1553.0,182.1 C1550.2,176.4 1547.5,172.1 1547.2,172.6 C1545.9,174.5 1541.4,176.7 1537.7,177.4 C1532.9,178.3 1528.1,174.1 1527.9,168.8 C1527.8,167.0 1527.7,164.8 1527.6,164.0 C1527.5,162.3 1528.5,161.1 1532.0,158.8 C1536.0,156.3 1544.2,159.6 1546.0,164.4 C1546.4,165.6 1546.9,162.2 1547.3,156.0 C1549.4,118.7 1570.2,94.3 1601.7,92.3 C1610.4,91.7 1616.4,92.8 1623.3,96.2 C1625.5,97.3 1627.5,97.9 1627.8,97.6 C1628.1,97.2 1631.8,87.0 1636.0,74.7 C1653.6,23.8 1655.5,19.5 1663.5,12.1 C1670.6,5.6 1676.5,3.0 1683.7,3.0 C1698.2,3.0 1709.0,14.4 1709.0,29.6 C1709.0,36.3 1709.6,37.0 1715.0,37.0 C1717.6,37.0 1723.1,38.1 1727.2,39.5 C1735.8,42.4 1736.7,42.5 1734.6,40.4 C1733.0,38.8 1732.6,35.8 1732.9,28.5 C1733.3,20.3 1741.1,17.8 1749.5,23.0 C1756.0,27.0 1756.2,33.3 1749.9,40.1 C1746.2,44.1 1745.9,44.3 1741.4,43.6 L1736.7,43.0 L1744.1,48.8 C1760.1,61.5 1767.2,72.9 1772.6,95.0 C1775.2,105.5 1775.3,105.6 1780.5,102.6 C1786.5,99.0 1791.3,99.2 1795.1,102.9 C1799.9,107.8 1798.2,116.2 1791.5,120.6 C1788.5,122.6 1779.3,122.1 1777.9,119.9 C1776.6,117.9 1775.2,120.3 1774.4,126.0 C1772.1,141.2 1764.5,161.0 1754.2,177.9 C1751.4,182.6 1749.3,186.7 1749.5,187.1 C1749.8,187.4 1751.7,188.0 1753.9,188.4 C1756.5,188.8 1759.2,190.2 1761.6,192.5 C1765.0,195.7 1765.2,196.3 1764.7,200.6 C1763.5,211.5 1750.2,216.8 1743.6,208.9 C1742.3,207.4 1740.6,204.5 1740.0,202.5 C1739.4,200.6 1738.6,199.0 1738.3,199.0 C1737.3,199.0 1707.7,222.0 1699.7,229.0 C1699.2,229.4 1697.4,236.4 1695.5,244.6 C1690.4,267.4 1687.5,278.5 1682.9,292.1 C1680.3,299.7 1680.4,300.6 1685.0,308.3 C1687.2,312.1 1691.0,319.0 1693.6,323.8 C1698.1,332.3 1702.0,337.6 1702.0,335.3 C1702.0,331.9 1715.1,328.0 1716.9,330.9 C1717.4,331.6 1718.1,332.0 1718.6,331.8 C1719.1,331.7 1719.6,333.4 1719.8,335.7 C1720.1,339.3 1719.8,340.1 1717.6,341.5 C1714.2,343.7 1707.8,344.5 1705.0,343.0 C1702.9,341.9 1702.8,341.9 1703.4,345.7 C1705.8,361.9 1706.2,367.6 1705.7,379.4 C1705.4,386.6 1704.2,396.6 1703.2,401.5 C1699.4,419.1 1699.2,417.3 1705.5,419.9 C1711.6,422.4 1714.0,425.1 1714.0,429.1 C1714.0,432.7 1709.0,437.0 1704.7,437.1 C1698.7,437.3 1693.5,436.8 1691.9,436.0 C1689.9,434.9 1687.6,436.4 1678.8,444.6 C1669.4,453.4 1644.8,469.0 1640.4,469.0 C1639.7,469.0 1638.8,469.5 1638.5,470.0 C1638.2,470.6 1639.0,471.0 1640.4,471.0 C1643.4,471.0 1648.0,476.2 1648.0,479.6 C1648.0,483.4 1645.3,487.8 1642.0,489.5 C1632.9,494.2 1623.3,487.2 1623.7,476.2 C1623.8,475.3 1622.9,475.1 1621.1,475.4 C1606.9,478.3 1594.6,479.4 1577.8,479.5 C1567.6,479.5 1558.9,479.7 1558.7,480.0 C1558.4,480.3 1558.8,483.1 1559.7,486.2 C1561.6,493.1 1560.9,496.5 1556.9,498.5 C1553.9,500.1 1544.0,500.3 1544.0,498.8 C1544.0,498.3 1543.5,498.0 1542.9,498.0 C1541.6,498.0 1539.6,496.0 1538.7,493.7 C1538.4,492.8 1537.4,492.0 1536.5,492.0 C1534.2,492.0 1522.5,498.1 1510.3,505.7 C1492.2,516.9 1483.0,522.0 1470.3,528.1 C1461.3,532.3 1458.2,534.3 1458.6,535.4 C1458.9,536.2 1462.6,539.7 1466.8,543.3 C1494.1,566.4 1517.3,602.5 1526.0,635.5 C1526.5,637.1 1527.5,641.0 1528.3,644.0 C1531.7,656.8 1532.5,663.9 1532.5,681.5 C1532.5,698.9 1532.0,703.3 1528.3,720.9 C1525.0,736.6 1520.3,735.1 1512.5,715.8 C1509.0,707.0 1503.2,697.5 1495.5,687.5 C1488.4,678.4 1475.8,666.1 1475.2,667.8 C1475.0,668.4 1475.9,672.9 1477.1,677.7 C1479.2,685.6 1479.4,688.7 1479.4,707.5 C1479.3,735.9 1476.5,752.2 1468.0,773.4 C1457.9,798.9 1449.5,811.6 1428.1,833.3 C1416.2,845.4 1412.1,848.5 1409.0,847.5 C1404.8,846.2 1404.7,842.7 1408.2,825.6 C1411.3,810.3 1411.5,808.5 1411.4,788.5 C1411.3,777.0 1410.8,764.6 1410.1,761.0 C1408.1,750.1 1406.8,745.0 1406.0,745.0 C1405.6,745.0 1404.4,748.5 1403.5,752.8 C1397.7,779.4 1387.1,801.6 1370.7,822.0 C1353.9,842.8 1325.3,866.9 1309.5,873.4 C1301.6,876.7 1300.0,871.6 1305.3,860.0 C1313.3,842.3 1315.7,836.0 1319.0,823.3 C1322.8,808.8 1325.2,789.0 1323.2,789.0 C1322.8,789.0 1321.0,791.8 1319.3,795.3 C1307.2,818.6 1289.8,839.1 1269.2,854.4 C1264.7,857.7 1261.0,861.2 1261.0,862.1 C1261.0,863.0 1261.8,866.1 1262.8,869.1 C1263.9,872.1 1265.6,879.5 1266.6,885.5 C1268.7,897.7 1268.8,902.8 1267.9,1004.2 C1267.5,1061.3 1267.3,1063.4 1263.7,1061.4 C1261.6,1060.2 1240.1,1032.6 1232.7,1021.7 C1225.2,1010.6 1224.9,1011.3 1228.4,1030.1 C1232.9,1054.1 1233.9,1069.5 1231.9,1089.5 C1229.0,1120.0 1226.7,1131.8 1219.4,1153.6 C1212.5,1174.3 1205.3,1186.5 1184.3,1212.8 C1174.3,1225.3 1172.6,1227.0 1170.0,1227.0 C1165.2,1227.0 1164.9,1224.8 1167.5,1212.0 C1170.9,1194.9 1171.0,1193.0 1168.3,1197.0 C1165.8,1200.7 1149.8,1219.0 1145.5,1223.0 C1143.5,1224.9 1140.4,1229.5 1138.5,1233.1 C1122.8,1264.3 1105.5,1283.0 1071.5,1305.7 C1048.2,1321.2 1021.4,1333.7 1010.1,1334.3 C1003.8,1334.7 1005.0,1332.0 1016.3,1320.8 C1028.1,1309.1 1035.5,1298.8 1044.6,1281.0 C1046.1,1278.0 1049.6,1272.0 1052.2,1267.8 C1054.8,1263.5 1056.7,1260.0 1056.4,1260.0 C1056.1,1260.0 1052.6,1263.0 1048.6,1266.6 C1044.7,1270.3 1037.9,1276.0 1033.5,1279.3 C1002.2,1303.0 984.8,1318.7 979.1,1328.3 C974.5,1336.1 969.4,1350.1 967.9,1358.6 C965.8,1371.4 966.7,1396.2 969.6,1406.3 C970.7,1409.8 967.1,1409.2 961.3,1404.7 C955.1,1399.9 943.8,1388.5 940.3,1383.4 C932.6,1372.4 925.0,1351.1 922.0,1331.8 C921.3,1327.5 920.4,1324.0 920.0,1324.0 C918.6,1324.0 907.9,1337.7 898.3,1352.0 C886.1,1370.1 876.0,1397.8 876.0,1413.0 C876.0,1422.5 873.1,1425.5 869.0,1420.2 Z M951.4,1358.8 C951.6,1357.5 952.4,1353.1 953.0,1349.0 C954.4,1340.5 959.5,1326.6 964.7,1317.9 C966.6,1314.6 977.0,1300.1 987.8,1285.7 C998.5,1271.3 1013.1,1251.8 1020.1,1242.5 C1046.6,1206.9 1054.3,1187.5 1054.4,1156.0 C1054.4,1135.5 1051.2,1119.2 1044.4,1105.8 C1043.1,1103.2 1042.0,1100.7 1042.0,1100.3 C1042.0,1098.8 1065.2,1122.6 1069.9,1129.0 C1077.3,1138.9 1084.0,1154.1 1089.2,1172.5 C1092.2,1183.2 1092.5,1211.5 1089.6,1225.5 C1085.7,1245.2 1078.8,1265.7 1070.9,1281.2 C1067.9,1287.1 1069.4,1287.0 1075.8,1280.9 C1078.9,1277.8 1083.8,1273.4 1086.5,1271.1 C1103.4,1256.8 1120.8,1226.3 1128.0,1198.2 C1136.3,1165.6 1137.1,1123.7 1129.9,1095.7 C1126.0,1080.2 1118.5,1064.0 1110.4,1053.3 C1105.9,1047.3 1108.0,1048.9 1120.6,1060.7 C1145.3,1083.8 1151.7,1099.2 1155.2,1143.4 C1156.3,1158.2 1155.5,1178.0 1153.5,1183.2 C1153.1,1184.2 1153.2,1185.0 1153.8,1185.0 C1156.1,1185.0 1173.6,1152.3 1177.6,1140.9 C1186.9,1113.7 1189.5,1079.7 1184.5,1050.5 C1178.8,1016.9 1172.3,998.0 1157.5,972.2 C1155.5,968.8 1154.3,966.0 1154.9,966.0 C1156.7,966.0 1176.6,986.4 1181.2,993.0 C1187.0,1001.2 1201.0,1025.2 1210.7,1043.5 C1219.1,1059.5 1219.1,1059.6 1214.4,1034.4 C1210.0,1010.8 1211.0,1006.0 1221.8,999.4 C1222.5,999.0 1213.3,965.1 1209.2,953.0 C1203.0,935.0 1184.8,892.4 1177.8,879.2 C1175.1,874.2 1173.3,870.0 1173.9,870.0 C1176.7,870.0 1197.3,892.3 1205.8,904.3 C1215.0,917.4 1237.1,969.5 1242.0,989.8 C1242.6,992.1 1243.5,994.0 1244.0,994.0 C1245.4,994.0 1245.9,989.0 1246.5,966.0 C1247.1,942.4 1247.8,927.0 1248.6,916.9 C1249.3,907.3 1246.8,893.2 1240.5,871.1 C1235.3,853.1 1224.4,823.0 1218.3,809.8 C1216.8,806.6 1215.9,803.7 1216.3,803.4 C1217.5,802.2 1225.1,808.3 1233.6,817.4 C1238.7,822.7 1242.4,826.0 1243.0,825.4 C1243.5,824.9 1244.6,812.6 1245.6,798.0 C1248.2,756.8 1245.5,729.4 1235.9,702.0 C1233.6,695.7 1231.1,687.8 1230.3,684.5 C1228.6,678.1 1228.3,677.4 1227.5,678.2 C1226.3,679.4 1215.4,719.1 1212.1,734.4 C1209.5,746.4 1208.8,747.8 1204.5,749.6 C1199.4,751.7 1198.4,751.4 1196.7,747.2 C1194.1,740.6 1188.9,715.7 1185.9,694.8 C1185.3,690.8 1184.5,671.1 1184.0,651.0 C1183.3,618.2 1182.0,600.5 1179.5,589.2 C1178.7,585.7 1177.2,587.5 1176.5,592.8 C1175.1,602.3 1169.0,626.1 1165.5,635.2 C1158.2,654.0 1138.0,689.6 1126.7,703.2 C1113.4,719.5 1086.6,740.9 1057.4,758.8 C1035.6,772.2 1030.1,774.2 1026.9,770.4 C1025.3,768.5 1027.3,764.4 1039.9,744.0 C1075.5,686.6 1088.5,644.3 1088.4,587.0 C1088.3,553.0 1085.7,535.1 1077.1,506.8 C1070.9,486.4 1069.2,482.0 1064.0,472.8 C1056.1,458.9 1061.7,464.8 1074.0,483.4 C1100.6,523.7 1115.3,580.9 1110.0,624.0 C1105.7,658.8 1094.3,694.1 1080.4,716.2 C1073.2,727.5 1083.2,719.8 1106.5,695.9 C1133.8,668.0 1146.6,644.8 1156.9,604.6 C1163.6,578.9 1163.2,558.1 1155.3,523.0 C1147.2,486.5 1120.1,439.7 1092.2,413.9 C1083.3,405.7 1073.0,398.3 1055.5,387.6 C1036.9,376.3 1037.7,376.9 1043.0,377.6 C1047.1,378.2 1064.4,384.1 1084.8,392.0 C1106.3,400.3 1126.3,418.7 1144.2,446.5 C1155.4,463.9 1165.2,488.3 1172.1,516.2 C1174.8,527.2 1179.3,542.0 1182.0,549.2 C1189.0,567.6 1192.6,581.4 1197.1,606.9 C1198.8,616.4 1199.3,625.2 1199.9,656.0 C1200.6,692.7 1201.3,699.2 1204.0,697.5 C1205.2,696.8 1213.6,670.9 1220.0,648.5 C1233.8,599.8 1238.5,563.4 1235.9,526.0 C1234.7,509.0 1233.8,504.4 1228.8,489.2 C1215.9,449.7 1194.7,416.1 1167.2,391.5 C1154.8,380.3 1147.5,375.0 1135.9,368.4 C1120.9,359.9 1117.7,357.9 1118.2,357.4 C1118.5,357.2 1124.7,358.5 1132.1,360.4 C1147.2,364.2 1161.8,369.7 1183.0,379.5 C1200.4,387.6 1204.2,389.0 1208.6,389.0 C1216.2,389.0 1211.1,384.8 1181.5,366.3 C1144.7,343.5 1109.9,327.2 1085.1,321.4 C1063.6,316.4 1037.6,315.4 1008.2,318.4 C988.2,320.5 986.9,319.7 1000.2,313.7 C1029.2,300.8 1042.5,297.3 1073.0,294.9 C1090.0,293.6 1120.0,287.9 1120.0,285.9 C1120.0,284.4 1113.2,282.0 1098.6,278.4 C1071.3,271.7 1064.4,270.8 1041.5,270.7 C995.1,270.4 960.6,280.9 927.1,305.5 C909.7,318.3 904.3,325.6 893.9,351.0 C892.9,353.4 892.8,353.4 891.4,351.6 C890.7,350.6 888.9,346.1 887.4,341.6 C881.1,322.5 879.0,319.6 862.0,307.1 C838.9,290.0 825.3,283.4 797.8,275.9 C775.3,269.8 766.0,268.7 736.5,268.6 C705.6,268.5 705.0,268.6 675.2,278.6 C657.3,284.5 653.5,286.4 656.0,288.0 C656.8,288.5 658.8,289.0 660.4,289.0 C662.1,289.0 672.5,290.8 683.5,293.0 C694.6,295.2 708.9,297.4 715.2,298.0 C732.1,299.5 751.0,305.2 766.8,313.7 C771.4,316.2 774.9,318.4 774.7,318.6 C774.5,318.9 768.2,318.6 760.9,318.0 C739.3,316.2 714.0,316.4 703.5,318.4 C692.9,320.4 663.8,327.6 659.5,329.2 C652.9,331.7 622.9,347.1 613.0,353.0 C598.5,361.7 562.0,386.0 562.0,387.0 C562.0,387.9 570.4,391.0 572.9,391.0 C573.8,391.0 576.9,389.4 579.9,387.4 C590.3,380.4 608.0,371.9 623.5,366.5 C643.7,359.4 647.3,359.3 635.2,366.0 C604.7,383.2 577.4,409.0 557.0,440.0 C535.4,472.9 526.0,508.5 526.0,557.5 C526.0,586.2 536.1,621.3 557.6,667.5 C565.8,685.2 567.2,688.0 575.1,703.0 C577.3,707.1 581.0,715.0 583.4,720.5 C589.9,735.8 591.5,734.0 594.6,708.5 C597.4,684.5 597.0,660.8 593.2,629.5 C591.5,615.2 589.1,595.4 588.0,585.5 C586.8,575.6 585.5,563.9 584.9,559.5 C583.7,549.0 583.8,517.4 585.0,508.5 C589.2,479.5 604.0,450.3 626.0,428.0 C641.2,412.5 664.1,393.7 665.7,395.3 C666.0,395.7 662.6,400.0 658.2,405.0 C640.5,425.3 619.4,469.0 616.1,492.6 C615.4,496.9 614.4,503.9 613.7,508.0 C612.1,518.1 612.2,551.3 613.9,562.0 C615.5,572.4 622.2,599.7 625.7,610.5 C628.9,620.4 633.8,630.2 643.5,646.5 C660.9,675.4 672.1,689.7 688.7,703.7 C705.5,717.8 723.5,730.9 724.6,729.7 C724.9,729.5 722.0,721.9 718.2,712.9 C694.2,655.6 686.0,615.7 686.0,556.0 C686.0,516.7 690.3,487.5 700.1,460.6 C712.2,427.3 736.2,398.1 770.5,375.0 C777.3,370.4 797.1,360.1 802.1,358.5 L804.3,357.8 L802.4,360.3 C801.4,361.6 795.1,369.0 788.4,376.7 C773.5,393.9 769.3,399.9 758.2,418.7 C735.4,457.8 727.9,478.4 722.0,518.5 C716.0,559.5 719.8,600.5 732.7,635.0 C736.3,644.7 753.0,678.3 757.1,684.2 C760.1,688.5 778.8,710.7 786.5,719.0 C789.8,722.6 798.3,732.2 805.4,740.3 C817.8,754.5 821.0,757.1 821.0,753.2 C821.0,744.8 806.4,682.3 798.0,654.8 C795.3,645.8 791.3,632.7 789.1,625.5 C786.9,618.4 785.3,612.4 785.4,612.2 C786.0,611.7 797.8,624.8 800.9,629.4 C804.6,634.7 821.0,673.9 824.5,685.5 C828.2,698.1 830.2,708.5 832.0,724.6 C833.7,740.4 839.9,758.8 851.2,781.5 C857.3,793.8 861.9,800.7 874.9,817.1 C883.2,827.7 884.6,828.8 883.6,823.9 C882.6,818.9 882.8,784.8 883.9,775.5 C886.0,757.6 888.5,749.4 902.0,714.5 C915.2,680.7 920.9,646.0 916.4,627.0 C913.5,614.7 908.8,600.5 903.8,589.2 C901.1,582.9 899.1,577.6 899.3,577.4 C900.6,576.1 919.0,599.5 927.0,612.5 C958.3,663.4 967.5,733.9 950.6,793.8 C948.7,800.2 946.1,808.5 944.7,812.2 C942.7,817.4 942.4,819.0 943.5,819.0 C945.4,819.0 967.2,794.7 974.7,784.2 C983.3,772.1 988.5,761.9 998.3,737.5 C1011.2,705.5 1013.1,698.0 1014.9,674.3 C1016.7,649.2 1013.6,627.5 1004.5,601.6 C997.9,582.7 994.9,576.0 985.0,558.5 C967.8,528.1 960.9,502.5 960.9,469.5 C960.9,446.7 964.0,428.7 972.7,402.0 C977.7,386.7 979.7,385.2 975.9,399.6 C973.8,407.7 973.7,408.7 974.9,421.9 C976.6,441.1 983.1,468.6 989.7,484.5 C991.1,487.8 997.4,502.0 1003.7,516.0 C1023.7,560.4 1030.0,578.7 1035.6,608.5 C1037.7,619.8 1037.0,675.1 1034.7,688.5 C1031.4,706.6 1021.8,736.6 1014.0,752.5 C1001.1,779.0 988.0,796.3 962.7,820.2 C940.5,841.1 931.1,848.7 926.5,849.6 C918.3,851.1 918.2,846.6 925.6,823.8 C938.5,784.0 943.9,750.6 942.7,717.6 C942.2,703.0 939.6,682.7 936.9,672.7 C935.7,668.1 933.8,668.3 932.8,673.1 C926.8,702.2 923.5,712.2 914.4,729.4 C897.0,762.6 893.3,788.5 899.7,833.8 C902.6,854.9 902.6,855.2 900.8,857.6 C897.8,861.4 895.0,860.6 886.9,853.6 C867.9,837.2 844.5,808.9 835.6,791.2 C834.2,788.5 833.6,788.1 832.0,789.0 C827.6,791.3 825.5,790.3 820.4,783.1 C817.7,779.3 810.1,770.6 803.5,763.8 C755.5,714.3 738.0,690.1 719.9,647.8 C716.4,639.4 713.1,633.0 712.3,633.0 C710.5,633.0 710.3,631.9 717.0,654.9 C726.6,687.9 734.4,710.5 744.5,734.5 C756.4,763.0 756.6,763.6 753.5,765.6 C748.8,768.7 740.4,764.4 707.6,742.3 C688.7,729.5 682.7,724.8 674.7,716.8 C650.6,692.4 635.6,671.6 620.0,641.0 C611.6,624.3 607.9,619.0 609.4,625.8 C611.2,633.7 612.8,674.9 611.9,690.3 C610.2,721.2 604.1,752.5 597.1,767.3 C591.1,779.9 590.4,779.2 576.6,746.0 C563.2,714.0 559.6,706.1 558.5,707.0 C554.5,710.3 540.4,743.6 538.9,753.1 C536.5,768.3 539.6,824.0 543.0,827.4 C544.2,828.6 543.8,829.0 548.9,820.9 C551.2,817.2 555.1,812.3 557.6,810.0 C562.3,805.7 572.3,800.4 572.8,801.9 C573.0,802.4 571.1,805.9 568.7,809.6 C556.5,828.6 545.8,857.2 539.4,888.0 C537.8,895.5 537.6,902.9 537.6,948.8 C537.5,977.6 537.8,1001.4 538.1,1001.6 C540.2,1002.9 543.2,994.9 555.0,957.0 C564.9,925.2 575.5,904.0 590.6,886.0 C597.4,878.0 609.8,866.4 610.6,867.3 C611.2,867.9 605.7,881.0 595.5,902.8 C587.2,920.7 583.6,930.8 577.1,954.0 C574.2,964.2 570.4,977.5 568.6,983.6 L565.4,994.7 L568.2,996.3 C574.0,999.6 575.2,1003.3 574.6,1015.2 C574.2,1021.2 574.2,1026.0 574.5,1026.0 C574.7,1026.0 576.8,1022.3 579.1,1017.8 C587.7,1000.8 597.5,986.8 610.5,973.1 C617.0,966.2 622.8,961.6 621.8,964.1 C612.4,986.5 604.6,1006.6 602.1,1014.2 C592.7,1043.9 591.5,1079.4 599.1,1108.8 C602.1,1120.4 606.4,1132.0 607.5,1131.7 C608.0,1131.5 610.2,1126.4 612.3,1120.4 C620.6,1096.5 630.8,1076.9 644.7,1058.2 C651.1,1049.6 680.6,1019.2 681.6,1020.2 C681.9,1020.6 680.2,1024.4 677.7,1028.7 C663.0,1054.3 654.7,1085.6 652.4,1124.0 C651.2,1144.9 658.6,1175.2 670.7,1198.5 C678.2,1213.0 698.4,1240.8 702.6,1242.4 C704.5,1243.1 704.6,1244.2 700.6,1221.1 C690.8,1165.2 697.4,1135.8 728.0,1099.6 C732.1,1094.9 735.6,1091.2 735.8,1091.5 C736.0,1091.7 734.2,1096.8 731.7,1102.7 C726.8,1114.1 723.2,1127.3 720.4,1143.0 C714.1,1178.6 726.0,1221.9 752.7,1260.3 C761.9,1273.5 769.5,1285.7 773.1,1293.2 C774.4,1295.9 776.0,1298.0 776.6,1298.0 C778.2,1298.0 786.9,1275.7 790.4,1262.9 C793.7,1250.7 796.5,1234.2 798.1,1217.4 C800.0,1197.9 796.7,1160.3 791.6,1143.0 C790.3,1138.3 789.3,1134.4 789.5,1134.2 C790.0,1133.6 803.0,1148.3 807.4,1154.4 C815.2,1165.3 818.8,1173.2 825.4,1193.1 C839.2,1234.8 840.7,1243.0 842.0,1283.0 C842.5,1297.6 843.6,1314.5 844.4,1320.5 C846.0,1332.5 849.8,1351.0 850.9,1352.3 C851.3,1352.7 854.7,1348.4 858.5,1342.8 C867.5,1329.2 877.6,1316.6 892.3,1300.6 C912.7,1278.3 924.5,1262.3 932.6,1246.0 C942.7,1225.6 947.1,1202.1 944.9,1179.5 C943.9,1169.1 943.1,1164.6 939.4,1151.0 C937.3,1143.2 956.6,1176.1 960.5,1187.0 C968.0,1207.8 966.7,1231.7 956.5,1264.0 C942.9,1306.8 939.6,1342.3 947.7,1358.2 C949.3,1361.6 950.8,1361.8 951.4,1358.8 Z M863.0,1136.9 C831.3,1134.8 801.0,1126.0 770.2,1110.0 C752.4,1100.8 742.8,1093.8 729.9,1080.9 C713.8,1064.8 705.5,1051.6 698.5,1030.7 C688.3,1000.3 698.8,964.8 725.3,939.3 C732.8,932.1 755.2,914.0 756.6,914.0 C756.9,914.0 760.2,912.3 763.8,910.1 C770.8,906.1 799.4,894.7 811.5,891.2 C839.7,883.0 885.0,879.1 921.7,881.9 C938.4,883.1 941.8,883.7 960.0,888.4 C966.9,890.2 975.5,892.4 979.2,893.3 C991.0,896.1 1027.5,912.0 1034.7,917.4 C1062.7,938.4 1066.4,941.8 1075.2,955.0 C1095.2,985.3 1098.3,1014.2 1084.5,1042.5 C1073.6,1064.7 1060.2,1080.5 1039.0,1096.2 C1029.0,1103.6 1023.4,1106.6 1005.0,1114.6 C957.0,1135.2 921.1,1140.9 863.0,1136.9 Z M919.6,1119.9 C971.0,1114.8 1019.1,1094.9 1046.7,1067.3 C1056.9,1057.1 1061.4,1050.3 1067.5,1035.8 C1076.5,1014.3 1077.8,1003.8 1072.9,989.0 C1067.9,973.4 1062.7,965.8 1045.8,949.4 C1025.9,930.1 1011.3,921.7 977.8,910.6 C948.8,900.9 921.8,897.4 884.5,898.3 C847.9,899.3 831.0,902.5 798.0,914.5 C778.4,921.6 773.3,924.0 763.7,930.3 C739.1,946.4 719.6,970.3 714.5,990.5 C712.4,998.7 712.6,1017.5 714.8,1026.1 C717.1,1034.9 730.4,1057.0 738.8,1066.1 C746.0,1073.9 759.8,1084.7 771.8,1091.9 C790.7,1103.2 830.3,1115.6 859.7,1119.4 C873.0,1121.1 904.8,1121.4 919.6,1119.9 Z M807.0,1017.1 C783.0,1009.1 765.5,993.2 763.5,977.5 C762.2,966.7 768.2,961.6 781.6,962.3 C788.6,962.6 790.9,963.2 798.2,966.7 C815.0,974.8 827.9,985.1 831.4,993.3 C836.1,1004.6 835.4,1013.5 829.6,1017.1 C825.5,1019.6 814.6,1019.6 807.0,1017.1 Z M956.5,1017.6 C951.8,1015.5 949.8,1012.5 949.2,1007.0 C948.3,997.3 956.7,985.3 971.3,975.6 C995.3,959.8 1016.0,956.4 1021.7,967.3 C1023.8,971.5 1023.1,981.1 1020.0,987.5 C1016.9,994.1 1005.1,1005.6 997.4,1009.7 C982.4,1017.7 964.5,1021.1 956.5,1017.6 Z M666.0,851.9 C652.5,850.0 641.3,842.4 620.1,821.0 C611.1,811.9 600.8,800.9 597.3,796.5 L590.9,788.5 L595.7,788.3 C608.4,787.6 620.5,785.5 632.0,781.8 C654.2,774.8 664.0,773.3 675.7,775.0 C705.4,779.5 731.8,798.1 743.0,822.3 C748.7,834.7 748.1,836.1 739.5,831.0 C732.9,827.1 732.7,827.1 726.1,833.2 C709.0,848.9 688.6,855.3 666.0,851.9 Z M1101.1,852.0 C1085.3,849.8 1076.0,845.1 1062.2,832.4 L1054.8,825.7 L1050.7,827.9 C1048.4,829.1 1045.0,831.0 1043.3,832.1 C1032.3,839.1 1046.1,814.1 1062.1,798.0 C1073.5,786.5 1086.7,779.5 1102.7,776.4 C1117.3,773.6 1128.3,774.8 1152.0,781.6 C1168.8,786.5 1181.6,789.0 1189.1,789.0 C1191.8,789.0 1194.0,789.3 1194.0,789.8 C1194.0,790.7 1182.3,803.7 1165.3,821.7 C1140.7,847.8 1124.8,855.3 1101.1,852.0 Z M514.7,818.8 C510.8,792.9 510.8,792.3 511.3,774.5 C512.4,741.4 519.1,721.2 537.0,697.5 C542.0,690.9 546.0,684.8 546.0,683.8 C546.0,682.9 541.9,672.5 537.0,660.9 C525.3,633.6 518.8,616.1 515.4,603.0 C513.9,597.2 512.4,592.2 512.1,591.8 C511.8,591.4 506.8,590.6 501.0,590.0 C480.3,587.9 413.7,572.8 398.5,566.8 C391.8,564.1 390.8,563.3 392.2,561.0 C393.2,559.4 390.5,552.2 386.1,545.0 C385.6,544.2 384.7,542.3 384.0,540.9 C383.2,539.2 381.4,537.8 378.8,536.9 C376.5,536.2 375.2,535.4 375.8,535.2 C376.4,535.0 386.1,537.8 397.4,541.4 C424.1,549.9 437.2,553.3 455.0,556.5 C463.0,557.9 478.0,560.7 488.3,562.6 C498.6,564.6 507.3,566.1 507.5,565.9 C507.7,565.7 508.3,554.9 508.9,542.0 C511.1,494.0 520.9,463.2 546.4,424.0 C556.2,408.9 556.2,408.9 545.3,411.0 C536.7,412.6 509.9,413.4 512.7,411.9 C515.1,410.6 516.2,407.6 515.4,404.3 C514.8,402.0 514.6,402.0 498.6,401.9 C489.8,401.8 478.4,401.8 473.5,401.9 L464.5,402.1 L460.9,406.2 L457.4,410.2 L451.9,409.1 C449.0,408.5 437.0,406.7 425.4,405.0 C399.9,401.4 359.1,390.3 345.7,383.3 L342.8,381.8 L345.4,379.1 L348.1,376.3 L344.2,375.1 C340.8,373.9 340.1,374.0 336.7,376.0 L333.0,378.2 L327.3,375.9 C320.5,373.2 301.6,360.9 300.1,358.3 C299.5,357.3 299.0,356.9 299.0,357.3 C299.0,357.8 296.2,356.0 292.8,353.4 C266.2,333.1 239.5,303.7 220.9,274.3 C216.4,267.2 209.3,256.3 205.0,250.0 C200.8,243.7 196.5,237.1 195.6,235.3 C194.0,232.1 194.0,232.1 197.0,230.3 C200.3,228.4 200.5,227.8 199.0,225.0 C198.1,223.3 197.7,223.2 194.7,224.5 L191.4,225.9 L187.6,218.9 C185.5,215.1 184.2,212.0 184.6,212.0 C185.0,212.0 184.6,211.4 183.5,210.7 C182.5,209.9 182.0,208.8 182.3,208.3 C182.7,207.7 182.4,207.0 181.7,206.7 C179.6,205.9 158.4,159.3 144.8,125.5 C142.6,120.0 135.9,102.0 130.0,85.5 C109.8,29.6 111.0,32.5 106.4,27.1 C103.7,23.8 99.2,22.9 97.2,25.2 C93.9,29.3 92.1,75.7 93.9,112.1 C95.5,146.6 99.8,181.7 106.5,215.5 C108.3,224.8 109.7,232.7 109.5,232.9 C109.1,233.2 106.2,232.3 101.8,230.5 C100.3,229.9 100.0,230.3 100.0,232.6 C100.0,236.1 100.8,237.3 103.7,238.9 C105.5,239.8 105.8,240.5 105.0,242.4 C103.9,245.3 105.1,250.7 108.5,258.5 C110.8,263.5 111.0,265.0 110.2,268.2 C109.5,270.9 109.6,273.2 110.5,276.3 L111.8,280.5 L114.4,274.7 C115.8,271.5 117.0,268.5 117.0,267.9 C117.0,266.1 118.7,267.9 119.2,270.2 C120.5,275.9 133.1,318.2 135.4,324.3 C139.5,334.9 153.7,365.1 159.5,375.1 C165.4,385.5 177.9,402.6 185.7,411.0 C188.6,414.2 191.0,417.0 191.0,417.3 C191.0,417.6 187.5,416.7 183.3,415.4 C179.1,414.1 175.5,413.2 175.3,413.4 C174.7,414.0 197.1,439.2 204.4,446.2 C210.7,452.2 211.5,452.8 212.2,451.0 C212.6,449.9 213.6,449.0 214.5,449.0 C215.3,449.0 216.0,448.4 216.0,447.6 C216.0,444.3 218.5,445.0 223.3,449.7 C230.3,456.4 237.5,462.2 250.0,471.4 C255.8,475.7 261.3,479.8 262.3,480.6 C263.2,481.4 264.3,482.0 264.6,482.0 C264.9,482.0 267.1,483.3 269.4,485.0 C277.9,490.8 309.2,507.9 320.9,513.0 L332.8,518.3 L330.4,520.7 L327.9,523.2 L330.5,525.2 C337.8,530.9 337.9,542.1 330.7,548.8 C328.2,551.2 328.2,551.2 330.2,553.2 C332.1,555.1 332.1,555.2 324.8,562.8 C293.8,595.4 279.5,622.8 273.4,661.9 C272.4,668.7 272.2,672.6 272.8,673.2 C273.5,673.9 276.8,670.6 282.6,663.6 C293.0,650.9 329.2,618.0 345.2,606.7 C353.4,600.9 373.3,589.0 374.8,589.0 C377.1,589.0 376.0,591.3 370.6,597.9 C340.2,635.5 327.0,669.8 327.0,711.6 C327.0,733.2 329.8,747.7 337.1,765.2 C341.4,775.4 350.0,791.2 351.6,791.7 C352.1,791.9 352.6,787.0 352.7,780.1 C353.0,760.5 355.9,749.5 369.1,718.3 C373.0,709.1 378.5,695.6 381.2,688.5 C388.7,668.7 389.8,666.3 395.6,657.1 C405.5,641.1 415.3,629.5 423.5,624.0 C427.6,621.2 431.0,619.1 431.0,619.3 C431.0,619.5 427.1,626.6 422.4,635.1 C404.8,666.4 399.4,682.9 398.3,708.0 C396.8,742.2 404.6,771.0 422.8,798.7 C429.0,808.1 441.3,822.0 442.5,820.9 C442.8,820.5 442.0,816.0 440.6,810.9 C436.6,796.0 435.6,786.9 435.7,765.5 C435.7,747.5 435.9,744.3 438.3,733.8 C443.8,709.5 451.7,689.0 461.6,673.7 C469.5,661.5 490.8,636.0 493.1,636.0 C494.8,636.0 494.0,637.8 488.7,645.6 C480.9,657.2 478.7,661.3 473.7,674.0 C460.8,706.5 462.2,735.3 478.6,773.7 C484.3,787.1 488.9,794.2 502.0,809.8 C512.6,822.5 515.6,824.6 514.7,818.8 Z M1279.0,813.5 C1304.0,792.3 1317.1,761.2 1317.1,723.5 C1317.1,693.1 1314.0,682.4 1294.7,645.8 C1293.0,642.6 1291.9,639.7 1292.3,639.4 C1293.4,638.3 1304.0,645.3 1306.9,649.0 C1311.8,655.2 1327.8,681.5 1330.9,688.3 C1337.8,703.2 1342.3,721.1 1344.0,739.9 C1345.8,758.8 1344.8,798.7 1342.3,810.2 C1341.1,815.9 1340.8,819.0 1341.4,819.0 C1343.7,819.0 1356.4,808.4 1360.7,803.1 C1366.9,795.2 1376.4,775.4 1379.8,763.0 C1385.0,744.5 1386.4,734.1 1386.4,716.0 C1386.3,699.7 1386.2,699.2 1381.7,681.5 C1374.7,654.5 1366.0,635.6 1355.2,623.9 C1348.6,616.8 1348.8,615.0 1355.6,619.6 C1374.9,632.7 1394.8,659.8 1401.3,682.0 C1402.2,685.0 1405.8,692.6 1409.4,698.8 C1423.2,723.3 1428.7,742.4 1432.1,778.2 C1432.7,785.3 1433.6,791.0 1434.1,791.0 C1435.9,791.0 1442.5,780.9 1447.5,770.5 C1463.4,737.8 1464.3,691.2 1449.9,654.7 C1442.6,636.5 1436.3,625.9 1422.6,609.1 C1403.3,585.5 1403.1,585.0 1415.9,591.5 C1443.5,605.3 1495.8,650.0 1509.9,671.8 C1517.6,683.6 1518.3,683.1 1514.9,668.5 C1510.5,649.7 1507.7,640.1 1503.3,629.0 C1490.7,597.1 1478.0,579.1 1455.3,560.8 C1448.8,555.5 1442.4,550.0 1441.1,548.6 L1438.6,546.0 L1441.6,542.7 C1444.3,539.9 1444.6,539.0 1444.0,535.3 C1443.2,530.1 1435.7,522.3 1429.7,520.5 L1425.8,519.4 L1437.7,515.1 C1459.5,507.1 1481.9,495.7 1508.5,479.1 C1515.6,474.6 1522.1,471.0 1522.9,471.0 C1523.8,471.0 1527.8,471.8 1531.9,472.7 C1537.4,474.0 1538.7,474.6 1537.0,475.0 C1533.1,475.9 1533.4,478.0 1537.3,478.0 C1539.3,478.0 1541.4,478.2 1542.2,478.5 C1543.0,478.7 1544.3,477.2 1545.6,474.5 C1548.0,469.4 1548.5,469.9 1538.4,468.0 C1531.4,466.6 1529.0,465.5 1530.5,464.2 C1531.1,463.7 1537.1,459.1 1543.8,454.0 C1558.5,442.9 1570.9,432.2 1584.3,419.1 C1607.9,396.1 1631.4,359.7 1646.1,323.6 C1648.4,318.0 1648.6,317.8 1649.4,320.2 C1649.9,321.6 1651.5,323.5 1653.1,324.4 L1655.8,326.0 L1657.8,320.8 C1658.9,317.9 1660.3,313.8 1660.9,311.8 C1661.6,309.8 1663.2,306.5 1664.6,304.5 C1666.1,302.2 1667.0,299.5 1667.0,296.9 C1667.0,294.7 1667.4,292.0 1668.0,291.0 C1668.8,289.5 1668.4,288.6 1665.6,286.3 L1662.3,283.5 L1664.1,278.5 C1665.3,275.2 1665.9,274.3 1666.0,275.9 C1666.0,277.9 1666.2,278.0 1667.5,277.0 C1668.7,276.0 1669.0,276.0 1669.0,277.0 C1669.0,279.9 1673.1,274.4 1674.5,269.6 C1676.0,264.6 1684.0,230.6 1684.0,229.4 C1684.0,229.1 1682.5,229.8 1680.6,230.9 C1676.5,233.5 1675.6,233.5 1676.5,231.3 C1676.8,230.3 1677.8,224.4 1678.6,218.0 C1681.5,195.9 1686.0,164.4 1688.8,148.0 C1691.4,131.9 1691.5,130.5 1691.5,90.5 C1691.5,36.5 1690.0,24.0 1683.7,24.0 C1678.2,24.0 1675.2,30.1 1660.3,72.0 C1642.8,121.3 1627.0,160.2 1617.3,177.7 C1611.5,188.1 1610.0,189.3 1610.0,183.7 C1610.0,180.5 1609.9,180.6 1607.2,185.5 C1601.3,196.3 1592.9,215.0 1593.5,216.0 C1593.8,216.5 1595.2,217.0 1596.6,217.0 C1599.4,217.0 1599.4,217.1 1597.9,220.4 L1596.7,222.9 L1593.7,220.8 C1590.8,218.7 1590.7,218.7 1589.4,220.5 C1588.6,221.6 1588.3,223.2 1588.6,224.2 C1589.0,225.5 1587.8,227.7 1584.7,231.3 C1578.6,238.5 1570.0,251.4 1570.0,253.4 C1570.0,254.3 1569.6,255.0 1569.1,255.0 C1568.2,255.0 1568.5,262.0 1569.5,264.8 C1571.2,269.7 1525.0,324.0 1503.8,342.0 C1479.5,362.8 1459.0,374.7 1429.6,385.0 C1419.1,388.7 1419.4,388.7 1418.0,384.5 C1416.8,380.9 1415.3,380.3 1412.0,382.0 C1410.2,382.9 1410.2,383.3 1411.6,386.5 C1412.7,389.3 1412.8,390.1 1411.8,390.5 C1387.0,398.6 1364.7,404.0 1340.9,407.4 C1330.5,409.0 1325.3,409.3 1327.6,408.4 C1329.1,407.8 1328.2,404.1 1326.1,402.0 C1324.7,400.5 1322.6,400.5 1306.0,401.6 C1295.8,402.3 1282.2,402.9 1275.8,402.9 C1264.2,403.0 1264.0,403.0 1264.0,405.3 C1264.0,406.6 1263.5,408.1 1262.9,408.7 C1262.1,409.5 1262.4,410.2 1263.8,411.2 C1270.4,415.7 1258.9,416.0 1230.6,411.9 C1222.9,410.8 1213.9,409.2 1210.6,408.4 C1207.4,407.6 1204.5,407.1 1204.2,407.4 C1204.0,407.7 1206.4,410.8 1209.7,414.4 C1222.5,428.0 1229.9,441.4 1240.8,470.5 C1251.6,499.7 1254.8,518.9 1253.8,549.8 C1253.3,563.7 1253.3,564.0 1255.4,564.0 C1258.7,563.9 1280.7,559.5 1302.5,554.6 C1313.5,552.1 1323.4,550.1 1324.5,550.1 C1326.2,550.2 1326.2,550.3 1324.8,550.7 C1323.1,551.1 1321.8,553.5 1319.0,560.7 C1316.8,566.6 1306.5,574.2 1301.8,573.5 C1300.5,573.3 1296.3,572.2 1292.3,571.1 C1285.9,569.4 1284.6,569.3 1280.3,570.5 C1274.2,572.1 1269.0,574.8 1268.3,576.6 C1268.0,577.4 1267.2,578.0 1266.4,578.0 C1265.7,578.0 1264.5,579.0 1263.9,580.2 C1263.3,581.5 1261.8,583.5 1260.7,584.8 C1258.9,586.8 1258.8,587.2 1260.0,588.0 C1261.1,588.7 1260.1,589.0 1256.8,589.0 L1252.1,589.0 L1251.1,594.8 C1249.0,606.0 1237.7,650.6 1234.3,660.7 L1230.9,671.0 L1234.3,675.3 C1239.9,682.2 1259.5,712.0 1262.8,718.5 C1276.1,745.1 1279.7,786.6 1271.1,812.5 C1269.0,818.7 1268.6,821.0 1269.6,821.0 C1269.9,821.0 1274.1,817.6 1279.0,813.5 Z M847.9,619.8 C846.7,617.5 843.7,612.5 841.3,608.8 C827.5,587.6 820.1,565.5 816.9,536.5 C815.5,523.1 816.3,499.5 818.5,488.6 C824.1,461.5 840.5,430.5 859.7,410.8 C865.8,404.4 868.4,403.2 865.0,408.2 C858.6,417.9 847.7,446.3 842.6,467.0 C833.2,505.2 835.0,557.4 847.5,608.4 C849.5,616.5 850.9,623.4 850.6,623.7 C850.4,624.0 849.1,622.2 847.9,619.8 Z M1381.8,563.2 C1381.8,562.8 1381.6,562.0 1381.5,561.5 C1381.2,559.9 1374.3,545.8 1372.2,542.5 L1370.3,539.5 L1384.4,534.7 C1400.7,529.1 1403.4,528.3 1400.8,530.0 C1395.4,533.4 1393.5,550.7 1397.9,555.4 L1400.3,557.9 L1397.4,559.1 C1386.5,563.4 1382.1,564.5 1381.8,563.2 Z M1610.6,469.1 C1653.2,460.2 1677.6,444.7 1690.4,418.5 C1695.5,408.1 1697.0,402.8 1698.8,389.0 C1701.0,371.4 1699.4,357.6 1693.0,339.0 C1688.6,326.3 1678.9,309.7 1677.0,311.6 C1676.5,312.1 1674.7,316.6 1673.0,321.5 C1667.4,337.6 1648.3,373.9 1635.9,392.0 C1621.2,413.5 1588.9,449.4 1571.3,463.7 C1566.2,467.8 1562.0,471.5 1562.0,471.7 C1562.0,473.2 1601.2,471.1 1610.6,469.1 Z M120.7,418.2 C116.2,413.2 117.1,403.4 122.2,401.6 C128.0,399.6 134.0,406.4 133.0,413.7 C132.2,418.9 132.3,418.9 126.9,419.6 C123.3,420.1 122.2,419.9 120.7,418.2 Z M142.8,397.2 C136.6,385.1 129.0,368.4 125.0,358.4 C122.2,351.3 119.3,344.1 118.5,342.5 C117.8,340.9 114.3,332.2 110.7,323.3 L104.3,307.1 L103.1,310.8 C100.7,318.2 100.6,335.6 102.9,345.3 C106.3,359.5 115.1,375.1 125.2,384.6 C133.3,392.3 144.3,400.2 142.8,397.2 Z M1287.8,388.4 C1290.8,387.6 1290.6,386.6 1285.7,378.8 C1266.4,347.8 1251.9,333.8 1232.4,327.4 C1220.4,323.5 1202.3,323.2 1192.0,326.9 C1184.7,329.4 1174.0,335.9 1174.0,337.7 C1174.0,338.4 1179.4,342.5 1186.0,347.0 C1192.6,351.4 1202.4,358.4 1207.7,362.5 C1222.2,373.8 1228.3,377.8 1239.7,383.7 L1250.0,389.0 L1267.7,389.0 C1277.5,389.0 1286.5,388.7 1287.8,388.4 Z M527.5,385.1 C540.1,382.4 543.9,380.5 557.0,370.1 C572.8,357.5 599.5,338.3 608.0,333.5 C611.8,331.3 615.0,329.0 615.0,328.4 C615.0,327.1 607.9,325.3 598.0,324.0 C576.1,321.3 546.9,330.5 526.5,346.6 C509.6,360.0 487.0,383.1 487.0,387.1 C487.0,389.0 516.3,387.6 527.5,385.1 Z M1421.7,363.9 C1441.1,357.1 1479.0,335.6 1479.0,331.4 C1479.0,328.9 1469.6,309.8 1465.3,303.4 C1452.1,284.0 1434.4,277.8 1423.5,288.7 C1418.9,293.3 1411.6,308.2 1409.0,318.4 C1405.3,333.1 1407.7,367.0 1412.5,367.0 C1412.7,367.0 1416.8,365.6 1421.7,363.9 Z M360.7,359.1 C383.2,341.4 391.7,313.1 377.8,302.7 C372.9,299.0 367.6,297.7 360.4,298.3 C348.4,299.2 338.0,308.1 323.6,329.5 L315.0,342.5 L317.2,344.3 C322.3,348.5 350.9,362.9 354.2,363.0 C355.1,363.0 358.0,361.3 360.7,359.1 Z M1215.5,312.5 C1210.5,307.5 1213.1,293.0 1219.3,291.5 C1224.9,290.1 1232.0,296.0 1232.0,302.0 C1232.0,305.5 1229.1,309.4 1224.5,312.3 C1219.3,315.6 1218.5,315.6 1215.5,312.5 Z M82.5,217.8 C82.2,215.4 81.5,210.8 81.0,207.5 C80.2,201.8 79.4,194.5 77.1,170.0 C76.5,164.2 75.6,154.8 75.0,149.0 C72.7,124.9 72.0,110.1 72.0,83.2 L72.0,54.9 L68.9,56.7 C63.4,59.8 52.4,71.2 47.5,78.8 C32.5,102.1 27.2,122.1 28.3,151.0 C29.3,178.3 35.5,190.2 56.7,206.1 C65.5,212.8 80.4,222.0 82.2,222.0 C82.7,222.0 82.8,220.1 82.5,217.8 Z M1730.8,194.6 C1750.8,175.4 1762.3,155.1 1766.5,131.0 C1771.9,100.2 1762.4,69.1 1743.2,55.4 C1735.0,49.4 1722.5,43.9 1715.9,43.2 L1711.3,42.8 L1711.4,82.6 C1711.4,122.5 1711.4,122.5 1707.7,153.5 C1705.7,170.6 1703.5,189.0 1702.9,194.5 C1702.3,200.0 1701.5,207.0 1701.1,210.0 C1699.9,219.8 1700.1,219.8 1711.3,211.3 C1716.9,207.0 1725.6,199.5 1730.8,194.6 Z M214.9,209.2 C228.9,195.2 234.7,176.8 228.9,164.5 C226.5,159.5 219.1,152.3 213.3,149.4 C208.0,146.7 189.6,146.7 182.8,149.3 L178.1,151.1 L180.4,157.4 C184.0,166.9 192.6,185.9 198.7,197.8 C203.8,207.6 207.9,214.0 209.2,214.0 C209.7,214.0 212.3,211.8 214.9,209.2 Z M1581.0,206.4 C1581.6,205.0 1585.9,196.2 1590.6,186.7 C1595.3,177.2 1600.8,165.7 1602.7,161.0 C1606.3,152.1 1611.3,140.7 1613.6,135.5 C1621.6,117.6 1625.8,106.4 1624.9,104.8 C1623.5,102.2 1611.9,99.0 1603.9,99.0 C1575.1,99.0 1557.3,117.0 1553.9,149.5 C1551.9,168.4 1558.0,184.8 1574.3,204.2 C1578.9,209.7 1579.7,210.0 1581.0,206.4 Z M243.1,179.1 C241.8,178.3 241.8,176.6 243.2,163.8 C243.3,162.8 244.7,161.5 246.2,160.9 C247.7,160.3 249.0,159.4 249.0,158.9 C249.0,158.4 250.1,158.5 251.5,159.0 C252.9,159.5 254.0,159.7 254.0,159.3 C254.0,159.0 255.6,160.3 257.5,162.3 C261.2,166.1 261.6,167.9 259.9,172.8 C258.0,178.3 247.9,182.1 243.1,179.1 Z M1550.5,103.4 C1547.6,100.3 1547.6,100.0 1549.4,95.6 C1553.2,86.5 1567.0,87.1 1567.0,96.4 C1567.0,104.5 1555.9,109.2 1550.5,103.4 Z"/></svg>