<svg xmlns="http://www.w3.org/2000/svg" viewBox="0 0 500 500" width="500" height="500"><rect width="500" height="500" fill="#170f1e"/><defs><linearGradient id="sky" x1="0" y1="0" x2="0" y2="1"><stop offset="0" stop-color="#170f1e"/><stop offset="0.55" stop-color="#2c1b36"/><stop offset="1" stop-color="#4a2c55"/></linearGradient></defs><path fill="url(#sky)" d="M482.00,250.00 L482.00,248.58 L481.98,247.15 L481.96,245.73 L481.93,244.31 L481.89,242.88 L481.84,241.46 L481.79,240.04 L481.72,238.62 L481.65,237.19 L481.56,235.77 L481.47,234.35 L481.37,232.93 L481.26,231.51 L481.14,230.10 L481.02,228.68 L480.88,227.26 L480.74,225.84 L480.59,224.43 L480.43,223.01 L480.26,221.60 L480.08,220.19 L479.89,218.78 L479.69,217.37 L479.49,215.96 L479.28,214.55 L479.05,213.14 L478.82,211.74 L478.58,210.34 L478.34,208.94 L478.08,207.53 L477.82,206.14 L477.54,204.74 L477.26,203.34 L476.97,201.95 L476.67,200.56 L476.36,199.17 L476.05,197.78 L475.72,196.39 L475.39,195.01 L475.05,193.63 L474.70,192.25 L474.34,190.87 L473.97,189.50 L473.60,188.12 L473.21,186.75 L472.82,185.38 L472.42,184.02 L472.01,182.65 L471.59,181.29 L471.17,179.93 L470.73,178.58 L470.29,177.23 L469.84,175.88 L469.38,174.53 L468.91,173.18 L468.44,171.84 L467.95,170.50 L467.46,169.17 L466.96,167.83 L466.45,166.50 L465.94,165.18 L465.41,163.85 L464.88,162.53 L464.34,161.22 L463.79,159.90 L463.23,158.59 L462.67,157.29 L462.10,155.98 L461.52,154.68 L460.93,153.39 L460.33,152.10 L459.73,150.81 L459.11,149.52 L458.49,148.24 L457.86,146.96 L457.23,145.69 L456.58,144.42 L455.93,143.16 L455.27,141.89 L454.61,140.64 L453.93,139.38 L453.25,138.13 L452.56,136.89 L451.86,135.65 L451.15,134.41 L450.44,133.18 L449.72,131.95 L448.99,130.73 L448.26,129.51 L447.51,128.30 L446.76,127.09 L446.01,125.88 L445.24,124.68 L444.47,123.48 L443.69,122.29 L442.90,121.11 L442.11,119.93 L441.30,118.75 L440.50,117.58 L439.68,116.41 L438.86,115.25 L438.03,114.09 L437.19,112.94 L436.34,111.80 L435.49,110.66 L434.63,109.52 L433.77,108.39 L432.90,107.27 L432.02,106.15 L431.13,105.03 L430.24,103.92 L429.34,102.82 L428.43,101.72 L427.52,100.63 L426.60,99.54 L425.67,98.46 L424.74,97.39 L423.80,96.32 L422.85,95.26 L421.90,94.20 L420.94,93.15 L419.98,92.10 L419.00,91.06 L418.03,90.03 L417.04,89.00 L416.05,87.98 L415.05,86.96 L414.05,85.95 L413.04,84.95 L412.02,83.95 L411.00,82.96 L409.97,81.97 L408.94,81.00 L407.90,80.02 L406.85,79.06 L405.80,78.10 L404.74,77.15 L403.68,76.20 L402.61,75.26 L401.54,74.33 L400.46,73.40 L399.37,72.48 L398.28,71.57 L397.18,70.66 L396.08,69.76 L394.97,68.87 L393.85,67.98 L392.73,67.10 L391.61,66.23 L390.48,65.37 L389.34,64.51 L388.20,63.66 L387.06,62.81 L385.91,61.97 L384.75,61.14 L383.59,60.32 L382.42,59.50 L381.25,58.70 L380.07,57.89 L378.89,57.10 L377.71,56.31 L376.52,55.53 L375.32,54.76 L374.12,53.99 L372.91,53.24 L371.70,52.49 L370.49,51.74 L369.27,51.01 L368.05,50.28 L366.82,49.56 L365.59,48.85 L364.35,48.14 L363.11,47.44 L361.87,46.75 L360.62,46.07 L359.36,45.39 L358.11,44.73 L356.84,44.07 L355.58,43.42 L354.31,42.77 L353.04,42.14 L351.76,41.51 L350.48,40.89 L349.19,40.27 L347.90,39.67 L346.61,39.07 L345.32,38.48 L344.02,37.90 L342.71,37.33 L341.41,36.77 L340.10,36.21 L338.78,35.66 L337.47,35.12 L336.15,34.59 L334.82,34.06 L333.50,33.55 L332.17,33.04 L330.83,32.54 L329.50,32.05 L328.16,31.56 L326.82,31.09 L325.47,30.62 L324.12,30.16 L322.77,29.71 L321.42,29.27 L320.07,28.83 L318.71,28.41 L317.35,27.99 L315.98,27.58 L314.62,27.18 L313.25,26.79 L311.88,26.40 L310.50,26.03 L309.13,25.66 L307.75,25.30 L306.37,24.95 L304.99,24.61 L303.61,24.28 L302.22,23.95 L300.83,23.64 L299.44,23.33 L298.05,23.03 L296.66,22.74 L295.26,22.46 L293.86,22.18 L292.47,21.92 L291.06,21.66 L289.66,21.42 L288.26,21.18 L286.86,20.95 L285.45,20.72 L284.04,20.51 L282.63,20.31 L281.22,20.11 L279.81,19.92 L278.40,19.74 L276.99,19.57 L275.57,19.41 L274.16,19.26 L272.74,19.12 L271.32,18.98 L269.90,18.86 L268.49,18.74 L267.07,18.63 L265.65,18.53 L264.23,18.44 L262.81,18.35 L261.38,18.28 L259.96,18.21 L258.54,18.16 L257.12,18.11 L255.69,18.07 L254.27,18.04 L252.85,18.02 L251.42,18.00 L250.00,18.00 L248.58,18.00 L247.15,18.02 L245.73,18.04 L244.31,18.07 L242.88,18.11 L241.46,18.16 L240.04,18.21 L238.62,18.28 L237.19,18.35 L235.77,18.44 L234.35,18.53 L232.93,18.63 L231.51,18.74 L230.10,18.86 L228.68,18.98 L227.26,19.12 L225.84,19.26 L224.43,19.41 L223.01,19.57 L221.60,19.74 L220.19,19.92 L218.78,20.11 L217.37,20.31 L215.96,20.51 L214.55,20.72 L213.14,20.95 L211.74,21.18 L210.34,21.42 L208.94,21.66 L207.53,21.92 L206.14,22.18 L204.74,22.46 L203.34,22.74 L201.95,23.03 L200.56,23.33 L199.17,23.64 L197.78,23.95 L196.39,24.28 L195.01,24.61 L193.63,24.95 L192.25,25.30 L190.87,25.66 L189.50,26.03 L188.12,26.40 L186.75,26.79 L185.38,27.18 L184.02,27.58 L182.65,27.99 L181.29,28.41 L179.93,28.83 L178.58,29.27 L177.23,29.71 L175.88,30.16 L174.53,30.62 L173.18,31.09 L171.84,31.56 L170.50,32.05 L169.17,32.54 L167.83,33.04 L166.50,33.55 L165.18,34.06 L163.85,34.59 L162.53,35.12 L161.22,35.66 L159.90,36.21 L158.59,36.77 L157.29,37.33 L155.98,37.90 L154.68,38.48 L153.39,39.07 L152.10,39.67 L150.81,40.27 L149.52,40.89 L148.24,41.51 L146.96,42.14 L145.69,42.77 L144.42,43.42 L143.16,44.07 L141.89,44.73 L140.64,45.39 L139.38,46.07 L138.13,46.75 L136.89,47.44 L135.65,48.14 L134.41,48.85 L133.18,49.56 L131.95,50.28 L130.73,51.01 L129.51,51.74 L128.30,52.49 L127.09,53.24 L125.88,53.99 L124.68,54.76 L123.48,55.53 L122.29,56.31 L121.11,57.10 L119.93,57.89 L118.75,58.70 L117.58,59.50 L116.41,60.32 L115.25,61.14 L114.09,61.97 L112.94,62.81 L111.80,63.66 L110.66,64.51 L109.52,65.37 L108.39,66.23 L107.27,67.10 L106.15,67.98 L105.03,68.87 L103.92,69.76 L102.82,70.66 L101.72,71.57 L100.63,72.48 L99.54,73.40 L98.46,74.33 L97.39,75.26 L96.32,76.20 L95.26,77.15 L94.20,78.10 L93.15,79.06 L92.10,80.02 L91.06,81.00 L90.03,81.97 L89.00,82.96 L87.98,83.95 L86.96,84.95 L85.95,85.95 L84.95,86.96 L83.95,87.98 L82.96,89.00 L81.97,90.03 L81.00,91.06 L80.02,92.10 L79.06,93.15 L78.10,94.20 L77.15,95.26 L76.20,96.32 L75.26,97.39 L74.33,98.46 L73.40,99.54 L72.48,100.63 L71.57,101.72 L70.66,102.82 L69.76,103.92 L68.87,105.03 L67.98,106.15 L67.10,107.27 L66.23,108.39 L65.37,109.52 L64.51,110.66 L63.66,111.80 L62.81,112.94 L61.97,114.09 L61.14,115.25 L60.32,116.41 L59.50,117.58 L58.70,118.75 L57.89,119.93 L57.10,121.11 L56.31,122.29 L55.53,123.48 L54.76,124.68 L53.99,125.88 L53.24,127.09 L52.49,128.30 L51.74,129.51 L51.01,130.73 L50.28,131.95 L49.56,133.18 L48.85,134.41 L48.14,135.65 L47.44,136.89 L46.75,138.13 L46.07,139.38 L45.39,140.64 L44.73,141.89 L44.07,143.16 L43.42,144.42 L42.77,145.69 L42.14,146.96 L41.51,148.24 L40.89,149.52 L40.27,150.81 L39.67,152.10 L39.07,153.39 L38.48,154.68 L37.90,155.98 L37.33,157.29 L36.77,158.59 L36.21,159.90 L35.66,161.22 L35.12,162.53 L34.59,163.85 L34.06,165.18 L33.55,166.50 L33.04,167.83 L32.54,169.17 L32.05,170.50 L31.56,171.84 L31.09,173.18 L30.62,174.53 L30.16,175.88 L29.71,177.23 L29.27,178.58 L28.83,179.93 L28.41,181.29 L27.99,182.65 L27.58,184.02 L27.18,185.38 L26.79,186.75 L26.40,188.12 L26.03,189.50 L25.66,190.87 L25.30,192.25 L24.95,193.63 L24.61,195.01 L24.28,196.39 L23.95,197.78 L23.64,199.17 L23.33,200.56 L23.03,201.95 L22.74,203.34 L22.46,204.74 L22.18,206.14 L21.92,207.53 L21.66,208.94 L21.42,210.34 L21.18,211.74 L20.95,213.14 L20.72,214.55 L20.51,215.96 L20.31,217.37 L20.11,218.78 L19.92,220.19 L19.74,221.60 L19.57,223.01 L19.41,224.43 L19.26,225.84 L19.12,227.26 L18.98,228.68 L18.86,230.10 L18.74,231.51 L18.63,232.93 L18.53,234.35 L18.44,235.77 L18.35,237.19 L18.28,238.62 L18.21,240.04 L18.16,241.46 L18.11,242.88 L18.07,244.31 L18.04,245.73 L18.02,247.15 L18.00,248.58 L18.00,250.00 L18.00,251.42 L18.02,252.85 L18.04,254.27 L18.07,255.69 L18.11,257.12 L18.16,258.54 L18.21,259.96 L18.28,261.38 L18.35,262.81 L18.44,264.23 L18.53,265.65 L18.63,267.07 L18.74,268.49 L18.86,269.90 L18.98,271.32 L19.12,272.74 L19.26,274.16 L19.41,275.57 L19.57,276.99 L19.74,278.40 L19.92,279.81 L20.11,281.22 L20.31,282.63 L20.51,284.04 L20.72,285.45 L20.95,286.86 L21.18,288.26 L21.42,289.66 L21.66,291.06 L21.92,292.47 L22.18,293.86 L22.46,295.26 L22.74,296.66 L23.03,298.05 L23.33,299.44 L23.64,300.83 L23.95,302.22 L24.28,303.61 L24.61,304.99 L24.95,306.37 L25.30,307.75 L25.66,309.13 L26.03,310.50 L26.40,311.88 L26.79,313.25 L27.18,314.62 L27.58,315.98 L27.99,317.35 L28.41,318.71 L28.83,320.07 L29.27,321.42 L29.71,322.77 L30.16,324.12 L30.62,325.47 L31.09,326.82 L31.56,328.16 L32.05,329.50 L32.54,330.83 L33.04,332.17 L33.55,333.50 L34.06,334.82 L34.59,336.15 L35.12,337.47 L35.66,338.78 L36.21,340.10 L36.77,341.41 L37.33,342.71 L37.90,344.02 L38.48,345.32 L39.07,346.61 L39.67,347.90 L40.27,349.19 L40.89,350.48 L41.51,351.76 L42.14,353.04 L42.77,354.31 L43.42,355.58 L44.07,356.84 L44.73,358.11 L45.39,359.36 L46.07,360.62 L46.75,361.87 L47.44,363.11 L48.14,364.35 L48.85,365.59 L49.56,366.82 L50.28,368.05 L51.01,369.27 L51.74,370.49 L52.49,371.70 L53.24,372.91 L53.99,374.12 L54.76,375.32 L55.53,376.52 L56.31,377.71 L57.10,378.89 L57.89,380.07 L58.70,381.25 L59.50,382.42 L60.32,383.59 L61.14,384.75 L61.97,385.91 L62.81,387.06 L63.66,388.20 L64.51,389.34 L65.37,390.48 L66.23,391.61 L67.10,392.73 L67.98,393.85 L68.87,394.97 L69.76,396.08 L70.66,397.18 L71.57,398.28 L72.48,399.37 L73.40,400.46 L74.33,401.54 L75.26,402.61 L76.20,403.68 L77.15,404.74 L78.10,405.80 L79.06,406.85 L80.02,407.90 L81.00,408.94 L81.97,409.97 L82.96,411.00 L83.95,412.02 L84.95,413.04 L85.95,414.05 L86.96,415.05 L87.98,416.05 L89.00,417.04 L90.03,418.03 L91.06,419.00 L92.10,419.98 L93.15,420.94 L94.20,421.90 L95.26,422.85 L96.32,423.80 L97.39,424.74 L98.46,425.67 L99.54,426.60 L100.63,427.52 L101.72,428.43 L102.82,429.34 L103.92,430.24 L105.03,431.13 L106.15,432.02 L107.27,432.90 L108.39,433.77 L109.52,434.63 L110.66,435.49 L111.80,436.34 L112.94,437.19 L114.09,438.03 L115.25,438.86 L116.41,439.68 L117.58,440.50 L118.75,441.30 L119.93,442.11 L121.11,442.90 L122.29,443.69 L123.48,444.47 L124.68,445.24 L125.88,446.01 L127.09,446.76 L128.30,447.51 L129.51,448.26 L130.73,448.99 L131.95,449.72 L133.18,450.44 L134.41,451.15 L135.65,451.86 L136.89,452.56 L138.13,453.25 L139.38,453.93 L140.64,454.61 L141.89,455.27 L143.16,455.93 L144.42,456.58 L145.69,457.23 L146.96,457.86 L148.24,458.49 L149.52,459.11 L150.81,459.73 L152.10,460.33 L153.39,460.93 L154.68,461.52 L155.98,462.10 L157.29,462.67 L158.59,463.23 L159.90,463.79 L161.22,464.34 L162.53,464.88 L163.85,465.41 L165.18,465.94 L166.50,466.45 L167.83,466.96 L169.17,467.46 L170.50,467.95 L171.84,468.44 L173.18,468.91 L174.53,469.38 L175.88,469.84 L177.23,470.29 L178.58,470.73 L179.93,471.17 L181.29,471.59 L182.65,472.01 L184.02,472.42 L185.38,472.82 L186.75,473.21 L188.12,473.60 L189.50,473.97 L190.87,474.34 L192.25,474.70 L193.63,475.05 L195.01,475.39 L196.39,475.72 L197.78,476.05 L199.17,476.36 L200.56,476.67 L201.95,476.97 L203.34,477.26 L204.74,477.54 L206.14,477.82 L207.53,478.08 L208.94,478.34 L210.34,478.58 L211.74,478.82 L213.14,479.05 L214.55,479.28 L215.96,479.49 L217.37,479.69 L218.78,479.89 L220.19,480.08 L221.60,480.26 L223.01,480.43 L224.43,480.59 L225.84,480.74 L227.26,480.88 L228.68,481.02 L230.10,481.14 L231.51,481.26 L232.93,481.37 L234.35,481.47 L235.77,481.56 L237.19,481.65 L238.62,481.72 L240.04,481.79 L241.46,481.84 L242.88,481.89 L244.31,481.93 L245.73,481.96 L247.15,481.98 L248.58,482.00 L250.00,482.00 L251.42,482.00 L252.85,481.98 L254.27,481.96 L255.69,481.93 L257.12,481.89 L258.54,481.84 L259.96,481.79 L261.38,481.72 L262.81,481.65 L264.23,481.56 L265.65,481.47 L267.07,481.37 L268.49,481.26 L269.90,481.14 L271.32,481.02 L272.74,480.88 L274.16,480.74 L275.57,480.59 L276.99,480.43 L278.40,480.26 L279.81,480.08 L281.22,479.89 L282.63,479.69 L284.04,479.49 L285.45,479.28 L286.86,479.05 L288.26,478.82 L289.66,478.58 L291.06,478.34 L292.47,478.08 L293.86,477.82 L295.26,477.54 L296.66,477.26 L298.05,476.97 L299.44,476.67 L300.83,476.36 L302.22,476.05 L303.61,475.72 L304.99,475.39 L306.37,475.05 L307.75,474.70 L309.13,474.34 L310.50,473.97 L311.88,473.60 L313.25,473.21 L314.62,472.82 L315.98,472.42 L317.35,472.01 L318.71,471.59 L320.07,471.17 L321.42,470.73 L322.77,470.29 L324.12,469.84 L325.47,469.38 L326.82,468.91 L328.16,468.44 L329.50,467.95 L330.83,467.46 L332.17,466.96 L333.50,466.45 L334.82,465.94 L336.15,465.41 L337.47,464.88 L338.78,464.34 L340.10,463.79 L341.41,463.23 L342.71,462.67 L344.02,462.10 L345.32,461.52 L346.61,460.93 L347.90,460.33 L349.19,459.73 L350.48,459.11 L351.76,458.49 L353.04,457.86 L354.31,457.23 L355.58,456.58 L356.84,455.93 L358.11,455.27 L359.36,454.61 L360.62,453.93 L361.87,453.25 L363.11,452.56 L364.35,451.86 L365.59,451.15 L366.82,450.44 L368.05,449.72 L369.27,448.99 L370.49,448.26 L371.70,447.51 L372.91,446.76 L374.12,446.01 L375.32,445.24 L376.52,444.47 L377.71,443.69 L378.89,442.90 L380.07,442.11 L381.25,441.30 L382.42,440.50 L383.59,439.68 L384.75,438.86 L385.91,438.03 L387.06,437.19 L388.20,436.34 L389.34,435.49 L390.48,434.63 L391.61,433.77 L392.73,432.90 L393.85,432.02 L394.97,431.13 L396.08,430.24 L397.18,429.34 L398.28,428.43 L399.37,427.52 L400.46,426.60 L401.54,425.67 L402.61,424.74 L403.68,423.80 L404.74,422.85 L405.80,421.90 L406.85,420.94 L407.90,419.98 L408.94,419.00 L409.97,418.03 L411.00,417.04 L412.02,416.05 L413.04,415.05 L414.05,414.05 L415.05,413.04 L416.05,412.02 L417.04,411.00 L418.03,409.97 L419.00,408.94 L419.98,407.90 L420.94,406.85 L421.90,405.80 L422.85,404.74 L423.80,403.68 L424.74,402.61 L425.67,401.54 L426.60,400.46 L427.52,399.37 L428.43,398.28 L429.34,397.18 L430.24,396.08 L431.13,394.97 L432.02,393.85 L432.90,392.73 L433.77,391.61 L434.63,390.48 L435.49,389.34 L436.34,388.20 L437.19,387.06 L438.03,385.91 L438.86,384.75 L439.68,383.59 L440.50,382.42 L441.30,381.25 L442.11,380.07 L442.90,378.89 L443.69,377.71 L444.47,376.52 L445.24,375.32 L446.01,374.12 L446.76,372.91 L447.51,371.70 L448.26,370.49 L448.99,369.27 L449.72,368.05 L450.44,366.82 L451.15,365.59 L451.86,364.35 L452.56,363.11 L453.25,361.87 L453.93,360.62 L454.61,359.36 L455.27,358.11 L455.93,356.84 L456.58,355.58 L457.23,354.31 L457.86,353.04 L458.49,351.76 L459.11,350.48 L459.73,349.19 L460.33,347.90 L460.93,346.61 L461.52,345.32 L462.10,344.02 L462.67,342.71 L463.23,341.41 L463.79,340.10 L464.34,338.78 L464.88,337.47 L465.41,336.15 L465.94,334.82 L466.45,333.50 L466.96,332.17 L467.46,330.83 L467.95,329.50 L468.44,328.16 L468.91,326.82 L469.38,325.47 L469.84,324.12 L470.29,322.77 L470.73,321.42 L471.17,320.07 L471.59,318.71 L472.01,317.35 L472.42,315.98 L472.82,314.62 L473.21,313.25 L473.60,311.88 L473.97,310.50 L474.34,309.13 L474.70,307.75 L475.05,306.37 L475.39,304.99 L475.72,303.61 L476.05,302.22 L476.36,300.83 L476.67,299.44 L476.97,298.05 L477.26,296.66 L477.54,295.26 L477.82,293.86 L478.08,292.47 L478.34,291.06 L478.58,289.66 L478.82,288.26 L479.05,286.86 L479.28,285.45 L479.49,284.04 L479.69,282.63 L479.89,281.22 L480.08,279.81 L480.26,278.40 L480.43,276.99 L480.59,275.57 L480.74,274.16 L480.88,272.74 L481.02,271.32 L481.14,269.90 L481.26,268.49 L481.37,267.07 L481.47,265.65 L481.56,264.23 L481.65,262.81 L481.72,261.38 L481.79,259.96 L481.84,258.54 L481.89,257.12 L481.93,255.69 L481.96,254.27 L481.98,252.85 L482.00,251.42Z"/><path fill="#e8c97a" d="M301.72,110.80 L301.04,110.80 L300.36,110.80 L299.67,110.82 L298.99,110.84 L298.31,110.87 L297.63,110.90 L296.94,110.95 L296.26,111.01 L295.58,111.07 L294.90,111.14 L294.22,111.22 L293.55,111.31 L292.87,111.40 L292.19,111.51 L291.52,111.62 L290.85,111.74 L290.18,111.87 L289.51,112.01 L288.84,112.15 L288.17,112.31 L287.51,112.47 L286.85,112.64 L286.19,112.82 L285.53,113.00 L284.88,113.20 L284.22,113.40 L283.57,113.61 L282.93,113.83 L282.28,114.05 L281.64,114.29 L281.00,114.53 L280.37,114.78 L279.73,115.04 L279.10,115.30 L278.48,115.58 L277.85,115.86 L277.23,116.15 L276.62,116.44 L276.01,116.75 L275.40,117.06 L274.79,117.37 L274.19,117.70 L273.60,118.03 L273.00,118.37 L272.41,118.72 L271.83,119.08 L271.25,119.44 L270.68,119.81 L270.11,120.18 L269.54,120.57 L268.98,120.96 L268.42,121.35 L267.87,121.76 L267.33,122.17 L266.78,122.58 L266.25,123.01 L265.72,123.44 L265.19,123.88 L264.67,124.32 L264.16,124.77 L263.65,125.22 L263.14,125.69 L262.65,126.15 L262.15,126.63 L261.67,127.11 L261.19,127.59 L260.71,128.09 L260.25,128.58 L259.78,129.09 L259.33,129.60 L258.88,130.11 L258.44,130.63 L258.00,131.16 L257.57,131.69 L257.14,132.22 L256.73,132.77 L256.32,133.31 L255.91,133.86 L255.52,134.42 L255.13,134.98 L254.74,135.55 L254.37,136.12 L254.00,136.69 L253.64,137.27 L253.28,137.85 L252.93,138.44 L252.59,139.04 L252.26,139.63 L251.93,140.23 L251.62,140.84 L251.31,141.45 L251.00,142.06 L250.71,142.67 L250.42,143.29 L250.14,143.92 L249.86,144.54 L249.60,145.17 L249.34,145.81 L249.09,146.44 L248.85,147.08 L248.61,147.72 L248.39,148.37 L248.17,149.01 L247.96,149.66 L247.76,150.32 L247.56,150.97 L247.38,151.63 L247.20,152.29 L247.03,152.95 L246.87,153.61 L246.71,154.28 L246.57,154.95 L246.43,155.62 L246.30,156.29 L246.18,156.96 L246.07,157.63 L245.96,158.31 L245.87,158.99 L245.78,159.66 L245.70,160.34 L245.63,161.02 L245.57,161.70 L245.51,162.38 L245.46,163.07 L245.43,163.75 L245.40,164.43 L245.38,165.11 L245.36,165.80 L245.36,166.48 L245.36,167.16 L245.38,167.85 L245.40,168.53 L245.43,169.21 L245.46,169.89 L245.51,170.58 L245.57,171.26 L245.63,171.94 L245.70,172.62 L245.78,173.30 L245.87,173.97 L245.96,174.65 L246.07,175.33 L246.18,176.00 L246.30,176.67 L246.43,177.34 L246.57,178.01 L246.71,178.68 L246.87,179.35 L247.03,180.01 L247.20,180.67 L247.38,181.33 L247.56,181.99 L247.76,182.64 L247.96,183.30 L248.17,183.95 L248.39,184.59 L248.61,185.24 L248.85,185.88 L249.09,186.52 L249.34,187.15 L249.60,187.79 L249.86,188.42 L250.14,189.04 L250.42,189.67 L250.71,190.29 L251.00,190.90 L251.31,191.51 L251.62,192.12 L251.93,192.73 L252.26,193.33 L252.59,193.92 L252.93,194.52 L253.28,195.11 L253.64,195.69 L254.00,196.27 L254.37,196.84 L254.74,197.41 L255.13,197.98 L255.52,198.54 L255.91,199.10 L256.32,199.65 L256.73,200.19 L257.14,200.74 L257.57,201.27 L258.00,201.80 L258.44,202.33 L258.88,202.85 L259.33,203.36 L259.78,203.87 L260.25,204.38 L260.71,204.87 L261.19,205.37 L261.67,205.85 L262.15,206.33 L262.65,206.81 L263.14,207.27 L263.65,207.74 L264.16,208.19 L264.67,208.64 L265.19,209.08 L265.72,209.52 L266.25,209.95 L266.78,210.38 L267.33,210.79 L267.87,211.20 L268.42,211.61 L268.98,212.00 L269.54,212.39 L270.11,212.78 L270.68,213.15 L271.25,213.52 L271.83,213.88 L272.41,214.24 L273.00,214.59 L273.60,214.93 L274.19,215.26 L274.79,215.59 L275.40,215.90 L276.01,216.21 L276.62,216.52 L277.23,216.81 L277.85,217.10 L278.48,217.38 L279.10,217.66 L279.73,217.92 L280.37,218.18 L281.00,218.43 L281.64,218.67 L282.28,218.91 L282.93,219.13 L283.57,219.35 L284.22,219.56 L284.88,219.76 L285.53,219.96 L286.19,220.14 L286.85,220.32 L287.51,220.49 L288.17,220.65 L288.84,220.81 L289.51,220.95 L290.18,221.09 L290.85,221.22 L291.52,221.34 L292.19,221.45 L292.87,221.56 L293.55,221.65 L294.22,221.74 L294.90,221.82 L295.58,221.89 L296.26,221.95 L296.94,222.01 L297.63,222.06 L298.31,222.09 L298.99,222.12 L299.67,222.14 L300.36,222.16 L301.04,222.16 L301.72,222.16 L302.41,222.14 L303.09,222.12 L303.77,222.09 L304.45,222.06 L305.14,222.01 L305.82,221.95 L306.50,221.89 L307.18,221.82 L307.86,221.74 L308.53,221.65 L309.21,221.56 L309.89,221.45 L310.56,221.34 L311.23,221.22 L311.90,221.09 L312.57,220.95 L313.24,220.81 L313.91,220.65 L314.57,220.49 L315.23,220.32 L315.89,220.14 L316.55,219.96 L317.20,219.76 L317.86,219.56 L318.51,219.35 L319.15,219.13 L319.80,218.91 L320.44,218.67 L321.08,218.43 L321.71,218.18 L322.35,217.92 L322.98,217.66 L323.60,217.38 L324.23,217.10 L324.85,216.81 L325.46,216.52 L326.07,216.21 L326.68,215.90 L327.29,215.59 L327.89,215.26 L328.48,214.93 L329.08,214.59 L329.67,214.24 L330.25,213.88 L330.83,213.52 L331.40,213.15 L331.97,212.78 L332.54,212.39 L333.10,212.00 L333.66,211.61 L334.21,211.20 L334.75,210.79 L335.30,210.38 L335.83,209.95 L336.36,209.52 L336.89,209.08 L337.41,208.64 L337.92,208.19 L338.43,207.74 L338.94,207.27 L339.43,206.81 L339.93,206.33 L340.41,205.85 L340.89,205.37 L341.37,204.87 L341.83,204.38 L342.30,203.87 L342.75,203.36 L343.20,202.85 L343.64,202.33 L344.08,201.80 L344.51,201.27 L344.94,200.74 L345.35,200.19 L345.76,199.65 L346.17,199.10 L346.56,198.54 L346.95,197.98 L347.34,197.41 L347.71,196.84 L348.08,196.27 L348.44,195.69 L348.80,195.11 L349.15,194.52 L349.49,193.92 L349.80,193.36 L349.77,193.38 L349.29,193.72 L348.80,194.05 L348.31,194.37 L347.82,194.69 L347.32,195.00 L346.82,195.30 L346.31,195.60 L345.80,195.89 L345.29,196.18 L344.77,196.46 L344.25,196.73 L343.73,197.00 L343.20,197.26 L342.67,197.52 L342.14,197.77 L341.60,198.01 L341.06,198.24 L340.52,198.47 L339.98,198.69 L339.43,198.91 L338.88,199.11 L338.33,199.32 L337.78,199.51 L337.22,199.70 L336.66,199.88 L336.10,200.05 L335.54,200.22 L334.97,200.38 L334.40,200.53 L333.83,200.68 L333.26,200.82 L332.69,200.95 L332.12,201.08 L331.54,201.20 L330.96,201.31 L330.38,201.41 L329.81,201.51 L329.22,201.60 L328.64,201.68 L328.06,201.76 L327.48,201.82 L326.89,201.88 L326.31,201.94 L325.72,201.99 L325.13,202.03 L324.55,202.06 L323.96,202.08 L323.37,202.10 L322.79,202.11 L322.20,202.12 L321.61,202.11 L321.02,202.10 L320.44,202.08 L319.85,202.06 L319.26,202.03 L318.68,201.99 L318.09,201.94 L317.50,201.88 L316.92,201.82 L316.34,201.76 L315.75,201.68 L315.17,201.60 L314.59,201.51 L314.01,201.41 L313.43,201.31 L312.86,201.20 L312.28,201.08 L311.71,200.95 L311.13,200.82 L310.56,200.68 L309.99,200.53 L309.43,200.38 L308.86,200.22 L308.30,200.05 L307.74,199.88 L307.18,199.70 L306.62,199.51 L306.07,199.32 L305.51,199.11 L304.96,198.91 L304.42,198.69 L303.87,198.47 L303.33,198.24 L302.79,198.01 L302.26,197.77 L301.73,197.52 L301.20,197.26 L300.67,197.00 L300.15,196.73 L299.63,196.46 L299.11,196.18 L298.60,195.89 L298.09,195.60 L297.58,195.30 L297.08,195.00 L296.58,194.69 L296.09,194.37 L295.60,194.05 L295.11,193.72 L294.63,193.38 L294.15,193.04 L293.67,192.69 L293.20,192.34 L292.74,191.98 L292.28,191.62 L291.82,191.25 L291.37,190.87 L290.92,190.49 L290.48,190.10 L290.04,189.71 L289.61,189.31 L289.18,188.91 L288.76,188.50 L288.34,188.09 L287.93,187.67 L287.52,187.25 L287.12,186.82 L286.72,186.39 L286.33,185.95 L285.94,185.51 L285.56,185.06 L285.18,184.61 L284.81,184.15 L284.45,183.69 L284.09,183.23 L283.74,182.76 L283.39,182.28 L283.05,181.80 L282.71,181.32 L282.38,180.83 L282.06,180.34 L281.74,179.85 L281.43,179.35 L281.13,178.85 L280.83,178.34 L280.53,177.83 L280.25,177.32 L279.97,176.80 L279.69,176.28 L279.43,175.76 L279.17,175.23 L278.91,174.70 L278.66,174.17 L278.42,173.64 L278.19,173.10 L277.96,172.56 L277.74,172.01 L277.52,171.46 L277.31,170.91 L277.11,170.36 L276.92,169.81 L276.73,169.25 L276.55,168.69 L276.38,168.13 L276.21,167.57 L276.05,167.00 L275.89,166.43 L275.75,165.87 L275.61,165.29 L275.48,164.72 L275.35,164.15 L275.23,163.57 L275.12,163.00 L275.02,162.42 L274.92,161.84 L274.83,161.26 L274.75,160.67 L274.67,160.09 L274.61,159.51 L274.54,158.92 L274.49,158.34 L274.44,157.75 L274.40,157.17 L274.37,156.58 L274.35,155.99 L274.33,155.41 L274.32,154.82 L274.31,154.23 L274.32,153.64 L274.33,153.06 L274.35,152.47 L274.37,151.88 L274.40,151.29 L274.44,150.71 L274.49,150.12 L274.54,149.54 L274.61,148.95 L274.67,148.37 L274.75,147.79 L274.83,147.20 L274.92,146.62 L275.02,146.04 L275.12,145.47 L275.23,144.89 L275.35,144.31 L275.48,143.74 L275.61,143.17 L275.75,142.60 L275.89,142.03 L276.05,141.46 L276.21,140.89 L276.38,140.33 L276.55,139.77 L276.73,139.21 L276.92,138.65 L277.11,138.10 L277.31,137.55 L277.52,137.00 L277.74,136.45 L277.96,135.91 L278.19,135.36 L278.42,134.83 L278.66,134.29 L278.91,133.76 L279.17,133.23 L279.43,132.70 L279.69,132.18 L279.97,131.66 L280.25,131.14 L280.53,130.63 L280.83,130.12 L281.13,129.61 L281.43,129.11 L281.74,128.61 L282.06,128.12 L282.38,127.63 L282.71,127.14 L283.05,126.66 L283.39,126.18 L283.74,125.71 L284.09,125.24 L284.45,124.77 L284.81,124.31 L285.18,123.85 L285.56,123.40 L285.94,122.95 L286.33,122.51 L286.72,122.07 L287.12,121.64 L287.52,121.21 L287.93,120.79 L288.34,120.37 L288.76,119.96 L289.18,119.55 L289.61,119.15 L290.04,118.75 L290.48,118.36 L290.92,117.97 L291.37,117.59 L291.82,117.21 L292.28,116.84 L292.74,116.48 L293.20,116.12 L293.67,115.77 L294.15,115.42 L294.63,115.08 L295.11,114.75 L295.60,114.42 L296.09,114.09 L296.58,113.77 L297.08,113.46 L297.58,113.16 L298.09,112.86 L298.60,112.57 L299.11,112.28 L299.63,112.00 L300.15,111.73 L300.67,111.46 L301.20,111.20 L301.73,110.94 L302.01,110.81Z"/><path fill="#f1e6cf" d="M214.04,115.44 L220.55,117.05 L222.16,123.56 L223.77,117.05 L230.28,115.44 L223.77,113.83 L222.16,107.32 L220.55,113.83Z M140.96,157.20 L150.26,159.50 L152.56,168.80 L154.86,159.50 L164.16,157.20 L154.86,154.90 L152.56,145.60 L150.26,154.90Z M109.64,231.44 L114.29,232.59 L115.44,237.24 L116.59,232.59 L121.24,231.44 L116.59,230.29 L115.44,225.64 L114.29,230.29Z M370.64,245.36 L376.22,246.74 L377.60,252.32 L378.98,246.74 L384.56,245.36 L378.98,243.98 L377.60,238.40 L376.22,243.98Z"/><path fill="#3b2446" d="M133.82,296.50 L128.71,282.40 L123.60,296.50 L119.51,304.04 L116.48,299.79 L119.85,286.47 L114.50,275.58 L110.12,262.26 L105.74,275.58 L100.39,286.47 L103.77,299.79 L98.29,307.47 L96.34,302.36 L93.38,310.08 L89.78,316.39 L92.25,324.10 L90.96,325.73 L84.64,317.03 L88.62,301.94 L82.39,289.58 L77.30,274.48 L72.20,289.58 L65.97,301.94 L69.95,317.03 L62.85,326.81 L60.05,322.90 L64.51,308.95 L58.38,297.54 L53.37,283.59 L50.26,292.25 L50.27,292.28 L50.53,293.51 L50.80,294.73 L51.08,295.95 L51.36,297.17 L51.66,298.39 L51.96,299.61 L52.27,300.82 L52.58,302.03 L52.91,303.24 L53.24,304.45 L53.57,305.66 L53.92,306.86 L54.27,308.06 L54.63,309.26 L55.00,310.46 L55.37,311.66 L55.76,312.85 L56.14,314.04 L56.54,315.23 L56.94,316.42 L57.36,317.60 L57.77,318.78 L58.20,319.96 L58.63,321.13 L59.07,322.31 L59.52,323.48 L59.97,324.64 L60.44,325.81 L60.90,326.97 L61.38,328.13 L61.86,329.28 L62.35,330.44 L62.85,331.59 L63.35,332.73 L63.87,333.88 L64.38,335.02 L64.91,336.16 L65.44,337.29 L65.98,338.42 L66.53,339.55 L67.08,340.67 L67.64,341.79 L68.21,342.91 L68.78,344.02 L69.36,345.13 L69.95,346.24 L70.54,347.34 L71.14,348.44 L71.75,349.54 L72.36,350.63 L72.98,351.72 L73.61,352.80 L74.25,353.88 L74.89,354.96 L75.53,356.03 L76.19,357.10 L76.85,358.16 L77.51,359.23 L78.19,360.28 L78.87,361.33 L79.55,362.38 L80.25,363.43 L80.95,364.46 L81.65,365.50 L82.36,366.53 L83.08,367.56 L83.81,368.58 L84.54,369.60 L85.27,370.61 L86.02,371.62 L86.77,372.62 L87.52,373.62 L88.28,374.62 L89.05,375.61 L89.82,376.59 L90.60,377.57 L91.39,378.55 L92.18,379.52 L92.98,380.48 L93.78,381.44 L94.59,382.40 L95.41,383.35 L96.23,384.30 L97.06,385.24 L97.89,386.17 L98.73,387.11 L99.12,387.54 L99.12,386.52 L106.25,386.52 L106.25,393.84 L114.00,393.84 L114.00,384.92 L124.82,384.92 L124.82,393.84 L132.59,393.84 L132.59,384.92 L146.94,384.92 L146.94,393.84 L156.28,393.84 L156.28,383.27 L160.15,383.27 L158.51,384.68 L179.74,384.68 L179.74,393.84 L187.55,393.84 L187.55,384.68 L200.99,384.68 L200.99,393.84 L210.18,393.84 L210.18,383.60 L220.63,383.60 L217.41,386.21 L232.16,386.21 L232.16,393.84 L238.04,393.84 L238.04,386.21 L245.59,386.21 L245.59,393.84 L253.04,393.84 L253.04,385.75 L264.92,385.75 L264.92,393.84 L271.53,393.84 L271.53,385.75 L279.19,385.75 L279.19,393.84 L289.09,393.84 L289.09,382.96 L293.58,382.96 L290.50,385.01 L308.00,385.01 L308.00,393.84 L314.54,393.84 L314.54,385.01 L322.86,385.01 L322.86,393.84 L330.79,393.84 L330.79,385.01 L332.04,385.01 L330.92,384.26 L350.15,384.26 L350.15,393.84 L358.08,393.84 L358.08,386.33 L369.86,386.33 L369.86,393.84 L375.78,393.84 L375.78,386.33 L384.24,386.33 L384.24,393.84 L393.39,393.84 L393.39,385.79 L402.45,385.79 L402.94,385.24 L403.77,384.30 L404.59,383.35 L405.41,382.40 L406.22,381.44 L407.02,380.48 L407.82,379.52 L408.61,378.55 L409.40,377.57 L410.18,376.59 L410.95,375.61 L411.72,374.62 L412.48,373.62 L413.23,372.62 L413.98,371.62 L414.73,370.61 L415.46,369.60 L416.19,368.58 L416.92,367.56 L417.64,366.53 L418.35,365.50 L419.05,364.46 L419.75,363.43 L420.45,362.38 L421.13,361.33 L421.81,360.28 L422.49,359.23 L423.15,358.16 L423.81,357.10 L424.47,356.03 L425.11,354.96 L425.75,353.88 L426.39,352.80 L427.02,351.72 L427.64,350.63 L428.25,349.54 L428.86,348.44 L429.46,347.34 L430.05,346.24 L430.64,345.13 L431.22,344.02 L431.79,342.91 L432.36,341.79 L432.92,340.67 L433.47,339.55 L434.02,338.42 L434.56,337.29 L435.09,336.16 L435.62,335.02 L436.13,333.88 L436.65,332.73 L437.15,331.59 L437.65,330.44 L438.14,329.28 L438.62,328.13 L439.10,326.97 L439.56,325.81 L440.03,324.64 L440.48,323.48 L440.93,322.31 L441.37,321.13 L441.80,319.96 L442.23,318.78 L442.64,317.60 L443.06,316.42 L443.33,315.61 L442.77,315.06 L444.98,310.54 L445.00,310.46 L445.37,309.26 L445.73,308.06 L446.08,306.86 L446.43,305.66 L446.76,304.45 L447.09,303.24 L447.17,302.98 L441.04,295.23 L444.53,284.32 L439.43,275.39 L435.26,264.48 L431.09,275.39 L425.99,284.32 L429.49,295.23 L422.43,304.15 L427.76,315.06 L421.25,321.39 L417.93,317.18 L421.05,308.69 L416.87,301.76 L413.45,293.27 L410.03,301.76 L405.86,308.69 L408.97,317.18 L403.74,323.81 L396.33,316.75 L403.43,306.08 L395.39,297.34 L399.18,286.67 L393.48,277.93 L388.82,267.26 L384.15,277.93 L378.45,286.67 L382.24,297.34 L374.74,305.49 L372.82,299.99 L369.50,309.49 L365.44,317.26 L367.02,322.90 L361.64,315.53 L365.57,300.13 L359.27,287.54 L354.12,272.15 L348.96,287.54 L342.67,300.13 L346.60,315.53 L337.40,328.12 L345.10,343.52 L336.84,352.96 L336.11,352.32 L343.35,340.21 L334.26,330.29 L339.51,318.18 L332.53,308.27 L336.91,296.15 L331.36,286.24 L326.83,274.12 L322.29,286.24 L316.74,296.15 L317.20,297.43 L314.67,292.77 L311.27,283.46 L307.88,292.77 L303.73,300.39 L306.90,309.70 L301.56,317.31 L301.82,318.00 L293.40,311.02 L298.51,299.55 L290.60,290.16 L296.07,278.69 L289.51,269.31 L284.14,257.84 L278.77,269.31 L272.21,278.69 L277.67,290.16 L270.54,298.64 L268.23,292.69 L264.92,301.22 L260.87,308.20 L263.74,316.73 L258.26,323.71 L261.96,330.75 L256.26,325.55 L260.69,316.10 L254.43,308.36 L257.92,298.90 L253.19,291.16 L249.31,281.71 L245.44,291.16 L240.71,298.90 L244.20,308.36 L240.94,312.38 L238.62,308.13 L235.10,298.48 L231.58,308.13 L227.27,316.02 L230.56,325.68 L225.02,333.57 L229.63,343.22 L222.94,351.12 L227.19,358.92 L215.90,349.43 L224.63,336.47 L214.15,325.86 L221.29,312.90 L212.65,302.30 L216.20,289.34 L210.36,278.74 L205.59,265.78 L200.81,278.74 L194.97,289.34 L198.52,302.30 L194.08,307.75 L194.73,305.63 L188.63,293.77 L183.65,279.28 L178.66,293.77 L172.56,305.63 L176.99,320.12 L169.11,331.60 L160.92,323.72 L167.90,310.35 L158.94,299.42 L163.64,286.05 L157.02,275.11 L151.61,261.74 L146.19,275.11 L139.57,286.05 L144.28,299.42 L138.93,305.94Z M101.22,325.11 L100.43,324.10 L101.17,321.77 L102.21,324.00Z M91.47,338.13 L87.44,342.40 L90.40,336.17Z M257.98,342.42 L258.55,343.35 L257.74,342.75Z M135.45,322.13 L137.77,315.05 L142.30,323.72 L138.91,326.98Z M138.24,347.76 L138.97,345.87 L140.52,348.03 L139.42,348.92Z M121.96,322.13 L119.47,325.62 L118.03,324.00 L120.70,318.27Z M227.14,378.32 L226.12,379.14 L217.60,372.99 L220.46,369.59Z M226.77,362.10 L228.07,360.55 L228.19,360.77Z M169.70,375.08 L165.45,372.33 L169.22,367.67 L172.34,372.82Z M168.66,352.85 L162.69,348.03 L170.76,336.80 L174.60,346.47Z M197.02,325.86 L195.38,327.52 L190.31,320.12 L191.57,315.98Z M192.69,346.47 L192.91,345.92 L194.81,348.75Z M240.81,322.23 L242.37,325.55 L240.65,327.12 L239.64,325.68Z M240.89,342.75 L240.75,342.85 L240.83,342.67Z M274.74,310.70 L274.88,311.02 L274.54,311.30Z M299.00,373.72 L298.73,373.58 L298.82,373.50Z M297.67,353.09 L297.05,352.72 L297.23,352.55Z M305.08,326.62 L297.88,333.86 L295.05,331.87 L303.34,322.03Z M419.60,332.60 L421.60,328.14 L426.52,334.90 L424.20,336.84Z M407.30,332.60 L401.52,337.94 L398.99,336.16 L404.70,326.80Z M380.19,317.26 L376.14,309.49 L375.76,308.42 L381.31,316.75 L379.98,318.01Z M366.98,344.02 L365.23,345.92 L363.13,343.52 L364.95,339.88Z M338.21,374.35 L341.86,369.56 L342.99,371.51 L339.18,375.04Z M393.39,384.77 L393.39,383.71 L395.21,383.71Z M321.12,308.27 L317.87,312.88 L315.64,309.70 L318.55,301.16Z M317.47,326.62 L317.62,326.21 L318.06,327.22Z"/><path fill="#170f1e" d="M426.08,345.34 L435.42,328.02 L423.43,313.85 L429.53,296.53 L420.78,282.36 L413.63,265.05 L406.47,282.36 L397.72,296.53 L403.82,313.85 L391.83,328.02 L401.18,345.34 L396.28,349.90 L394.11,345.99 L388.89,331.98 L383.67,345.99 L377.29,357.45 L382.74,371.46 L375.23,382.92 L379.93,396.93 L368.98,408.39 L370.60,410.64 L362.44,403.38 L371.60,390.98 L361.42,380.83 L366.84,368.43 L359.28,358.28 L364.00,345.88 L358.00,335.73 L353.10,323.33 L348.19,335.73 L342.20,345.88 L346.91,358.28 L339.35,368.43 L344.77,380.83 L337.04,388.54 L336.10,387.33 L339.58,375.57 L334.33,365.95 L330.03,354.19 L325.73,365.95 L320.48,375.57 L323.96,387.33 L316.54,396.96 L322.67,408.72 L314.88,417.04 L306.14,417.04 L305.22,416.00 L311.06,399.35 L302.41,385.74 L307.09,369.09 L300.62,355.47 L295.33,338.83 L290.04,355.47 L283.57,369.09 L288.25,385.74 L279.60,399.35 L279.61,399.37 L278.92,398.49 L281.87,388.31 L277.35,379.98 L273.65,369.80 L269.96,379.98 L265.44,388.31 L268.38,398.49 L262.35,406.29 L256.63,401.04 L261.03,391.44 L254.76,383.58 L258.46,373.97 L253.60,366.12 L249.62,356.51 L245.65,366.12 L240.79,373.97 L244.49,383.58 L238.22,391.44 L242.62,401.04 L238.66,404.67 L232.75,398.87 L238.62,388.97 L231.67,380.86 L235.98,370.96 L230.48,362.86 L225.98,352.95 L221.49,362.86 L215.99,370.96 L220.30,380.86 L213.34,388.97 L219.22,398.87 L210.96,406.98 L213.20,410.16 L209.35,407.17 L216.47,395.47 L207.01,385.89 L212.87,374.19 L205.40,364.61 L210.48,352.91 L204.32,343.34 L199.28,331.63 L194.24,343.34 L188.08,352.91 L193.17,364.61 L185.69,374.19 L191.55,385.89 L183.72,393.82 L187.89,385.14 L176.47,368.80 L181.81,348.82 L173.73,332.48 L167.12,312.51 L160.51,332.48 L152.43,348.82 L157.78,368.80 L146.36,385.14 L155.95,405.11 L146.49,416.42 L139.28,409.10 L146.90,390.34 L135.90,375.00 L141.64,356.24 L133.54,340.90 L126.91,322.15 L120.28,340.90 L112.17,356.24 L117.91,375.00 L106.91,390.34 L110.43,399.00 L111.05,399.58 L111.97,400.43 L112.89,401.27 L113.83,402.11 L114.76,402.94 L115.70,403.77 L116.65,404.59 L117.60,405.41 L118.56,406.22 L119.52,407.02 L120.48,407.82 L121.45,408.61 L122.43,409.40 L123.41,410.18 L124.39,410.95 L125.38,411.72 L126.38,412.48 L127.38,413.23 L128.38,413.98 L129.39,414.73 L130.40,415.46 L131.42,416.19 L132.44,416.92 L133.47,417.64 L134.50,418.35 L135.54,419.05 L136.57,419.75 L137.62,420.45 L138.67,421.13 L139.72,421.81 L140.77,422.49 L141.84,423.15 L142.90,423.81 L143.97,424.47 L145.04,425.11 L146.12,425.75 L147.20,426.39 L148.28,427.02 L149.37,427.64 L150.46,428.25 L151.56,428.86 L152.66,429.46 L153.76,430.05 L154.87,430.64 L155.98,431.22 L157.09,431.79 L158.21,432.36 L159.33,432.92 L160.45,433.47 L161.58,434.02 L162.71,434.56 L163.84,435.09 L164.98,435.62 L166.12,436.13 L167.27,436.65 L168.41,437.15 L169.56,437.65 L170.72,438.14 L171.87,438.62 L173.03,439.10 L174.19,439.56 L175.36,440.03 L176.52,440.48 L177.69,440.93 L178.87,441.37 L180.04,441.80 L181.22,442.23 L182.40,442.64 L183.58,443.06 L184.77,443.46 L185.96,443.86 L187.15,444.24 L188.34,444.63 L189.54,445.00 L190.74,445.37 L191.94,445.73 L193.14,446.08 L194.34,446.43 L195.55,446.76 L196.76,447.09 L197.97,447.42 L199.18,447.73 L200.39,448.04 L201.61,448.34 L202.83,448.64 L204.05,448.92 L205.27,449.20 L206.49,449.47 L207.72,449.73 L208.94,449.99 L210.17,450.24 L211.40,450.48 L212.63,450.71 L213.86,450.94 L215.10,451.15 L216.33,451.36 L217.57,451.57 L218.80,451.76 L220.04,451.95 L221.28,452.13 L222.52,452.30 L223.77,452.47 L225.01,452.62 L226.25,452.77 L227.50,452.92 L228.74,453.05 L229.99,453.18 L231.24,453.30 L232.48,453.41 L233.73,453.51 L234.98,453.61 L236.23,453.70 L237.48,453.78 L238.73,453.85 L239.98,453.91 L241.23,453.97 L242.49,454.02 L243.74,454.06 L244.99,454.10 L246.24,454.13 L247.49,454.14 L248.75,454.16 L250.00,454.16 L251.25,454.16 L252.51,454.14 L253.76,454.13 L255.01,454.10 L256.26,454.06 L257.51,454.02 L258.77,453.97 L260.02,453.91 L261.27,453.85 L262.52,453.78 L263.77,453.70 L265.02,453.61 L266.27,453.51 L267.52,453.41 L268.76,453.30 L270.01,453.18 L271.26,453.05 L272.50,452.92 L273.75,452.77 L274.99,452.62 L276.23,452.47 L277.48,452.30 L278.72,452.13 L279.96,451.95 L281.20,451.76 L282.43,451.57 L283.67,451.36 L284.90,451.15 L286.14,450.94 L287.37,450.71 L288.60,450.48 L289.83,450.24 L291.06,449.99 L292.28,449.73 L293.51,449.47 L294.73,449.20 L295.95,448.92 L297.17,448.64 L298.39,448.34 L299.61,448.04 L300.82,447.73 L302.03,447.42 L303.24,447.09 L304.45,446.76 L305.66,446.43 L306.86,446.08 L308.06,445.73 L309.26,445.37 L310.46,445.00 L311.66,444.63 L312.85,444.24 L314.04,443.86 L315.23,443.46 L316.42,443.06 L317.60,442.64 L318.78,442.23 L319.96,441.80 L321.13,441.37 L322.31,440.93 L323.48,440.48 L324.64,440.03 L325.81,439.56 L326.97,439.10 L328.13,438.62 L329.28,438.14 L330.44,437.65 L331.59,437.15 L332.73,436.65 L333.88,436.13 L335.02,435.62 L336.16,435.09 L337.29,434.56 L338.42,434.02 L339.55,433.47 L340.67,432.92 L341.79,432.36 L342.91,431.79 L344.02,431.22 L345.13,430.64 L346.24,430.05 L347.34,429.46 L348.44,428.86 L349.54,428.25 L350.63,427.64 L351.72,427.02 L352.80,426.39 L353.88,425.75 L354.96,425.11 L356.03,424.47 L357.10,423.81 L358.16,423.15 L359.23,422.49 L360.28,421.81 L361.33,421.13 L362.38,420.45 L363.43,419.75 L364.46,419.05 L365.50,418.35 L366.53,417.64 L367.56,416.92 L368.58,416.19 L369.60,415.46 L370.61,414.73 L371.62,413.98 L372.62,413.23 L373.62,412.48 L374.62,411.72 L375.61,410.95 L376.59,410.18 L377.57,409.40 L378.55,408.61 L379.52,407.82 L380.48,407.02 L381.44,406.22 L382.40,405.41 L383.35,404.59 L384.30,403.77 L385.24,402.94 L386.17,402.11 L387.11,401.27 L388.03,400.43 L388.95,399.58 L389.87,398.72 L390.78,397.86 L391.68,397.00 L392.58,396.12 L393.47,395.25 L394.36,394.36 L395.25,393.47 L396.12,392.58 L397.00,391.68 L397.86,390.78 L398.72,389.87 L399.58,388.95 L400.43,388.03 L401.27,387.11 L402.11,386.17 L402.94,385.24 L403.77,384.30 L404.59,383.35 L405.41,382.40 L406.22,381.44 L407.02,380.48 L407.82,379.52 L408.61,378.55 L409.40,377.57 L410.18,376.59 L410.95,375.61 L411.72,374.62 L412.48,373.62 L413.23,372.62 L413.98,371.62 L414.73,370.61 L415.46,369.60 L416.19,368.58 L416.92,367.56 L417.64,366.53 L418.35,365.50 L419.05,364.46 L419.75,363.43 L420.45,362.38 L421.13,361.33 L421.81,360.28 L422.49,359.23 L423.15,358.16 L423.81,357.10 L424.47,356.03 L425.11,354.96 L425.75,353.88 L426.39,352.80 L427.02,351.72 L427.64,350.63 L428.25,349.54 L428.86,348.44 L429.04,348.10Z M240.78,417.04 L234.22,417.04 L234.03,416.88 L237.08,412.56Z M183.64,411.50 L178.30,405.11 L182.56,396.23 L189.21,407.17Z M267.16,417.04 L258.47,417.04 L263.85,410.53 L267.20,417.00Z M395.11,371.27 L399.43,376.83 L398.86,377.29 L395.04,371.46Z M341.66,400.54 L343.76,403.38 L337.56,408.89 L337.40,408.72Z M285.44,416.00 L284.52,417.04 L280.15,417.04 L280.11,417.00 L283.50,410.44Z M107.48,382.34 L98.80,370.80 L102.42,356.70 L96.52,345.16 L91.69,331.06 L86.86,345.16 L80.96,356.70 L84.13,369.03 L84.54,369.60 L85.27,370.61 L86.02,371.62 L86.77,372.62 L87.52,373.62 L88.28,374.62 L89.05,375.61 L89.82,376.59 L90.60,377.57 L91.39,378.55 L92.18,379.52 L92.98,380.48 L93.78,381.44 L94.59,382.40 L95.41,383.35 L96.23,384.30 L97.06,385.24 L97.89,386.17 L98.73,387.11 L99.57,388.03 L100.42,388.95 L101.28,389.87 L102.14,390.78 L102.90,391.57Z M72.36,330.27 L65.56,316.05 L59.99,298.67 L55.60,312.37 L55.76,312.85 L56.14,314.04 L56.54,315.23 L56.94,316.42 L57.36,317.60 L57.77,318.78 L58.20,319.96 L58.63,321.13 L59.07,322.31 L59.52,323.48 L59.97,324.64 L60.44,325.81 L60.90,326.97 L61.38,328.13 L61.86,329.28 L62.35,330.44 L62.85,331.59 L63.35,332.73 L63.87,333.88 L64.38,335.02 L64.91,336.16 L65.44,337.29 L65.98,338.42 L66.53,339.55 L67.08,340.67 L67.64,341.79 L68.21,342.91 L68.71,343.88Z"/><path fill="#f1e6cf" d="M482.00,248.58 L481.98,247.15 L481.96,245.73 L481.93,244.31 L481.89,242.88 L481.84,241.46 L481.79,240.04 L481.72,238.62 L481.65,237.19 L481.56,235.77 L481.47,234.35 L481.37,232.93 L481.26,231.51 L481.14,230.10 L481.02,228.68 L480.88,227.26 L480.74,225.84 L480.59,224.43 L480.43,223.01 L480.26,221.60 L480.08,220.19 L479.89,218.78 L479.69,217.37 L479.49,215.96 L479.28,214.55 L479.05,213.14 L478.82,211.74 L478.58,210.34 L478.34,208.94 L478.08,207.53 L477.82,206.14 L477.54,204.74 L477.26,203.34 L476.97,201.95 L476.67,200.56 L476.36,199.17 L476.05,197.78 L475.72,196.39 L475.39,195.01 L475.05,193.63 L474.70,192.25 L474.34,190.87 L473.97,189.50 L473.60,188.12 L473.21,186.75 L472.82,185.38 L472.42,184.02 L472.01,182.65 L471.59,181.29 L471.17,179.93 L470.73,178.58 L470.29,177.23 L469.84,175.88 L469.38,174.53 L468.91,173.18 L468.44,171.84 L467.95,170.50 L467.46,169.17 L466.96,167.83 L466.45,166.50 L465.94,165.18 L465.41,163.85 L464.88,162.53 L464.34,161.22 L463.79,159.90 L463.23,158.59 L462.67,157.29 L462.10,155.98 L461.52,154.68 L460.93,153.39 L460.33,152.10 L459.73,150.81 L459.11,149.52 L458.49,148.24 L457.86,146.96 L457.23,145.69 L456.58,144.42 L455.93,143.16 L455.27,141.89 L454.61,140.64 L453.93,139.38 L453.25,138.13 L452.56,136.89 L451.86,135.65 L451.15,134.41 L450.44,133.18 L449.72,131.95 L448.99,130.73 L448.26,129.51 L447.51,128.30 L446.76,127.09 L446.01,125.88 L445.24,124.68 L444.47,123.48 L443.69,122.29 L442.90,121.11 L442.11,119.93 L441.30,118.75 L440.50,117.58 L439.68,116.41 L438.86,115.25 L438.03,114.09 L437.19,112.94 L436.34,111.80 L435.49,110.66 L434.63,109.52 L433.77,108.39 L432.90,107.27 L432.02,106.15 L431.13,105.03 L430.24,103.92 L429.34,102.82 L428.43,101.72 L427.52,100.63 L426.60,99.54 L425.67,98.46 L424.74,97.39 L423.80,96.32 L422.85,95.26 L421.90,94.20 L420.94,93.15 L419.98,92.10 L419.00,91.06 L418.03,90.03 L417.04,89.00 L416.05,87.98 L415.05,86.96 L414.05,85.95 L413.04,84.95 L412.02,83.95 L411.00,82.96 L409.97,81.97 L408.94,81.00 L407.90,80.02 L406.85,79.06 L405.80,78.10 L404.74,77.15 L403.68,76.20 L402.61,75.26 L401.54,74.33 L400.46,73.40 L399.37,72.48 L398.28,71.57 L397.18,70.66 L396.08,69.76 L394.97,68.87 L393.85,67.98 L392.73,67.10 L391.61,66.23 L390.48,65.37 L389.34,64.51 L388.20,63.66 L387.06,62.81 L385.91,61.97 L384.75,61.14 L383.59,60.32 L382.42,59.50 L381.25,58.70 L380.07,57.89 L378.89,57.10 L377.71,56.31 L376.52,55.53 L375.32,54.76 L374.12,53.99 L372.91,53.24 L371.70,52.49 L370.49,51.74 L369.27,51.01 L368.05,50.28 L366.82,49.56 L365.59,48.85 L364.35,48.14 L363.11,47.44 L361.87,46.75 L360.62,46.07 L359.36,45.39 L358.11,44.73 L356.84,44.07 L355.58,43.42 L354.31,42.77 L353.04,42.14 L351.76,41.51 L350.48,40.89 L349.19,40.27 L347.90,39.67 L346.61,39.07 L345.32,38.48 L344.02,37.90 L342.71,37.33 L341.41,36.77 L340.10,36.21 L338.78,35.66 L337.47,35.12 L336.15,34.59 L334.82,34.06 L333.50,33.55 L332.17,33.04 L330.83,32.54 L329.50,32.05 L328.16,31.56 L326.82,31.09 L325.47,30.62 L324.12,30.16 L322.77,29.71 L321.42,29.27 L320.07,28.83 L318.71,28.41 L317.35,27.99 L315.98,27.58 L314.62,27.18 L313.25,26.79 L311.88,26.40 L310.50,26.03 L309.13,25.66 L307.75,25.30 L306.37,24.95 L304.99,24.61 L303.61,24.28 L302.22,23.95 L300.83,23.64 L299.44,23.33 L298.05,23.03 L296.66,22.74 L295.26,22.46 L293.86,22.18 L292.47,21.92 L291.06,21.66 L289.66,21.42 L288.26,21.18 L286.86,20.95 L285.45,20.72 L284.04,20.51 L282.63,20.31 L281.22,20.11 L279.81,19.92 L278.40,19.74 L276.99,19.57 L275.57,19.41 L274.16,19.26 L272.74,19.12 L271.32,18.98 L269.90,18.86 L268.49,18.74 L267.07,18.63 L265.65,18.53 L264.23,18.44 L262.81,18.35 L261.38,18.28 L259.96,18.21 L258.54,18.16 L257.12,18.11 L255.69,18.07 L254.27,18.04 L252.85,18.02 L251.42,18.00 L250.00,18.00 L248.58,18.00 L247.15,18.02 L245.73,18.04 L244.31,18.07 L242.88,18.11 L241.46,18.16 L240.04,18.21 L238.62,18.28 L237.19,18.35 L235.77,18.44 L234.35,18.53 L232.93,18.63 L231.51,18.74 L230.10,18.86 L228.68,18.98 L227.26,19.12 L225.84,19.26 L224.43,19.41 L223.01,19.57 L221.60,19.74 L220.19,19.92 L218.78,20.11 L217.37,20.31 L215.96,20.51 L214.55,20.72 L213.14,20.95 L211.74,21.18 L210.34,21.42 L208.94,21.66 L207.53,21.92 L206.14,22.18 L204.74,22.46 L203.34,22.74 L201.95,23.03 L200.56,23.33 L199.17,23.64 L197.78,23.95 L196.39,24.28 L195.01,24.61 L193.63,24.95 L192.25,25.30 L190.87,25.66 L189.50,26.03 L188.12,26.40 L186.75,26.79 L185.38,27.18 L184.02,27.58 L182.65,27.99 L181.29,28.41 L179.93,28.83 L178.58,29.27 L177.23,29.71 L175.88,30.16 L174.53,30.62 L173.18,31.09 L171.84,31.56 L170.50,32.05 L169.17,32.54 L167.83,33.04 L166.50,33.55 L165.18,34.06 L163.85,34.59 L162.53,35.12 L161.22,35.66 L159.90,36.21 L158.59,36.77 L157.29,37.33 L155.98,37.90 L154.68,38.48 L153.39,39.07 L152.10,39.67 L150.81,40.27 L149.52,40.89 L148.24,41.51 L146.96,42.14 L145.69,42.77 L144.42,43.42 L143.16,44.07 L141.89,44.73 L140.64,45.39 L139.38,46.07 L138.13,46.75 L136.89,47.44 L135.65,48.14 L134.41,48.85 L133.18,49.56 L131.95,50.28 L130.73,51.01 L129.51,51.74 L128.30,52.49 L127.09,53.24 L125.88,53.99 L124.68,54.76 L123.48,55.53 L122.29,56.31 L121.11,57.10 L119.93,57.89 L118.75,58.70 L117.58,59.50 L116.41,60.32 L115.25,61.14 L114.09,61.97 L112.94,62.81 L111.80,63.66 L110.66,64.51 L109.52,65.37 L108.39,66.23 L107.27,67.10 L106.15,67.98 L105.03,68.87 L103.92,69.76 L102.82,70.66 L101.72,71.57 L100.63,72.48 L99.54,73.40 L98.46,74.33 L97.39,75.26 L96.32,76.20 L95.26,77.15 L94.20,78.10 L93.15,79.06 L92.10,80.02 L91.06,81.00 L90.03,81.97 L89.00,82.96 L87.98,83.95 L86.96,84.95 L85.95,85.95 L84.95,86.96 L83.95,87.98 L82.96,89.00 L81.97,90.03 L81.00,91.06 L80.02,92.10 L79.06,93.15 L78.10,94.20 L77.15,95.26 L76.20,96.32 L75.26,97.39 L74.33,98.46 L73.40,99.54 L72.48,100.63 L71.57,101.72 L70.66,102.82 L69.76,103.92 L68.87,105.03 L67.98,106.15 L67.10,107.27 L66.23,108.39 L65.37,109.52 L64.51,110.66 L63.66,111.80 L62.81,112.94 L61.97,114.09 L61.14,115.25 L60.32,116.41 L59.50,117.58 L58.70,118.75 L57.89,119.93 L57.10,121.11 L56.31,122.29 L55.53,123.48 L54.76,124.68 L53.99,125.88 L53.24,127.09 L52.49,128.30 L51.74,129.51 L51.01,130.73 L50.28,131.95 L49.56,133.18 L48.85,134.41 L48.14,135.65 L47.44,136.89 L46.75,138.13 L46.07,139.38 L45.39,140.64 L44.73,141.89 L44.07,143.16 L43.42,144.42 L42.77,145.69 L42.14,146.96 L41.51,148.24 L40.89,149.52 L40.27,150.81 L39.67,152.10 L39.07,153.39 L38.48,154.68 L37.90,155.98 L37.33,157.29 L36.77,158.59 L36.21,159.90 L35.66,161.22 L35.12,162.53 L34.59,163.85 L34.06,165.18 L33.55,166.50 L33.04,167.83 L32.54,169.17 L32.05,170.50 L31.56,171.84 L31.09,173.18 L30.62,174.53 L30.16,175.88 L29.71,177.23 L29.27,178.58 L28.83,179.93 L28.41,181.29 L27.99,182.65 L27.58,184.02 L27.18,185.38 L26.79,186.75 L26.40,188.12 L26.03,189.50 L25.66,190.87 L25.30,192.25 L24.95,193.63 L24.61,195.01 L24.28,196.39 L23.95,197.78 L23.64,199.17 L23.33,200.56 L23.03,201.95 L22.74,203.34 L22.46,204.74 L22.18,206.14 L21.92,207.53 L21.66,208.94 L21.42,210.34 L21.18,211.74 L20.95,213.14 L20.72,214.55 L20.51,215.96 L20.31,217.37 L20.11,218.78 L19.92,220.19 L19.74,221.60 L19.57,223.01 L19.41,224.43 L19.26,225.84 L19.12,227.26 L18.98,228.68 L18.86,230.10 L18.74,231.51 L18.63,232.93 L18.53,234.35 L18.44,235.77 L18.35,237.19 L18.28,238.62 L18.21,240.04 L18.16,241.46 L18.11,242.88 L18.07,244.31 L18.04,245.73 L18.02,247.15 L18.00,248.58 L18.00,250.00 L18.00,251.42 L18.02,252.85 L18.04,254.27 L18.07,255.69 L18.11,257.12 L18.16,258.54 L18.21,259.96 L18.28,261.38 L18.35,262.81 L18.44,264.23 L18.53,265.65 L18.63,267.07 L18.74,268.49 L18.86,269.90 L18.98,271.32 L19.12,272.74 L19.26,274.16 L19.41,275.57 L19.57,276.99 L19.74,278.40 L19.92,279.81 L20.11,281.22 L20.31,282.63 L20.51,284.04 L20.72,285.45 L20.95,286.86 L21.18,288.26 L21.42,289.66 L21.66,291.06 L21.92,292.47 L22.18,293.86 L22.46,295.26 L22.74,296.66 L23.03,298.05 L23.33,299.44 L23.64,300.83 L23.95,302.22 L24.28,303.61 L24.61,304.99 L24.95,306.37 L25.30,307.75 L25.66,309.13 L26.03,310.50 L26.40,311.88 L26.79,313.25 L27.18,314.62 L27.58,315.98 L27.99,317.35 L28.41,318.71 L28.83,320.07 L29.27,321.42 L29.71,322.77 L30.16,324.12 L30.62,325.47 L31.09,326.82 L31.56,328.16 L32.05,329.50 L32.54,330.83 L33.04,332.17 L33.55,333.50 L34.06,334.82 L34.59,336.15 L35.12,337.47 L35.66,338.78 L36.21,340.10 L36.77,341.41 L37.33,342.71 L37.90,344.02 L38.48,345.32 L39.07,346.61 L39.67,347.90 L40.27,349.19 L40.89,350.48 L41.51,351.76 L42.14,353.04 L42.77,354.31 L43.42,355.58 L44.07,356.84 L44.73,358.11 L45.39,359.36 L46.07,360.62 L46.75,361.87 L47.44,363.11 L48.14,364.35 L48.85,365.59 L49.56,366.82 L50.28,368.05 L51.01,369.27 L51.74,370.49 L52.49,371.70 L53.24,372.91 L53.99,374.12 L54.76,375.32 L55.53,376.52 L56.31,377.71 L57.10,378.89 L57.89,380.07 L58.70,381.25 L59.50,382.42 L60.32,383.59 L61.14,384.75 L61.97,385.91 L62.81,387.06 L63.66,388.20 L64.51,389.34 L65.37,390.48 L66.23,391.61 L67.10,392.73 L67.98,393.85 L68.87,394.97 L69.76,396.08 L70.66,397.18 L71.57,398.28 L72.48,399.37 L73.40,400.46 L74.33,401.54 L75.26,402.61 L76.20,403.68 L77.15,404.74 L78.10,405.80 L79.06,406.85 L80.02,407.90 L81.00,408.94 L81.97,409.97 L82.96,411.00 L83.95,412.02 L84.95,413.04 L85.95,414.05 L86.96,415.05 L87.98,416.05 L89.00,417.04 L90.03,418.03 L91.06,419.00 L92.10,419.98 L93.15,420.94 L94.20,421.90 L95.26,422.85 L96.32,423.80 L97.39,424.74 L98.46,425.67 L99.54,426.60 L100.63,427.52 L101.72,428.43 L102.82,429.34 L103.92,430.24 L105.03,431.13 L106.15,432.02 L107.27,432.90 L108.39,433.77 L109.52,434.63 L110.66,435.49 L111.80,436.34 L112.94,437.19 L114.09,438.03 L115.25,438.86 L116.41,439.68 L117.58,440.50 L118.75,441.30 L119.93,442.11 L121.11,442.90 L122.29,443.69 L123.48,444.47 L124.68,445.24 L125.88,446.01 L127.09,446.76 L128.30,447.51 L129.51,448.26 L130.73,448.99 L131.95,449.72 L133.18,450.44 L134.41,451.15 L135.65,451.86 L136.89,452.56 L138.13,453.25 L139.38,453.93 L140.64,454.61 L141.89,455.27 L143.16,455.93 L144.42,456.58 L145.69,457.23 L146.96,457.86 L148.24,458.49 L149.52,459.11 L150.81,459.73 L152.10,460.33 L153.39,460.93 L154.68,461.52 L155.98,462.10 L157.29,462.67 L158.59,463.23 L159.90,463.79 L161.22,464.34 L162.53,464.88 L163.85,465.41 L165.18,465.94 L166.50,466.45 L167.83,466.96 L169.17,467.46 L170.50,467.95 L171.84,468.44 L173.18,468.91 L174.53,469.38 L175.88,469.84 L177.23,470.29 L178.58,470.73 L179.93,471.17 L181.29,471.59 L182.65,472.01 L184.02,472.42 L185.38,472.82 L186.75,473.21 L188.12,473.60 L189.50,473.97 L190.87,474.34 L192.25,474.70 L193.63,475.05 L195.01,475.39 L196.39,475.72 L197.78,476.05 L199.17,476.36 L200.56,476.67 L201.95,476.97 L203.34,477.26 L204.74,477.54 L206.14,477.82 L207.53,478.08 L208.94,478.34 L210.34,478.58 L211.74,478.82 L213.14,479.05 L214.55,479.28 L215.96,479.49 L217.37,479.69 L218.78,479.89 L220.19,480.08 L221.60,480.26 L223.01,480.43 L224.43,480.59 L225.84,480.74 L227.26,480.88 L228.68,481.02 L230.10,481.14 L231.51,481.26 L232.93,481.37 L234.35,481.47 L235.77,481.56 L237.19,481.65 L238.62,481.72 L240.04,481.79 L241.46,481.84 L242.88,481.89 L244.31,481.93 L245.73,481.96 L247.15,481.98 L248.58,482.00 L250.00,482.00 L251.42,482.00 L252.85,481.98 L254.27,481.96 L255.69,481.93 L257.12,481.89 L258.54,481.84 L259.96,481.79 L261.38,481.72 L262.81,481.65 L264.23,481.56 L265.65,481.47 L267.07,481.37 L268.49,481.26 L269.90,481.14 L271.32,481.02 L272.74,480.88 L274.16,480.74 L275.57,480.59 L276.99,480.43 L278.40,480.26 L279.81,480.08 L281.22,479.89 L282.63,479.69 L284.04,479.49 L285.45,479.28 L286.86,479.05 L288.26,478.82 L289.66,478.58 L291.06,478.34 L292.47,478.08 L293.86,477.82 L295.26,477.54 L296.66,477.26 L298.05,476.97 L299.44,476.67 L300.83,476.36 L302.22,476.05 L303.61,475.72 L304.99,475.39 L306.37,475.05 L307.75,474.70 L309.13,474.34 L310.50,473.97 L311.88,473.60 L313.25,473.21 L314.62,472.82 L315.98,472.42 L317.35,472.01 L318.71,471.59 L320.07,471.17 L321.42,470.73 L322.77,470.29 L324.12,469.84 L325.47,469.38 L326.82,468.91 L328.16,468.44 L329.50,467.95 L330.83,467.46 L332.17,466.96 L333.50,466.45 L334.82,465.94 L336.15,465.41 L337.47,464.88 L338.78,464.34 L340.10,463.79 L341.41,463.23 L342.71,462.67 L344.02,462.10 L345.32,461.52 L346.61,460.93 L347.90,460.33 L349.19,459.73 L350.48,459.11 L351.76,458.49 L353.04,457.86 L354.31,457.23 L355.58,456.58 L356.84,455.93 L358.11,455.27 L359.36,454.61 L360.62,453.93 L361.87,453.25 L363.11,452.56 L364.35,451.86 L365.59,451.15 L366.82,450.44 L368.05,449.72 L369.27,448.99 L370.49,448.26 L371.70,447.51 L372.91,446.76 L374.12,446.01 L375.32,445.24 L376.52,444.47 L377.71,443.69 L378.89,442.90 L380.07,442.11 L381.25,441.30 L382.42,440.50 L383.59,439.68 L384.75,438.86 L385.91,438.03 L387.06,437.19 L388.20,436.34 L389.34,435.49 L390.48,434.63 L391.61,433.77 L392.73,432.90 L393.85,432.02 L394.97,431.13 L396.08,430.24 L397.18,429.34 L398.28,428.43 L399.37,427.52 L400.46,426.60 L401.54,425.67 L402.61,424.74 L403.68,423.80 L404.74,422.85 L405.80,421.90 L406.85,420.94 L407.90,419.98 L408.94,419.00 L409.97,418.03 L411.00,417.04 L412.02,416.05 L413.04,415.05 L414.05,414.05 L415.05,413.04 L416.05,412.02 L417.04,411.00 L418.03,409.97 L419.00,408.94 L419.98,407.90 L420.94,406.85 L421.90,405.80 L422.85,404.74 L423.80,403.68 L424.74,402.61 L425.67,401.54 L426.60,400.46 L427.52,399.37 L428.43,398.28 L429.34,397.18 L430.24,396.08 L431.13,394.97 L432.02,393.85 L432.90,392.73 L433.77,391.61 L434.63,390.48 L435.49,389.34 L436.34,388.20 L437.19,387.06 L438.03,385.91 L438.86,384.75 L439.68,383.59 L440.50,382.42 L441.30,381.25 L442.11,380.07 L442.90,378.89 L443.69,377.71 L444.47,376.52 L445.24,375.32 L446.01,374.12 L446.76,372.91 L447.51,371.70 L448.26,370.49 L448.99,369.27 L449.72,368.05 L450.44,366.82 L451.15,365.59 L451.86,364.35 L452.56,363.11 L453.25,361.87 L453.93,360.62 L454.61,359.36 L455.27,358.11 L455.93,356.84 L456.58,355.58 L457.23,354.31 L457.86,353.04 L458.49,351.76 L459.11,350.48 L459.73,349.19 L460.33,347.90 L460.93,346.61 L461.52,345.32 L462.10,344.02 L462.67,342.71 L463.23,341.41 L463.79,340.10 L464.34,338.78 L464.88,337.47 L465.41,336.15 L465.94,334.82 L466.45,333.50 L466.96,332.17 L467.46,330.83 L467.95,329.50 L468.44,328.16 L468.91,326.82 L469.38,325.47 L469.84,324.12 L470.29,322.77 L470.73,321.42 L471.17,320.07 L471.59,318.71 L472.01,317.35 L472.42,315.98 L472.82,314.62 L473.21,313.25 L473.60,311.88 L473.97,310.50 L474.34,309.13 L474.70,307.75 L475.05,306.37 L475.39,304.99 L475.72,303.61 L476.05,302.22 L476.36,300.83 L476.67,299.44 L476.97,298.05 L477.26,296.66 L477.54,295.26 L477.82,293.86 L478.08,292.47 L478.34,291.06 L478.58,289.66 L478.82,288.26 L479.05,286.86 L479.28,285.45 L479.49,284.04 L479.69,282.63 L479.89,281.22 L480.08,279.81 L480.26,278.40 L480.43,276.99 L480.59,275.57 L480.74,274.16 L480.88,272.74 L481.02,271.32 L481.14,269.90 L481.26,268.49 L481.37,267.07 L481.47,265.65 L481.56,264.23 L481.65,262.81 L481.72,261.38 L481.79,259.96 L481.84,258.54 L481.89,257.12 L481.93,255.69 L481.96,254.27 L481.98,252.85 L482.00,251.42 L482.00,250.00Z M465.76,251.32 L465.74,252.65 L465.72,253.97 L465.70,255.30 L465.66,256.62 L465.61,257.94 L465.56,259.26 L465.50,260.59 L465.43,261.91 L465.35,263.23 L465.27,264.55 L465.18,265.87 L465.07,267.19 L464.96,268.51 L464.85,269.83 L464.72,271.15 L464.59,272.47 L464.45,273.78 L464.30,275.10 L464.14,276.41 L463.97,277.72 L463.80,279.04 L463.61,280.35 L463.42,281.66 L463.23,282.97 L463.02,284.28 L462.81,285.58 L462.58,286.89 L462.35,288.19 L462.11,289.49 L461.87,290.79 L461.61,292.09 L461.35,293.39 L461.08,294.69 L460.80,295.98 L460.52,297.27 L460.22,298.56 L459.92,299.85 L459.61,301.14 L459.29,302.43 L458.97,303.71 L458.63,304.99 L458.29,306.27 L457.94,307.55 L457.59,308.82 L457.22,310.09 L456.85,311.36 L456.47,312.63 L456.08,313.90 L455.69,315.16 L455.28,316.42 L454.87,317.68 L454.45,318.94 L454.02,320.19 L453.59,321.44 L453.15,322.69 L452.70,323.93 L452.24,325.17 L451.78,326.41 L451.30,327.65 L450.82,328.88 L450.33,330.12 L449.84,331.34 L449.34,332.57 L448.83,333.79 L448.31,335.01 L447.78,336.22 L447.25,337.43 L446.71,338.64 L446.16,339.85 L445.61,341.05 L445.04,342.25 L444.48,343.44 L443.90,344.64 L443.31,345.82 L442.72,347.01 L442.12,348.19 L441.52,349.37 L440.90,350.54 L440.28,351.71 L439.66,352.87 L439.02,354.04 L438.38,355.19 L437.73,356.35 L437.07,357.50 L436.41,358.64 L435.74,359.79 L435.06,360.92 L434.38,362.06 L433.69,363.19 L432.99,364.31 L432.29,365.43 L431.57,366.55 L430.86,367.66 L430.13,368.77 L429.40,369.87 L428.66,370.97 L427.91,372.06 L427.16,373.15 L426.40,374.24 L425.64,375.32 L424.86,376.39 L424.09,377.46 L423.30,378.53 L422.51,379.59 L421.71,380.65 L420.90,381.70 L420.09,382.74 L419.28,383.78 L418.45,384.82 L417.62,385.85 L416.78,386.88 L415.94,387.90 L415.09,388.91 L414.24,389.92 L413.38,390.93 L412.51,391.93 L411.63,392.92 L410.75,393.91 L409.87,394.90 L408.98,395.87 L408.08,396.85 L407.17,397.81 L406.26,398.78 L405.35,399.73 L404.43,400.68 L403.50,401.63 L402.57,402.57 L401.63,403.50 L400.68,404.43 L399.73,405.35 L398.78,406.26 L397.81,407.17 L396.85,408.08 L395.87,408.98 L394.90,409.87 L393.91,410.75 L392.92,411.63 L391.93,412.51 L390.93,413.38 L389.92,414.24 L388.91,415.09 L387.90,415.94 L386.88,416.78 L385.85,417.62 L384.82,418.45 L383.78,419.28 L382.74,420.09 L381.70,420.90 L380.65,421.71 L379.59,422.51 L378.53,423.30 L377.46,424.09 L376.39,424.86 L375.32,425.64 L374.24,426.40 L373.15,427.16 L372.06,427.91 L370.97,428.66 L369.87,429.40 L368.77,430.13 L367.66,430.86 L366.55,431.57 L365.43,432.29 L364.31,432.99 L363.19,433.69 L362.06,434.38 L360.92,435.06 L359.79,435.74 L358.64,436.41 L357.50,437.07 L356.35,437.73 L355.19,438.38 L354.04,439.02 L352.87,439.66 L351.71,440.28 L350.54,440.90 L349.37,441.52 L348.19,442.12 L347.01,442.72 L345.82,443.31 L344.64,443.90 L343.44,444.48 L342.25,445.04 L341.05,445.61 L339.85,446.16 L338.64,446.71 L337.43,447.25 L336.22,447.78 L335.01,448.31 L333.79,448.83 L332.57,449.34 L331.34,449.84 L330.12,450.33 L328.88,450.82 L327.65,451.30 L326.41,451.78 L325.17,452.24 L323.93,452.70 L322.69,453.15 L321.44,453.59 L320.19,454.02 L318.94,454.45 L317.68,454.87 L316.42,455.28 L315.16,455.69 L313.90,456.08 L312.63,456.47 L311.36,456.85 L310.09,457.22 L308.82,457.59 L307.55,457.94 L306.27,458.29 L304.99,458.63 L303.71,458.97 L302.43,459.29 L301.14,459.61 L299.85,459.92 L298.56,460.22 L297.27,460.52 L295.98,460.80 L294.69,461.08 L293.39,461.35 L292.09,461.61 L290.79,461.87 L289.49,462.11 L288.19,462.35 L286.89,462.58 L285.58,462.81 L284.28,463.02 L282.97,463.23 L281.66,463.42 L280.35,463.61 L279.04,463.80 L277.72,463.97 L276.41,464.14 L275.10,464.30 L273.78,464.45 L272.47,464.59 L271.15,464.72 L269.83,464.85 L268.51,464.96 L267.19,465.07 L265.87,465.18 L264.55,465.27 L263.23,465.35 L261.91,465.43 L260.59,465.50 L259.26,465.56 L257.94,465.61 L256.62,465.66 L255.30,465.70 L253.97,465.72 L252.65,465.74 L251.32,465.76 L250.00,465.76 L248.68,465.76 L247.35,465.74 L246.03,465.72 L244.70,465.70 L243.38,465.66 L242.06,465.61 L240.74,465.56 L239.41,465.50 L238.09,465.43 L236.77,465.35 L235.45,465.27 L234.13,465.18 L232.81,465.07 L231.49,464.96 L230.17,464.85 L228.85,464.72 L227.53,464.59 L226.22,464.45 L224.90,464.30 L223.59,464.14 L222.28,463.97 L220.96,463.80 L219.65,463.61 L218.34,463.42 L217.03,463.23 L215.72,463.02 L214.42,462.81 L213.11,462.58 L211.81,462.35 L210.51,462.11 L209.21,461.87 L207.91,461.61 L206.61,461.35 L205.31,461.08 L204.02,460.80 L202.73,460.52 L201.44,460.22 L200.15,459.92 L198.86,459.61 L197.57,459.29 L196.29,458.97 L195.01,458.63 L193.73,458.29 L192.45,457.94 L191.18,457.59 L189.91,457.22 L188.64,456.85 L187.37,456.47 L186.10,456.08 L184.84,455.69 L183.58,455.28 L182.32,454.87 L181.06,454.45 L179.81,454.02 L178.56,453.59 L177.31,453.15 L176.07,452.70 L174.83,452.24 L173.59,451.78 L172.35,451.30 L171.12,450.82 L169.88,450.33 L168.66,449.84 L167.43,449.34 L166.21,448.83 L164.99,448.31 L163.78,447.78 L162.57,447.25 L161.36,446.71 L160.15,446.16 L158.95,445.61 L157.75,445.04 L156.56,444.48 L155.36,443.90 L154.18,443.31 L152.99,442.72 L151.81,442.12 L150.63,441.52 L149.46,440.90 L148.29,440.28 L147.13,439.66 L145.96,439.02 L144.81,438.38 L143.65,437.73 L142.50,437.07 L141.36,436.41 L140.21,435.74 L139.08,435.06 L137.94,434.38 L136.81,433.69 L135.69,432.99 L134.57,432.29 L133.45,431.57 L132.34,430.86 L131.23,430.13 L130.13,429.40 L129.03,428.66 L127.94,427.91 L126.85,427.16 L125.76,426.40 L124.68,425.64 L123.61,424.86 L122.54,424.09 L121.47,423.30 L120.41,422.51 L119.35,421.71 L118.30,420.90 L117.26,420.09 L116.22,419.28 L115.18,418.45 L114.15,417.62 L113.12,416.78 L112.10,415.94 L111.09,415.09 L110.08,414.24 L109.07,413.38 L108.07,412.51 L107.08,411.63 L106.09,410.75 L105.10,409.87 L104.13,408.98 L103.15,408.08 L102.19,407.17 L101.22,406.26 L100.27,405.35 L99.32,404.43 L98.37,403.50 L97.43,402.57 L96.50,401.63 L95.57,400.68 L94.65,399.73 L93.74,398.78 L92.83,397.81 L91.92,396.85 L91.02,395.87 L90.13,394.90 L89.25,393.91 L88.37,392.92 L87.49,391.93 L86.62,390.93 L85.76,389.92 L84.91,388.91 L84.06,387.90 L83.22,386.88 L82.38,385.85 L81.55,384.82 L80.72,383.78 L79.91,382.74 L79.10,381.70 L78.29,380.65 L77.49,379.59 L76.70,378.53 L75.91,377.46 L75.14,376.39 L74.36,375.32 L73.60,374.24 L72.84,373.15 L72.09,372.06 L71.34,370.97 L70.60,369.87 L69.87,368.77 L69.14,367.66 L68.43,366.55 L67.71,365.43 L67.01,364.31 L66.31,363.19 L65.62,362.06 L64.94,360.92 L64.26,359.79 L63.59,358.64 L62.93,357.50 L62.27,356.35 L61.62,355.19 L60.98,354.04 L60.34,352.87 L59.72,351.71 L59.10,350.54 L58.48,349.37 L57.88,348.19 L57.28,347.01 L56.69,345.82 L56.10,344.64 L55.52,343.44 L54.96,342.25 L54.39,341.05 L53.84,339.85 L53.29,338.64 L52.75,337.43 L52.22,336.22 L51.69,335.01 L51.17,333.79 L50.66,332.57 L50.16,331.34 L49.67,330.12 L49.18,328.88 L48.70,327.65 L48.22,326.41 L47.76,325.17 L47.30,323.93 L46.85,322.69 L46.41,321.44 L45.98,320.19 L45.55,318.94 L45.13,317.68 L44.72,316.42 L44.31,315.16 L43.92,313.90 L43.53,312.63 L43.15,311.36 L42.78,310.09 L42.41,308.82 L42.06,307.55 L41.71,306.27 L41.37,304.99 L41.03,303.71 L40.71,302.43 L40.39,301.14 L40.08,299.85 L39.78,298.56 L39.48,297.27 L39.20,295.98 L38.92,294.69 L38.65,293.39 L38.39,292.09 L38.13,290.79 L37.89,289.49 L37.65,288.19 L37.42,286.89 L37.19,285.58 L36.98,284.28 L36.77,282.97 L36.58,281.66 L36.39,280.35 L36.20,279.04 L36.03,277.72 L35.86,276.41 L35.70,275.10 L35.55,273.78 L35.41,272.47 L35.28,271.15 L35.15,269.83 L35.04,268.51 L34.93,267.19 L34.82,265.87 L34.73,264.55 L34.65,263.23 L34.57,261.91 L34.50,260.59 L34.44,259.26 L34.39,257.94 L34.34,256.62 L34.30,255.30 L34.28,253.97 L34.26,252.65 L34.24,251.32 L34.24,250.00 L34.24,248.68 L34.26,247.35 L34.28,246.03 L34.30,244.70 L34.34,243.38 L34.39,242.06 L34.44,240.74 L34.50,239.41 L34.57,238.09 L34.65,236.77 L34.73,235.45 L34.82,234.13 L34.93,232.81 L35.04,231.49 L35.15,230.17 L35.28,228.85 L35.41,227.53 L35.55,226.22 L35.70,224.90 L35.86,223.59 L36.03,222.28 L36.20,220.96 L36.39,219.65 L36.58,218.34 L36.77,217.03 L36.98,215.72 L37.19,214.42 L37.42,213.11 L37.65,211.81 L37.89,210.51 L38.13,209.21 L38.39,207.91 L38.65,206.61 L38.92,205.31 L39.20,204.02 L39.48,202.73 L39.78,201.44 L40.08,200.15 L40.39,198.86 L40.71,197.57 L41.03,196.29 L41.37,195.01 L41.71,193.73 L42.06,192.45 L42.41,191.18 L42.78,189.91 L43.15,188.64 L43.53,187.37 L43.92,186.10 L44.31,184.84 L44.72,183.58 L45.13,182.32 L45.55,181.06 L45.98,179.81 L46.41,178.56 L46.85,177.31 L47.30,176.07 L47.76,174.83 L48.22,173.59 L48.70,172.35 L49.18,171.12 L49.67,169.88 L50.16,168.66 L50.66,167.43 L51.17,166.21 L51.69,164.99 L52.22,163.78 L52.75,162.57 L53.29,161.36 L53.84,160.15 L54.39,158.95 L54.96,157.75 L55.52,156.56 L56.10,155.36 L56.69,154.18 L57.28,152.99 L57.88,151.81 L58.48,150.63 L59.10,149.46 L59.72,148.29 L60.34,147.13 L60.98,145.96 L61.62,144.81 L62.27,143.65 L62.93,142.50 L63.59,141.36 L64.26,140.21 L64.94,139.08 L65.62,137.94 L66.31,136.81 L67.01,135.69 L67.71,134.57 L68.43,133.45 L69.14,132.34 L69.87,131.23 L70.60,130.13 L71.34,129.03 L72.09,127.94 L72.84,126.85 L73.60,125.76 L74.36,124.68 L75.14,123.61 L75.91,122.54 L76.70,121.47 L77.49,120.41 L78.29,119.35 L79.10,118.30 L79.91,117.26 L80.72,116.22 L81.55,115.18 L82.38,114.15 L83.22,113.12 L84.06,112.10 L84.91,111.09 L85.76,110.08 L86.62,109.07 L87.49,108.07 L88.37,107.08 L89.25,106.09 L90.13,105.10 L91.02,104.13 L91.92,103.15 L92.83,102.19 L93.74,101.22 L94.65,100.27 L95.57,99.32 L96.50,98.37 L97.43,97.43 L98.37,96.50 L99.32,95.57 L100.27,94.65 L101.22,93.74 L102.19,92.83 L103.15,91.92 L104.13,91.02 L105.10,90.13 L106.09,89.25 L107.08,88.37 L108.07,87.49 L109.07,86.62 L110.08,85.76 L111.09,84.91 L112.10,84.06 L113.12,83.22 L114.15,82.38 L115.18,81.55 L116.22,80.72 L117.26,79.91 L118.30,79.10 L119.35,78.29 L120.41,77.49 L121.47,76.70 L122.54,75.91 L123.61,75.14 L124.68,74.36 L125.76,73.60 L126.85,72.84 L127.94,72.09 L129.03,71.34 L130.13,70.60 L131.23,69.87 L132.34,69.14 L133.45,68.43 L134.57,67.71 L135.69,67.01 L136.81,66.31 L137.94,65.62 L139.08,64.94 L140.21,64.26 L141.36,63.59 L142.50,62.93 L143.65,62.27 L144.81,61.62 L145.96,60.98 L147.13,60.34 L148.29,59.72 L149.46,59.10 L150.63,58.48 L151.81,57.88 L152.99,57.28 L154.18,56.69 L155.36,56.10 L156.56,55.52 L157.75,54.96 L158.95,54.39 L160.15,53.84 L161.36,53.29 L162.57,52.75 L163.78,52.22 L164.99,51.69 L166.21,51.17 L167.43,50.66 L168.66,50.16 L169.88,49.67 L171.12,49.18 L172.35,48.70 L173.59,48.22 L174.83,47.76 L176.07,47.30 L177.31,46.85 L178.56,46.41 L179.81,45.98 L181.06,45.55 L182.32,45.13 L183.58,44.72 L184.84,44.31 L186.10,43.92 L187.37,43.53 L188.64,43.15 L189.91,42.78 L191.18,42.41 L192.45,42.06 L193.73,41.71 L195.01,41.37 L196.29,41.03 L197.57,40.71 L198.86,40.39 L200.15,40.08 L201.44,39.78 L202.73,39.48 L204.02,39.20 L205.31,38.92 L206.61,38.65 L207.91,38.39 L209.21,38.13 L210.51,37.89 L211.81,37.65 L213.11,37.42 L214.42,37.19 L215.72,36.98 L217.03,36.77 L218.34,36.58 L219.65,36.39 L220.96,36.20 L222.28,36.03 L223.59,35.86 L224.90,35.70 L226.22,35.55 L227.53,35.41 L228.85,35.28 L230.17,35.15 L231.49,35.04 L232.81,34.93 L234.13,34.82 L235.45,34.73 L236.77,34.65 L238.09,34.57 L239.41,34.50 L240.74,34.44 L242.06,34.39 L243.38,34.34 L244.70,34.30 L246.03,34.28 L247.35,34.26 L248.68,34.24 L250.00,34.24 L251.32,34.24 L252.65,34.26 L253.97,34.28 L255.30,34.30 L256.62,34.34 L257.94,34.39 L259.26,34.44 L260.59,34.50 L261.91,34.57 L263.23,34.65 L264.55,34.73 L265.87,34.82 L267.19,34.93 L268.51,35.04 L269.83,35.15 L271.15,35.28 L272.47,35.41 L273.78,35.55 L275.10,35.70 L276.41,35.86 L277.72,36.03 L279.04,36.20 L280.35,36.39 L281.66,36.58 L282.97,36.77 L284.28,36.98 L285.58,37.19 L286.89,37.42 L288.19,37.65 L289.49,37.89 L290.79,38.13 L292.09,38.39 L293.39,38.65 L294.69,38.92 L295.98,39.20 L297.27,39.48 L298.56,39.78 L299.85,40.08 L301.14,40.39 L302.43,40.71 L303.71,41.03 L304.99,41.37 L306.27,41.71 L307.55,42.06 L308.82,42.41 L310.09,42.78 L311.36,43.15 L312.63,43.53 L313.90,43.92 L315.16,44.31 L316.42,44.72 L317.68,45.13 L318.94,45.55 L320.19,45.98 L321.44,46.41 L322.69,46.85 L323.93,47.30 L325.17,47.76 L326.41,48.22 L327.65,48.70 L328.88,49.18 L330.12,49.67 L331.34,50.16 L332.57,50.66 L333.79,51.17 L335.01,51.69 L336.22,52.22 L337.43,52.75 L338.64,53.29 L339.85,53.84 L341.05,54.39 L342.25,54.96 L343.44,55.52 L344.64,56.10 L345.82,56.69 L347.01,57.28 L348.19,57.88 L349.37,58.48 L350.54,59.10 L351.71,59.72 L352.87,60.34 L354.04,60.98 L355.19,61.62 L356.35,62.27 L357.50,62.93 L358.64,63.59 L359.79,64.26 L360.92,64.94 L362.06,65.62 L363.19,66.31 L364.31,67.01 L365.43,67.71 L366.55,68.43 L367.66,69.14 L368.77,69.87 L369.87,70.60 L370.97,71.34 L372.06,72.09 L373.15,72.84 L374.24,73.60 L375.32,74.36 L376.39,75.14 L377.46,75.91 L378.53,76.70 L379.59,77.49 L380.65,78.29 L381.70,79.10 L382.74,79.91 L383.78,80.72 L384.82,81.55 L385.85,82.38 L386.88,83.22 L387.90,84.06 L388.91,84.91 L389.92,85.76 L390.93,86.62 L391.93,87.49 L392.92,88.37 L393.91,89.25 L394.90,90.13 L395.87,91.02 L396.85,91.92 L397.81,92.83 L398.78,93.74 L399.73,94.65 L400.68,95.57 L401.63,96.50 L402.57,97.43 L403.50,98.37 L404.43,99.32 L405.35,100.27 L406.26,101.22 L407.17,102.19 L408.08,103.15 L408.98,104.13 L409.87,105.10 L410.75,106.09 L411.63,107.08 L412.51,108.07 L413.38,109.07 L414.24,110.08 L415.09,111.09 L415.94,112.10 L416.78,113.12 L417.62,114.15 L418.45,115.18 L419.28,116.22 L420.09,117.26 L420.90,118.30 L421.71,119.35 L422.51,120.41 L423.30,121.47 L424.09,122.54 L424.86,123.61 L425.64,124.68 L426.40,125.76 L427.16,126.85 L427.91,127.94 L428.66,129.03 L429.40,130.13 L430.13,131.23 L430.86,132.34 L431.57,133.45 L432.29,134.57 L432.99,135.69 L433.69,136.81 L434.38,137.94 L435.06,139.08 L435.74,140.21 L436.41,141.36 L437.07,142.50 L437.73,143.65 L438.38,144.81 L439.02,145.96 L439.66,147.13 L440.28,148.29 L440.90,149.46 L441.52,150.63 L442.12,151.81 L442.72,152.99 L443.31,154.18 L443.90,155.36 L444.48,156.56 L445.04,157.75 L445.61,158.95 L446.16,160.15 L446.71,161.36 L447.25,162.57 L447.78,163.78 L448.31,164.99 L448.83,166.21 L449.34,167.43 L449.84,168.66 L450.33,169.88 L450.82,171.12 L451.30,172.35 L451.78,173.59 L452.24,174.83 L452.70,176.07 L453.15,177.31 L453.59,178.56 L454.02,179.81 L454.45,181.06 L454.87,182.32 L455.28,183.58 L455.69,184.84 L456.08,186.10 L456.47,187.37 L456.85,188.64 L457.22,189.91 L457.59,191.18 L457.94,192.45 L458.29,193.73 L458.63,195.01 L458.97,196.29 L459.29,197.57 L459.61,198.86 L459.92,200.15 L460.22,201.44 L460.52,202.73 L460.80,204.02 L461.08,205.31 L461.35,206.61 L461.61,207.91 L461.87,209.21 L462.11,210.51 L462.35,211.81 L462.58,213.11 L462.81,214.42 L463.02,215.72 L463.23,217.03 L463.42,218.34 L463.61,219.65 L463.80,220.96 L463.97,222.28 L464.14,223.59 L464.30,224.90 L464.45,226.22 L464.59,227.53 L464.72,228.85 L464.85,230.17 L464.96,231.49 L465.07,232.81 L465.18,234.13 L465.27,235.45 L465.35,236.77 L465.43,238.09 L465.50,239.41 L465.56,240.74 L465.61,242.06 L465.66,243.38 L465.70,244.70 L465.72,246.03 L465.74,247.35 L465.76,248.68 L465.76,250.00Z"/></svg>