<svg xmlns="http://www.w3.org/2000/svg" viewBox="0 0 1800 1493" width="12.000in" height="9.953in"><path fill="#2c1b36" fill-rule="evenodd" d="M890.9,1489.7 C886.7,1486.9 883.7,1482.5 880.9,1475.2 C879.0,1470.0 878.8,1468.3 879.4,1455.8 L880.1,1442.0 L871.9,1422.3 C867.4,1411.4 862.0,1397.8 860.0,1392.0 C839.7,1335.0 834.6,1232.4 846.0,1106.5 C851.4,1046.6 852.7,1023.9 855.0,947.5 C856.0,915.1 856.8,897.0 859.0,856.5 C860.9,820.9 861.9,803.2 865.0,742.5 C865.6,731.5 867.2,706.8 868.5,687.5 C872.1,637.1 872.4,589.1 869.3,573.0 C866.7,559.5 862.2,543.6 859.1,536.5 C856.6,530.9 855.7,531.4 854.6,539.0 C848.7,579.0 843.1,596.3 827.4,622.2 C813.6,645.0 803.5,657.6 782.1,679.0 C747.0,714.0 714.5,737.6 671.5,759.3 C656.1,767.1 613.2,783.6 597.0,788.0 C592.3,789.2 582.4,791.9 575.0,794.0 C557.7,798.8 551.3,800.3 541.5,802.0 C508.3,807.8 489.9,810.7 477.8,812.0 C441.7,816.0 355.1,817.4 319.8,814.5 C292.5,812.3 279.3,810.5 242.5,804.0 C199.4,796.5 138.4,780.6 107.0,768.9 C90.3,762.6 65.5,750.5 53.0,742.5 C19.2,720.8 10.8,687.8 30.3,653.0 C41.2,633.5 74.5,608.8 102.5,599.5 C107.6,597.8 142.7,588.7 151.0,586.9 C188.4,579.0 211.4,577.2 298.0,576.0 C386.1,574.8 409.7,573.5 447.5,568.4 C467.8,565.6 503.9,559.7 514.5,557.4 C518.4,556.6 525.8,555.0 531.0,553.9 C569.6,545.7 609.6,534.9 658.2,519.4 C660.9,518.5 663.0,517.5 663.0,517.1 C663.0,516.7 657.3,516.2 650.2,516.1 C620.2,515.8 593.3,513.5 569.0,509.3 C553.1,506.6 550.5,506.1 535.5,503.1 C480.3,492.0 462.7,487.7 407.5,471.7 C367.2,460.1 335.1,448.3 306.0,434.5 C296.4,429.9 286.7,425.5 284.5,424.6 C250.6,410.6 215.0,390.3 176.5,363.2 C122.4,325.0 59.9,267.8 33.0,231.8 C9.2,199.9 1.5,183.5 1.5,164.5 C1.5,145.7 5.9,135.0 18.9,121.9 C48.5,92.3 94.5,83.6 145.4,98.0 C166.1,103.8 188.6,113.9 223.5,133.0 C226.2,134.5 231.7,137.4 235.5,139.5 C243.6,143.9 279.5,164.3 292.0,171.7 C296.7,174.4 306.8,180.4 314.5,184.9 C338.8,199.3 353.1,207.5 365.5,214.0 C372.1,217.4 382.4,222.9 388.5,226.0 C426.5,246.0 454.1,259.2 491.5,275.4 C501.9,280.0 514.2,285.1 518.8,286.8 C550.7,299.1 568.4,305.5 587.5,311.7 C596.9,314.7 612.6,319.8 622.5,323.0 C632.4,326.2 645.2,330.2 651.0,332.0 C656.8,333.7 662.6,335.5 664.0,336.0 C665.4,336.4 669.9,337.8 674.0,339.0 C678.1,340.2 682.6,341.5 684.0,342.0 C685.4,342.5 691.2,344.3 697.0,346.0 C702.8,347.8 709.3,349.8 711.5,350.5 C717.0,352.3 743.4,359.5 775.5,368.1 C810.4,377.4 813.6,378.2 825.5,382.0 C837.9,385.9 839.4,386.0 843.1,382.4 C846.8,378.8 846.8,377.4 842.4,369.9 C828.8,346.8 824.7,296.7 834.0,269.0 C835.2,265.6 835.9,262.6 835.6,262.3 C835.0,261.7 823.9,268.1 808.3,278.1 C801.5,282.5 785.6,291.2 772.8,297.6 C760.0,304.0 742.8,312.8 734.7,317.2 C719.3,325.5 716.2,326.4 713.1,323.5 C711.3,322.0 711.0,322.0 708.6,323.5 C707.2,324.4 705.3,325.0 704.4,324.8 C701.8,324.3 685.5,295.6 669.8,264.0 C649.2,222.3 639.0,200.8 639.0,199.1 C639.0,196.2 634.7,195.0 618.0,193.1 C608.4,192.0 596.5,190.3 591.5,189.4 C586.5,188.6 577.8,187.0 572.0,186.0 C546.5,181.5 544.0,180.1 544.0,170.8 C544.0,165.8 545.3,162.8 546.4,165.5 C546.7,166.4 547.0,168.2 547.0,169.4 C547.0,172.5 550.3,175.7 554.7,177.0 C560.9,178.7 584.9,181.7 626.5,186.0 C639.6,187.4 644.5,189.4 648.7,195.3 C652.8,201.0 680.3,249.0 686.9,262.0 C689.9,267.8 695.5,278.4 699.3,285.5 C703.2,292.6 708.0,301.7 710.0,305.6 L713.6,312.7 L722.0,304.7 C742.7,285.4 787.6,260.7 834.1,243.1 C841.7,240.2 843.0,239.3 844.9,236.0 C847.3,231.6 847.5,231.7 839.0,230.5 C817.3,227.2 768.8,214.0 746.9,205.4 C732.9,199.9 731.9,198.9 729.7,188.9 C727.3,178.2 727.2,179.0 738.1,139.5 C746.0,110.9 751.0,95.1 755.9,82.7 C757.6,78.4 759.0,74.4 759.0,73.7 C759.0,73.0 748.8,63.5 736.4,52.5 C706.9,26.5 696.7,17.2 695.7,15.4 C694.6,13.4 698.8,0.8 700.3,1.3 C701.0,1.6 701.4,2.4 701.2,3.1 C699.0,12.0 699.4,13.2 706.3,19.7 C709.9,23.0 724.2,34.3 738.1,44.7 C752.1,55.1 764.8,65.4 766.4,67.5 L769.3,71.3 L768.2,79.4 C767.3,86.2 764.6,100.0 758.0,131.0 C756.2,139.5 751.2,158.5 747.6,170.5 C745.6,177.1 743.7,183.3 743.4,184.2 C743.0,185.5 744.3,186.1 750.7,187.5 C783.0,194.6 811.1,202.9 838.5,213.5 C845.1,216.0 850.7,218.2 851.0,218.3 C851.8,218.6 852.1,217.6 853.6,211.4 C854.7,206.3 854.7,205.9 853.2,206.5 C852.3,206.8 850.1,207.4 848.5,207.7 C846.9,208.1 845.2,208.8 844.8,209.3 C843.9,210.7 829.9,206.6 824.3,203.4 C814.3,197.6 804.2,181.1 802.0,166.9 C800.4,156.9 802.4,146.7 808.1,135.3 C816.4,118.6 829.6,108.3 845.4,105.8 L853.0,104.6 L856.5,98.4 C862.7,87.4 877.2,77.3 891.9,74.0 C904.3,71.1 923.4,75.1 935.1,83.1 C941.6,87.5 949.6,96.8 950.5,101.2 C951.2,104.3 952.4,105.3 955.8,105.8 C969.4,107.6 987.1,121.4 994.0,135.3 C1004.5,156.7 1000.8,178.0 983.4,195.7 C975.8,203.5 970.0,206.7 959.7,209.0 C954.2,210.3 951.1,209.8 953.8,208.1 C954.8,207.5 954.4,206.8 952.3,205.4 C948.7,203.0 946.0,202.8 946.0,205.0 C946.0,207.7 949.1,216.0 950.1,216.0 C952.0,216.0 970.7,210.7 982.3,206.9 C989.0,204.7 1002.4,200.9 1012.0,198.4 C1058.7,186.4 1055.3,187.5 1054.7,183.6 C1054.4,181.9 1053.7,178.7 1053.1,176.5 C1052.5,174.3 1049.9,162.2 1047.4,149.5 C1044.9,136.8 1041.1,117.7 1039.0,107.0 C1032.3,73.4 1032.5,69.7 1041.5,63.6 C1050.8,57.2 1089.5,26.6 1100.3,17.0 C1104.1,13.7 1104.2,13.4 1103.7,8.7 C1103.1,3.9 1103.6,1.0 1105.0,1.0 C1106.0,1.0 1108.4,15.5 1107.6,16.9 C1107.2,17.5 1101.6,22.4 1095.2,27.7 C1080.8,39.7 1056.8,61.3 1054.9,63.9 C1054.1,64.9 1051.8,67.9 1049.6,70.4 C1045.9,74.9 1045.8,75.1 1046.9,79.2 C1047.5,81.6 1049.4,88.7 1051.0,95.0 C1063.4,141.6 1064.7,147.0 1067.7,160.9 C1070.1,172.7 1071.7,192.9 1070.4,197.2 C1070.1,198.2 1066.1,200.3 1060.2,202.5 C1054.9,204.5 1043.8,208.8 1035.5,212.0 C1027.2,215.2 1016.9,218.9 1012.5,220.3 C999.2,224.6 982.6,228.5 962.2,232.0 C956.2,233.0 955.0,233.6 955.0,235.4 C955.0,238.0 960.1,241.2 969.1,244.5 C1013.5,260.2 1052.1,279.9 1069.6,295.8 C1071.9,297.8 1076.9,302.3 1080.8,305.8 L1087.9,312.1 L1090.3,307.3 C1091.7,304.7 1094.8,299.0 1097.3,294.8 C1099.8,290.6 1105.8,279.6 1110.6,270.3 C1115.4,261.1 1123.0,247.0 1127.5,239.0 C1132.0,231.0 1137.2,221.8 1139.0,218.5 C1149.2,199.7 1155.8,190.2 1160.2,187.9 C1162.2,186.8 1188.0,183.3 1213.5,180.5 C1221.2,179.7 1232.5,178.5 1238.5,177.9 C1251.0,176.5 1252.5,175.7 1254.2,169.1 C1255.2,165.0 1255.4,164.8 1256.2,167.1 C1257.0,169.3 1256.7,173.7 1255.4,178.3 C1254.6,181.0 1252.1,181.8 1237.9,184.0 C1230.5,185.1 1218.8,187.2 1211.7,188.5 C1194.7,191.8 1180.0,194.0 1174.6,194.0 C1171.9,194.0 1169.5,194.7 1168.2,195.7 C1166.0,197.7 1158.5,212.1 1142.7,245.0 C1128.4,274.9 1100.9,320.9 1096.5,322.6 C1095.7,323.0 1093.6,322.7 1092.0,322.0 C1089.5,320.9 1088.7,321.1 1086.4,322.9 C1082.6,325.9 1081.3,325.6 1073.5,320.4 C1069.6,317.9 1053.0,309.1 1036.5,301.0 C1020.0,292.9 998.0,281.2 987.5,275.1 C977.1,269.0 968.4,264.4 968.2,264.9 C968.0,265.5 968.5,268.5 969.3,271.7 C972.6,284.6 973.4,296.0 972.2,313.2 C969.9,344.8 968.6,350.4 959.4,368.3 L954.8,377.2 L957.6,381.1 C960.7,385.7 959.8,385.5 968.5,383.0 C972.4,381.9 982.2,379.2 990.5,377.0 C998.8,374.8 1008.9,372.2 1013.0,371.0 C1017.1,369.9 1032.9,365.8 1048.0,361.9 C1084.2,352.7 1097.5,348.7 1160.0,328.8 C1188.8,319.6 1235.3,303.2 1264.7,291.9 C1270.3,289.8 1275.1,288.0 1275.4,288.0 C1276.4,288.0 1327.7,266.1 1344.1,258.7 C1388.2,238.7 1437.7,212.8 1482.0,186.5 C1527.8,159.4 1540.5,152.4 1595.0,124.2 C1623.4,109.5 1648.1,100.5 1675.5,94.9 C1692.3,91.4 1718.3,91.6 1733.3,95.3 C1766.2,103.4 1791.5,123.6 1797.6,146.4 C1799.6,153.9 1799.4,167.3 1797.0,176.6 C1792.7,193.6 1780.3,213.6 1755.1,244.5 C1716.7,291.5 1633.0,360.5 1570.5,396.5 C1561.7,401.6 1511.8,427.0 1510.6,427.0 C1510.4,427.0 1505.8,429.1 1500.3,431.6 C1457.3,451.8 1384.4,476.4 1335.5,487.4 C1266.2,502.9 1236.9,508.3 1203.5,511.9 C1188.5,513.5 1158.8,515.1 1147.2,514.9 C1141.5,514.8 1136.7,515.0 1136.4,515.2 C1135.9,515.8 1138.4,516.8 1161.5,524.8 C1183.0,532.3 1204.9,538.8 1224.0,543.3 C1227.6,544.2 1235.2,546.0 1241.0,547.4 C1264.7,553.0 1269.2,554.0 1286.0,557.4 C1325.0,565.2 1362.2,570.3 1393.0,572.0 C1403.7,572.6 1418.1,573.5 1425.0,574.1 C1431.9,574.7 1467.7,575.5 1504.5,576.0 C1541.3,576.5 1576.9,577.3 1583.5,577.9 C1632.1,582.4 1643.3,584.3 1683.5,594.9 C1708.3,601.4 1735.3,615.6 1752.2,630.9 C1764.1,641.7 1775.9,660.5 1779.5,674.5 C1781.5,682.3 1781.5,697.6 1779.4,703.6 C1772.1,725.1 1751.0,742.9 1712.6,760.0 C1703.0,764.3 1675.4,774.8 1666.0,777.8 C1643.9,784.8 1590.3,797.6 1569.0,800.9 C1564.9,801.6 1559.5,802.5 1557.0,803.0 C1505.6,813.2 1471.8,816.3 1409.5,816.4 C1356.9,816.4 1338.2,815.1 1293.0,807.9 C1254.8,801.9 1235.6,797.5 1200.5,786.8 C1169.5,777.4 1151.7,770.4 1127.5,758.3 C1080.2,734.5 1054.8,715.8 1014.9,675.4 C970.8,630.6 955.5,603.3 948.5,556.5 C945.4,535.5 945.1,534.0 943.9,534.0 C942.6,534.0 941.6,536.8 936.5,554.5 C926.0,590.5 924.2,612.0 928.0,655.5 C930.9,689.2 931.7,700.3 934.0,732.5 C935.9,759.5 937.0,779.1 938.0,800.5 C939.0,822.3 940.2,842.4 941.9,866.5 C945.3,912.2 946.0,927.8 947.0,968.0 C948.3,1023.3 950.6,1084.8 952.5,1117.0 C961.7,1271.3 954.3,1361.6 927.2,1425.0 C920.7,1440.2 919.8,1444.0 921.0,1449.2 C922.7,1456.8 922.2,1471.3 920.0,1477.3 C917.9,1483.0 912.3,1489.2 907.7,1490.9 C902.7,1492.8 894.7,1492.2 890.9,1489.7 Z M887.5,1372.4 C891.2,1365.5 893.9,1359.6 893.7,1359.3 C893.4,1359.1 890.9,1360.6 888.2,1362.7 C881.2,1367.9 872.1,1373.4 871.4,1372.7 C871.0,1372.4 872.9,1370.6 875.6,1368.8 C878.2,1367.0 883.5,1363.2 887.4,1360.5 L894.5,1355.5 L895.1,1348.5 C895.5,1344.6 895.4,1334.8 894.9,1326.5 C894.4,1318.2 894.1,1302.7 894.0,1291.9 C894.0,1281.1 893.7,1272.1 893.4,1271.8 C893.1,1271.5 889.1,1273.2 884.6,1275.6 C879.4,1278.4 875.6,1279.8 874.6,1279.4 C873.3,1278.9 875.6,1277.3 882.7,1273.5 C889.9,1269.7 892.6,1267.7 893.1,1265.9 C894.8,1260.0 894.0,1189.8 892.1,1171.0 C888.0,1131.9 887.7,1123.3 888.9,1090.0 C889.6,1071.4 890.7,1054.4 891.6,1048.5 C893.5,1037.0 893.9,1011.9 892.6,989.5 C891.9,975.9 892.1,972.5 894.6,953.0 C898.2,924.3 898.2,914.4 894.1,896.9 C889.8,877.9 889.9,870.5 895.0,845.1 C899.4,823.0 899.9,815.2 897.5,800.0 C896.7,794.8 895.0,783.6 893.8,775.2 L891.6,759.9 L894.0,738.1 C896.4,716.3 896.4,716.2 894.5,705.9 C891.7,689.9 891.5,679.4 893.9,662.9 C897.0,640.8 898.0,628.6 898.9,602.8 C899.5,581.9 900.1,576.5 901.3,578.1 C901.5,578.3 901.3,583.0 900.8,588.5 C899.8,600.5 900.5,612.3 903.1,624.7 C904.8,633.1 904.9,636.3 904.0,663.7 C903.5,680.1 902.6,698.7 902.0,705.0 C900.8,717.0 901.4,723.7 905.5,741.5 C908.6,755.5 908.5,763.7 905.0,784.5 L901.7,803.5 L903.0,827.0 C905.2,869.0 905.3,878.9 903.9,899.4 C902.2,923.2 902.3,927.3 904.9,949.0 C907.9,973.4 907.9,973.5 906.2,987.0 C904.5,1001.9 905.0,1036.0 907.4,1054.0 C911.7,1087.6 912.3,1115.2 909.4,1140.5 C905.3,1176.0 904.5,1190.1 904.6,1228.2 C904.7,1256.4 905.0,1265.3 906.0,1266.5 C906.7,1267.3 910.6,1269.9 914.7,1272.1 C920.7,1275.4 921.9,1276.5 920.6,1277.2 C919.5,1277.8 917.3,1277.1 912.9,1274.5 C909.6,1272.6 906.6,1271.0 906.2,1271.0 C905.8,1271.0 905.5,1283.0 905.5,1297.7 C905.5,1314.4 905.0,1328.9 904.1,1336.1 C902.1,1352.8 902.4,1353.7 911.8,1359.8 C919.8,1365.0 929.4,1372.9 928.7,1373.7 C928.4,1373.9 923.2,1370.7 917.1,1366.4 C910.9,1362.2 905.7,1359.0 905.5,1359.2 C905.2,1359.4 907.3,1363.2 910.1,1367.6 C917.4,1378.9 927.0,1398.7 927.0,1402.3 C927.0,1407.0 927.8,1405.3 931.4,1392.4 C949.0,1331.0 953.3,1248.3 945.5,1118.0 C943.6,1085.8 941.3,1024.3 940.0,969.0 C939.0,928.8 938.3,913.2 934.9,867.5 C933.2,843.4 932.0,823.3 931.0,801.5 C929.1,761.0 925.7,711.0 921.0,656.5 C917.2,613.5 919.1,589.8 928.7,556.0 C930.7,549.1 932.4,542.8 932.5,542.0 C932.5,541.1 933.0,539.9 933.4,539.1 C934.1,538.1 933.7,537.9 931.9,538.4 C929.6,539.1 929.6,539.1 932.2,537.0 C933.6,535.9 935.7,533.4 936.8,531.6 C938.7,528.3 938.8,528.1 937.1,526.6 C934.5,524.2 930.2,515.0 928.4,507.8 C926.8,501.5 926.2,489.0 927.5,487.0 C927.9,486.4 927.6,485.2 926.9,484.4 C925.8,483.1 925.9,482.9 927.6,483.2 C928.9,483.4 929.5,483.0 929.4,481.7 C929.3,480.8 929.6,480.0 930.0,480.0 C930.5,480.0 932.3,477.6 934.0,474.7 C935.8,471.9 939.0,467.4 941.1,464.9 L944.9,460.3 L942.6,458.1 C941.3,456.9 938.7,452.9 936.9,449.2 C933.1,441.8 932.5,434.3 934.4,415.4 L935.3,406.3 L931.6,402.2 C925.4,395.4 919.5,392.0 913.6,392.0 C910.8,392.0 907.8,391.5 907.0,391.0 C905.9,390.3 906.7,390.2 909.7,390.6 C912.0,391.0 914.7,390.9 915.7,390.6 C917.4,389.9 917.4,389.8 915.7,388.8 C914.0,387.9 913.9,386.7 914.1,378.1 L914.5,368.5 L906.7,360.9 L899.0,353.3 L899.0,309.4 L899.0,265.5 L891.1,257.8 C885.0,251.9 883.5,250.0 884.8,249.5 C885.9,249.1 888.7,251.3 894.2,256.7 L902.0,264.5 L902.1,298.5 C902.1,317.2 902.5,337.4 902.9,343.4 L903.7,354.4 L910.0,360.2 C913.5,363.4 919.1,367.4 922.4,368.9 C929.1,372.1 946.9,378.5 947.3,377.9 C948.7,375.8 959.3,352.4 960.5,349.0 C962.3,343.5 963.6,333.3 965.1,312.5 C966.4,295.6 965.7,287.0 962.4,273.1 C961.5,269.6 961.0,265.6 961.3,264.3 C961.9,260.9 956.3,247.0 953.4,244.7 C949.7,241.8 947.7,237.3 948.5,233.3 C949.2,229.3 947.5,223.3 945.0,220.8 C944.0,219.9 942.4,217.0 941.4,214.3 C940.4,211.7 939.5,209.3 939.4,209.1 C939.2,208.9 936.9,210.4 934.2,212.4 C923.0,220.6 911.1,223.7 895.5,222.5 C882.1,221.4 868.8,216.9 863.4,211.5 L861.1,209.2 L860.4,213.8 C859.6,219.5 858.5,221.7 854.8,225.2 C852.3,227.5 852.1,228.1 853.1,230.3 C854.3,232.9 851.0,241.0 847.1,244.7 C843.9,247.8 840.8,257.6 842.2,260.5 C843.1,262.5 842.9,264.2 841.1,269.7 C833.7,292.2 834.7,330.8 843.4,356.2 C844.3,358.8 846.8,364.0 849.0,367.8 C851.2,371.6 853.0,375.6 853.0,376.8 C853.0,378.8 853.1,378.8 861.5,376.0 C866.2,374.4 872.7,371.5 875.9,369.6 C882.5,365.5 883.2,365.3 882.3,367.6 C881.8,369.0 882.0,369.1 883.8,368.1 C885.7,367.1 885.9,367.4 886.5,371.8 C887.5,379.2 886.8,389.0 885.2,389.0 C884.5,389.0 884.1,389.4 884.4,389.9 C884.7,390.4 883.9,391.1 882.5,391.4 C881.1,391.8 878.2,393.6 876.1,395.6 C870.4,400.7 869.0,405.7 869.0,421.1 C869.0,439.1 867.1,446.8 860.3,455.8 L857.8,459.2 L862.2,463.8 C871.1,473.1 874.4,477.9 873.0,479.5 C872.3,480.4 872.2,481.0 872.8,481.0 C873.3,481.0 873.6,482.0 873.2,483.2 C872.8,484.8 873.0,485.1 874.0,484.5 C875.1,483.8 875.2,485.5 874.7,493.3 C874.0,504.3 871.9,510.9 866.2,520.6 L862.2,527.5 L864.6,532.2 C865.9,534.7 867.4,537.1 868.0,537.5 C868.6,537.9 868.8,538.5 868.6,538.9 C868.3,539.3 869.4,544.4 871.1,550.1 C877.9,573.8 878.5,579.8 878.3,618.5 C878.1,643.1 877.3,663.8 875.5,688.5 C874.2,707.7 872.6,732.5 872.0,743.5 C868.9,804.2 867.9,821.9 866.0,857.5 C863.8,898.0 863.0,916.1 862.0,948.5 C859.7,1024.9 858.4,1047.6 853.0,1107.5 C845.4,1191.8 845.1,1265.0 852.1,1323.5 C855.0,1347.3 861.2,1374.8 867.8,1393.3 L872.4,1406.0 L876.6,1395.5 C878.9,1389.7 883.8,1379.3 887.5,1372.4 Z M1468.5,807.9 C1482.1,806.9 1502.4,804.8 1514.3,803.1 C1517.6,802.7 1520.6,801.7 1521.1,800.9 C1521.7,799.9 1522.0,799.9 1522.0,800.8 C1522.0,801.4 1522.7,802.0 1523.5,802.0 C1525.4,802.0 1525.4,800.7 1523.4,796.9 C1522.6,795.2 1522.1,793.6 1522.4,793.3 C1522.6,793.0 1523.8,794.6 1525.0,796.9 C1527.4,801.7 1526.8,801.6 1540.1,799.0 C1545.8,797.9 1552.8,796.6 1555.5,796.1 C1558.2,795.5 1563.9,794.6 1568.0,793.9 C1591.9,790.2 1656.0,774.7 1668.0,769.7 C1669.4,769.2 1671.2,768.6 1672.0,768.4 C1672.8,768.2 1673.6,767.7 1673.8,767.1 C1674.0,766.6 1674.7,766.3 1675.4,766.6 C1677.0,767.2 1704.6,756.2 1720.5,748.6 C1753.3,732.8 1773.8,712.1 1774.0,694.4 C1774.0,690.7 1773.4,689.7 1767.9,684.2 C1751.8,667.9 1716.9,650.3 1669.5,634.5 C1636.9,623.6 1623.7,620.2 1606.0,618.0 C1598.0,617.0 1593.2,616.2 1595.2,616.1 C1597.8,616.0 1599.0,615.5 1599.0,614.5 C1599.0,613.7 1599.6,613.3 1600.4,613.6 C1601.5,614.0 1601.7,613.6 1601.3,612.1 C1600.6,609.5 1602.3,609.5 1612.5,611.4 C1620.1,612.9 1621.1,612.6 1623.5,608.1 C1625.5,604.2 1633.3,596.9 1638.2,594.4 C1640.5,593.1 1642.0,592.1 1641.5,592.0 C1641.0,592.0 1636.9,591.3 1632.5,590.6 C1624.6,589.2 1606.3,587.1 1582.5,584.9 C1575.9,584.3 1540.3,583.5 1503.5,583.0 C1466.7,582.5 1430.9,581.7 1424.0,581.1 C1417.1,580.5 1402.7,579.6 1392.0,579.0 C1373.4,578.0 1342.3,574.6 1324.0,571.5 C1319.3,570.7 1313.9,569.9 1311.9,569.6 C1306.0,568.7 1268.3,561.1 1259.0,558.9 C1254.3,557.8 1245.8,555.8 1240.0,554.4 C1234.2,553.0 1226.6,551.2 1223.0,550.3 C1197.9,544.4 1157.1,531.5 1137.3,523.4 C1130.4,520.5 1127.9,517.0 1130.0,513.1 C1131.0,511.0 1130.9,511.0 1121.3,510.8 L1111.5,510.6 L1122.0,510.1 C1127.8,509.8 1133.2,509.1 1134.0,508.5 C1134.8,508.0 1140.2,507.7 1146.0,507.8 C1183.3,508.8 1234.6,502.3 1297.5,488.5 C1340.5,479.1 1351.0,476.6 1371.5,470.9 C1401.3,462.4 1459.6,442.6 1462.4,439.9 C1463.0,439.4 1464.2,439.0 1465.2,439.0 C1466.2,439.0 1467.0,438.6 1467.0,438.2 C1467.0,437.8 1467.8,437.4 1468.8,437.3 C1475.7,436.7 1547.6,402.2 1571.0,388.3 C1592.4,375.5 1633.9,347.1 1631.5,346.9 C1630.9,346.9 1631.6,346.4 1633.0,345.9 L1635.5,344.8 L1632.0,343.0 C1628.0,340.8 1629.7,340.3 1633.8,342.4 C1636.4,343.7 1636.9,343.4 1650.5,332.8 C1688.2,303.3 1724.3,269.9 1746.8,243.7 C1748.6,241.6 1749.8,239.5 1749.5,238.9 C1749.1,238.4 1749.5,238.0 1750.3,238.0 C1751.6,238.0 1769.4,215.0 1778.0,202.2 C1795.3,176.3 1796.7,148.6 1781.7,130.7 C1774.9,122.6 1720.6,125.8 1676.3,136.9 C1636.8,146.7 1587.9,166.0 1556.5,184.0 C1550.5,187.4 1538.9,194.0 1530.9,198.6 C1515.1,207.5 1512.0,209.4 1481.5,229.5 C1467.0,239.1 1459.8,244.5 1455.3,249.3 C1449.5,255.5 1447.1,259.5 1448.4,260.7 C1450.1,262.4 1471.1,258.4 1547.1,241.6 C1605.9,228.6 1626.9,225.8 1664.9,226.2 C1676.8,226.3 1682.2,226.6 1677.0,226.7 C1665.9,227.1 1664.4,227.4 1666.1,229.2 C1666.9,230.1 1671.0,230.6 1678.9,230.7 C1692.7,230.9 1712.8,232.7 1722.5,234.6 C1727.7,235.6 1728.2,235.8 1724.5,235.4 C1657.4,228.5 1629.0,231.1 1539.5,252.4 C1520.2,257.0 1495.1,262.9 1483.5,265.5 C1449.7,273.1 1418.9,281.9 1405.5,287.8 C1399.7,290.3 1356.1,316.1 1347.0,322.4 L1342.5,325.5 L1345.5,325.8 C1347.2,326.0 1365.8,324.1 1387.0,321.6 C1477.6,311.0 1513.4,311.4 1571.0,323.6 C1588.1,327.2 1606.1,331.8 1607.0,332.8 C1607.5,333.3 1604.0,332.8 1597.6,331.5 C1596.0,331.2 1593.9,330.5 1592.9,329.9 C1591.9,329.4 1589.4,329.3 1587.3,329.7 C1581.4,330.8 1578.4,330.5 1565.6,327.7 C1543.0,322.7 1528.8,321.6 1490.5,321.6 C1452.1,321.7 1456.8,321.2 1389.5,330.5 C1355.1,335.3 1350.0,336.2 1299.0,346.9 C1238.9,359.4 1215.5,364.9 1125.0,387.4 C1101.7,393.2 1091.0,397.4 1093.3,399.7 C1094.7,401.0 1126.8,400.6 1163.5,398.7 C1241.3,394.7 1272.3,394.6 1320.5,398.0 C1350.5,400.2 1379.4,405.4 1412.5,414.5 C1431.6,419.8 1457.6,430.2 1456.5,432.1 C1456.2,432.5 1454.1,431.8 1451.7,430.5 C1448.8,428.8 1447.0,428.4 1446.0,429.0 C1444.8,429.8 1444.7,430.0 1445.9,430.0 C1446.7,430.0 1447.1,430.2 1446.8,430.5 C1446.5,430.8 1441.0,429.5 1434.6,427.5 C1371.5,408.4 1299.7,400.8 1223.0,405.0 C1212.8,405.6 1190.8,406.5 1174.0,407.0 C1109.8,408.9 1034.6,416.6 1010.3,423.6 C1005.8,424.9 1004.8,424.9 1001.8,423.6 C999.9,422.8 999.2,422.1 1000.2,422.1 C1001.2,422.0 1002.0,421.6 1002.0,421.1 C1002.0,419.5 999.7,419.3 997.0,420.7 C995.6,421.4 993.7,421.7 992.7,421.4 C991.1,420.9 990.9,421.2 991.5,423.0 C992.1,424.9 991.9,425.1 990.1,424.5 C987.9,423.8 987.1,425.5 989.2,426.3 C989.9,426.6 989.4,426.9 988.0,427.1 C986.2,427.2 986.6,427.5 989.5,428.0 C993.4,428.7 993.4,428.7 990.2,428.9 C988.5,428.9 987.0,429.4 987.0,429.8 C987.0,430.3 1008.9,431.2 1035.8,431.9 C1090.0,433.3 1101.4,434.0 1121.0,437.6 C1146.5,442.3 1160.0,446.3 1173.4,453.3 C1188.9,461.5 1208.3,473.0 1207.6,473.7 C1207.3,474.0 1205.5,473.3 1203.6,472.2 C1201.2,470.8 1200.0,470.5 1199.6,471.3 C1199.4,472.0 1199.1,471.7 1199.1,470.8 C1199.0,469.7 1198.2,469.0 1196.9,469.0 C1195.8,469.0 1195.1,468.6 1195.4,468.1 C1196.0,467.2 1191.1,464.5 1189.2,464.9 C1188.6,465.0 1188.0,464.6 1188.0,464.0 C1188.0,463.5 1187.4,463.0 1186.6,463.0 C1185.9,463.0 1182.5,461.6 1179.2,459.9 C1175.4,457.9 1172.5,457.0 1171.3,457.4 C1169.8,458.0 1169.8,458.2 1171.0,459.0 C1174.0,460.9 1170.5,459.9 1161.1,456.1 C1147.9,450.8 1120.7,444.7 1094.1,441.0 C1083.2,439.5 1063.9,439.7 1044.0,441.6 C1034.4,442.5 1017.7,443.3 1007.0,443.4 C996.3,443.4 989.8,443.8 992.5,444.1 C996.2,444.5 994.8,444.7 987.0,444.9 C981.2,444.9 973.5,445.3 969.9,445.6 L963.2,446.3 L962.5,452.7 C962.1,456.3 961.2,460.7 960.4,462.6 C958.5,467.1 958.4,466.9 963.2,467.7 L967.5,468.4 L964.4,469.2 L961.3,470.0 L960.7,478.7 C960.1,488.4 960.8,489.9 965.9,490.1 C967.9,490.2 968.1,490.3 966.6,490.7 C964.2,491.3 961.9,493.5 962.7,494.4 C963.1,494.7 962.8,495.0 962.1,495.0 C961.4,495.0 961.2,495.4 961.5,496.0 C961.8,496.6 961.4,497.0 960.5,497.0 C959.4,497.0 959.0,497.7 959.2,499.2 C959.4,501.0 961.5,502.1 971.5,505.6 C981.8,509.2 983.1,509.9 980.8,510.5 C979.0,510.9 978.3,511.6 978.7,512.4 C981.4,516.7 979.0,517.6 971.6,515.0 C968.3,513.9 965.5,513.2 965.3,513.4 C964.5,514.2 969.5,519.2 980.5,528.8 C1007.8,552.6 1040.2,588.9 1057.5,615.0 C1073.1,638.7 1079.6,652.0 1088.4,678.4 C1095.0,697.8 1103.0,728.6 1103.0,734.1 C1103.0,737.7 1103.0,737.7 1116.2,744.8 C1146.2,760.8 1166.6,769.2 1201.5,779.8 C1236.8,790.6 1255.7,794.9 1294.5,801.0 C1301.7,802.1 1310.2,803.5 1313.6,804.0 C1316.9,804.6 1321.1,805.0 1322.9,805.0 C1325.8,805.0 1326.0,804.8 1325.4,802.2 C1325.0,800.1 1325.1,799.8 1325.9,801.0 C1326.8,802.3 1327.0,802.2 1327.1,800.5 C1327.1,799.2 1327.6,799.7 1328.4,802.0 C1329.4,804.7 1330.4,805.6 1332.8,806.1 C1335.6,806.7 1360.3,808.5 1378.0,809.4 C1389.7,810.0 1454.2,809.0 1468.5,807.9 Z M444.5,807.5 C458.2,806.7 469.7,806.0 470.0,806.0 C470.4,806.0 471.2,804.4 471.9,802.5 C473.4,798.3 484.4,781.4 492.6,770.9 C514.4,742.7 554.9,702.7 592.0,672.6 C619.3,650.5 666.9,611.6 678.5,602.0 C682.9,598.3 695.7,587.7 707.0,578.3 C725.4,563.1 734.8,554.0 732.2,554.0 C728.9,554.0 688.9,567.5 656.0,579.7 C642.0,584.9 619.0,593.3 605.0,598.2 C543.2,620.1 479.2,647.8 451.0,664.7 C444.7,668.6 425.1,680.4 407.5,691.0 C358.8,720.3 353.3,724.2 326.5,747.6 C312.1,760.2 307.3,764.9 300.3,773.5 C294.6,780.5 280.0,801.0 280.0,802.0 C280.0,803.4 298.6,805.9 324.5,807.9 C342.3,809.3 417.8,809.1 444.5,807.5 Z M492.8,802.9 C504.6,801.1 514.4,799.5 540.5,795.0 C550.2,793.4 556.6,791.8 574.0,787.0 C581.4,784.9 591.3,782.2 596.0,781.0 C606.9,778.0 648.7,762.5 660.5,757.1 C665.4,754.8 676.1,749.3 684.1,744.8 L698.7,736.7 L701.3,723.6 C710.3,678.1 730.0,632.4 754.5,600.0 C779.1,567.6 794.2,552.1 826.5,526.6 C834.8,520.1 841.9,514.4 842.3,514.0 C842.7,513.6 842.7,512.4 842.3,511.3 C841.5,509.2 841.5,509.2 833.5,512.0 C819.0,517.0 809.8,521.0 789.5,531.0 C765.9,542.6 761.2,545.6 745.4,559.2 C724.6,577.2 710.0,589.2 691.0,604.0 C648.5,637.0 597.7,678.6 566.5,705.9 C550.4,720.0 503.3,767.5 495.4,777.6 C488.1,787.0 477.0,803.0 477.0,804.2 C477.0,805.3 477.3,805.3 492.8,802.9 Z M281.4,787.8 C299.2,760.9 318.9,741.7 355.1,715.8 C402.5,682.0 430.2,664.9 465.0,647.8 C490.0,635.6 507.0,626.2 507.0,624.7 C507.0,624.2 505.3,624.1 503.2,624.4 C492.4,626.0 459.1,628.0 433.0,628.5 C378.2,629.6 353.0,635.2 291.0,660.0 C261.5,671.8 249.2,677.5 228.5,688.9 C190.3,710.1 176.4,719.7 159.1,736.8 C147.2,748.6 131.3,769.1 133.3,770.2 C135.3,771.2 161.3,778.6 180.3,783.4 C199.3,788.2 236.2,795.9 262.5,800.4 C266.9,801.2 270.8,801.9 271.2,801.9 C271.6,802.0 276.2,795.6 281.4,787.8 Z M1296.6,765.2 C1270.2,735.0 1231.1,699.5 1173.0,652.9 C1152.9,636.9 1129.3,617.8 1120.5,610.5 C1111.7,603.3 1099.1,593.1 1092.5,588.0 C1071.5,571.5 1046.9,550.7 1047.7,550.1 C1049.2,549.0 1049.1,546.7 1047.4,544.9 C1046.5,543.8 1046.1,543.0 1046.6,543.0 C1047.1,543.0 1046.8,542.5 1046.0,542.0 C1045.2,541.5 1043.7,541.3 1042.8,541.6 C1041.8,541.9 1041.0,541.7 1041.0,541.1 C1041.0,540.5 1041.7,540.0 1042.5,540.0 C1044.6,540.0 1044.4,537.0 1042.2,537.0 C1040.0,536.9 1037.0,534.7 1037.0,533.0 C1037.0,532.3 1036.4,532.0 1035.6,532.3 C1034.8,532.6 1033.4,532.0 1032.5,531.0 C1031.5,529.9 1030.5,529.2 1030.1,529.2 C1029.8,529.3 1027.5,528.4 1025.0,527.2 C1018.3,523.9 1022.8,525.2 1039.5,531.3 C1067.6,541.6 1076.9,545.3 1076.5,546.1 C1076.2,546.5 1075.1,546.6 1074.0,546.3 C1072.6,545.9 1072.0,546.3 1072.0,547.4 C1072.0,548.3 1071.3,549.0 1070.5,549.0 C1069.7,549.0 1069.0,549.5 1069.0,550.0 C1069.0,550.5 1069.7,551.0 1070.6,551.0 C1071.6,551.0 1072.0,551.6 1071.6,552.5 C1071.3,553.5 1071.7,554.0 1072.8,554.0 C1074.1,554.1 1074.0,554.3 1072.2,555.3 C1070.0,556.6 1070.0,556.7 1076.7,563.1 C1080.4,566.7 1091.6,575.9 1101.5,583.7 C1111.4,591.4 1125.1,602.6 1132.0,608.5 C1138.9,614.4 1156.4,628.9 1171.0,640.7 C1225.6,685.0 1224.5,684.1 1255.7,713.8 C1273.6,730.9 1295.7,754.4 1305.4,766.5 C1310.3,772.6 1310.8,773.6 1309.5,775.0 C1308.4,776.2 1308.3,776.9 1309.2,777.8 C1309.8,778.4 1310.2,779.2 1309.9,779.4 C1309.7,779.6 1303.7,773.2 1296.6,765.2 Z M132.3,759.8 C155.5,724.2 192.1,696.3 253.1,667.4 C289.6,650.2 305.4,644.1 343.2,632.4 C366.2,625.4 368.1,623.9 358.2,620.6 C336.7,613.4 257.1,612.1 204.6,618.0 C168.5,622.0 146.2,627.8 104.1,644.0 C76.3,654.6 56.0,666.2 35.7,682.9 C25.7,691.2 25.5,691.8 29.1,703.6 C34.6,721.8 48.6,734.1 82.5,750.6 C91.8,755.2 101.5,759.6 104.0,760.4 C106.5,761.3 112.1,763.3 116.5,764.9 C120.9,766.5 125.0,767.8 125.7,767.9 C126.3,768.0 129.3,764.3 132.3,759.8 Z M1493.0,756.5 C1488.3,751.8 1484.2,748.0 1483.8,748.0 C1483.4,748.0 1482.0,747.0 1480.7,745.8 C1465.1,730.8 1448.3,718.4 1446.3,720.4 C1446.0,720.6 1448.6,723.0 1452.0,725.7 C1461.4,733.0 1476.1,746.2 1475.6,746.8 C1475.3,747.1 1473.2,745.6 1470.9,743.6 C1464.1,737.4 1431.5,713.4 1416.5,703.5 C1399.9,692.6 1360.5,669.9 1339.7,659.4 C1331.5,655.2 1325.0,651.6 1325.3,651.3 C1325.6,651.1 1327.2,651.6 1328.8,652.4 C1330.7,653.4 1332.0,653.6 1332.2,652.9 C1332.4,652.4 1333.3,652.2 1334.3,652.6 C1335.3,652.9 1335.9,653.8 1335.6,654.5 C1335.1,656.0 1339.4,658.2 1341.4,657.4 C1342.2,657.1 1343.4,657.7 1344.1,658.8 C1344.9,660.0 1346.0,660.5 1347.2,660.2 C1348.3,659.9 1350.1,660.6 1351.4,661.9 C1352.9,663.3 1354.0,663.8 1354.4,663.1 C1354.8,662.5 1353.3,660.3 1351.0,658.1 C1348.8,656.0 1346.7,654.7 1346.4,655.1 C1346.1,655.6 1345.2,655.4 1344.5,654.8 C1340.9,651.5 1340.0,651.1 1338.7,651.6 C1337.9,651.9 1336.7,651.4 1336.0,650.6 C1335.3,649.7 1334.4,649.3 1333.9,649.6 C1333.4,649.9 1333.0,649.6 1333.0,649.1 C1333.0,648.5 1332.1,648.0 1331.0,648.0 C1329.9,648.0 1329.0,647.5 1329.0,646.9 C1329.0,646.4 1328.6,646.1 1328.1,646.5 C1327.6,646.8 1326.3,645.9 1325.2,644.5 C1324.1,643.2 1323.1,642.2 1322.9,642.4 C1322.7,642.6 1321.9,642.2 1321.2,641.4 C1318.5,638.5 1322.6,640.1 1338.4,648.4 C1354.4,656.7 1358.7,659.1 1398.0,682.5 C1421.6,696.5 1448.6,715.2 1464.5,728.5 C1477.2,739.1 1502.8,763.5 1502.0,764.3 C1501.7,764.6 1497.6,761.1 1493.0,756.5 Z M1664.4,754.7 C1662.2,752.4 1658.2,747.8 1655.5,744.5 C1652.8,741.2 1649.7,737.9 1648.6,737.1 C1647.0,735.9 1644.0,733.4 1634.5,725.1 C1633.4,724.2 1630.5,721.8 1628.0,719.9 C1625.6,718.1 1622.9,715.9 1622.1,715.2 C1617.4,710.7 1609.4,707.7 1611.5,711.1 C1612.6,712.8 1611.1,712.0 1602.8,706.6 C1581.6,692.8 1537.3,669.9 1517.5,662.4 C1494.9,653.9 1445.0,637.4 1432.0,634.1 C1414.1,629.6 1397.1,627.1 1380.8,626.8 C1372.8,626.6 1366.7,626.8 1367.3,627.2 C1368.0,627.6 1362.7,627.9 1355.5,627.8 C1345.8,627.7 1343.6,627.5 1347.0,626.9 C1350.2,626.4 1348.8,626.2 1342.0,626.5 C1330.4,626.9 1321.6,626.1 1324.5,624.9 C1325.7,624.4 1323.3,624.3 1319.0,624.5 C1313.9,624.9 1312.1,624.7 1313.5,624.1 C1314.6,623.6 1314.9,623.1 1314.2,623.1 C1313.6,623.0 1313.0,622.4 1313.0,621.6 C1313.0,620.8 1312.3,619.9 1311.4,619.6 C1310.2,619.2 1309.9,619.4 1310.4,620.5 C1311.1,622.3 1309.4,622.5 1308.6,620.8 C1308.1,619.8 1307.9,619.8 1307.4,620.7 C1307.0,621.6 1306.3,621.6 1304.5,620.8 C1302.6,619.9 1301.8,620.1 1300.3,621.5 C1296.4,625.5 1298.2,627.9 1309.1,633.8 C1315.1,637.1 1317.6,638.9 1316.6,639.3 C1315.8,639.6 1314.4,639.3 1313.6,638.5 C1312.9,637.7 1311.9,637.4 1311.5,637.8 C1311.2,638.2 1310.3,637.8 1309.7,637.0 C1308.5,635.5 1303.0,634.5 1303.0,635.9 C1303.0,636.3 1303.5,637.1 1304.2,637.8 C1305.1,638.7 1305.1,639.0 1304.0,639.0 C1302.7,639.0 1302.7,639.2 1304.0,640.0 C1304.9,640.5 1305.9,640.5 1306.7,639.8 C1307.6,639.1 1308.0,639.1 1308.0,639.8 C1308.0,640.4 1308.9,641.2 1310.1,641.5 C1311.6,642.0 1311.9,642.5 1311.2,643.2 C1310.4,644.0 1305.9,642.2 1296.3,637.7 C1278.3,629.2 1251.0,617.9 1228.8,609.9 C1214.8,604.9 1211.5,603.4 1213.2,602.7 C1214.6,602.2 1216.8,602.5 1219.2,603.5 C1221.3,604.3 1223.4,604.9 1223.8,604.8 C1224.2,604.7 1225.5,605.1 1226.8,605.8 C1228.2,606.6 1229.0,606.7 1229.0,606.0 C1229.0,604.3 1230.8,604.9 1233.0,607.2 L1235.0,609.4 L1235.0,607.2 C1235.0,605.9 1234.4,605.0 1233.5,605.0 C1232.7,605.0 1232.0,604.5 1232.0,603.9 C1232.0,603.3 1231.1,603.1 1230.0,603.5 C1228.8,603.9 1228.0,603.7 1228.0,603.0 C1228.0,602.4 1227.4,602.0 1226.8,602.3 C1226.1,602.5 1224.3,601.8 1222.8,600.8 C1221.2,599.7 1220.0,599.1 1220.0,599.4 C1220.0,599.7 1218.9,599.0 1217.5,597.8 C1214.2,595.0 1214.7,594.8 1220.0,596.6 C1242.2,604.3 1269.7,611.8 1282.8,613.6 C1294.6,615.2 1316.9,615.8 1320.9,614.5 C1323.0,613.9 1323.9,611.0 1321.9,611.0 C1321.4,611.0 1321.1,610.6 1321.4,610.1 C1321.8,609.6 1319.8,608.1 1317.0,606.9 C1313.9,605.5 1312.4,604.3 1313.1,603.9 C1313.8,603.5 1314.9,603.4 1315.7,603.7 C1316.4,604.0 1317.0,603.8 1317.0,603.3 C1317.0,602.1 1312.7,599.6 1311.0,599.8 C1310.1,600.0 1308.4,598.9 1307.2,597.5 C1306.0,596.1 1305.4,595.0 1306.0,595.0 C1306.9,595.0 1320.3,599.5 1338.3,606.0 C1347.2,609.2 1364.4,613.0 1378.2,614.9 C1387.2,616.1 1395.3,615.5 1428.5,610.7 L1450.5,607.6 L1513.5,607.2 C1571.0,606.9 1584.4,607.1 1570.4,608.3 C1567.6,608.5 1564.8,609.0 1564.2,609.4 C1563.6,609.7 1562.9,609.6 1562.5,609.0 C1562.1,608.4 1561.2,608.3 1560.2,608.8 C1557.5,610.1 1551.9,610.2 1550.4,608.9 C1549.4,608.1 1549.0,608.1 1549.0,608.9 C1549.0,610.4 1546.5,610.3 1544.0,608.8 C1542.3,607.7 1541.8,607.8 1541.0,609.0 C1540.4,610.0 1540.0,610.1 1540.0,609.2 C1540.0,608.3 1537.6,608.0 1531.4,608.0 C1526.0,608.0 1523.1,608.4 1523.5,609.0 C1523.8,609.5 1523.6,610.0 1523.1,610.0 C1522.5,610.0 1522.0,609.5 1522.0,609.0 C1522.0,608.5 1519.9,608.0 1517.2,608.0 C1512.5,608.0 1512.5,608.0 1515.2,609.4 C1516.7,610.2 1519.4,611.1 1521.2,611.3 C1523.7,611.6 1523.4,611.7 1519.7,611.8 C1517.0,611.9 1515.1,612.4 1515.4,612.8 C1515.7,613.3 1506.2,614.0 1494.2,614.3 C1468.6,615.0 1436.2,618.6 1433.6,621.0 C1432.4,622.1 1436.0,624.2 1448.0,629.3 C1458.4,633.7 1465.1,636.0 1492.8,644.6 C1527.5,655.4 1557.3,669.4 1594.5,692.4 C1623.4,710.3 1647.6,730.6 1662.7,749.8 C1669.8,758.9 1670.7,761.4 1664.4,754.7 Z M1098.4,731.2 C1098.0,729.2 1096.9,725.2 1095.9,722.5 C1094.9,719.8 1092.3,711.0 1090.0,703.0 C1081.3,672.7 1063.6,636.7 1045.2,612.0 C1037.0,600.9 1016.2,575.2 1011.0,569.6 C1008.5,566.9 996.8,556.4 985.0,546.2 C973.2,536.0 960.6,524.8 957.1,521.3 C953.6,517.9 950.3,515.3 949.9,515.6 C948.4,516.5 948.9,527.9 950.6,531.2 C951.5,532.9 953.4,542.0 955.0,551.4 C961.1,589.1 966.5,603.9 981.8,626.0 C1000.3,652.6 1039.6,692.5 1070.0,715.5 C1078.2,721.7 1097.8,734.9 1098.8,735.0 C1099.0,735.0 1098.8,733.3 1098.4,731.2 Z M710.3,729.4 C734.7,714.1 781.8,672.3 799.6,650.0 C826.5,616.4 839.1,589.8 844.9,555.0 C846.0,548.1 847.2,540.5 847.6,538.0 C847.9,535.5 848.9,532.3 849.6,530.8 C851.3,527.6 851.5,518.0 849.9,518.0 C848.9,518.0 842.7,523.2 820.5,542.4 C783.3,574.7 754.4,610.3 736.0,646.5 C719.4,679.2 712.9,696.0 707.0,721.3 C704.2,733.7 704.0,733.3 710.3,729.4 Z M1423.0,703.5 C1423.0,702.3 1414.6,695.0 1413.3,695.0 C1412.6,695.0 1411.7,694.3 1411.3,693.4 C1411.0,692.6 1410.2,692.1 1409.4,692.4 C1408.7,692.7 1408.0,692.4 1407.8,691.8 C1407.6,691.3 1406.0,690.2 1404.2,689.4 C1401.5,688.3 1401.0,688.3 1401.0,689.5 C1401.0,690.2 1405.3,693.4 1410.5,696.5 C1415.7,699.6 1420.3,702.6 1420.6,703.1 C1421.2,704.1 1423.0,704.3 1423.0,703.5 Z M1568.0,681.6 C1568.0,681.4 1566.5,680.5 1564.8,679.5 C1559.6,676.9 1557.7,675.7 1553.8,672.7 C1551.7,671.1 1549.7,670.1 1549.1,670.4 C1548.6,670.7 1548.0,670.6 1547.8,670.2 C1547.3,668.8 1534.4,662.0 1532.3,662.0 C1531.2,662.0 1529.5,661.1 1528.5,660.0 C1527.1,658.4 1526.5,658.3 1525.8,659.2 C1525.2,660.2 1525.0,660.2 1525.0,659.3 C1525.0,658.1 1519.0,654.8 1516.5,654.5 C1516.0,654.5 1514.5,653.9 1513.3,653.2 C1512.1,652.5 1510.7,652.1 1510.3,652.2 C1509.9,652.3 1508.5,651.9 1507.4,651.2 C1506.2,650.6 1505.0,650.4 1504.6,650.8 C1504.2,651.1 1503.5,650.9 1503.1,650.2 C1502.7,649.5 1501.2,648.8 1499.9,648.7 C1498.6,648.7 1497.2,648.2 1496.9,647.7 C1496.6,647.3 1495.2,646.8 1493.9,646.7 C1492.6,646.7 1491.2,646.2 1490.9,645.7 C1490.6,645.3 1489.2,644.8 1487.9,644.8 C1486.6,644.7 1485.0,644.4 1484.5,644.1 C1483.1,643.2 1479.1,643.4 1478.8,644.3 C1478.6,644.7 1480.4,646.2 1482.8,647.6 C1485.6,649.3 1487.0,649.7 1487.0,648.8 C1487.1,648.0 1487.6,648.2 1488.5,649.4 C1489.2,650.4 1490.3,650.9 1490.9,650.5 C1491.5,650.2 1492.0,650.3 1492.0,650.8 C1492.0,651.3 1492.6,651.7 1493.2,651.8 C1498.1,652.3 1500.4,653.1 1502.1,654.6 C1503.1,655.5 1504.3,656.1 1504.6,655.8 C1504.9,655.5 1508.1,656.3 1511.8,657.7 C1515.5,659.0 1519.3,660.3 1520.4,660.5 C1521.4,660.8 1523.1,661.7 1524.1,662.6 C1525.1,663.5 1526.3,663.9 1526.8,663.6 C1527.8,663.0 1535.7,666.7 1538.5,669.0 C1539.3,669.7 1541.1,670.0 1542.4,669.8 C1544.2,669.4 1545.2,669.9 1546.1,671.7 C1546.8,672.9 1547.7,674.0 1548.2,674.0 C1548.7,674.0 1549.8,674.7 1550.6,675.5 C1551.4,676.3 1552.7,676.7 1553.5,676.4 C1554.3,676.0 1555.2,676.5 1555.6,677.3 C1555.9,678.2 1556.7,678.7 1557.4,678.4 C1558.2,678.1 1560.3,678.8 1562.1,679.9 C1565.3,681.7 1568.0,682.5 1568.0,681.6 Z M438.5,612.1 C456.9,607.5 465.8,604.8 488.0,597.4 L507.5,590.8 L508.9,593.0 C511.1,596.3 511.1,597.9 508.7,598.6 C501.6,600.7 468.0,614.5 468.0,615.3 C468.0,616.5 492.1,615.6 507.7,614.0 C528.1,611.8 560.5,604.5 582.2,597.1 C591.7,593.9 594.5,593.3 597.4,594.0 C601.2,594.8 601.8,594.3 599.8,592.1 C598.7,591.0 598.9,590.9 600.9,591.5 C602.3,591.9 603.0,591.8 602.7,591.2 C602.0,590.1 615.8,584.7 617.1,585.6 C617.6,585.9 618.0,585.7 618.0,585.2 C618.0,584.6 620.6,583.3 623.8,582.2 C626.9,581.1 633.5,578.7 638.5,577.0 C643.5,575.2 654.0,571.5 662.0,568.8 C677.3,563.6 697.5,556.4 715.0,550.0 C720.8,547.9 731.4,544.1 738.5,541.5 C754.3,535.9 789.8,521.8 803.5,515.7 C809.0,513.3 818.0,509.3 823.5,506.9 C834.8,502.0 834.5,502.2 833.9,501.5 C833.6,501.3 830.6,501.8 827.1,502.6 C821.3,504.1 820.8,504.1 818.9,502.4 C817.9,501.5 816.7,501.0 816.3,501.4 C815.9,501.8 816.2,502.5 817.0,503.0 C819.1,504.3 819.3,504.2 798.0,509.4 C771.0,516.1 766.3,517.0 762.7,516.4 C760.5,516.1 760.1,516.2 761.4,516.8 C762.8,517.4 760.0,518.5 750.9,520.9 C744.1,522.7 736.7,524.8 734.5,525.5 C700.8,536.4 697.9,537.2 696.3,535.8 C695.0,534.8 694.6,534.8 694.3,535.8 C694.0,536.4 693.0,537.0 691.9,537.0 C690.8,537.0 688.8,538.1 687.6,539.4 C684.6,542.3 682.5,543.1 681.2,541.8 C679.7,540.3 676.7,541.7 677.4,543.5 C678.0,545.0 676.9,545.5 675.6,544.3 C674.0,542.7 671.0,543.4 670.9,545.4 C670.9,546.6 670.6,546.9 670.3,546.2 C670.1,545.6 669.3,545.0 668.6,545.0 C668.0,545.0 666.8,544.2 665.9,543.2 C664.5,541.5 665.4,541.1 681.4,535.8 C690.8,532.7 705.0,528.1 713.0,525.6 C721.0,523.2 733.4,519.3 740.5,517.1 C765.2,509.4 777.5,505.9 805.0,498.5 C820.1,494.4 834.2,490.6 836.2,490.0 C838.3,489.4 840.4,488.1 841.0,487.1 C842.0,485.2 840.9,472.3 839.6,470.1 C838.9,469.0 833.3,469.7 831.5,471.0 C830.1,472.1 824.4,473.1 817.4,473.5 C809.3,473.9 799.5,476.1 801.2,477.2 C802.0,477.6 800.3,478.0 797.2,478.0 C793.9,478.0 792.1,478.4 792.5,479.0 C792.9,479.6 791.6,480.0 789.2,480.0 C785.8,480.0 782.0,480.9 777.0,482.7 C776.2,483.1 775.2,483.2 774.8,483.2 C774.3,483.1 774.0,483.5 774.0,484.1 C774.0,484.6 773.6,484.8 773.0,484.5 C772.5,484.2 769.4,484.6 766.1,485.5 C758.8,487.4 756.2,487.3 761.3,485.5 C770.8,482.0 800.2,474.7 818.0,471.5 C828.7,469.6 838.1,467.8 838.8,467.5 C840.1,467.0 840.3,460.0 839.2,451.5 L838.5,446.5 L825.5,445.8 C818.4,445.5 806.4,444.5 799.0,443.6 C763.0,439.5 723.6,438.4 701.0,440.9 C665.5,444.9 635.9,454.9 601.0,474.8 C583.6,484.7 564.0,498.6 564.0,501.0 C564.0,501.4 565.9,502.0 568.2,502.3 C570.6,502.6 577.5,503.5 583.5,504.3 C603.4,507.1 615.2,508.0 639.5,508.7 C656.7,509.1 664.3,509.7 666.2,510.6 C667.7,511.4 672.1,512.0 676.2,512.0 C680.8,512.0 683.0,512.4 682.1,512.9 C681.0,513.6 681.1,513.9 682.6,514.2 C683.6,514.3 681.1,515.4 677.1,516.4 C671.6,517.8 669.6,518.8 668.8,520.5 C667.5,523.5 664.0,524.9 643.0,531.4 C588.5,548.3 537.3,561.0 493.7,568.5 C491.6,568.8 490.2,569.5 490.5,570.1 C490.9,570.6 490.7,571.0 490.1,571.0 C489.6,571.0 488.9,570.6 488.6,570.1 C488.3,569.6 486.0,569.6 483.3,570.1 C471.9,572.3 437.2,577.0 423.0,578.4 C396.7,581.0 369.1,582.0 299.0,583.0 C225.9,584.1 196.8,585.7 172.5,590.0 C169.2,590.6 164.4,591.5 161.7,591.9 C156.8,592.7 154.3,594.0 157.6,594.0 C163.7,594.0 177.6,604.0 179.4,609.8 C180.3,612.6 181.9,613.0 189.2,612.0 C229.8,606.4 291.3,604.2 330.0,606.9 C345.5,608.0 404.6,614.7 406.5,615.5 C409.5,616.9 426.6,615.0 438.5,612.1 Z M241.5,613.0 C240.8,611.9 242.6,611.6 247.5,612.0 C249.2,612.1 258.4,612.4 268.0,612.6 C277.6,612.8 288.8,613.1 292.8,613.2 C296.7,613.4 300.0,613.2 300.0,612.9 C300.0,611.7 297.1,609.8 296.1,610.4 C295.6,610.7 295.0,610.3 294.7,609.5 C294.2,608.4 293.4,608.3 290.9,609.0 C289.0,609.6 287.1,609.6 286.0,609.0 C284.9,608.4 283.9,608.5 283.3,609.1 C282.5,609.9 281.6,609.9 280.2,609.1 C279.2,608.5 277.9,608.4 277.5,608.8 C276.6,609.8 246.0,609.7 246.0,608.7 C246.0,608.2 245.0,608.6 243.8,609.4 C242.2,610.5 241.3,610.7 240.3,609.8 C239.4,609.1 239.0,609.1 239.0,609.8 C239.0,611.7 240.2,614.0 241.2,614.0 C241.7,614.0 241.8,613.5 241.5,613.0 Z M1112.4,596.5 C1111.5,595.1 1110.1,594.0 1109.3,594.0 C1108.5,594.0 1108.2,593.5 1108.5,593.0 C1108.8,592.4 1108.3,591.7 1107.3,591.3 C1106.3,590.9 1104.8,589.9 1104.0,589.0 C1103.2,588.1 1101.9,587.5 1101.2,587.7 C1100.6,588.0 1100.0,587.5 1100.0,586.6 C1100.0,585.7 1099.3,585.0 1098.4,585.0 C1097.6,585.0 1097.1,584.6 1097.4,584.1 C1097.7,583.6 1096.8,582.9 1095.2,582.5 C1092.2,581.8 1088.8,579.1 1089.5,578.0 C1089.7,577.6 1088.6,577.3 1087.0,577.3 C1085.4,577.3 1084.3,577.7 1084.6,578.2 C1084.9,578.6 1085.8,579.0 1086.6,579.0 C1087.4,579.0 1088.0,579.6 1088.0,580.3 C1088.0,581.0 1089.7,582.6 1091.8,583.7 C1093.8,584.9 1096.6,587.0 1097.9,588.4 C1099.3,589.8 1100.7,591.0 1101.2,591.0 C1101.6,591.0 1103.6,592.6 1105.6,594.5 C1107.6,596.4 1109.6,597.8 1110.1,597.4 C1110.6,597.1 1111.0,597.4 1111.0,597.9 C1111.0,598.5 1111.7,599.0 1112.5,599.0 C1113.9,599.0 1113.8,598.7 1112.4,596.5 Z M638.5,556.0 C638.8,555.5 638.4,554.7 637.5,554.4 C635.3,553.5 637.7,550.7 640.1,551.3 C641.1,551.6 642.5,551.1 643.1,550.4 C643.8,549.6 645.0,549.2 645.8,549.5 C646.6,549.8 648.2,549.2 649.3,548.3 C650.7,547.0 651.4,546.9 651.7,547.7 C652.0,548.5 652.8,548.2 654.1,546.9 C656.1,544.9 658.6,544.2 657.5,546.0 C657.2,546.5 657.3,547.0 657.9,547.0 C658.4,547.0 659.1,546.4 659.4,545.8 C659.8,545.1 659.8,545.5 659.6,546.8 C659.3,548.3 659.7,549.0 660.8,549.1 C661.8,549.1 658.2,550.6 653.0,552.4 C640.8,556.6 637.6,557.4 638.5,556.0 Z M564.9,493.7 C603.2,462.0 636.0,446.2 684.0,436.6 C702.3,432.9 714.6,432.2 763.8,431.8 C788.2,431.6 808.7,431.2 809.2,430.9 C810.9,429.9 806.6,428.0 804.1,428.7 C802.4,429.1 802.1,428.9 802.6,427.6 C802.9,426.7 802.7,426.0 802.1,426.0 C801.5,426.0 801.0,425.1 801.0,424.0 C801.0,423.0 800.1,421.6 799.0,421.0 C797.6,420.3 797.0,420.3 797.0,421.0 C797.0,421.5 797.5,422.0 798.0,422.0 C798.5,422.0 799.0,422.7 799.0,423.5 C799.0,425.6 797.7,425.4 796.2,423.0 C795.5,421.9 794.5,421.0 793.9,421.0 C793.1,421.0 793.2,421.5 794.0,422.5 C795.9,424.8 793.4,424.4 791.1,422.1 C789.8,420.8 789.0,420.5 788.7,421.3 C788.4,422.2 787.8,422.2 786.2,421.3 C784.9,420.5 783.9,420.4 783.5,421.0 C783.2,421.6 782.1,422.0 781.2,421.9 C780.1,421.9 780.0,421.6 780.8,421.3 C784.0,420.0 781.7,418.8 777.2,419.4 C774.5,419.7 773.1,419.6 773.8,419.1 C774.8,418.5 773.7,417.9 770.5,417.1 C767.1,416.2 766.0,415.5 766.4,414.5 C766.7,413.6 766.4,413.0 765.5,413.0 C764.7,413.0 764.3,413.6 764.6,414.4 C765.5,416.8 763.4,417.1 753.8,415.5 C748.7,414.7 742.6,414.0 740.2,414.0 C737.5,414.0 736.1,413.6 736.5,413.0 C736.9,412.3 736.3,412.1 734.6,412.6 C733.2,412.9 722.9,412.5 711.8,411.6 C674.6,408.5 663.7,407.9 629.8,407.1 C611.2,406.6 583.5,405.6 568.3,405.0 C490.8,401.5 410.7,410.7 362.0,428.7 C353.3,431.9 338.0,439.5 338.0,440.6 C338.0,441.5 346.6,444.8 367.5,451.7 C393.7,460.5 396.2,461.3 433.5,471.9 C463.0,480.2 478.1,483.9 516.5,492.0 C541.9,497.4 553.6,499.8 555.4,499.9 C556.4,499.9 560.6,497.2 564.9,493.7 Z M902.4,461.8 L899.5,458.5 L900.0,426.3 C900.3,408.6 900.8,393.9 901.1,393.6 C901.4,393.2 901.9,407.9 902.3,426.0 C902.8,454.5 903.1,459.4 904.5,461.6 C907.0,465.4 905.7,465.5 902.4,461.8 Z M337.7,435.3 C356.4,421.0 417.4,404.4 469.5,399.5 C505.5,396.2 557.7,395.5 604.0,397.9 C629.1,399.2 704.7,399.3 705.5,398.1 C705.8,397.6 705.6,396.9 705.1,396.6 C704.6,396.3 704.4,395.1 704.7,394.0 C705.0,392.9 704.5,391.3 703.6,390.5 C701.8,388.6 702.3,387.0 704.8,387.0 C706.3,387.0 706.3,387.2 705.0,388.1 C703.8,388.9 704.1,389.0 706.0,388.6 C707.4,388.3 710.8,388.8 713.5,389.6 C720.8,391.8 749.4,399.6 761.3,402.5 C781.1,407.5 807.8,416.0 824.4,422.7 C830.4,425.1 835.4,426.9 835.6,426.8 C835.7,426.6 835.6,424.4 835.3,421.8 C834.8,417.8 834.4,417.0 832.7,417.0 C830.0,417.0 831.4,415.7 834.3,415.5 C836.4,415.3 836.5,414.9 837.0,404.4 C837.3,398.4 837.5,393.4 837.4,393.2 C836.9,392.2 812.2,385.1 774.5,375.1 C742.4,366.5 716.0,359.3 710.5,357.5 C708.3,356.8 701.8,354.8 696.0,353.0 C690.2,351.3 684.4,349.5 683.0,349.0 C681.6,348.5 677.1,347.2 673.0,346.0 C668.9,344.8 664.4,343.4 663.0,343.0 C661.6,342.5 655.8,340.7 650.0,339.0 C644.2,337.2 631.4,333.2 621.5,330.0 C611.6,326.8 597.0,322.1 589.0,319.5 C575.7,315.2 562.1,310.5 541.5,302.8 C537.1,301.2 530.0,298.5 525.8,297.0 C521.6,295.4 511.5,291.4 503.4,288.0 C492.9,283.7 488.5,282.2 487.9,283.1 C487.5,283.9 487.0,283.6 486.6,282.2 C486.2,281.0 484.9,279.8 483.8,279.4 C480.8,278.5 450.4,264.6 433.0,256.3 C413.3,246.9 352.5,215.0 336.5,205.7 C329.4,201.6 317.2,194.5 309.5,189.9 C301.8,185.4 291.7,179.4 287.0,176.7 C249.0,154.3 190.4,122.3 189.4,123.3 C189.2,123.5 191.2,127.6 193.9,132.4 C196.6,137.2 200.2,144.4 201.9,148.4 L205.1,155.6 L213.3,159.7 C217.8,161.9 223.7,165.4 226.3,167.4 C228.9,169.4 238.9,174.9 248.4,179.7 C261.9,186.4 265.5,188.6 264.6,189.6 C263.7,190.6 262.9,190.3 260.8,188.2 C259.2,186.8 258.0,185.9 258.0,186.3 C258.0,187.6 260.5,191.4 262.5,193.2 C266.0,196.2 263.5,195.2 253.3,189.3 C244.4,184.2 235.2,179.6 205.5,165.5 C187.3,156.9 129.3,139.5 102.0,134.5 C82.0,130.8 53.2,127.4 35.3,126.6 L24.1,126.1 L20.1,130.5 C15.6,135.4 12.0,142.1 9.9,149.5 C8.1,155.9 8.1,172.1 9.9,178.5 C14.3,194.0 32.8,222.5 53.8,245.7 C107.4,305.2 184.6,366.4 248.6,400.2 C254.8,403.4 270.1,410.7 282.6,416.4 C295.2,422.1 311.4,429.5 318.5,432.8 C325.6,436.2 331.8,439.0 332.2,439.0 C332.6,439.0 335.1,437.4 337.7,435.3 Z M976.8,422.0 C983.8,419.9 997.4,416.0 1007.0,413.5 C1016.6,410.9 1024.7,408.7 1025.1,408.4 C1027.6,406.9 1095.6,387.1 1123.0,379.9 C1129.3,378.3 1135.3,376.6 1136.4,376.3 C1137.7,375.9 1138.0,376.2 1137.5,377.0 C1136.9,378.0 1137.6,378.1 1140.5,377.6 C1143.0,377.1 1144.0,377.2 1143.5,377.9 C1142.4,379.8 1145.0,379.1 1146.7,377.0 C1148.5,375.0 1151.7,374.1 1150.5,376.0 C1149.7,377.2 1151.0,377.3 1152.9,376.1 C1154.0,375.4 1153.6,375.0 1151.1,374.3 C1148.1,373.5 1148.8,373.2 1159.4,370.6 C1165.7,369.1 1171.3,368.1 1171.9,368.4 C1172.4,368.7 1173.0,368.6 1173.2,368.2 C1173.3,367.7 1189.9,363.2 1210.0,358.2 C1269.3,343.4 1278.9,339.9 1351.0,307.0 C1357.5,304.0 1359.7,303.4 1360.8,304.2 C1361.5,304.9 1362.9,305.4 1363.9,305.5 C1366.0,305.7 1368.4,303.4 1367.0,302.5 C1366.4,302.2 1366.0,301.0 1366.0,299.9 C1366.0,298.9 1365.5,298.0 1365.0,298.0 C1364.5,298.0 1364.0,298.5 1364.0,299.1 C1364.0,299.9 1363.6,299.9 1362.6,299.0 C1359.8,296.8 1362.2,295.2 1371.8,293.0 C1377.1,291.8 1383.5,289.6 1386.0,288.2 C1395.5,282.8 1419.6,265.3 1441.0,248.2 C1466.8,227.7 1554.6,173.4 1558.2,175.7 C1560.5,177.1 1566.0,177.0 1566.0,175.5 C1566.0,174.7 1566.7,174.4 1568.0,174.7 C1569.2,175.0 1570.0,174.7 1570.0,174.0 C1570.0,173.3 1570.7,173.0 1571.5,173.4 C1572.4,173.7 1573.3,173.3 1573.7,172.4 C1574.0,171.6 1574.9,171.1 1575.7,171.4 C1576.4,171.7 1577.3,171.3 1577.6,170.5 C1577.9,169.8 1578.7,169.3 1579.3,169.6 C1580.0,169.8 1581.4,168.4 1582.4,166.5 C1583.5,164.4 1584.9,163.1 1585.6,163.4 C1587.4,164.1 1588.1,162.8 1587.0,161.0 C1586.3,159.9 1587.5,158.8 1591.8,156.5 C1597.5,153.5 1597.5,153.4 1605.2,138.6 C1609.5,130.4 1612.8,123.5 1612.6,123.3 C1611.7,122.3 1534.6,163.4 1512.5,176.5 C1438.8,220.4 1384.5,248.9 1327.5,273.5 C1321.5,276.1 1316.1,278.9 1315.7,279.7 C1315.2,280.4 1314.4,280.8 1313.9,280.4 C1313.4,280.1 1304.3,283.4 1293.7,287.8 C1257.8,302.6 1202.9,322.4 1161.0,335.8 C1098.5,355.7 1085.2,359.7 1049.0,368.9 C1033.9,372.8 1018.1,376.9 1014.0,378.0 C1009.9,379.2 1001.5,381.4 995.4,383.0 C970.8,389.3 960.9,392.4 961.4,393.5 C962.0,395.1 963.5,417.0 963.2,419.4 C963.1,420.5 963.5,421.7 964.2,422.2 C965.2,422.8 965.2,423.0 964.2,423.0 C963.6,423.0 963.0,423.7 963.0,424.5 C963.0,426.5 962.3,426.6 976.8,422.0 Z M966.7,416.7 C966.3,415.6 967.9,414.6 973.8,412.6 C978.0,411.1 982.9,409.4 984.5,408.9 C992.4,406.0 1017.7,399.0 1019.0,399.3 C1019.8,399.4 1015.7,400.9 1009.8,402.5 C1004.0,404.2 999.3,405.7 999.5,405.9 C999.7,406.1 999.3,406.9 998.5,407.6 C996.8,409.3 994.0,409.4 994.0,407.8 C994.0,407.0 993.7,406.9 993.2,407.5 C992.0,409.2 988.0,411.1 987.0,410.5 C986.4,410.1 986.0,410.6 986.0,411.4 C986.0,412.5 985.1,413.0 983.0,413.0 C981.4,413.0 980.0,413.3 980.0,413.8 C980.0,414.2 978.8,414.6 977.3,414.7 C975.8,414.7 974.4,415.3 974.2,415.9 C974.0,416.5 972.9,417.0 971.9,417.0 C970.8,417.0 970.2,416.6 970.5,416.0 C971.5,414.3 969.8,414.9 968.5,416.6 C967.5,418.1 967.3,418.1 966.7,416.7 Z M1330.7,404.4 C1333.5,403.6 1333.4,400.0 1330.5,399.9 C1329.4,399.9 1324.2,399.6 1319.0,399.2 C1313.8,398.8 1305.5,398.6 1300.5,398.7 C1295.5,398.8 1290.4,398.9 1289.1,399.0 C1287.8,399.0 1286.1,399.5 1285.4,400.1 C1284.4,400.9 1284.0,400.9 1284.0,400.2 C1284.0,399.5 1281.6,399.1 1277.5,399.1 C1274.0,399.2 1270.6,398.9 1270.0,398.5 C1269.5,398.2 1269.0,398.6 1269.0,399.4 C1269.0,400.7 1268.7,400.7 1266.2,399.4 C1263.8,398.2 1263.5,398.2 1263.2,399.5 C1262.8,401.2 1261.8,401.4 1260.4,400.1 C1259.9,399.5 1257.7,399.5 1255.3,399.9 C1252.9,400.4 1249.8,400.6 1248.3,400.3 C1245.6,400.0 1245.6,400.0 1247.8,401.0 C1249.1,401.5 1252.5,401.9 1255.3,401.9 C1258.2,401.8 1266.9,402.1 1274.8,402.5 C1285.5,403.1 1289.0,402.9 1289.0,402.1 C1289.0,401.4 1289.5,401.2 1290.2,401.7 C1290.9,402.1 1293.8,402.6 1296.5,402.7 C1299.2,402.8 1304.4,403.3 1308.0,403.8 C1315.8,404.9 1327.7,405.2 1330.7,404.4 Z M588.8,403.1 C589.5,403.0 589.9,402.6 589.5,402.0 C589.2,401.5 588.3,401.3 587.5,401.7 C586.7,402.0 586.0,401.7 586.0,401.0 C586.0,400.2 584.8,399.9 582.5,400.2 C578.7,400.6 577.6,399.4 581.2,398.7 C583.2,398.3 583.2,398.3 580.8,398.1 C579.3,398.1 577.8,398.4 577.5,399.0 C577.2,399.6 575.9,400.0 574.7,399.9 C572.6,399.9 572.6,399.8 574.5,399.0 C576.4,398.2 576.4,398.1 574.3,398.1 C573.1,398.0 571.8,398.5 571.4,399.1 C571.1,399.7 569.8,399.9 568.6,399.5 C565.8,398.6 527.1,398.1 526.5,398.9 C526.3,399.3 524.4,399.7 522.4,399.8 C517.4,400.2 516.7,401.0 521.3,401.0 C523.4,401.0 525.0,401.4 525.0,402.0 C525.0,402.6 530.7,403.0 540.1,403.0 C549.8,403.0 554.9,402.6 554.5,402.0 C554.2,401.4 554.3,401.0 554.9,401.0 C555.4,401.0 556.2,401.5 556.6,402.1 C557.1,402.9 557.6,402.7 558.2,401.6 C558.7,400.7 559.6,400.3 560.3,400.7 C562.0,401.8 564.4,401.7 565.2,400.5 C565.7,399.9 566.0,399.9 566.0,400.7 C566.0,401.4 567.2,401.7 569.0,401.5 C571.1,401.2 572.3,401.6 572.7,402.5 C573.1,403.7 574.7,403.9 580.4,403.6 C584.3,403.3 588.1,403.1 588.8,403.1 Z M1047.7,391.6 C1046.2,390.4 1047.0,389.9 1055.2,386.8 C1071.2,380.7 1074.7,379.8 1076.7,380.9 C1078.1,381.7 1078.2,382.0 1077.0,382.0 C1075.9,382.1 1075.9,382.3 1077.3,382.8 C1078.5,383.3 1074.6,385.0 1064.8,388.3 C1048.6,393.6 1050.1,393.4 1047.7,391.6 Z M574.5,363.9 C565.7,361.8 546.6,357.1 532.0,353.5 C487.6,342.7 447.0,335.3 390.0,327.6 C351.9,322.4 339.9,321.7 300.4,322.3 C263.4,322.8 255.4,323.6 225.5,329.4 C210.3,332.4 210.0,332.5 212.6,330.5 C214.4,329.1 214.4,329.1 212.0,329.0 L209.5,328.9 L212.0,327.9 C214.5,326.9 225.7,324.3 239.0,321.6 C264.2,316.5 303.0,313.3 323.5,314.4 C365.2,316.9 401.9,320.1 427.7,323.6 C452.1,326.8 460.5,326.7 454.2,323.1 C453.1,322.4 452.9,322.1 453.9,322.0 C456.0,322.0 453.6,319.5 450.0,318.0 C447.2,316.9 447.2,316.7 448.6,314.5 C450.3,311.8 449.6,311.2 442.0,308.5 C438.8,307.4 438.1,307.4 437.6,308.5 C437.3,309.3 437.6,310.1 438.3,310.3 C439.2,310.6 439.2,311.1 438.4,311.9 C437.6,312.8 436.2,312.4 432.7,310.4 C428.5,308.1 428.2,307.7 429.5,306.3 C430.3,305.5 430.8,304.5 430.5,304.0 C430.2,303.6 430.7,303.0 431.5,302.6 C432.3,302.3 433.0,301.5 433.0,300.9 C433.0,300.0 432.6,300.0 431.6,300.9 C430.7,301.6 429.9,301.7 429.6,301.1 C429.3,300.6 429.5,300.0 430.1,299.8 C430.6,299.6 429.1,298.6 426.6,297.6 C424.1,296.5 422.0,295.2 422.0,294.5 C422.0,293.7 420.9,293.4 419.1,293.6 C417.2,293.8 416.0,293.4 415.6,292.4 C415.3,291.6 414.6,291.2 414.0,291.5 C413.5,291.8 413.0,291.6 413.0,290.9 C413.0,290.2 412.7,289.9 412.4,290.3 C412.1,290.6 410.9,290.0 409.7,288.9 C408.6,287.9 406.8,287.0 405.8,287.0 C404.8,287.0 404.0,286.5 404.0,286.0 C404.0,284.0 401.6,282.4 399.3,282.8 C397.7,283.1 397.0,282.8 397.0,281.6 C397.0,280.5 396.1,280.0 394.4,280.0 C392.2,280.0 392.0,280.3 392.9,281.4 C393.7,282.3 393.7,283.0 393.1,283.4 C391.6,284.4 392.9,286.8 395.2,287.6 C396.3,287.9 396.9,288.4 396.7,288.7 C396.4,288.9 392.2,287.6 387.3,285.6 C376.7,281.4 356.5,274.8 345.5,272.1 C327.3,267.5 219.5,243.0 207.5,240.6 C162.5,231.9 120.5,228.9 94.0,232.5 C75.8,234.9 72.8,235.1 81.7,233.2 C90.3,231.3 93.0,230.1 88.9,229.9 L86.5,229.8 L89.0,229.0 C92.3,228.0 98.0,227.8 98.0,228.8 C98.0,229.2 108.9,229.5 122.3,229.5 C135.6,229.5 147.7,229.9 149.2,230.3 C151.6,230.9 151.9,230.8 151.3,229.3 C150.7,227.7 150.9,227.7 152.8,229.4 C154.7,231.1 155.0,231.1 155.0,229.7 C155.0,227.8 152.8,227.1 144.5,226.7 C139.8,226.4 140.4,226.3 147.2,226.2 C167.9,225.7 204.0,231.7 282.6,248.5 C343.7,261.6 353.3,263.1 353.8,259.5 C354.0,258.2 352.8,256.2 350.6,254.1 C345.9,249.5 346.8,247.2 352.1,250.6 L356.0,253.0 L357.0,250.5 C357.6,249.0 358.5,248.2 359.0,248.5 C359.6,248.9 359.8,249.5 359.5,250.0 C358.9,251.0 361.7,253.3 362.8,252.7 C363.2,252.4 368.3,255.9 374.0,260.6 C386.1,270.4 408.3,285.6 416.8,289.9 C423.5,293.3 431.6,295.5 441.0,296.7 C446.9,297.4 447.2,297.5 444.0,298.1 L440.5,298.7 L443.9,298.9 C448.1,299.0 447.4,300.1 443.1,300.2 C440.9,300.3 440.1,300.7 440.4,301.6 C440.7,302.3 440.4,303.1 439.7,303.4 C439.0,303.6 439.3,303.9 440.4,303.9 C441.4,304.0 446.6,306.1 451.9,308.6 C457.2,311.1 470.1,316.7 480.5,321.0 C490.9,325.3 505.1,331.3 512.0,334.3 C518.9,337.4 526.8,340.8 529.5,341.9 C532.2,343.0 534.0,343.9 533.5,344.0 C533.0,344.1 531.7,344.3 530.8,344.5 C529.9,344.7 527.5,344.5 525.6,344.0 C523.1,343.4 521.6,343.6 520.3,344.7 C518.7,346.0 518.8,346.0 522.0,345.6 C523.9,345.3 524.9,345.3 524.2,345.6 C521.6,346.8 523.2,347.9 530.5,350.1 C534.6,351.4 538.0,352.8 538.0,353.3 C538.0,353.7 538.4,353.9 538.9,353.6 C539.4,353.3 541.2,353.7 542.9,354.6 C544.7,355.5 547.0,356.0 548.0,355.7 C549.1,355.4 550.0,355.6 550.2,356.0 C550.6,357.0 576.3,363.3 580.2,363.4 C581.8,363.5 583.0,363.8 583.0,364.2 C583.0,364.7 583.8,365.0 584.8,365.1 C585.7,365.1 588.3,365.7 590.5,366.5 C598.4,369.1 590.2,367.8 574.5,363.9 Z M1134.5,362.0 C1134.2,361.4 1134.4,360.9 1134.9,360.9 C1135.5,360.8 1136.5,360.6 1137.0,360.5 C1137.5,360.4 1138.3,360.2 1138.8,360.1 C1139.2,360.0 1138.8,359.6 1138.0,359.0 C1135.7,357.6 1139.3,356.6 1141.9,357.9 C1143.1,358.6 1144.1,358.6 1144.5,358.0 C1144.8,357.5 1145.7,357.3 1146.4,357.6 C1147.1,357.9 1148.5,357.3 1149.5,356.4 C1150.8,355.1 1150.9,354.5 1150.0,354.2 C1147.9,353.5 1161.2,349.4 1165.0,349.6 C1171.4,349.9 1172.6,350.1 1171.0,350.7 C1170.2,351.0 1162.0,353.9 1152.9,357.1 C1134.5,363.6 1135.4,363.4 1134.5,362.0 Z M388.2,324.8 C388.9,322.9 385.6,320.4 381.6,319.7 C379.4,319.4 378.2,319.5 378.5,320.1 C378.9,320.6 378.6,321.0 378.1,321.0 C377.5,321.0 377.0,320.6 377.0,320.0 C377.0,319.4 376.3,319.0 375.4,319.0 C374.6,319.0 374.2,319.4 374.5,320.0 C374.8,320.6 374.6,321.0 374.1,321.0 C373.5,321.0 373.0,320.6 373.0,320.0 C373.0,319.4 371.8,319.0 370.2,319.1 C368.6,319.1 368.1,319.4 369.0,319.7 C371.9,320.9 373.2,322.8 371.2,323.2 C370.3,323.4 372.2,323.9 375.4,324.3 C378.9,324.8 381.7,324.7 382.3,324.1 C383.4,323.0 386.2,323.8 385.4,325.1 C385.1,325.6 385.5,326.0 386.4,326.0 C387.2,326.0 388.0,325.5 388.2,324.8 Z M268.0,321.2 C268.0,320.7 272.2,320.3 277.2,320.4 C298.4,320.6 315.0,320.0 315.0,318.9 C315.0,318.4 314.5,318.2 313.9,318.6 C313.3,318.9 312.4,318.6 311.9,317.9 C311.1,316.7 310.9,316.7 310.1,317.9 C309.6,318.7 309.0,318.8 308.6,318.2 C308.3,317.6 307.2,317.3 306.2,317.4 C305.3,317.6 304.1,317.2 303.7,316.6 C303.1,315.8 302.7,315.9 302.3,316.8 C302.1,317.4 301.2,318.0 300.4,318.0 C299.5,318.0 299.2,317.5 299.6,316.9 C300.3,315.6 277.4,316.6 270.5,318.1 C268.3,318.6 264.8,319.0 262.8,319.0 C259.1,319.0 257.7,320.3 260.2,321.3 C262.4,322.2 268.0,322.1 268.0,321.2 Z M498.5,313.6 C493.6,312.3 490.4,311.2 491.5,311.1 C493.2,311.0 493.3,310.8 492.0,310.0 C490.7,309.1 490.7,309.0 492.0,308.9 C493.0,308.9 492.9,308.6 491.5,307.9 C489.9,307.2 490.2,307.1 492.8,307.5 C496.9,308.1 496.9,307.5 492.1,296.8 C486.3,283.7 488.8,284.2 495.3,297.4 C498.5,303.7 501.4,309.1 501.9,309.4 C502.4,309.8 506.8,311.1 511.7,312.5 C518.2,314.3 519.6,314.9 517.0,314.9 C515.1,314.9 512.1,315.2 510.5,315.4 C508.9,315.7 503.4,314.8 498.5,313.6 Z M346.5,266.4 C345.4,265.6 343.7,265.1 342.8,265.3 C341.9,265.6 340.9,265.3 340.7,264.7 C340.6,264.2 338.7,263.5 336.6,263.3 C334.4,263.1 331.9,262.5 331.0,262.0 C330.1,261.5 328.4,261.3 327.3,261.6 C326.0,262.0 324.5,261.5 323.3,260.3 C322.0,259.0 320.7,258.6 319.4,259.0 C317.3,259.8 314.0,259.2 314.0,258.0 C314.0,257.2 308.2,256.9 305.7,257.6 C303.3,258.3 304.4,259.8 307.2,259.6 C308.5,259.5 309.8,259.8 310.1,260.3 C310.4,260.7 312.7,261.2 315.1,261.3 C317.5,261.4 319.8,261.9 320.1,262.3 C320.5,262.8 322.7,263.3 325.1,263.3 C327.5,263.4 330.1,264.1 330.9,264.8 C331.6,265.5 333.1,265.8 334.1,265.5 C335.1,265.1 336.0,265.3 336.0,265.9 C336.0,266.5 336.6,266.7 337.4,266.4 C338.2,266.1 339.1,266.3 339.4,266.9 C339.8,267.5 340.6,267.7 341.3,267.4 C342.1,267.1 343.7,267.3 345.1,267.8 C348.2,269.0 349.0,268.2 346.5,266.4 Z M872.6,200.1 C877.5,198.5 884.1,196.7 887.2,196.1 C895.9,194.5 915.1,193.8 918.5,194.9 C921.4,195.8 921.4,195.8 917.0,196.1 L912.5,196.3 L917.0,196.9 C919.6,197.2 921.9,197.1 922.3,196.5 C922.9,195.9 923.3,195.9 923.7,196.8 C923.9,197.4 924.5,197.8 925.0,197.5 C926.5,196.6 931.2,198.9 930.4,200.2 C929.9,201.0 930.2,201.1 931.4,200.7 C932.4,200.3 934.1,200.7 935.3,201.5 C936.5,202.3 937.8,203.0 938.2,203.0 C939.3,203.0 941.8,197.8 943.0,193.3 L943.9,189.5 L943.7,193.3 C943.5,195.6 943.8,196.9 944.4,196.7 C945.0,196.5 945.6,192.7 945.8,188.1 C946.1,179.0 944.5,172.0 940.3,163.7 C939.0,161.0 938.1,158.5 938.4,158.2 C938.7,157.9 940.5,161.0 942.4,165.1 C946.4,173.7 948.5,184.1 947.7,191.1 C947.2,195.4 947.3,196.0 948.9,196.0 C949.9,196.0 952.7,197.4 955.2,199.0 L959.7,202.0 L965.1,200.3 C972.1,198.1 984.2,186.3 988.4,177.8 C994.1,166.1 994.0,150.9 987.9,138.2 C982.7,127.4 967.1,115.3 955.6,113.1 C953.0,112.6 949.6,111.3 948.1,110.3 C945.2,108.1 941.4,108.7 934.0,112.4 C925.1,117.0 921.8,122.4 921.6,133.1 C921.5,142.3 920.0,142.7 920.0,133.6 C920.0,126.1 922.1,119.6 925.7,115.8 C928.5,112.9 937.5,108.3 942.2,107.3 C945.6,106.6 945.4,104.8 941.2,98.7 C931.7,84.6 908.9,76.7 891.1,81.5 C878.5,84.8 867.1,93.2 861.7,102.9 C859.1,107.6 859.0,108.1 860.7,108.6 C866.0,110.3 868.9,111.6 872.2,113.8 C875.6,116.0 876.2,116.1 878.2,114.8 C883.2,111.5 894.4,108.6 901.5,108.7 C907.9,108.8 917.1,111.2 915.8,112.5 C915.5,112.8 913.6,112.3 911.4,111.4 C906.3,109.3 895.8,109.9 887.0,112.9 C881.0,115.0 876.0,118.0 878.7,118.0 C880.6,118.0 883.0,125.8 883.0,132.1 C883.0,137.8 882.7,138.6 878.9,143.2 C876.6,145.9 874.5,147.8 874.2,147.5 C873.9,147.2 874.6,146.0 875.8,144.7 C884.3,135.7 880.0,119.4 867.5,113.1 C862.0,110.3 858.3,110.2 847.0,112.5 C836.1,114.6 830.2,117.9 823.1,125.7 C804.1,146.4 803.8,173.6 822.3,192.4 C827.7,197.9 829.3,198.9 835.1,200.4 C841.2,202.1 842.1,202.1 848.0,200.6 C855.7,198.6 856.0,198.2 856.0,190.4 C856.0,182.7 857.6,174.1 860.0,168.7 C862.3,163.6 862.6,165.1 860.5,171.0 C859.7,173.3 859.0,176.0 859.1,176.9 C859.1,177.8 860.2,175.6 861.5,172.1 C862.8,168.6 864.4,165.3 865.1,164.6 C866.0,163.8 866.1,163.9 865.5,165.5 C861.7,175.0 860.7,179.5 860.1,189.8 C859.8,195.9 859.6,201.5 859.8,202.0 C860.4,203.6 863.2,203.2 872.6,200.1 Z M226.6,170.4 C226.3,168.5 223.1,165.8 222.0,166.5 C221.5,166.8 220.9,166.3 220.6,165.4 C220.2,164.5 219.7,164.0 219.4,164.3 C219.0,164.6 218.1,164.2 217.3,163.4 C216.2,162.4 214.8,162.1 212.8,162.5 C210.4,163.1 209.8,162.8 209.3,161.2 C209.0,159.9 208.0,159.3 206.4,159.4 C203.1,159.5 203.9,161.1 208.6,163.7 C210.7,165.0 212.4,166.5 212.2,167.1 C212.0,167.8 212.7,168.0 214.0,167.7 C215.3,167.4 216.3,167.7 216.7,168.6 C217.0,169.4 217.6,169.8 218.0,169.5 C218.4,169.2 220.1,169.7 221.6,170.5 C225.4,172.4 226.9,172.4 226.6,170.4 Z"/></svg>