<svg xmlns="http://www.w3.org/2000/svg" viewBox="0 0 1000 1000" width="1000" height="1000"><path fill="#2c1b36" fill-rule="evenodd" d="M543,340 L563,305 L570,291 L575,276 L577,261 L576,247 L573,238 L566,225 L540,190 L534,180 L532,170 L533,159 L539,136 L566,73 L566,69 L563,64 L559,61 L554,60 L549,61 L545,65 L524,111 L514,138 L510,154 L509,164 L509,172 L510,180 L516,195 L525,209 L547,238 L552,248 L555,256 L554,265 L551,276 L543,294 L524,328 L523,333 L523,337 L526,341 L529,344 L534,345 L538,344Z M429,340 L449,305 L456,291 L461,276 L464,261 L462,247 L459,238 L452,225 L426,190 L420,180 L418,170 L419,159 L425,136 L452,73 L452,68 L449,64 L445,61 L441,60 L435,61 L431,65 L410,111 L401,138 L397,154 L395,164 L395,172 L397,180 L402,195 L411,209 L433,238 L439,248 L441,256 L440,265 L437,276 L429,294 L410,328 L409,333 L410,337 L412,341 L416,344 L420,345 L424,344Z M315,341 L335,305 L342,291 L347,276 L350,261 L348,247 L345,238 L338,225 L312,190 L306,180 L304,170 L305,159 L311,136 L338,73 L338,69 L336,65 L332,61 L328,60 L321,61 L317,65 L300,103 L287,138 L283,154 L281,164 L281,172 L283,180 L288,195 L297,209 L319,238 L325,248 L327,256 L326,265 L323,276 L315,294 L296,328 L295,333 L295,336 L297,339 L300,342 L304,344 L308,344 L312,343Z"/><path fill="#f1e6cf" fill-rule="evenodd" stroke="#2c1b36" stroke-width="26" stroke-linejoin="round" paint-order="stroke" d="M830,636 L829,620 L826,603 L822,587 L816,571 L809,556 L801,542 L791,529 L781,517 L769,506 L756,496 L742,488 L728,481 L713,476 L698,472 L682,470 L667,470 L651,471 L636,474 L621,478 L606,484 L592,492 L579,501 L567,511 L555,523 L545,536 L536,549 L528,564 L522,579 L517,595 L514,611 L512,628 L511,645 L513,661 L515,678 L519,694 L525,710 L532,725 L540,739 L550,752 L561,764 L573,775 L585,785 L599,793 L613,800 L628,805 L644,809 L659,811 L675,811 L690,810 L706,807 L721,803 L735,797 L749,789 L763,780 L775,770 L786,758 L796,746 L805,732 L813,717 L819,702 L824,686 L828,670 L830,653Z M753,643 L751,661 L746,678 L738,694 L727,708 L715,719 L700,728 L683,733 L667,734 L651,731 L636,725 L622,716 L610,703 L600,689 L594,672 L590,654 L589,636 L591,618 L597,601 L605,585 L616,571 L629,561 L643,553 L659,548 L675,547 L691,550 L706,556 L720,566 L731,578 L741,593 L747,607 L752,625Z"/><path fill="#f1e6cf" fill-rule="evenodd" stroke="#2c1b36" stroke-width="26" stroke-linejoin="round" paint-order="stroke" d="M648,853 L648,485 L645,469 L639,455 L630,442 L619,431 L606,422 L591,416 L576,413 L250,413 L234,414 L226,416 L212,422 L199,431 L188,442 L179,455 L176,462 L171,477 L170,493 L170,846 L171,861 L176,876 L183,890 L188,896 L199,907 L212,916 L219,919 L234,924 L250,925 L568,925 L584,924 L599,919 L606,916 L619,907 L630,896 L639,883 L645,869Z"/><path fill="#8b2f3c" fill-rule="evenodd" d="M170,720 L648,720 L648,606 L170,606Z"/><path fill="#f1e6cf" fill-rule="evenodd" stroke="#2c1b36" stroke-width="26" stroke-linejoin="round" paint-order="stroke" d="M648,419 L647,414 L643,409 L638,405 L630,400 L608,392 L578,385 L542,379 L500,374 L456,372 L409,371 L362,372 L317,374 L276,379 L240,385 L210,392 L188,400 L180,405 L174,409 L171,414 L170,419 L171,423 L174,428 L180,432 L188,437 L210,445 L240,452 L276,458 L317,463 L362,465 L409,466 L456,465 L500,463 L542,458 L578,452 L608,445 L630,437 L638,432 L643,428 L647,423Z"/><path fill="#2c1b36" fill-rule="evenodd" d="M608,421 L607,418 L604,415 L593,410 L575,404 L550,400 L520,396 L485,394 L409,391 L333,394 L298,396 L268,400 L243,404 L225,410 L214,415 L211,418 L210,421 L211,424 L214,427 L225,432 L243,437 L268,442 L298,445 L333,448 L409,450 L485,448 L520,445 L550,442 L575,437 L593,432 L604,427 L607,424Z"/><path fill="#2c1b36" fill-rule="evenodd" d="M345,662 L344,663 L343,664 L343,666 L345,667 L368,667 L370,665 L369,663 L368,662Z"/><path fill="#e8c97a" fill-rule="evenodd" stroke="#2c1b36" stroke-width="26" stroke-linejoin="round" paint-order="stroke" d="M468,669 L468,660 L466,655 L463,652 L459,650 L453,649 L442,654 L446,646 L447,643 L443,636 L438,633 L433,633 L428,635 L423,651 L423,639 L421,634 L416,628 L409,627 L405,628 L402,632 L399,649 L396,634 L392,632 L387,630 L382,632 L377,637 L377,641 L378,652 L370,646 L367,646 L364,647 L362,652 L364,668 L362,678 L365,682 L370,683 L378,677 L377,688 L377,692 L382,697 L387,699 L392,698 L396,695 L399,680 L402,698 L407,701 L413,702 L418,699 L422,694 L423,678 L428,694 L433,696 L438,696 L443,693 L447,686 L446,683 L442,675 L453,680 L459,679 L463,677 L466,674Z"/><path fill="#2c1b36" fill-rule="evenodd" d="M439,663 L424,663 L431,643 L430,642 L428,651 L425,655 L422,663 L402,663 L408,638 L407,637 L407,638 L400,663 L377,663 L379,656 L377,657 L375,663 L369,663 L369,666 L375,666 L377,672 L379,673 L377,666 L400,666 L407,691 L407,692 L408,691 L402,666 L422,666 L425,674 L428,678 L430,687 L431,686 L424,666 L439,666 L441,670 L443,670 L441,666 L455,666 L456,665 L455,663 L441,663 L443,659 L441,659Z M381,686 L382,686 L383,685 L382,681Z M383,644 L383,643 L381,643 L382,648Z"/></svg>