<svg xmlns="http://www.w3.org/2000/svg" viewBox="0 0 1800 1456" width="12.000in" height="9.707in"><path fill="#2c1b36" fill-rule="evenodd" d="M578.0,1453.9 C565.4,1452.8 548.0,1447.9 548.0,1445.4 C548.0,1442.4 559.5,1436.0 580.7,1427.4 C609.3,1415.8 655.5,1392.1 653.4,1390.1 C653.2,1389.8 649.2,1389.7 644.6,1389.9 C627.5,1390.5 601.5,1382.5 598.1,1375.6 C596.8,1372.7 595.5,1372.6 589.2,1374.5 C583.6,1376.3 589.6,1369.4 596.5,1366.1 C601.9,1363.6 605.0,1363.5 612.7,1365.6 C615.9,1366.5 620.5,1367.6 623.0,1368.2 C628.0,1369.3 652.5,1368.5 658.0,1367.0 C659.9,1366.5 664.6,1365.3 668.5,1364.4 C686.2,1360.1 696.9,1352.2 701.4,1340.1 C707.4,1323.7 709.2,1297.3 706.4,1265.1 C705.5,1254.8 707.1,1250.7 715.6,1242.4 L722.9,1235.2 L720.2,1234.1 C711.0,1230.5 669.4,1217.3 656.0,1213.8 C628.2,1206.6 612.6,1203.8 598.5,1203.7 C568.1,1203.5 530.2,1210.5 507.0,1220.7 C477.3,1233.8 450.5,1243.2 439.0,1244.7 C437.1,1244.9 434.9,1245.3 434.1,1245.6 C428.4,1247.5 403.7,1246.9 389.5,1244.4 C367.0,1240.6 332.9,1224.9 318.4,1211.7 C308.5,1202.6 309.2,1201.6 326.5,1200.5 C334.9,1199.9 341.8,1200.5 369.5,1204.0 C403.6,1208.2 436.8,1211.3 443.0,1210.8 C446.3,1210.5 446.0,1210.2 435.5,1204.8 C408.9,1191.2 389.2,1171.7 389.8,1159.4 C390.0,1154.4 388.4,1153.0 382.6,1153.0 C375.8,1153.0 377.4,1149.9 385.2,1148.0 C388.9,1147.0 391.1,1147.1 395.2,1148.0 C403.3,1149.9 406.5,1152.3 409.9,1159.2 C412.5,1164.4 414.2,1166.1 420.7,1170.7 C442.7,1186.1 468.6,1194.5 503.6,1197.6 C520.0,1199.0 543.5,1191.3 572.5,1175.1 C582.4,1169.6 603.2,1156.2 604.3,1154.6 C605.1,1153.3 600.1,1148.4 577.5,1129.0 C568.3,1121.1 556.6,1110.7 532.0,1088.6 C526.1,1083.3 497.8,1059.6 493.5,1056.5 C491.3,1054.8 486.9,1051.4 483.6,1048.7 C480.4,1046.1 473.9,1041.3 469.1,1038.1 C461.3,1032.9 457.3,1030.7 447.5,1026.5 C445.9,1025.8 442.5,1024.3 440.0,1023.2 C437.5,1022.1 427.4,1018.0 417.5,1014.1 C407.6,1010.2 398.6,1006.6 397.5,1006.1 C391.7,1003.5 386.8,1001.5 369.0,994.2 C358.3,989.8 343.6,983.9 336.5,981.0 C329.4,978.2 322.1,975.2 320.5,974.5 C318.9,973.8 312.6,971.3 306.5,969.0 C294.8,964.6 293.5,964.1 288.0,961.7 C286.1,960.8 282.0,959.2 279.0,958.1 C276.0,956.9 272.6,955.6 271.5,955.1 C265.3,952.4 260.9,950.5 245.0,944.0 C235.4,940.1 225.7,936.0 223.5,935.0 C221.3,934.0 215.4,931.6 210.5,929.5 C205.6,927.5 199.7,925.0 197.4,924.0 C195.2,922.9 191.1,921.2 188.3,920.1 C185.5,919.0 181.1,917.1 178.4,915.9 C170.6,912.5 168.7,911.7 145.8,902.6 C133.9,897.9 121.7,892.9 118.8,891.6 C89.1,878.2 74.7,872.1 49.5,862.0 C28.8,853.8 16.6,843.3 7.3,826.0 C-4.6,803.7 1.1,784.7 21.5,778.3 C28.9,776.0 47.8,777.0 62.7,780.6 C66.2,781.5 66.5,781.7 54.1,772.5 C22.9,749.4 7.7,726.8 12.4,710.7 C16.3,697.4 23.3,692.6 39.0,692.6 C52.3,692.6 59.1,694.5 76.2,703.1 C79.4,704.7 82.0,705.7 82.0,705.4 C82.0,705.0 78.2,700.4 73.7,695.1 C55.9,674.7 48.1,658.4 49.3,644.3 C50.5,628.9 64.2,621.7 83.0,626.4 C94.0,629.2 119.4,642.8 127.9,650.4 C130.8,652.9 131.1,653.9 122.4,636.0 C109.7,610.2 108.5,597.2 117.6,585.3 C122.0,579.6 127.2,577.5 137.5,577.5 C147.3,577.5 152.4,578.8 161.0,583.3 C176.1,591.4 185.9,600.3 210.2,628.3 C220.8,640.5 235.5,657.2 243.0,665.5 C250.5,673.8 264.0,689.0 273.0,699.5 C282.0,710.0 291.4,720.8 293.9,723.5 C296.4,726.3 301.9,732.3 306.0,737.0 C310.1,741.7 315.5,747.7 318.1,750.5 C320.6,753.2 326.8,760.5 332.0,766.5 C354.7,793.0 362.2,800.7 416.0,853.5 C448.4,885.3 462.5,896.6 490.0,913.0 C495.8,916.5 504.5,921.9 509.3,925.1 C514.1,928.4 518.3,931.0 518.6,931.0 C518.9,931.0 519.6,931.5 520.3,932.0 C526.3,937.1 541.5,945.7 552.3,950.3 C564.7,955.5 589.6,965.6 593.0,966.7 C593.8,967.0 592.5,965.5 590.0,963.4 C570.3,946.7 560.6,929.3 564.4,917.1 C565.9,912.1 570.0,910.0 578.2,910.0 C582.1,910.0 585.0,909.6 585.0,909.0 C585.0,908.5 584.5,908.0 584.0,908.0 C582.8,908.0 563.1,898.4 551.5,892.1 C518.5,874.2 497.9,852.2 501.9,839.0 C503.3,834.4 510.2,827.3 516.0,824.6 C519.8,822.9 522.4,822.5 532.4,822.6 L544.3,822.6 L540.4,820.8 C494.5,799.5 479.0,789.9 459.4,770.8 C449.0,760.6 448.1,759.1 450.3,754.4 C453.5,747.7 463.6,745.4 480.8,747.3 C484.7,747.8 488.0,747.8 488.0,747.3 C487.9,746.9 484.3,744.0 479.8,741.0 C440.7,714.7 410.7,675.0 419.6,661.4 C425.2,652.9 439.0,653.6 460.7,663.6 C463.7,664.9 466.3,666.0 466.5,666.0 C466.7,666.0 471.2,668.1 476.5,670.6 C481.8,673.2 486.3,675.0 486.7,674.7 C487.0,674.3 485.1,672.2 482.4,669.8 C479.7,667.5 469.4,657.5 459.5,647.6 C434.5,622.5 424.4,610.7 412.5,592.5 C400.0,573.4 395.9,564.2 395.8,555.0 C395.8,548.9 395.9,548.4 399.4,545.3 C402.6,542.3 403.6,542.0 408.9,542.0 C419.0,542.0 429.8,546.9 464.0,567.2 C470.3,570.9 476.1,574.0 476.9,574.0 C477.7,574.0 472.5,568.0 465.3,560.8 C437.5,532.7 416.9,503.9 401.3,471.5 C383.4,434.2 391.8,416.7 418.2,436.5 C427.4,443.4 445.7,461.0 456.8,473.5 C460.7,477.9 464.1,481.2 464.4,480.9 C464.7,480.6 463.4,477.9 461.6,474.8 C445.8,448.6 424.6,400.0 417.9,374.5 C417.5,372.9 416.6,369.7 416.0,367.5 C409.7,343.7 409.4,316.0 415.5,311.0 C416.4,310.3 419.0,309.7 421.4,309.7 C433.1,309.9 438.2,316.4 475.8,378.5 C480.5,386.2 489.1,399.9 495.0,409.0 C500.8,418.1 506.7,427.3 508.0,429.5 C510.2,433.2 519.9,448.3 525.8,457.3 C531.0,465.2 529.4,460.3 520.7,442.0 C518.3,436.8 515.2,430.2 514.0,427.5 C512.8,424.8 510.5,419.7 508.9,416.2 C507.3,412.7 506.0,409.7 506.0,409.5 C506.0,409.2 504.8,406.5 503.4,403.4 C497.0,389.4 484.3,354.1 480.0,338.5 C476.4,325.6 471.0,302.4 469.0,291.5 C459.5,239.5 459.1,208.5 467.5,189.5 C472.3,178.6 479.0,177.3 487.7,185.6 C492.6,190.3 502.2,209.6 506.8,224.0 C509.5,232.7 516.2,250.2 519.5,257.5 C520.2,259.1 521.9,263.2 523.3,266.5 C524.7,269.8 527.2,275.4 528.8,279.0 C530.4,282.6 532.8,287.8 534.0,290.5 C542.8,310.0 566.3,358.0 567.1,358.0 C567.5,358.0 566.7,354.3 565.3,349.7 C563.9,345.2 562.5,340.1 562.0,338.5 C561.6,336.9 560.5,333.2 559.6,330.5 C557.7,324.3 552.2,303.1 551.0,297.0 C550.5,294.5 549.1,288.2 548.0,283.0 C540.8,250.2 537.7,230.4 534.0,195.8 C531.6,173.0 533.3,130.6 537.4,111.4 C540.4,97.1 547.7,80.4 552.9,75.5 C557.1,71.6 563.5,71.3 567.4,74.9 C570.4,77.7 576.8,90.7 579.9,100.0 C583.2,109.9 583.7,111.7 586.0,122.0 C590.7,142.6 598.3,172.7 604.4,195.0 C605.2,198.0 606.8,204.1 608.0,208.5 C610.6,218.4 612.4,224.6 616.6,238.0 C631.9,287.0 633.9,293.0 634.8,293.0 C635.4,293.0 634.5,284.3 633.0,275.0 C626.2,231.9 623.1,188.6 624.9,159.0 C627.3,119.7 631.1,92.1 638.4,62.5 C644.9,36.2 652.8,18.4 662.4,8.2 C669.1,1.1 672.1,-0.5 676.4,1.0 C685.6,4.0 691.5,19.6 694.6,49.5 C694.8,52.2 695.5,58.5 696.0,63.5 C696.5,68.5 697.4,78.8 698.0,86.5 C700.5,119.8 705.1,171.3 708.1,198.2 C708.6,203.1 709.4,210.9 709.9,215.8 C712.4,239.4 715.2,260.9 718.0,279.7 C718.6,283.2 719.4,288.8 720.0,292.2 C721.5,302.4 724.0,318.1 725.0,324.0 C725.5,327.0 726.4,332.6 727.0,336.5 C727.6,340.4 728.6,345.5 729.1,348.0 C729.6,350.5 732.3,364.0 735.0,378.0 C739.5,401.1 743.8,421.6 746.1,431.0 C746.5,432.9 747.4,436.5 747.9,439.0 C748.5,441.5 751.0,451.1 753.4,460.5 C755.8,469.9 759.3,482.9 761.0,489.5 C765.5,507.0 771.4,527.1 777.5,546.5 C780.5,555.9 784.1,567.5 785.5,572.5 C787.0,577.5 788.6,582.3 789.1,583.2 C789.6,584.2 790.0,585.5 790.0,586.1 C790.0,587.2 794.6,600.6 799.0,612.5 C804.1,626.3 810.2,642.7 811.0,644.5 C811.4,645.6 815.5,656.2 820.1,668.0 C828.4,689.4 837.9,710.2 839.9,711.5 C840.7,711.9 841.0,709.4 841.0,703.6 C841.0,684.4 849.5,666.3 860.0,663.1 C866.0,661.3 874.2,663.9 879.2,669.1 C883.7,673.8 884.2,672.3 881.1,664.4 C874.8,648.7 870.9,621.3 872.9,607.1 C875.9,586.7 881.7,574.6 892.3,566.9 C902.9,559.2 912.3,561.5 920.0,573.5 C924.3,580.2 925.5,580.4 924.6,574.2 C922.0,555.6 922.9,527.4 926.6,513.0 C932.0,491.9 948.1,468.4 958.6,466.4 C968.8,464.5 980.4,472.5 984.1,483.8 C986.5,491.4 987.2,489.9 988.6,474.5 C993.3,420.5 1013.6,377.0 1035.7,373.4 C1047.7,371.5 1058.5,381.9 1062.0,398.5 C1063.6,406.1 1064.6,406.1 1066.0,398.2 C1071.7,366.2 1078.3,345.2 1091.0,319.5 C1098.1,305.1 1103.9,297.6 1112.7,291.1 C1119.7,285.9 1129.2,282.3 1133.2,283.3 C1145.0,286.4 1151.6,304.0 1153.3,337.0 L1153.5,341.5 L1156.2,333.5 C1172.8,284.0 1182.1,261.8 1193.8,243.5 C1207.8,221.6 1224.5,206.0 1233.8,206.0 C1241.8,206.0 1247.8,211.4 1251.1,221.5 C1254.2,231.0 1254.2,253.0 1251.1,273.5 C1248.7,289.8 1248.7,289.0 1250.0,289.0 C1250.5,289.0 1251.0,288.2 1251.0,287.2 C1251.0,286.2 1251.4,285.0 1251.8,284.5 C1252.3,283.9 1254.4,279.2 1256.5,274.0 C1266.7,248.6 1274.4,233.8 1289.4,210.6 C1308.1,181.6 1334.8,157.0 1347.5,157.0 C1353.7,157.0 1359.0,164.3 1361.1,175.7 C1362.5,183.1 1361.6,211.3 1359.6,223.5 C1356.6,241.8 1349.6,271.9 1342.0,299.5 C1336.9,317.8 1335.9,321.2 1331.5,336.0 C1329.0,344.5 1325.8,355.3 1324.4,360.0 C1319.4,376.9 1314.7,391.8 1309.8,406.0 C1307.1,414.0 1295.9,447.3 1285.0,480.0 C1274.1,512.7 1261.2,550.8 1256.5,564.5 C1251.8,578.2 1244.5,599.6 1240.4,612.0 C1236.3,624.4 1232.5,635.4 1232.0,636.5 C1231.5,637.6 1230.4,640.5 1229.6,643.0 C1223.5,662.1 1211.3,687.9 1202.6,700.5 C1190.4,718.0 1178.0,737.0 1172.8,746.0 C1169.8,751.2 1163.6,761.6 1159.0,769.0 C1147.9,787.0 1142.7,795.7 1134.5,810.0 C1132.4,813.6 1130.0,817.9 1129.0,819.5 C1120.0,834.9 1108.0,859.1 1108.0,861.9 C1108.0,863.4 1108.6,863.3 1127.2,860.4 C1189.0,850.8 1225.9,853.9 1269.6,872.6 C1297.4,884.5 1310.7,894.5 1337.4,924.0 C1344.6,932.0 1355.4,943.2 1361.4,949.0 C1367.4,954.8 1375.9,963.8 1380.3,969.0 C1384.7,974.2 1390.1,980.4 1392.3,982.6 L1396.2,986.8 L1408.3,979.3 C1427.3,967.7 1429.5,965.7 1433.8,956.3 C1435.9,951.9 1438.4,947.1 1439.3,945.7 C1441.6,942.2 1441.5,942.0 1438.2,942.0 C1421.7,942.0 1408.7,925.1 1412.1,908.0 C1412.7,904.7 1413.0,901.7 1412.8,901.4 C1411.5,900.2 1401.0,896.9 1396.5,896.4 C1392.2,895.9 1390.6,896.3 1385.6,898.9 C1382.3,900.5 1379.3,901.7 1378.9,901.5 C1378.6,901.2 1377.8,899.1 1377.2,896.7 C1374.4,885.8 1363.7,877.8 1349.4,876.0 C1345.1,875.4 1341.4,874.8 1341.1,874.5 C1340.9,874.2 1341.4,871.8 1342.3,869.2 C1346.3,858.0 1341.3,846.0 1331.0,842.1 C1329.4,841.5 1326.7,840.5 1325.1,839.9 C1322.4,838.9 1322.3,838.5 1321.7,831.2 C1320.2,811.9 1312.1,799.5 1294.8,789.8 C1287.7,785.8 1290.0,785.0 1300.0,788.0 C1322.6,794.9 1341.2,791.8 1354.3,778.8 C1360.5,772.6 1361.4,772.4 1362.5,776.7 C1364.7,785.5 1370.7,793.8 1377.3,797.1 C1382.9,800.0 1394.1,800.7 1400.0,798.6 C1402.5,797.7 1405.0,796.8 1405.5,796.7 C1406.1,796.6 1406.5,799.4 1406.6,803.5 C1406.7,814.6 1407.9,819.9 1412.1,828.7 C1417.5,840.1 1422.3,843.1 1432.5,841.6 C1437.9,840.7 1438.1,839.5 1433.5,835.1 C1430.1,831.9 1429.1,830.0 1430.9,830.0 C1432.7,830.0 1442.9,819.8 1447.8,813.2 C1457.7,799.9 1461.5,788.8 1461.5,773.5 C1461.4,761.0 1459.6,754.1 1452.9,740.6 C1450.8,736.2 1449.0,732.6 1449.0,732.4 C1449.0,732.2 1451.0,732.8 1453.5,733.7 C1456.7,734.7 1460.8,735.1 1467.3,734.8 C1475.9,734.5 1477.3,734.2 1485.2,730.3 C1505.4,720.2 1519.0,697.9 1519.0,674.6 C1519.0,667.1 1519.5,666.8 1523.6,671.1 C1533.3,681.4 1554.6,686.4 1573.4,682.9 C1588.3,680.0 1599.7,675.8 1609.0,669.6 C1616.8,664.4 1632.8,650.0 1638.1,643.4 C1645.5,634.1 1646.2,634.5 1642.6,645.3 C1640.0,653.2 1636.8,666.7 1635.1,677.1 C1632.3,694.4 1634.7,712.6 1641.8,726.3 C1645.9,734.2 1651.7,739.8 1660.1,743.8 C1663.3,745.3 1665.9,746.8 1665.9,747.2 C1666.0,747.6 1663.0,749.7 1659.2,751.9 C1652.1,756.1 1643.4,764.4 1640.5,769.9 C1633.7,783.2 1634.8,805.8 1642.9,819.1 L1645.7,823.7 L1637.9,824.8 C1628.7,826.1 1620.8,829.6 1615.4,834.9 C1612.0,838.2 1605.0,851.1 1605.0,854.1 C1605.0,855.9 1602.6,862.4 1601.7,863.1 C1601.3,863.4 1598.4,862.4 1595.2,860.8 C1587.7,857.2 1581.3,857.1 1574.3,860.5 C1567.2,864.1 1560.3,870.4 1557.5,876.0 L1555.1,880.7 L1547.9,877.1 C1540.9,873.6 1540.2,873.5 1529.6,873.5 C1519.7,873.5 1518.0,873.8 1514.2,875.9 C1509.4,878.7 1509.0,880.1 1512.4,881.9 C1516.1,883.9 1517.1,887.4 1516.9,897.3 C1516.7,905.7 1516.9,906.4 1519.1,908.1 C1526.3,913.6 1538.5,914.3 1547.6,909.7 C1557.1,904.9 1566.4,892.1 1567.7,881.9 C1568.6,875.7 1570.4,875.1 1573.6,880.2 C1575.0,882.6 1577.9,886.2 1579.9,888.3 C1595.2,904.5 1617.0,895.3 1624.0,869.8 C1625.6,863.7 1627.1,863.8 1630.1,870.2 C1636.0,882.9 1651.9,894.0 1664.1,894.0 C1677.7,894.0 1694.6,886.6 1707.2,875.2 C1711.8,871.0 1712.4,871.4 1712.1,878.4 C1710.7,907.9 1732.1,934.7 1768.4,949.2 C1774.9,951.8 1789.6,956.6 1793.7,957.4 C1795.4,957.8 1797.3,958.7 1797.9,959.4 C1798.8,960.5 1797.3,960.8 1790.3,961.3 C1774.5,962.2 1764.0,967.0 1752.5,978.5 C1739.4,991.6 1735.4,1002.3 1736.2,1021.6 C1736.5,1027.8 1736.5,1033.2 1736.2,1033.4 C1736.0,1033.7 1734.3,1032.9 1732.6,1031.7 C1725.1,1026.2 1714.5,1023.0 1704.4,1023.0 C1685.5,1023.0 1667.9,1033.2 1658.1,1049.8 C1655.7,1053.8 1653.4,1057.3 1652.9,1057.5 C1652.5,1057.8 1650.1,1055.4 1647.6,1052.2 C1635.0,1035.8 1620.7,1028.3 1607.4,1031.0 C1599.6,1032.6 1598.6,1033.8 1598.5,1040.8 C1598.4,1048.0 1595.1,1053.5 1588.3,1057.8 C1577.8,1064.2 1573.9,1069.8 1571.3,1081.7 C1569.9,1088.4 1570.7,1098.8 1573.1,1104.7 C1579.0,1119.2 1585.5,1127.0 1597.0,1132.9 C1601.4,1135.2 1605.0,1137.3 1605.0,1137.6 C1605.0,1137.8 1602.6,1139.6 1599.7,1141.4 C1588.5,1148.6 1583.1,1158.1 1582.2,1172.1 C1581.8,1180.4 1581.9,1180.9 1585.1,1187.1 C1589.3,1194.9 1593.6,1199.4 1601.7,1204.4 C1605.2,1206.5 1607.8,1208.6 1607.5,1209.0 C1607.3,1209.4 1604.9,1210.5 1602.3,1211.5 C1592.7,1215.1 1586.4,1218.9 1581.8,1223.7 C1575.8,1230.2 1574.2,1233.4 1573.4,1241.1 C1572.1,1254.3 1576.2,1265.9 1585.9,1276.2 L1592.1,1282.9 L1587.3,1283.5 C1580.7,1284.4 1569.6,1288.4 1563.0,1292.3 C1553.9,1297.6 1541.8,1310.4 1537.7,1319.1 C1530.4,1334.6 1526.1,1352.5 1526.0,1367.8 C1525.9,1372.2 1525.8,1372.4 1524.5,1370.6 C1523.7,1369.5 1523.0,1367.4 1523.0,1366.0 C1523.0,1364.5 1522.6,1362.0 1522.1,1360.4 C1521.6,1358.8 1520.7,1355.5 1520.0,1353.0 C1515.6,1337.0 1512.1,1329.1 1504.7,1318.2 C1489.5,1296.0 1461.0,1283.8 1438.2,1289.8 C1434.2,1290.8 1430.8,1291.5 1430.6,1291.3 C1430.4,1291.1 1431.4,1287.9 1432.7,1284.2 C1435.8,1275.8 1435.6,1262.5 1432.2,1254.8 C1426.9,1242.8 1414.8,1235.0 1401.2,1235.0 C1395.2,1235.0 1395.2,1234.9 1398.4,1230.7 C1404.7,1222.2 1408.0,1212.7 1408.0,1202.5 C1408.0,1183.9 1399.7,1170.7 1384.1,1164.6 C1380.2,1163.1 1377.0,1161.5 1377.0,1161.1 C1377.0,1160.7 1379.1,1159.2 1381.6,1157.9 C1387.9,1154.7 1395.9,1146.7 1400.0,1139.5 C1403.5,1133.6 1403.5,1133.4 1403.5,1121.3 C1403.5,1114.6 1403.2,1108.8 1402.8,1108.4 C1402.3,1108.0 1400.1,1107.6 1397.8,1107.6 C1394.0,1107.5 1393.5,1107.7 1393.9,1109.5 C1395.3,1116.7 1395.0,1127.6 1393.4,1131.8 C1388.5,1144.7 1375.7,1150.2 1363.8,1144.6 C1358.5,1142.1 1357.6,1143.1 1358.3,1150.9 C1359.0,1159.5 1363.1,1169.8 1367.5,1174.0 L1370.9,1177.3 L1367.1,1180.0 C1356.8,1187.5 1351.3,1200.2 1352.2,1214.9 C1352.5,1220.5 1353.3,1223.8 1354.8,1226.4 C1357.7,1231.3 1357.6,1232.0 1354.0,1232.0 C1341.6,1232.0 1333.7,1237.7 1330.1,1249.4 C1329.0,1253.1 1328.0,1257.1 1328.0,1258.2 C1328.0,1259.3 1327.7,1260.0 1327.2,1259.8 C1304.6,1248.4 1284.7,1255.2 1268.3,1279.7 C1261.1,1290.5 1259.7,1291.1 1262.6,1282.0 C1265.8,1272.2 1267.0,1252.0 1264.8,1244.6 C1262.3,1236.0 1256.0,1226.5 1249.9,1222.1 C1245.8,1219.1 1245.8,1218.0 1249.9,1218.0 C1260.0,1217.9 1271.0,1204.9 1271.0,1193.0 C1271.0,1186.8 1269.7,1183.3 1265.8,1179.3 C1264.0,1177.5 1262.8,1175.9 1263.1,1175.8 C1263.3,1175.6 1266.1,1174.2 1269.3,1172.6 C1287.8,1163.4 1295.8,1133.3 1285.9,1110.2 L1284.0,1105.9 L1287.8,1106.7 C1300.8,1109.5 1313.5,1106.1 1321.7,1097.8 C1326.8,1092.5 1335.7,1075.5 1339.3,1063.9 C1342.6,1053.3 1342.7,1053.6 1338.8,1054.4 C1334.0,1055.5 1324.9,1056.8 1312.8,1058.4 C1304.4,1059.5 1301.5,1060.2 1299.2,1062.1 C1297.6,1063.4 1291.6,1068.4 1285.9,1073.1 C1280.2,1077.8 1270.1,1085.8 1263.5,1090.8 C1254.8,1097.4 1244.5,1107.1 1225.7,1126.2 C1211.5,1140.7 1196.5,1155.5 1192.2,1159.2 C1188.0,1162.9 1183.4,1167.0 1182.0,1168.2 C1159.4,1188.5 1131.6,1209.3 1114.0,1219.2 C1111.5,1220.6 1106.6,1223.4 1103.0,1225.5 C1078.3,1239.7 1040.9,1255.5 1014.0,1263.0 C1011.5,1263.7 1008.4,1264.6 1007.0,1265.0 C999.4,1267.5 979.8,1271.6 961.0,1274.6 C930.7,1279.4 887.9,1278.8 854.5,1273.1 C851.2,1272.6 845.6,1271.6 842.0,1271.0 C834.2,1269.7 821.5,1266.6 810.1,1263.4 L801.8,1261.0 L795.1,1263.1 C786.7,1265.8 782.5,1266.9 777.5,1267.6 C771.7,1268.5 748.2,1276.7 743.4,1279.5 C732.8,1285.7 729.7,1293.1 722.0,1331.9 C717.5,1354.5 715.0,1364.4 711.4,1373.8 C698.2,1408.9 656.4,1444.4 620.6,1451.1 C617.8,1451.6 614.4,1452.2 613.1,1452.5 C600.4,1454.9 593.4,1455.2 578.0,1453.9 Z M614.1,1449.0 C644.5,1443.6 671.1,1427.1 692.2,1400.7 C701.4,1389.1 702.3,1386.4 694.2,1394.1 C676.2,1411.6 641.5,1432.2 613.2,1442.4 C602.9,1446.1 604.2,1444.0 614.8,1440.0 C639.9,1430.5 679.1,1406.8 694.0,1392.1 C698.4,1387.7 702.0,1384.7 702.0,1385.3 C702.1,1387.2 704.7,1382.1 707.9,1374.0 C711.8,1364.0 714.3,1354.5 719.0,1330.9 C725.6,1297.9 728.1,1290.2 734.5,1283.1 C739.7,1277.4 743.5,1275.3 757.3,1270.5 L769.2,1266.3 L761.4,1265.1 C750.4,1263.3 721.4,1255.8 712.4,1252.3 C710.4,1251.6 708.7,1258.8 709.4,1265.1 C712.5,1293.2 710.4,1324.9 704.3,1341.2 C699.6,1354.0 687.6,1363.0 669.5,1367.4 C665.6,1368.3 660.5,1369.6 658.1,1370.2 C651.6,1371.9 622.4,1371.8 617.4,1370.1 C613.7,1368.9 612.6,1369.0 607.4,1370.7 C597.5,1374.0 598.9,1375.8 616.1,1382.0 C626.7,1385.8 637.2,1387.4 646.4,1386.7 C650.8,1386.4 654.2,1386.6 654.8,1387.2 C655.4,1387.8 656.8,1387.6 659.0,1386.5 C663.0,1384.4 664.1,1385.2 660.3,1387.5 C658.7,1388.4 657.0,1390.1 656.4,1391.3 C654.1,1396.3 614.1,1417.3 581.7,1430.4 C566.7,1436.5 554.5,1442.4 553.5,1444.0 C552.2,1446.1 567.1,1449.9 581.0,1451.0 C592.6,1452.0 600.2,1451.5 614.1,1449.0 Z M593.0,1433.2 C593.0,1432.8 595.5,1431.9 598.6,1431.2 C620.2,1426.1 667.0,1400.4 686.8,1382.7 C689.2,1380.6 691.4,1379.1 691.8,1379.5 C693.3,1380.9 672.3,1397.3 658.8,1405.3 C633.2,1420.4 616.5,1428.3 602.5,1431.9 C593.7,1434.2 593.0,1434.3 593.0,1433.2 Z M644.5,1376.0 C644.8,1375.5 646.4,1375.0 647.9,1375.0 C649.5,1375.0 656.7,1374.1 664.0,1373.0 C671.3,1371.9 679.1,1371.0 681.4,1371.0 C685.2,1371.1 685.4,1371.2 683.5,1372.6 C682.4,1373.4 681.0,1373.8 680.3,1373.6 C679.6,1373.3 672.8,1373.9 665.2,1375.0 C649.8,1377.2 643.6,1377.5 644.5,1376.0 Z M1525.0,1348.3 C1525.0,1343.1 1529.7,1328.6 1534.7,1318.1 C1538.9,1309.3 1552.8,1294.7 1562.0,1289.3 C1568.3,1285.6 1580.4,1281.0 1583.8,1281.0 C1586.0,1281.0 1585.8,1280.6 1581.4,1275.8 C1573.0,1266.4 1569.3,1254.8 1570.4,1241.1 C1570.8,1235.9 1571.7,1232.4 1573.4,1229.6 C1577.3,1222.9 1586.7,1214.7 1594.2,1211.5 C1598.0,1209.9 1601.0,1208.3 1601.0,1208.0 C1601.0,1207.7 1599.0,1206.2 1596.5,1204.7 C1590.8,1201.1 1586.2,1195.6 1582.0,1187.8 C1578.8,1181.9 1578.8,1181.5 1579.2,1172.1 C1579.6,1164.7 1580.3,1161.2 1582.3,1156.7 C1585.0,1150.8 1593.8,1140.5 1597.1,1139.5 C1600.0,1138.5 1599.4,1137.7 1593.5,1134.6 C1590.4,1133.0 1585.5,1129.0 1582.2,1125.6 C1570.9,1113.3 1565.4,1096.6 1568.1,1082.0 C1570.3,1069.7 1576.0,1061.5 1586.6,1055.2 C1592.8,1051.6 1595.3,1047.0 1595.3,1040.0 C1595.2,1032.6 1597.9,1029.8 1606.6,1028.0 C1619.4,1025.3 1629.8,1029.6 1643.1,1043.0 L1652.7,1052.7 L1656.0,1047.1 C1670.7,1022.4 1702.7,1013.0 1728.8,1025.8 L1733.0,1027.9 L1733.0,1017.7 C1733.0,999.4 1737.1,990.0 1750.5,976.5 C1759.6,967.4 1765.1,963.8 1775.3,960.5 C1777.9,959.7 1781.0,959.0 1782.2,959.0 C1785.3,959.0 1783.3,957.6 1778.0,956.0 C1773.2,954.5 1762.9,950.4 1756.4,947.4 C1748.5,943.8 1734.8,933.6 1727.8,926.1 C1716.1,913.6 1709.0,896.9 1709.0,881.9 L1709.0,878.1 L1701.7,883.3 C1683.1,896.7 1664.2,900.5 1650.2,893.8 C1643.3,890.6 1629.9,878.3 1628.5,874.1 C1627.8,871.7 1626.0,871.3 1626.0,873.5 C1626.0,876.3 1621.0,885.1 1616.7,889.7 C1610.2,896.7 1605.1,899.3 1597.2,899.3 C1588.6,899.4 1584.2,897.1 1576.7,889.1 L1571.1,883.0 L1569.9,886.8 C1566.6,897.1 1557.4,908.2 1548.5,912.8 C1538.5,917.8 1524.8,916.7 1516.9,910.1 L1513.5,907.2 L1513.8,897.6 L1514.2,887.9 L1510.5,884.6 C1505.6,880.0 1506.0,877.5 1512.4,873.5 C1517.2,870.6 1517.7,870.5 1529.4,870.5 C1540.6,870.5 1542.0,870.7 1547.5,873.3 C1553.2,876.0 1553.6,876.0 1554.5,874.3 C1556.7,870.2 1567.9,860.2 1572.9,857.7 C1579.8,854.3 1587.7,854.1 1594.6,857.1 C1599.2,859.0 1599.5,859.0 1600.7,857.4 C1601.4,856.4 1602.0,854.8 1602.0,853.7 C1602.0,852.7 1603.5,848.6 1605.4,844.5 C1611.0,832.4 1621.8,824.1 1634.2,822.2 C1637.1,821.7 1639.4,821.0 1639.2,820.4 C1639.1,819.9 1637.8,816.1 1636.3,812.0 C1631.5,798.4 1631.9,780.4 1637.3,769.5 C1639.9,764.4 1650.3,753.5 1655.8,750.3 L1660.0,747.8 L1654.3,744.1 C1647.0,739.4 1641.9,733.7 1638.2,726.3 C1635.5,720.8 1634.6,718.0 1632.1,706.8 C1630.7,700.7 1630.7,684.6 1632.1,676.1 C1633.2,669.0 1636.9,652.5 1637.8,650.1 C1638.1,649.3 1633.4,653.0 1627.4,658.4 C1607.7,676.1 1597.2,681.6 1574.4,685.9 C1567.3,687.2 1551.5,687.4 1547.4,686.1 C1545.8,685.6 1542.5,684.7 1540.0,683.9 C1534.0,682.2 1528.9,679.7 1525.1,676.5 L1522.0,673.8 L1522.0,678.0 C1522.0,699.2 1506.4,723.2 1486.3,733.2 C1477.9,737.4 1477.3,737.5 1466.5,737.8 L1455.4,738.2 L1457.6,742.8 C1462.9,754.0 1464.5,760.9 1464.5,773.5 C1464.5,780.9 1464.0,787.2 1463.1,790.0 C1459.2,803.0 1451.0,816.0 1440.3,826.2 L1434.4,831.7 L1438.0,835.8 C1440.0,838.0 1443.6,840.7 1446.0,841.9 C1452.9,845.1 1461.1,852.1 1465.4,858.3 C1467.6,861.4 1469.1,864.2 1468.8,864.5 C1468.6,864.8 1466.7,862.6 1464.7,859.7 C1460.4,853.5 1452.3,846.6 1446.2,843.8 C1442.3,842.1 1441.6,842.0 1439.6,843.3 C1438.1,844.3 1434.9,844.7 1429.3,844.6 C1421.8,844.5 1420.9,844.3 1417.3,841.4 C1409.4,835.1 1401.7,813.9 1403.6,804.0 C1404.3,801.0 1404.2,800.9 1401.4,801.7 C1395.4,803.4 1380.8,802.5 1376.5,800.3 C1369.5,796.7 1360.0,784.3 1360.0,779.0 C1360.0,778.3 1357.6,780.0 1354.7,782.6 C1342.9,793.4 1327.6,796.9 1308.5,793.3 C1305.5,792.8 1305.6,792.8 1310.1,797.1 C1318.7,805.2 1323.5,816.1 1324.7,829.8 C1325.3,836.6 1325.5,837.1 1327.9,837.7 C1339.7,840.5 1347.9,851.7 1346.7,863.2 C1346.4,866.1 1346.0,869.4 1345.8,870.5 C1345.5,872.2 1346.3,872.5 1351.7,873.2 C1361.0,874.2 1368.2,878.1 1374.1,885.2 C1376.8,888.5 1379.4,892.5 1379.7,894.1 C1380.4,897.6 1380.4,897.6 1386.5,894.9 C1392.2,892.4 1399.2,892.7 1408.0,896.0 C1416.2,899.0 1416.6,899.7 1415.3,907.6 C1412.6,923.2 1420.4,935.5 1434.6,938.1 C1444.2,939.9 1445.7,941.5 1442.4,946.6 C1441.4,948.1 1438.9,952.9 1436.9,957.4 C1433.8,963.9 1432.1,966.4 1427.6,970.0 C1423.2,973.6 1400.2,988.4 1396.7,989.9 C1395.4,990.4 1391.1,986.0 1379.5,972.5 C1373.8,965.9 1362.6,954.0 1354.5,946.1 L1339.7,931.6 L1333.4,934.9 C1324.0,939.8 1315.8,946.4 1303.3,959.1 C1287.6,975.2 1269.0,997.7 1269.0,1000.8 C1269.0,1001.8 1270.8,1002.1 1295.8,1005.1 C1324.2,1008.4 1344.4,1012.9 1380.7,1024.1 C1393.8,1028.1 1430.2,1041.1 1431.5,1042.2 C1433.0,1043.6 1424.3,1042.0 1418.0,1039.8 C1382.4,1027.4 1367.0,1022.6 1338.5,1015.1 C1325.3,1011.6 1314.0,1009.7 1292.0,1007.1 C1282.9,1006.0 1273.6,1004.8 1271.3,1004.4 C1267.3,1003.8 1267.1,1003.9 1265.2,1007.6 C1258.1,1021.6 1256.5,1039.9 1261.5,1050.8 C1266.5,1061.8 1271.8,1064.2 1287.2,1062.1 C1292.7,1061.4 1296.5,1060.3 1298.4,1058.9 C1300.5,1057.3 1304.2,1056.4 1311.9,1055.4 C1322.2,1054.1 1330.5,1052.8 1338.2,1051.4 C1342.3,1050.7 1345.0,1052.1 1345.0,1054.8 C1345.0,1058.6 1339.2,1074.4 1334.3,1084.0 C1324.5,1103.1 1314.6,1110.4 1298.5,1110.4 L1289.4,1110.5 L1290.8,1114.5 C1292.8,1119.9 1293.5,1137.1 1292.1,1144.5 C1289.9,1156.5 1281.5,1169.3 1272.3,1174.6 L1267.9,1177.3 L1269.9,1179.4 C1274.5,1184.3 1275.5,1195.4 1272.0,1203.4 C1269.6,1209.1 1262.0,1217.3 1257.7,1219.1 C1255.9,1219.8 1254.3,1220.5 1254.1,1220.6 C1253.9,1220.8 1255.5,1222.9 1257.6,1225.3 C1266.6,1235.6 1269.4,1244.5 1268.8,1261.0 L1268.3,1273.7 L1274.6,1267.1 C1285.8,1255.2 1297.7,1250.2 1311.3,1251.5 C1315.2,1251.9 1319.8,1252.9 1321.7,1253.6 C1324.4,1254.8 1325.1,1254.8 1325.4,1253.8 C1325.7,1253.1 1326.6,1250.0 1327.6,1247.0 C1330.2,1238.4 1337.6,1231.6 1345.8,1230.0 C1349.2,1229.3 1352.0,1228.7 1352.0,1228.6 C1352.0,1228.6 1351.3,1226.7 1350.5,1224.5 C1349.7,1222.3 1349.1,1216.9 1349.0,1212.5 C1349.0,1199.4 1352.0,1191.3 1360.5,1182.2 L1365.9,1176.3 L1363.5,1174.0 C1357.4,1168.2 1352.6,1146.3 1356.5,1142.0 C1358.7,1139.6 1360.8,1139.5 1364.6,1141.5 C1378.3,1148.6 1392.0,1138.5 1392.0,1121.1 C1392.0,1117.5 1391.5,1113.2 1390.8,1111.4 C1389.0,1106.3 1391.8,1103.6 1398.3,1104.3 C1406.0,1105.0 1406.5,1106.0 1406.5,1121.3 L1406.5,1134.5 L1403.0,1140.5 C1399.5,1146.6 1392.0,1154.9 1386.5,1158.7 L1383.5,1160.8 L1388.3,1162.9 C1410.0,1172.2 1417.8,1202.9 1404.6,1226.6 C1401.4,1232.3 1401.4,1232.0 1404.8,1232.0 C1408.5,1232.0 1416.5,1234.6 1420.5,1237.0 C1425.5,1240.1 1432.8,1248.5 1435.2,1253.7 C1438.0,1260.3 1438.9,1276.0 1436.7,1282.4 L1435.1,1287.1 L1438.8,1286.3 C1440.8,1285.9 1446.8,1285.5 1452.0,1285.6 C1484.5,1285.9 1514.2,1313.2 1522.5,1350.4 C1523.2,1353.8 1525.0,1352.3 1525.0,1348.3 Z M1530.1,1288.1 C1529.7,1280.0 1514.1,1217.7 1512.0,1215.6 C1511.5,1215.1 1510.5,1216.3 1509.6,1218.5 C1506.8,1225.1 1495.0,1242.2 1489.0,1248.2 C1481.0,1256.1 1479.3,1255.6 1486.9,1247.5 C1496.4,1237.3 1510.0,1215.4 1510.0,1210.3 C1510.0,1206.9 1488.1,1155.5 1486.6,1155.5 C1486.2,1155.5 1484.9,1158.5 1483.6,1162.2 C1479.0,1175.2 1464.2,1197.5 1455.3,1204.9 C1449.6,1209.6 1450.0,1207.6 1456.1,1201.2 C1466.3,1190.7 1474.1,1178.7 1479.7,1165.0 C1484.9,1152.2 1484.9,1151.3 1479.0,1140.2 C1472.2,1127.5 1459.7,1106.0 1459.3,1106.3 C1459.2,1106.5 1457.6,1111.3 1455.9,1117.1 C1452.2,1129.6 1445.7,1143.8 1440.3,1151.1 C1435.8,1157.1 1432.0,1160.9 1432.0,1159.3 C1432.0,1158.7 1432.7,1157.6 1433.6,1156.9 C1441.1,1150.7 1453.8,1122.5 1456.5,1106.3 C1457.3,1101.5 1454.6,1095.8 1444.3,1080.8 C1439.2,1073.2 1438.1,1070.9 1439.8,1071.1 C1440.9,1071.1 1458.9,1100.7 1471.8,1123.5 C1490.5,1156.7 1503.0,1183.8 1513.5,1214.0 C1520.5,1234.1 1531.8,1282.8 1530.7,1288.3 C1530.3,1290.4 1530.3,1290.4 1530.1,1288.1 Z M960.0,1271.6 C978.9,1268.6 998.4,1264.5 1006.0,1262.0 C1007.4,1261.6 1010.5,1260.7 1013.0,1260.0 C1039.9,1252.5 1077.3,1236.7 1102.0,1222.5 C1105.6,1220.4 1110.5,1217.6 1113.0,1216.2 C1127.2,1208.3 1151.7,1190.4 1171.6,1173.5 C1177.4,1168.5 1172.2,1149.3 1159.0,1127.5 C1156.2,1122.9 1154.0,1118.5 1154.0,1117.6 C1154.0,1116.7 1158.2,1111.2 1163.3,1105.2 C1178.4,1087.9 1183.8,1080.2 1190.0,1067.5 C1197.0,1053.2 1199.0,1046.1 1199.0,1034.8 C1199.0,1022.2 1197.4,1016.1 1189.9,1001.1 C1175.0,971.1 1165.8,960.9 1144.3,950.8 C1137.6,947.6 1136.1,946.6 1137.0,945.5 C1137.6,944.8 1143.6,940.6 1150.3,936.2 C1191.7,909.2 1213.5,903.3 1245.5,910.4 C1281.1,918.4 1291.3,919.0 1309.1,914.5 C1314.7,913.1 1319.7,911.7 1320.2,911.4 C1322.2,910.1 1305.4,895.6 1293.5,888.3 C1270.2,874.0 1239.5,863.3 1210.8,859.5 C1189.3,856.6 1168.1,857.6 1130.2,863.2 C1113.2,865.7 1108.4,866.1 1106.9,865.2 C1100.9,861.4 1042.8,882.2 999.2,903.7 C989.7,908.4 981.7,912.7 981.4,913.2 C981.0,913.8 983.7,917.2 987.2,920.9 C990.8,924.5 1000.6,935.1 1009.1,944.5 C1017.5,953.9 1029.0,966.1 1034.4,971.8 C1045.2,982.9 1045.5,984.6 1035.1,977.3 C997.1,950.3 935.8,884.6 903.3,836.0 C893.7,821.7 864.9,769.6 857.1,752.5 C847.1,730.7 839.1,714.7 837.0,712.5 C833.9,709.1 825.9,691.6 817.1,669.0 C812.5,657.2 808.4,646.6 808.0,645.5 C807.2,643.7 801.1,627.3 796.0,613.5 C791.6,601.6 787.0,588.2 787.0,587.1 C787.0,586.5 786.6,585.2 786.1,584.2 C785.6,583.3 784.3,579.6 783.3,576.1 C781.9,571.1 780.7,569.1 777.7,566.4 C766.1,556.6 747.9,558.2 739.5,569.9 C733.6,577.9 731.5,586.5 731.6,601.5 C731.8,617.4 733.8,626.0 741.0,640.9 C743.8,646.6 745.9,651.5 745.7,651.7 C745.4,651.9 743.8,650.9 742.1,649.4 C735.5,643.9 725.3,643.0 718.7,647.4 C709.0,654.0 706.5,668.4 712.4,684.7 C716.4,695.4 721.0,702.0 733.3,714.2 C739.8,720.7 744.9,726.0 744.6,726.0 C744.3,726.0 742.4,725.0 740.3,723.8 C737.3,722.0 735.0,721.5 728.9,721.5 C721.7,721.5 720.9,721.7 717.3,724.6 C711.7,729.2 709.8,733.1 709.2,741.4 C708.2,758.3 721.2,773.4 747.1,785.4 L754.5,788.9 L743.5,788.4 C733.3,787.9 732.2,788.0 728.6,790.2 C722.1,794.0 720.5,797.1 720.5,805.3 C720.5,813.8 723.0,819.6 731.1,829.7 C739.6,840.4 757.9,851.9 771.4,855.0 L778.4,856.6 L767.0,856.5 C757.3,856.5 755.0,856.8 752.1,858.5 C746.4,861.9 744.5,865.3 744.5,872.3 C744.6,886.0 754.3,897.1 775.6,907.8 C780.7,910.4 789.6,912.7 803.0,915.0 L813.5,916.8 L802.5,916.9 C793.8,917.0 790.6,917.5 787.0,919.1 C755.6,933.3 787.3,968.4 832.1,969.3 C838.0,969.4 842.6,969.8 842.4,970.1 C842.2,970.4 838.6,971.3 834.5,971.9 C825.7,973.4 821.5,976.3 818.1,983.4 C815.3,989.0 815.5,992.5 818.6,998.8 C825.4,1012.4 843.1,1019.6 867.6,1018.8 C873.9,1018.6 879.0,1018.6 879.0,1018.7 C879.0,1018.8 875.2,1020.8 870.6,1023.0 C857.3,1029.3 854.9,1034.2 861.8,1041.0 C863.9,1043.2 867.3,1045.3 869.5,1045.9 C875.4,1047.4 890.3,1049.0 899.8,1049.0 C904.3,1049.0 908.0,1049.3 907.9,1049.8 C907.9,1050.2 904.4,1052.8 900.3,1055.5 C889.4,1062.6 889.5,1063.4 901.1,1062.7 C918.9,1061.6 953.1,1055.0 980.4,1047.4 C989.8,1044.7 992.7,1044.8 986.4,1047.5 C978.8,1050.7 940.6,1064.1 925.2,1068.9 C886.5,1081.0 855.2,1086.0 819.0,1086.0 C798.6,1085.9 789.6,1084.8 781.9,1081.4 C771.4,1076.6 768.5,1070.3 774.2,1064.3 L776.3,1062.0 L767.7,1062.0 C753.2,1062.0 725.4,1057.8 707.1,1052.8 C687.8,1047.6 669.5,1037.0 663.1,1027.4 C657.5,1018.9 659.4,1008.8 667.5,1004.4 C669.4,1003.4 671.0,1002.3 671.0,1001.9 C671.0,1001.5 668.2,1000.7 664.8,1000.1 C647.7,996.8 625.2,987.6 609.4,977.5 C602.1,972.8 596.4,970.0 594.3,970.0 C590.7,970.0 542.8,950.3 535.0,945.5 C532.0,943.7 521.2,938.8 511.0,934.7 C484.3,923.9 449.1,908.3 444.8,905.5 C440.1,902.4 439.0,902.3 441.7,905.2 C442.9,906.5 444.5,909.3 445.4,911.5 C446.3,913.7 448.5,916.9 450.4,918.5 C452.3,920.1 458.4,925.7 464.1,930.9 C469.8,936.1 476.4,942.1 478.8,944.3 C481.2,946.4 483.0,948.3 482.8,948.5 C482.6,948.8 479.9,948.3 476.8,947.4 C468.6,945.3 436.7,940.0 432.1,940.0 C423.6,940.0 425.4,942.4 446.0,957.9 C461.2,969.4 465.5,972.3 475.3,977.6 C483.0,981.7 484.5,983.3 478.6,981.0 C477.2,980.5 471.9,979.4 466.8,978.6 C461.7,977.7 454.8,976.2 451.6,975.0 C444.2,972.5 441.8,972.5 439.5,975.0 C437.7,977.0 437.7,977.1 440.6,980.1 C446.5,986.4 464.7,998.1 486.5,1009.6 C493.1,1013.1 498.1,1016.0 497.5,1016.0 C496.9,1016.0 492.3,1014.9 487.1,1013.5 C475.0,1010.3 467.3,1009.6 456.4,1010.5 L447.5,1011.2 L450.3,1013.4 C451.8,1014.6 459.9,1019.0 468.3,1023.2 C486.2,1032.2 502.0,1041.0 500.2,1041.0 C497.9,1041.0 451.7,1017.2 446.5,1013.3 L441.5,1009.5 L447.5,1008.7 C456.0,1007.5 458.0,1007.1 458.0,1006.2 C458.0,1005.4 417.7,987.1 370.5,966.5 C358.9,961.5 340.9,953.5 330.5,948.7 C320.1,944.0 304.3,937.0 295.5,933.2 C286.7,929.4 267.8,921.0 253.5,914.6 C239.2,908.1 221.4,900.1 214.0,896.8 C206.6,893.4 188.8,885.2 174.5,878.5 C148.5,866.3 140.0,862.5 109.0,849.0 C91.7,841.4 63.5,828.1 26.2,810.0 L4.0,799.1 L4.0,803.9 C4.0,814.3 11.4,830.0 21.4,840.9 C27.7,847.6 37.7,853.9 50.5,859.0 C75.7,869.1 90.1,875.2 119.8,888.6 C122.7,889.9 134.9,894.9 146.8,899.6 C169.7,908.7 171.6,909.5 179.4,912.9 C182.1,914.1 186.5,916.0 189.3,917.1 C192.1,918.2 196.2,919.9 198.4,921.0 C200.7,922.0 206.6,924.5 211.5,926.5 C216.4,928.6 222.3,931.0 224.5,932.0 C226.7,933.0 236.4,937.1 246.0,941.0 C261.9,947.5 266.3,949.4 272.5,952.1 C273.6,952.6 277.0,953.9 280.0,955.1 C283.0,956.2 287.1,957.8 289.0,958.7 C294.5,961.1 295.8,961.6 307.5,966.0 C313.6,968.3 319.9,970.8 321.5,971.5 C323.1,972.2 330.4,975.2 337.5,978.0 C344.6,980.9 359.3,986.8 370.0,991.2 C387.8,998.5 392.7,1000.5 398.5,1003.1 C399.6,1003.6 408.6,1007.2 418.5,1011.1 C428.4,1015.0 438.5,1019.1 441.0,1020.2 C443.5,1021.3 446.9,1022.8 448.5,1023.5 C458.3,1027.7 462.3,1029.9 470.1,1035.1 C474.9,1038.3 481.4,1043.1 484.6,1045.7 C487.9,1048.4 492.3,1051.8 494.5,1053.5 C502.6,1059.5 530.0,1082.8 548.5,1099.4 C559.0,1108.8 572.5,1120.8 578.5,1126.0 C584.5,1131.2 593.4,1139.0 598.2,1143.3 L606.8,1151.1 L619.9,1144.6 C627.1,1140.9 633.3,1138.0 633.7,1138.0 C634.1,1138.0 632.4,1140.1 630.0,1142.6 C624.4,1148.3 610.0,1158.0 595.5,1165.8 C589.5,1169.0 580.2,1174.1 575.0,1177.1 C545.0,1194.4 521.6,1202.0 503.0,1200.6 C477.5,1198.6 454.8,1192.9 436.7,1183.9 C425.7,1178.3 410.1,1167.4 409.0,1164.4 C408.4,1163.0 407.3,1161.7 406.4,1161.3 C405.3,1160.9 405.2,1160.5 406.0,1160.0 C408.4,1158.5 401.9,1153.0 396.0,1151.5 C393.0,1150.7 389.9,1150.0 389.1,1150.0 C387.5,1150.0 392.2,1153.9 395.9,1155.8 L398.5,1157.0 L395.8,1156.5 C393.1,1156.0 393.0,1156.1 393.0,1159.9 C393.0,1164.3 400.0,1175.8 406.2,1181.7 C412.1,1187.3 425.3,1196.1 435.1,1201.1 C440.4,1203.7 446.4,1207.0 448.4,1208.4 C450.4,1209.8 454.6,1211.4 457.6,1212.1 C460.6,1212.8 463.3,1213.7 463.6,1214.2 C464.2,1215.1 460.9,1214.7 452.5,1212.9 C450.1,1212.4 448.1,1212.5 447.5,1213.1 C445.4,1215.2 416.3,1212.9 368.5,1207.0 C340.7,1203.5 334.0,1203.0 325.8,1203.5 C320.4,1203.9 316.0,1204.6 316.0,1205.1 C316.0,1207.0 326.7,1214.9 338.4,1221.6 C377.6,1244.0 416.6,1249.3 456.0,1237.3 C463.6,1235.0 491.7,1224.0 506.0,1217.7 C529.6,1207.4 568.0,1200.3 599.0,1200.7 C611.8,1200.8 622.9,1202.5 646.0,1208.0 C672.7,1214.3 721.3,1230.2 724.9,1233.8 C728.4,1237.4 794.7,1259.3 799.3,1258.5 C801.3,1258.1 805.7,1258.8 811.0,1260.3 C822.4,1263.6 835.1,1266.7 843.0,1268.0 C859.1,1270.7 862.0,1271.2 869.5,1272.1 C897.7,1275.7 935.5,1275.5 960.0,1271.6 Z M385.0,1232.5 C373.0,1230.6 356.0,1226.7 358.1,1226.3 C359.0,1226.1 364.8,1226.8 371.1,1227.9 C391.9,1231.5 403.4,1232.3 424.5,1231.6 C435.5,1231.3 445.7,1230.7 447.2,1230.4 C448.8,1230.0 450.0,1230.2 450.0,1230.8 C450.0,1232.4 443.6,1233.0 418.5,1233.5 C400.7,1233.8 392.0,1233.5 385.0,1232.5 Z M1517.6,1222.0 C1505.8,1182.5 1501.3,1170.9 1489.4,1149.6 C1478.5,1130.0 1474.0,1122.4 1451.4,1086.2 C1440.8,1069.2 1439.3,1064.5 1449.1,1079.2 C1459.3,1094.5 1460.4,1095.7 1465.2,1096.4 C1483.6,1099.3 1548.5,1117.8 1546.7,1119.7 C1546.4,1119.9 1538.9,1117.8 1529.9,1115.1 C1503.5,1107.1 1463.5,1097.1 1462.3,1098.3 C1462.1,1098.6 1463.6,1101.5 1465.8,1104.7 C1470.7,1112.0 1481.6,1130.7 1490.4,1147.2 L1497.3,1160.0 L1510.9,1167.1 C1525.1,1174.5 1539.4,1183.6 1549.3,1191.5 C1558.6,1198.9 1555.2,1197.8 1544.4,1189.9 C1530.5,1179.9 1504.6,1165.0 1501.0,1165.0 C1500.4,1165.0 1500.8,1166.7 1501.9,1168.8 C1505.4,1175.8 1521.3,1227.2 1520.8,1230.0 C1520.6,1230.8 1519.2,1227.2 1517.6,1222.0 Z M1290.0,1227.7 C1290.0,1227.5 1293.6,1221.3 1297.9,1214.1 C1302.9,1206.0 1307.8,1196.1 1310.9,1188.0 C1316.2,1174.5 1317.5,1169.0 1314.1,1174.5 C1311.0,1179.6 1301.2,1189.6 1296.2,1192.9 C1290.9,1196.3 1285.0,1198.0 1285.0,1196.1 C1285.0,1195.5 1285.8,1195.0 1286.8,1195.0 C1290.2,1195.0 1298.8,1189.0 1305.0,1182.3 C1316.7,1169.5 1318.7,1165.8 1323.6,1146.8 C1326.0,1137.4 1327.9,1129.5 1327.7,1129.4 C1327.5,1129.2 1325.9,1130.8 1324.1,1133.0 C1320.4,1137.6 1303.0,1151.4 1302.1,1150.4 C1301.8,1150.1 1302.6,1148.9 1304.0,1147.8 C1324.2,1131.7 1328.4,1126.4 1332.1,1112.7 C1333.6,1107.1 1336.8,1095.2 1339.3,1086.2 C1341.9,1077.2 1344.3,1067.1 1344.7,1063.7 L1345.5,1057.5 L1346.0,1062.0 C1346.3,1064.5 1346.0,1068.5 1345.3,1071.0 C1344.7,1073.5 1341.8,1084.0 1338.9,1094.5 C1330.9,1123.6 1330.8,1120.6 1339.7,1145.3 C1342.2,1152.3 1344.0,1158.3 1343.7,1158.6 C1343.3,1159.1 1334.3,1137.1 1332.5,1131.1 C1332.1,1129.9 1331.5,1129.2 1331.1,1129.6 C1330.2,1130.6 1321.6,1161.9 1321.8,1163.5 C1322.0,1167.1 1325.3,1191.8 1326.4,1197.8 C1327.0,1201.7 1327.3,1205.0 1326.9,1205.0 C1325.5,1205.0 1322.4,1190.3 1321.4,1179.2 C1321.1,1174.7 1320.3,1170.7 1319.9,1170.4 C1319.4,1170.1 1319.0,1170.6 1319.0,1171.6 C1319.0,1175.2 1311.7,1194.9 1307.3,1203.0 C1300.9,1214.9 1290.0,1230.5 1290.0,1227.7 Z M427.5,1225.4 C406.5,1223.7 377.8,1219.0 355.7,1213.4 C348.1,1211.6 341.6,1210.0 341.4,1210.0 C341.2,1210.0 341.0,1209.3 341.0,1208.4 C341.0,1207.3 341.5,1207.0 342.6,1207.4 C346.3,1208.8 368.3,1214.0 380.8,1216.5 C409.0,1221.9 423.5,1223.3 451.4,1223.2 C465.6,1223.2 476.9,1223.4 476.5,1223.8 C476.1,1224.2 473.1,1224.5 469.7,1224.6 C466.3,1224.6 456.5,1224.9 448.0,1225.2 C439.5,1225.5 430.2,1225.6 427.5,1225.4 Z M477.0,1208.0 C475.6,1207.6 470.0,1205.7 464.5,1204.0 C453.8,1200.6 433.0,1191.2 433.0,1189.8 C433.0,1188.6 433.6,1188.7 440.1,1192.1 C446.4,1195.2 465.1,1202.4 475.2,1205.6 C478.4,1206.6 481.0,1207.7 481.0,1208.2 C481.0,1209.2 480.3,1209.1 477.0,1208.0 Z M855.3,1081.5 C871.9,1079.4 878.4,1078.3 895.5,1074.3 C910.4,1070.9 944.6,1060.3 943.7,1059.4 C943.4,1059.1 939.5,1059.6 934.9,1060.5 C914.9,1064.3 887.0,1066.5 887.0,1064.2 C887.0,1062.5 890.3,1058.9 894.5,1056.0 C897.0,1054.3 899.0,1052.5 899.0,1052.0 C899.0,1051.4 895.5,1051.0 891.2,1050.9 C887.0,1050.9 879.7,1050.3 875.0,1049.6 C866.6,1048.3 866.3,1048.3 848.5,1052.1 C827.6,1056.5 797.6,1061.0 788.9,1061.0 C782.2,1061.0 778.1,1062.7 775.6,1066.4 C773.5,1069.7 773.5,1070.3 776.5,1073.8 C779.3,1077.2 786.3,1080.8 792.4,1082.0 C799.7,1083.4 842.5,1083.1 855.3,1081.5 Z M808.7,1056.5 C820.7,1054.9 859.4,1047.5 861.1,1046.4 C861.6,1046.1 860.5,1044.1 858.5,1041.9 C853.3,1036.1 853.6,1032.9 860.1,1026.8 L865.2,1022.0 L859.7,1022.0 C846.9,1022.0 831.9,1016.9 823.4,1009.6 L819.3,1006.1 L787.4,1007.7 C750.5,1009.5 718.1,1008.6 693.0,1004.9 C677.0,1002.6 674.7,1002.9 668.1,1007.8 C650.9,1020.6 674.5,1042.4 716.5,1052.6 C738.0,1057.7 750.4,1059.0 774.8,1058.5 C787.1,1058.2 802.4,1057.3 808.7,1056.5 Z M477.5,1007.4 C476.4,1006.5 473.2,1004.7 470.3,1003.4 C456.7,997.3 435.0,981.1 435.0,977.1 C435.0,976.4 436.2,974.6 437.8,973.2 L440.5,970.7 L413.5,957.1 C398.7,949.6 372.1,936.5 354.5,928.0 C309.3,906.2 136.0,819.6 117.2,809.4 C92.8,796.2 68.9,784.8 64.0,783.9 C61.5,783.5 55.7,782.4 51.0,781.6 C34.9,778.7 22.8,779.7 14.7,784.7 C10.8,787.2 4.4,795.9 5.7,797.1 C6.2,797.4 19.5,803.9 35.5,811.5 C51.5,819.1 74.2,829.9 86.0,835.5 C97.8,841.1 117.6,850.1 130.0,855.5 C142.4,860.9 161.1,869.3 171.5,874.2 C201.4,888.3 322.2,942.6 348.0,953.5 C354.9,956.4 371.5,963.9 385.0,970.0 C398.5,976.2 417.8,984.8 428.0,989.2 C448.1,997.9 457.0,1002.2 461.2,1005.2 C463.5,1006.8 471.3,1008.6 477.5,1008.8 L479.5,1008.9 L477.5,1007.4 Z M1621.4,1001.9 C1612.2,995.9 1599.0,983.0 1593.6,974.7 C1591.5,971.4 1588.4,964.9 1586.7,960.2 C1585.0,955.4 1583.6,951.4 1583.5,951.3 C1583.5,951.2 1572.4,950.4 1559.0,949.5 C1531.5,947.8 1526.0,947.2 1526.0,945.9 C1526.0,945.4 1543.5,945.0 1566.1,945.0 L1606.3,945.0 L1614.4,939.6 C1624.2,933.1 1634.1,924.1 1640.0,916.6 C1646.2,908.5 1646.2,910.6 1640.0,919.0 C1634.1,927.0 1625.3,935.0 1615.4,941.5 C1611.1,944.3 1609.3,946.0 1610.5,946.0 C1643.0,946.2 1695.9,951.6 1714.1,956.5 C1719.3,957.9 1725.6,959.6 1728.2,960.3 C1730.7,961.0 1733.1,961.8 1733.5,962.2 C1734.2,962.9 1735.8,963.0 1684.1,958.9 C1663.0,957.3 1645.5,956.1 1645.3,956.4 C1644.3,957.4 1651.9,969.5 1657.0,975.3 C1662.8,981.7 1671.6,988.3 1680.6,993.0 C1684.7,995.2 1685.6,995.9 1683.5,995.5 C1672.5,993.3 1653.5,977.1 1645.6,963.4 L1641.0,955.3 L1633.9,954.6 C1612.4,952.6 1587.5,951.1 1586.9,951.8 C1586.0,952.6 1589.0,961.4 1592.1,967.3 C1597.2,977.1 1612.2,993.3 1623.8,1001.4 C1631.2,1006.6 1631.7,1007.0 1630.3,1007.0 C1629.7,1007.0 1625.7,1004.7 1621.4,1001.9 Z M804.5,1004.4 C810.5,1004.1 815.8,1003.5 816.2,1003.1 C816.7,1002.7 816.1,1000.6 815.0,998.5 C811.3,991.2 813.5,981.1 820.1,975.6 C823.7,972.5 823.8,971.0 820.4,971.0 C812.2,971.0 790.3,962.0 783.4,955.8 L779.5,952.2 L750.0,948.6 C684.5,940.4 653.1,933.7 608.1,918.5 C590.1,912.4 589.2,912.2 581.5,912.7 C568.5,913.4 567.0,914.5 567.0,923.9 C567.0,941.3 594.1,968.5 627.2,984.0 C650.5,994.9 678.3,1001.3 719.5,1005.4 C724.8,1005.9 790.6,1005.1 804.5,1004.4 Z M1233.0,981.5 C1245.1,977.5 1255.3,961.6 1253.6,949.4 C1252.2,939.1 1242.8,927.7 1232.8,924.4 C1218.6,919.7 1201.0,927.1 1194.5,940.5 C1191.9,946.0 1191.3,957.4 1193.4,963.7 C1198.5,979.2 1216.1,987.1 1233.0,981.5 Z M465.5,975.0 C465.2,974.5 461.1,971.6 456.3,968.5 C446.4,962.0 436.0,953.9 427.8,946.3 C424.7,943.4 421.7,941.0 421.1,941.0 C418.0,941.0 420.6,939.0 424.5,938.4 C427.0,938.1 429.0,937.4 429.0,936.9 C429.0,936.4 428.6,936.0 428.1,936.0 C426.8,936.0 387.9,912.3 358.5,893.5 C343.6,884.0 324.3,871.9 315.5,866.5 C297.6,855.6 258.7,830.2 206.5,795.3 C148.2,756.4 132.5,745.5 107.7,726.9 C94.6,717.0 83.2,709.0 82.5,709.0 C81.7,709.0 78.5,707.7 75.3,706.1 C58.5,697.7 51.2,695.6 39.0,695.7 C24.3,695.7 19.1,699.3 15.4,711.7 C11.1,726.3 25.9,747.8 55.1,769.6 C60.8,773.8 67.2,778.8 69.4,780.6 C71.6,782.5 82.9,788.8 94.4,794.6 C106.0,800.5 122.9,809.2 132.0,814.0 C149.8,823.4 322.2,910.0 323.2,910.0 C324.2,910.0 358.5,926.7 397.0,946.0 C433.4,964.2 449.9,971.7 460.0,974.5 C465.7,976.2 466.2,976.2 465.5,975.0 Z M1217.5,965.6 C1212.4,963.3 1210.2,960.1 1209.5,953.5 C1208.9,948.6 1209.0,947.7 1210.1,948.8 C1211.8,950.3 1217.2,950.4 1218.8,948.8 C1220.3,947.3 1220.4,942.4 1219.0,941.5 C1216.6,940.0 1218.4,939.0 1223.6,939.0 C1228.6,939.0 1229.5,939.3 1232.6,942.4 C1242.7,952.5 1230.3,971.5 1217.5,965.6 Z M1718.0,959.0 C1715.8,957.8 1701.8,955.3 1687.0,953.5 C1660.5,950.4 1623.6,948.3 1563.5,946.6 C1541.4,946.0 1555.4,947.6 1584.0,948.9 C1596.9,949.6 1614.9,950.7 1624.0,951.4 C1633.1,952.2 1641.2,952.8 1642.0,952.9 C1642.8,952.9 1659.2,954.5 1678.5,956.4 C1717.9,960.2 1720.2,960.3 1718.0,959.0 Z M776.0,948.6 C776.0,948.4 775.1,946.3 774.0,943.9 C769.5,933.8 772.1,925.4 781.8,919.0 L787.1,915.5 L782.1,913.9 C773.4,910.9 759.5,903.1 755.1,898.8 C752.8,896.5 749.3,892.0 747.4,888.8 C745.4,885.6 743.6,883.0 743.2,883.0 C736.6,882.9 683.9,869.7 657.5,861.5 C647.6,858.4 632.3,853.7 623.5,851.0 C614.7,848.3 593.8,841.5 577.0,835.8 L546.5,825.5 L534.0,825.6 C520.0,825.6 515.9,826.8 510.1,832.3 C505.3,836.9 503.7,841.1 504.9,845.8 C508.4,858.6 526.3,874.9 552.5,889.1 C562.7,894.6 583.7,905.0 584.6,905.0 C585.0,905.0 586.3,905.8 587.4,906.9 C590.8,909.9 626.5,922.3 646.5,927.4 C675.0,934.6 701.4,939.7 729.5,943.5 C770.3,949.0 776.0,949.6 776.0,948.6 Z M477.0,944.6 C477.0,944.4 472.8,940.9 467.8,936.9 C462.7,932.9 455.6,927.1 452.0,924.0 C448.4,920.8 442.6,916.2 439.2,913.6 C432.0,908.4 413.8,894.3 382.6,869.9 C371.0,860.8 357.4,850.3 352.5,846.5 C347.6,842.8 330.2,829.1 314.0,816.2 C297.8,803.2 280.2,789.2 275.0,785.1 C264.2,776.6 257.2,770.6 238.1,753.5 C230.7,746.9 222.8,739.9 220.6,738.0 C205.9,725.6 152.3,676.1 139.5,663.1 C135.1,658.6 130.8,655.0 129.8,655.0 C128.9,655.0 127.8,654.5 127.4,653.9 C126.1,651.8 108.4,640.8 98.5,635.9 C81.5,627.6 69.7,626.0 60.4,630.8 C48.2,637.1 49.8,656.5 64.4,678.5 C66.6,681.8 73.2,690.2 79.2,697.2 C93.1,713.4 106.5,723.9 162.5,762.4 C207.1,793.1 296.1,851.8 321.4,867.1 C332.5,873.9 351.9,886.0 364.5,894.0 C377.1,902.1 397.8,915.2 410.5,923.0 L433.5,937.3 L452.9,940.7 C463.6,942.5 472.6,944.3 472.9,944.5 C473.4,945.1 477.0,945.2 477.0,944.6 Z M513.0,931.5 C513.0,930.9 500.8,923.1 488.5,915.7 C459.6,898.5 448.6,889.4 402.0,843.8 C364.1,806.7 350.9,792.9 328.9,767.4 C323.2,760.8 309.7,745.5 299.0,733.4 C288.2,721.4 273.6,704.8 266.5,696.5 C259.4,688.2 247.5,674.8 240.0,666.5 C232.5,658.2 217.8,641.5 207.2,629.3 C187.3,606.3 180.3,599.6 168.6,591.6 C162.3,587.3 158.9,585.5 150.7,582.1 C146.8,580.5 134.2,579.7 130.6,580.8 L127.6,581.6 L138.6,593.1 C144.7,599.4 153.2,608.4 157.6,613.2 C164.6,620.9 206.9,666.0 233.0,693.5 C238.2,699.1 245.6,706.9 249.5,711.0 C262.3,724.8 271.4,734.4 297.5,761.5 C340.4,806.1 351.6,817.4 371.0,835.3 C381.2,844.7 397.8,860.5 408.0,870.5 C438.6,900.3 439.8,901.1 482.2,919.5 C508.6,931.0 513.0,932.7 513.0,931.5 Z M444.0,911.7 C444.0,910.1 438.5,904.7 435.1,903.0 C433.6,902.2 433.1,901.5 433.9,901.1 C435.2,900.3 412.0,877.2 382.0,849.5 C353.5,823.2 337.2,807.3 318.0,787.0 C309.0,777.4 294.6,762.3 286.0,753.5 C269.2,736.2 237.2,702.3 211.1,674.2 C202.1,664.5 185.9,647.2 175.1,635.9 C149.3,608.8 132.1,590.3 128.8,586.0 C126.1,582.6 126.0,582.5 123.3,584.0 C121.8,584.8 119.3,587.9 117.8,590.9 C112.3,601.4 114.5,613.4 126.0,636.6 C129.8,644.4 133.0,651.1 133.0,651.5 C133.0,653.5 191.0,708.7 213.5,728.1 C219.0,732.9 227.6,740.5 232.5,745.0 C253.9,764.4 318.0,817.0 351.5,842.5 C358.6,847.9 373.3,859.3 384.0,867.6 C413.6,890.8 442.4,912.8 443.2,912.9 C443.7,913.0 444.0,912.4 444.0,911.7 Z M1001.4,900.1 C1036.5,882.7 1067.5,870.6 1096.1,863.0 C1104.5,860.8 1104.8,860.7 1106.5,856.6 C1112.0,844.2 1118.7,831.1 1126.0,818.5 C1127.0,816.9 1129.4,812.6 1131.5,809.0 C1139.7,794.7 1144.9,786.0 1156.0,768.0 C1160.6,760.6 1166.8,750.2 1169.8,745.0 C1175.0,736.0 1187.4,717.0 1199.6,699.5 C1208.3,686.9 1220.5,661.1 1226.6,642.0 C1227.4,639.5 1228.5,636.6 1229.0,635.5 C1231.7,629.3 1241.1,598.8 1240.7,597.6 C1239.0,593.2 1229.4,590.4 1221.2,592.0 C1210.3,594.0 1198.6,604.3 1185.9,623.3 C1181.6,629.8 1178.0,634.6 1178.0,634.1 C1178.0,633.6 1178.7,630.1 1179.6,626.3 C1181.8,616.7 1180.4,610.5 1174.5,604.3 C1170.1,599.8 1170.1,599.8 1164.3,600.2 C1156.3,600.8 1149.8,604.2 1141.8,612.2 C1133.9,620.0 1130.5,626.2 1123.8,645.0 L1119.0,658.5 L1119.6,650.5 C1120.3,640.7 1119.0,635.2 1114.7,630.3 C1098.6,612.0 1074.0,635.7 1067.4,675.7 C1064.9,691.0 1064.7,691.3 1063.8,683.0 C1062.5,670.9 1056.5,664.0 1046.6,663.2 C1039.6,662.6 1034.7,665.3 1026.7,674.0 C1018.5,682.8 1017.6,686.7 1018.3,708.9 C1018.8,725.9 1018.8,726.2 1017.1,723.4 C1011.7,714.7 999.3,709.9 995.6,715.1 C994.7,716.5 993.5,717.0 992.5,716.6 C990.2,715.8 984.9,719.1 981.6,723.5 C974.0,733.4 973.9,752.1 981.3,766.7 C984.8,773.6 984.7,774.0 980.5,769.7 C976.5,765.6 972.7,764.5 964.5,765.2 C957.3,765.8 953.0,769.2 948.9,777.5 C945.8,783.8 945.7,784.3 946.3,793.3 C947.0,804.2 948.8,810.4 953.6,818.4 C957.5,825.0 957.4,826.9 953.4,822.0 C948.7,816.4 948.0,816.0 943.7,816.0 C938.2,816.1 932.1,818.9 928.7,823.0 C926.1,826.1 926.0,826.5 926.6,834.3 C927.1,841.5 927.7,843.3 931.3,849.4 C937.4,859.7 976.5,910.8 978.4,910.9 C978.8,911.0 989.2,906.1 1001.4,900.1 Z M1412.1,887.5 C1408.2,883.9 1404.9,881.0 1404.7,881.0 C1404.6,881.0 1398.2,880.1 1390.6,879.0 C1378.0,877.2 1366.8,873.9 1368.3,872.4 C1368.6,872.1 1370.1,872.5 1371.7,873.3 C1375.3,875.2 1378.3,875.8 1390.0,877.0 C1395.2,877.5 1400.6,878.3 1402.0,878.6 C1404.1,879.1 1403.9,878.8 1400.5,875.9 C1398.3,874.0 1390.7,867.3 1383.5,861.0 C1370.2,849.2 1358.8,839.5 1355.4,837.2 C1353.7,836.1 1353.8,836.0 1356.5,836.5 L1359.5,837.1 L1356.1,833.6 C1349.2,826.5 1354.8,830.3 1366.2,840.5 C1372.7,846.3 1378.0,850.7 1378.0,850.3 C1378.0,849.8 1376.8,842.6 1375.4,834.2 C1374.0,825.8 1373.0,817.7 1373.2,816.2 C1373.4,814.5 1374.0,816.3 1374.8,821.0 C1375.5,825.1 1377.3,834.8 1378.8,842.4 L1381.5,856.3 L1393.9,867.1 C1406.7,878.4 1408.7,879.6 1407.6,875.8 C1407.3,874.5 1406.8,864.3 1406.6,853.0 C1406.1,830.7 1407.0,835.9 1408.9,866.5 L1409.9,882.5 L1415.4,887.7 C1418.5,890.6 1421.0,893.2 1421.0,893.5 C1421.0,895.1 1418.4,893.3 1412.1,887.5 Z M742.1,872.2 C742.6,862.3 745.4,858.0 753.0,855.3 C755.8,854.3 758.0,853.3 758.0,853.0 C758.0,852.6 756.3,851.6 754.2,850.6 C738.0,842.9 725.6,830.5 719.3,815.6 L717.2,810.7 L697.9,802.0 C687.2,797.3 675.1,791.8 671.0,790.0 C627.7,770.6 567.6,734.9 516.5,698.4 C493.3,681.8 490.6,680.0 489.3,680.0 C488.7,680.0 485.8,678.8 482.9,677.2 C478.0,674.7 473.2,672.5 458.9,666.1 C447.9,661.3 434.7,657.5 431.8,658.4 C431.1,658.7 429.3,659.1 427.8,659.4 C420.9,660.9 419.2,668.0 423.4,677.2 C433.6,699.4 460.3,725.7 496.3,748.9 C500.5,751.6 500.9,752.1 498.5,751.5 C495.4,750.7 476.4,749.7 467.5,749.8 C460.8,749.9 454.6,752.4 453.1,755.6 C451.7,758.9 453.3,761.3 463.3,770.6 C478.7,785.0 494.8,795.6 517.5,806.5 C524.1,809.6 534.5,814.6 540.6,817.6 C546.7,820.5 565.4,827.7 582.1,833.5 C598.8,839.3 614.8,844.9 617.5,845.9 C622.4,847.7 654.3,857.7 675.0,863.9 C688.7,868.0 735.8,879.6 740.1,879.9 C741.5,880.0 741.8,878.7 742.1,872.2 Z M1496.0,870.3 C1496.0,869.6 1497.3,865.5 1499.0,861.0 C1500.7,856.5 1502.0,852.2 1502.0,851.3 C1502.0,850.5 1498.0,841.4 1493.1,831.2 C1483.0,809.9 1478.9,798.3 1478.5,789.0 C1478.3,785.4 1478.3,783.6 1478.6,785.0 C1481.6,799.9 1485.4,810.5 1496.0,832.6 L1503.1,847.5 L1508.0,837.5 C1510.6,832.0 1515.7,822.6 1519.2,816.5 C1525.5,805.9 1525.7,805.4 1524.4,802.3 C1521.3,795.0 1519.8,780.1 1520.4,763.0 C1520.7,753.9 1521.3,745.1 1521.8,743.5 C1522.4,741.6 1522.5,747.2 1522.2,758.5 C1521.7,779.4 1524.2,803.0 1527.0,803.0 C1527.4,803.0 1530.4,798.8 1533.6,793.8 C1553.4,762.6 1595.6,705.8 1605.9,696.6 C1612.3,690.8 1603.3,705.0 1577.9,740.2 C1570.8,750.1 1565.0,758.4 1565.0,758.6 C1565.0,758.8 1566.2,758.4 1567.8,757.6 C1571.8,755.5 1589.2,750.3 1599.5,748.1 C1612.9,745.3 1615.0,745.0 1615.0,745.8 C1615.0,746.2 1609.7,747.9 1603.2,749.4 C1588.5,753.0 1577.5,756.4 1568.5,760.1 C1560.6,763.4 1562.0,761.7 1544.9,789.0 C1539.5,797.5 1535.3,804.6 1535.4,804.7 C1535.5,804.8 1540.3,803.1 1546.1,800.9 C1561.7,794.7 1581.0,790.2 1594.3,789.4 C1608.2,788.6 1608.0,789.4 1593.9,790.9 C1580.1,792.4 1564.9,796.3 1546.8,803.0 L1532.1,808.5 L1525.1,820.5 C1519.7,829.9 1511.0,847.7 1511.0,849.4 C1511.0,849.5 1516.7,847.7 1523.8,845.4 C1540.5,839.8 1555.6,837.0 1567.3,837.1 L1576.5,837.3 L1567.9,838.0 C1551.2,839.5 1531.0,844.4 1515.0,850.7 C1508.3,853.3 1507.3,854.1 1505.2,858.1 C1503.3,861.8 1503.0,862.0 1503.5,859.5 C1503.8,857.9 1505.0,855.3 1506.1,853.7 C1507.2,852.2 1509.7,847.2 1511.6,842.7 C1516.6,831.0 1522.6,820.0 1531.7,805.9 C1536.1,799.1 1543.2,787.8 1547.5,780.9 C1551.8,774.0 1560.4,761.1 1566.7,752.4 C1583.7,728.6 1586.2,724.9 1585.7,724.4 C1584.8,723.5 1556.8,762.2 1540.8,786.5 C1516.3,823.7 1508.8,837.6 1500.5,861.5 C1497.8,869.2 1496.0,872.7 1496.0,870.3 Z M927.0,820.4 C930.4,816.9 936.4,813.9 941.9,813.1 C947.2,812.3 947.0,813.1 944.6,800.0 C942.6,789.7 943.3,782.8 946.9,775.5 L949.5,770.3 L942.2,762.9 C920.2,740.9 903.3,717.8 890.1,691.4 C881.8,674.7 876.9,668.9 869.2,666.6 C857.6,663.2 850.9,670.0 845.4,690.8 C844.6,693.7 844.0,699.8 844.0,704.3 C844.0,708.9 843.5,713.1 843.0,713.6 C842.3,714.3 842.5,715.9 843.6,718.5 C846.7,726.0 871.9,764.3 915.6,828.0 L923.5,839.5 L924.0,831.3 C924.5,824.4 925.0,822.7 927.0,820.4 Z M717.8,801.4 C719.3,792.3 724.4,787.3 734.5,785.2 L738.1,784.5 L730.4,779.5 C714.4,769.1 706.0,756.8 706.0,744.1 L706.0,738.3 L699.8,734.5 C689.0,727.9 673.2,717.2 652.5,702.5 C622.2,681.0 571.6,644.9 561.3,637.3 C556.2,633.5 541.6,622.8 528.8,613.4 C484.4,580.8 478.9,577.0 476.0,577.0 C475.1,577.0 469.3,573.9 463.0,570.2 C422.0,546.0 409.2,541.1 401.6,547.1 C392.0,554.6 407.4,585.7 438.5,621.5 C448.6,633.1 470.9,655.7 481.8,665.2 C487.4,670.1 492.0,674.8 492.0,675.6 C492.0,676.4 492.3,677.0 492.8,677.0 C493.2,677.0 496.7,679.7 500.7,682.9 C542.3,716.9 619.3,763.4 679.9,791.2 C692.9,797.1 706.2,803.3 709.5,804.9 C712.8,806.6 715.8,807.9 716.1,807.9 C716.4,808.0 717.2,805.0 717.8,801.4 Z M956.6,764.9 C961.8,761.9 962.6,761.8 969.5,762.3 L976.8,763.0 L975.3,758.2 C974.4,755.4 973.7,749.4 973.6,743.5 C973.5,730.9 975.7,725.3 983.7,718.0 L989.2,713.0 L984.9,707.5 C960.8,677.4 941.7,640.5 930.0,602.0 C925.5,587.1 924.0,583.3 921.4,580.2 C920.1,578.7 917.5,575.5 915.7,573.0 C904.5,557.7 885.9,568.2 878.7,594.0 C876.3,602.9 874.7,615.7 875.3,621.8 C877.0,637.5 880.6,654.6 884.1,663.4 C885.1,666.1 886.0,670.1 886.0,672.4 C886.0,683.4 905.5,717.0 925.5,740.5 C931.9,748.1 950.2,768.0 950.7,768.0 C950.9,768.0 953.5,766.6 956.6,764.9 Z M707.9,731.7 C710.3,724.4 717.5,719.6 727.4,718.4 L733.0,717.7 L726.7,711.5 C716.6,701.5 709.0,688.3 707.3,677.6 C706.6,673.1 707.0,673.6 692.0,661.0 C640.0,617.6 601.8,575.0 564.0,518.6 C560.0,512.5 552.0,500.8 546.3,492.6 C540.5,484.3 534.9,475.7 533.8,473.5 C532.7,471.3 529.6,466.8 526.9,463.5 C524.2,460.2 520.6,455.1 518.8,452.2 C512.4,441.9 502.5,426.3 491.9,410.0 C486.1,400.9 477.5,387.2 472.8,379.5 C435.7,318.2 431.7,313.0 421.1,313.0 C417.1,313.0 417.1,313.1 415.5,318.2 C412.7,327.7 414.2,348.6 419.0,366.2 C419.5,368.3 420.4,371.5 420.8,373.2 C427.4,398.2 448.2,446.4 463.6,472.0 C465.4,475.1 467.4,478.8 467.9,480.3 C468.5,481.8 472.4,488.0 476.6,494.1 C480.8,500.1 484.0,505.3 483.8,505.5 C483.6,505.7 479.2,501.0 474.0,495.0 C468.8,488.9 464.0,484.0 463.3,484.0 C462.7,484.0 457.1,478.3 450.8,471.4 C425.3,442.9 403.2,426.9 397.0,432.5 C386.5,442.0 415.3,500.1 450.8,541.1 C455.7,546.8 464.6,556.2 470.4,562.0 C476.2,567.7 481.0,572.9 481.0,573.5 C481.1,574.8 489.8,581.6 507.7,594.2 C515.7,599.9 528.4,609.1 535.9,614.8 C563.1,635.2 614.1,672.3 632.0,684.5 C638.3,688.9 649.8,697.0 657.5,702.5 C665.2,708.1 676.5,715.8 682.5,719.7 C688.5,723.7 696.2,728.7 699.5,730.9 C706.9,735.8 706.6,735.7 707.9,731.7 Z M1015.4,701.3 C1015.5,688.5 1015.7,687.1 1018.3,681.6 C1021.5,674.6 1026.9,667.8 1031.0,665.3 C1032.7,664.4 1034.0,663.0 1034.0,662.3 C1034.0,661.6 1030.7,654.3 1026.6,646.2 C1014.9,622.7 1005.7,600.7 1001.4,586.1 C995.5,565.8 988.4,525.2 986.5,501.0 C986.0,495.0 985.3,491.9 984.0,490.5 C983.0,489.4 981.9,487.4 981.5,486.0 C977.5,471.9 962.8,465.0 953.3,472.6 C948.7,476.3 942.4,484.5 938.4,492.0 C928.5,510.3 925.2,527.7 926.5,554.3 C926.9,563.2 927.4,573.6 927.5,577.5 C928.1,592.8 944.8,638.5 959.6,665.4 C967.1,678.8 975.3,691.1 984.7,702.6 C991.2,710.6 992.7,711.9 994.4,711.3 C998.2,709.9 1004.8,710.7 1009.7,713.1 C1012.3,714.5 1014.7,715.5 1014.8,715.4 C1015.0,715.2 1015.3,708.9 1015.4,701.3 Z M1066.5,667.3 C1067.5,660.6 1072.1,649.0 1077.6,639.5 L1082.2,631.5 L1077.1,614.5 C1070.6,592.7 1068.6,584.1 1065.6,564.5 C1058.1,516.0 1056.4,469.0 1060.6,423.7 C1061.7,412.6 1061.9,406.5 1061.2,405.7 C1060.7,405.0 1059.5,401.6 1058.6,398.0 C1054.4,381.7 1045.4,373.9 1034.2,377.0 C1012.0,382.9 993.5,432.1 989.3,496.0 C988.7,505.5 996.1,554.1 1001.6,576.5 C1005.7,593.2 1022.1,632.7 1033.1,652.5 L1037.5,660.4 L1042.0,660.2 C1050.2,659.7 1057.6,663.3 1062.0,669.6 C1064.8,673.8 1065.6,673.3 1066.5,667.3 Z M706.0,666.2 C706.0,650.1 721.8,637.8 735.6,643.0 C737.1,643.6 738.5,643.8 738.8,643.5 C739.6,642.7 734.1,635.0 727.0,627.0 C680.8,575.5 616.1,471.8 583.5,397.0 C574.7,376.9 567.1,361.7 565.3,360.7 C563.8,359.8 542.8,317.4 531.3,292.0 C529.9,289.0 527.4,283.6 525.8,280.0 C524.2,276.4 521.7,270.8 520.3,267.5 C518.9,264.2 517.2,260.1 516.5,258.5 C513.1,251.0 506.5,233.7 503.8,225.0 C497.7,205.6 485.7,185.0 479.5,183.4 C470.8,181.2 464.8,199.6 464.8,228.5 C464.8,246.4 466.3,258.8 472.0,290.5 C474.0,301.4 479.4,324.6 483.0,337.5 C487.3,353.1 500.0,388.4 506.4,402.4 C507.8,405.5 509.0,408.2 509.0,408.5 C509.0,408.7 510.3,411.7 511.9,415.2 C513.5,418.7 515.8,423.8 517.0,426.5 C518.2,429.2 521.3,435.8 523.7,441.0 C530.5,455.2 532.1,459.2 531.9,460.9 C531.4,464.1 535.2,470.3 557.6,503.6 C584.6,543.8 601.0,565.6 625.6,594.0 C634.5,604.3 660.0,629.6 672.0,640.2 C676.1,643.8 685.1,651.7 692.0,657.8 C698.9,663.9 704.8,668.9 705.2,668.9 C705.7,669.0 706.0,667.7 706.0,666.2 Z M1125.1,633.3 C1126.0,629.6 1126.3,617.8 1126.1,582.5 C1125.8,532.0 1126.5,517.3 1131.0,479.0 C1138.5,415.7 1142.0,391.7 1148.5,360.0 C1151.2,346.8 1151.2,344.5 1148.8,322.5 C1146.8,303.0 1141.9,290.6 1135.1,287.5 C1131.4,285.9 1130.9,285.9 1125.8,287.5 C1112.7,291.8 1102.8,302.2 1093.5,321.5 C1084.9,339.3 1081.1,349.3 1075.7,369.0 C1072.1,381.9 1071.9,382.8 1069.4,397.0 C1068.6,401.6 1067.3,406.1 1066.6,407.0 C1064.7,409.1 1064.2,412.1 1062.5,431.5 C1057.6,487.8 1065.3,570.0 1079.6,613.5 C1085.4,631.0 1084.0,629.5 1090.5,625.6 C1097.1,621.6 1101.6,620.6 1106.8,621.9 C1112.2,623.4 1118.5,629.2 1120.5,634.5 C1122.6,639.8 1123.3,639.6 1125.1,633.3 Z M730.8,622.9 C730.0,620.1 729.6,612.5 729.5,602.5 C729.5,584.2 730.7,578.6 736.5,570.0 C738.4,567.1 740.0,564.5 740.0,564.1 C740.0,563.8 737.0,558.3 733.4,552.0 C711.3,513.5 681.3,444.8 661.6,388.1 C656.2,372.5 642.6,327.9 638.0,310.5 C636.3,303.9 633.8,296.9 632.6,295.0 C629.8,290.8 629.6,290.3 622.5,267.5 C608.5,222.8 608.3,222.3 605.0,209.5 C603.8,205.1 602.2,199.0 601.4,196.0 C595.3,173.7 587.7,143.6 583.0,123.0 C578.4,103.0 569.9,80.6 565.3,76.9 C563.0,75.0 557.4,75.3 554.9,77.5 C550.7,81.3 543.2,99.2 540.4,112.4 C536.3,131.6 534.6,172.3 537.0,194.8 C540.7,229.4 543.8,249.2 551.0,282.0 C552.1,287.2 553.5,293.5 554.0,296.0 C556.0,305.8 563.1,332.4 566.1,341.0 C568.1,347.1 571.0,357.9 570.8,358.7 C569.7,362.6 603.9,435.1 624.1,471.7 C638.3,497.3 665.3,540.8 678.9,560.0 C699.1,588.6 730.5,628.8 731.6,627.7 C731.9,627.4 731.6,625.2 730.8,622.9 Z M1132.5,618.8 C1137.1,610.9 1148.5,601.4 1156.8,598.4 C1171.2,593.3 1183.1,602.6 1182.0,618.2 C1181.9,619.8 1182.3,621.0 1182.8,621.0 C1184.0,621.0 1184.7,613.2 1185.5,592.2 C1188.0,528.1 1211.1,409.9 1237.0,328.5 C1245.8,301.1 1248.1,292.1 1246.9,290.1 C1246.1,288.9 1246.4,284.4 1248.0,273.0 C1252.2,244.6 1250.7,220.9 1244.2,213.7 C1242.3,211.5 1236.6,209.0 1233.8,209.0 C1226.0,209.0 1211.2,222.8 1198.6,242.0 C1185.1,262.3 1179.3,275.9 1160.4,331.2 C1158.6,336.6 1156.4,342.0 1155.6,343.2 C1154.3,345.2 1149.0,371.3 1144.6,397.5 C1142.3,410.7 1132.1,492.0 1130.5,510.0 C1127.8,539.0 1127.3,622.0 1129.9,622.0 C1130.3,622.0 1131.4,620.5 1132.5,618.8 Z M1197.4,603.3 C1209.9,589.7 1225.1,585.0 1237.2,591.1 C1239.2,592.1 1241.2,593.5 1241.6,594.2 C1242.1,594.9 1242.9,593.9 1243.8,591.4 C1248.3,579.2 1264.6,531.1 1282.0,479.0 C1292.9,446.3 1304.1,413.0 1306.8,405.0 C1311.7,390.8 1316.4,375.9 1321.4,359.0 C1322.8,354.3 1326.0,343.5 1328.5,335.0 C1332.9,320.2 1333.9,316.8 1339.0,298.5 C1343.1,283.6 1349.4,258.2 1352.0,246.0 C1357.5,220.5 1358.5,212.2 1358.5,193.0 C1358.5,174.7 1357.9,170.9 1353.6,164.2 C1352.4,162.4 1350.4,160.7 1349.1,160.3 C1338.7,157.6 1311.1,182.6 1292.4,211.6 C1277.4,234.8 1269.7,249.6 1259.5,275.0 C1257.4,280.2 1255.3,284.9 1254.8,285.5 C1254.4,286.0 1254.0,287.1 1254.0,287.9 C1254.0,288.7 1253.1,290.3 1252.1,291.4 C1251.0,292.6 1248.8,298.4 1247.0,304.5 C1245.3,310.6 1242.1,321.0 1239.9,327.8 C1213.4,410.0 1186.8,551.6 1187.1,608.5 L1187.1,615.5 L1189.8,612.1 C1191.3,610.2 1194.7,606.3 1197.4,603.3 Z M775.5,550.4 C770.2,534.2 762.5,507.6 758.0,490.5 C756.3,483.9 752.8,470.9 750.4,461.5 C748.0,452.1 745.5,442.5 744.9,440.0 C744.4,437.5 743.5,433.9 743.1,432.0 C740.8,422.6 736.5,402.1 732.0,379.0 C729.3,365.0 726.6,351.5 726.1,349.0 C725.6,346.5 724.6,341.4 724.0,337.5 C723.4,333.6 722.5,328.0 722.0,325.0 C721.0,319.1 718.5,303.4 717.0,293.2 C716.4,289.8 715.6,284.2 715.0,280.8 C712.2,261.9 709.4,240.4 706.9,216.8 C706.4,211.9 705.6,204.1 705.1,199.2 C702.1,172.3 697.5,120.8 695.0,87.5 C694.4,79.8 693.5,69.5 693.0,64.5 C692.5,59.5 691.8,53.2 691.6,50.5 C688.1,17.1 680.3,-0.3 671.0,4.5 C653.2,13.7 636.8,64.4 630.1,131.0 C627.4,157.5 626.7,178.3 627.9,197.5 C629.7,226.3 632.4,251.5 636.1,274.0 C636.5,277.0 637.4,284.7 637.9,291.0 C639.0,303.1 642.3,316.5 654.0,355.0 C674.9,424.1 714.5,517.4 739.6,556.7 L743.0,562.0 L748.1,560.0 C757.2,556.4 770.1,557.7 777.0,563.0 C778.4,564.0 779.6,564.7 779.7,564.6 C779.9,564.5 778.0,558.1 775.5,550.4 Z"/></svg>